<svg id="Layer_1" data-name="Layer 1" xmlns="http://www.w3.org/2000/svg" width="388.3749" height="360.8278" viewBox="0 0 388.3749 360.8278">
  <title>create_something</title>
  <g id="create">
    <path d="M308.9028,300.4537c2.2856-.3671,4.5948-1.1436,6.852-1.0143,4.4,0.2521,8.7592,1.2832,13.1585,1.4868,4.7366,0.2191,9.6817,1.3319,12.3218-5.1695,0.8331-2.0516,5.73-2.4529,9.925-4.05-0.28,4.3734-.4534,7.08-0.6141,9.59l15.2847,2.6731c1.8719-4.7427-3.8725-15.0937,9.64-14.9475L371.1254,325.07c1.8481-3.1233,3.7346-6.0739,5.3809-9.1529,2.1421-4.0064,5.4965-5.1819,9.7954-4.96,3.3636,0.1737,4.8594,1.7771,4.6868,5.022-0.3157,5.9333-.7147,11.8621-1.0352,17.7952-0.2268,4.1992-.3817,8.4022-0.5688,12.6035l2.3993,0.4651c2.4-7.1366,4.8757-14.2491,7.1625-21.4219a82.9182,82.9182,0,0,0,1.9877-8.55c1.5423-7.5168,2.8159-8.4269,11.0229-7.3911-1.8177,12.8891-7.952,25.43-2.9514,40.2933,2.4781-4.4716,5.0624-7.9822,6.4647-11.9143,2.61-7.32,4.3373-14.9506,6.8327-22.3162,1.0511-3.1024,3.0387-5.3754,7.1532-5.7732,2.9174-.2821,5.9839-2.2789,8.3519-4.2641,4.1283-3.461,8.6775-3.0539,13.105-1.9331,4.3442,1.1,5.1234,5.3287,3.7316,12.289a141.7534,141.7534,0,0,0-2.9123,24.4728c1.3777-2.2949,2.8736-4.5279,4.1122-6.8955,4.7573-9.0938,9.189-18.3685,14.2442-27.2912a65.3792,65.3792,0,0,1,8.9886-11.6345c5.9677-6.4956,14.0456-5.033,18.2573,3.2634,5.4836,10.8018,6.2393,22.3462,5.35,33.645,8.4239-7.7342,14.7117-20.6046,15.344-28.89,1-13.1049-7.278-21.007-16.75-28.53,4.59,0,8.2765-.3168,11.8716.1205a13.2213,13.2213,0,0,1,6.0527,2.6891c8.4277,6.4323,11.5015,27.5505,8.2079,37.03-3.6663,10.5529-10.25,18.7789-16.5679,27.3855-1.562,2.128-4.1544,3.6548-6.5342,4.9937-4.3649,2.456-6.1461,6.2254-7.4054,10.9086-5.2452,19.5068-15.8708,35.1162-34.2684,44.4716a27.68,27.68,0,0,1-11.6682,3.1245c-2.69.043-5.61-2.1365-8.0985-3.8113-9.0353-6.0814-9.9029-11.8877-4.229-21.2364,7.0909-11.6836,18.5-17.6433,29.9456-23.7032,5.18-2.7426,10.3682-5.4992,15.3266-8.61,1.3391-.84,2.2045-2.8976,2.6764-4.5688,1.3166-4.6629,2.3131-9.4162,3.3354-13.7115-3.3684,1.275-6.817,3.6985-10.1166,3.51-3.2111-.1831-6.27-3.0411-9.93-5.0125-0.7949,1.6046-1.6831,3.7788-2.8892,5.7595-3.376,5.5441-6.7535,11.0956-10.3738,16.4807-4.0385,6.0072-10.6147,3.4875-12.5254-2.3076a39.41,39.41,0,0,1-1.6977-14.8961c0.462-6.2715,2.2968-12.4388,3.4419-18.669,0.085-.4624-0.6177-1.07-0.97-1.6353-8.2519,10.1014-9.6158,22.6069-12.8566,34.4162a9.9652,9.9652,0,0,1-.8791,2.7675c-1.0155,1.575-2.2558,3.005-3.4033,4.4948-1.5763-1.3424-3.2315-2.6057-4.6934-4.0627a10.0987,10.0987,0,0,1-1.3971-2.5658c-3.401,3.2022-6.2951,7.6975-10.3368,9.3024-5.5586,2.2072-8.03-3.3408-10.67-8.23a73.0514,73.0514,0,0,1-4.7271,6.7673,64.0379,64.0379,0,0,1-5.6059,5.0978c-9.3066-6.4139-8.8595-15.3021-7.776-24.301,0.7-5.81,1.6888-11.5849,2.1421-17.5132a58.1572,58.1572,0,0,0-9.6916,21.8681c-1.4641,6.49-3.2774,12.9-4.8726,19.3617-1.0407,4.2153-3.0094,3.584-5.1219.9394-1.8028-2.2569-3.3225-4.74-5.2728-7.5655-3.7944,4.2217-6.2087,11.7193-14.093,10.8129-7.8372-.9011-9.3194-8.1245-12.5757-14.1282-1.0417,1.4969-2.421,2.7645-2.9167,4.3147-2.1526,6.7316-7.65,9.7179-13.6,11.491-4.4031,1.3121-8.2287-1.3844-11.1349-4.7574-2.3192-2.6917-3.6144-2.7924-6.2581.2132-3.1128,3.5388-6.6481,7.0737-12.373,7.114-4.3546.0306-6.8087-1.9315-8.7359-5.2125-5.53-9.4141-5.7841-19.638-4.4536-30.0855,0.6119-4.8051,1.2-9.6132,1.799-14.42l-1.8025-.61c-2.8618,5.9956-6.5,11.7566-8.4,18.0429-2.7186,8.9942-4.0541,18.3994-6.2468,27.5654-0.4736,1.98-2.08,3.6882-3.1651,5.5216a30.4131,30.4131,0,0,1-4.0472-3.7928c-3.45-4.6251-.6534-9.4131-0.2165-14.1874,0.7062-7.718,1.0739-15.4692,1.4341-23.2134,0.0425-.9138-0.86-1.8716-2.1074-4.39-2.35,5.0079-4.7188,8.5634-5.7188,12.47-2.9815,11.647-5.3524,23.4489-8.1447,35.1468-0.5245,2.1973-1.893,4.1932-2.9241,6.3931-9.26-6.1441-9.99-9.5588-7.8287-21.0783,1.7253-9.1955,2.18-18.6293,3.2656-28.5717-4.4164,3.3952-8.7738,5.3973-10.9777,8.796-2.4987,3.8532-3.2114,8.9194-4.4328,13.5292-1.04,3.924-1.1267,8.198-2.7154,11.8469-1.1893,2.7318-4.5281,6.92-6.1551,6.6019-4.1943-.82-9.0607-2.9087-11.627-6.1161-2.9792-3.7234-3.9842-9.1183-5.5046-13.8964-2.5751-8.0928,2.2235-15.1351,3.5809-22.6737,0.1379-.7657.24-1.5379,0.6232-4.017-4.3679,3.3424-7.4232,6.1185-10.8834,8.2318-6.12,3.7377-6.5678,7.5837-3.7064,14.413,4.4568,10.6369.144,25.0747-9.94,32.3783-8.7518,6.3388-14.0737,1.7574-17.58-6.0923a16.2567,16.2567,0,0,1,.7944-15.1761c3.2944-5.6077,6.803-11.1108,10.5669-16.412,1.7269-2.4322,2.1074-3.5829-.82-5.3479a63.5881,63.5881,0,0,1-11.8518-8.6743c-5.529-5.4288-8.8457-11.8529-6.9662-20.2031,1.9618-8.7154,2.9873-17.6415,11.0893-23.4983,2.6483-1.9143,4.8016-3.0388,7.9193-1.0815,3.4491,2.1653,7.2484,3.7747,10.6854,5.9566,2.8125,1.7854,4.53,4.1562,2.8471,7.9274-1.6856,3.7771-4.3065,3.7656-7.5609,2.72-6.0429-1.9418-11.8015,3.53-12.9237,11.3368-1.3614,9.4708,5.124,13.3406,11.33,17.8427,3.8418,2.7868,6.7763,2.9159,10.59-.2719a216.8371,216.8371,0,0,1,19.3011-14.2714c1.9333-1.2814,5.521-2.0547,7.3674-1.12,6.4675,3.2748,13.5934,6.4146,13.786,15.6431l1.3316,0.3835c3.0569-4.6624,6.9924-8.9919,8.9216-14.0817,1.8964-5.0031,4.5306-6.7743,9.4455-6.4333,2.4705,0.1714,4.9627.03,8.1294,0.03l-1.6556,8.7053a111.475,111.475,0,0,1,10.9515-3.5919c4.9846-1.1268,6.6805.3732,7.5872,5.6411,0.282,1.6383.7245,3.249,0.9786,4.3666,3.7561-3.9653,6.8707-8.5614,11.14-11.45,6.2007-4.1955,11.142-1.137,10.7692,6.3275-0.2838,5.6822-1.8165,11.2913-2.3362,16.9747-0.8344,9.1244-2.29,18.4235,3.48,26.6892,7.65-1.7308,14.017-10.4235,11.4685-18.0006-3.33-9.9009-.5814-19.3313,4.6491-28.0667,2.2649-3.7825,7.03-5.592,10.6743-4.25,4.1874,1.5423,7.9742,7.9886,7.099,12.465-1.919,9.8154-4.7249,19.2871-10.6273,27.6114-2.1961,3.0973-.7855,6.0955,3.5844,8.5446,3.2363,1.8138,5.4389.71,7.2188-2.3246,7.9727-13.594,12.9061-28.3743,17.3373-43.3878,1.0065-3.41-.1816-3.9638-3.1447-4.3162-6.6244-.7878-13.2215-1.8437-19.7961-2.9844-1.62-.2811-3.1114-1.3051-4.6619-1.9875Q308.8693,301.71,308.9028,300.4537ZM346.69,357.4609c11.7459-14.51,13.7346-32.2329,18.5407-48.4609-4.1572,0-7.4588.3881-10.63-.0887-5.071-.7624-7.2844,1.6279-8.1506,6.1325-1.8119,9.4218-3.9243,18.7992-5.3213,28.282C340.3917,348.3248,340.4466,353.6664,346.69,357.4609Zm135.3021,3.3-1.15-1.5265c-8.136,4.9445-16.3552,9.76-24.3639,14.9024a32.831,32.831,0,0,0-7.7236,6.8251c-2.3854,2.9527-2.9007,6.561-.3579,9.942,2.6156,3.4779,5.3832,1.9591,8.19.2033,0.9584-.5995,2.1247-0.859,3.11-1.4237C471.17,383.11,478.2828,373.22,481.9917,360.7606ZM168.7142,344.0548l-2.2784-.1c-4.9628,6.3772-10.07,12.7239-9.36,21.6076,0.1029,1.2868.9055,3.0772,1.9036,3.5592,0.8258,0.3987,3.0886-.4389,3.5579-1.3348,2.3627-4.51,4.8432-9.0721,6.28-13.9132C169.7073,350.8752,168.81,347.3459,168.7142,344.0548Zm28.5355-6.646c-3.13,4.6246-3.1051,16.7968.396,20.4307,0.6067,0.63,3.4877.1823,4.2337-.6924,1.1794-1.3828,1.4831-3.5342,2.0852-5.3838C207.3142,341.4732,207.3067,341.4708,197.25,337.4088Zm282.0245-12.9031c6.2857-6.07,5.3509-14.26,6.6838-22.1627C478.6544,305.72,475.281,317.8531,479.2742,324.5058Zm-275.6524-1.06c-1.588,2.98-6.151,3.8-2.9252,7.6977,2.2477,2.7161,4.67,2.5087,7.5994.1782Zm104.7463,1.4081c-5.4389,1.8727-6.8065,7.2512-3.418,12.549Z" transform="translate(-140.8309 -132.3938)" fill="none" stroke="#000" stroke-miterlimit="10"/>
    <path d="M249.3581,177.0592c4.2891-.6075,9.3847-1.3926,14.5021-1.99a4.6857,4.6857,0,0,1,2.6159,1.0145c4.5844,2.9261,8.9334,6.2922,13.74,8.78a14.054,14.054,0,0,1,7.8989,11.5419c1.1393,12.393-3.5426,23.5326-6.8964,34.9313-3.5485,12.0605-6.4646,24.1751-5.1157,36.8169a56.4223,56.4223,0,0,0,3.3946,13.6419c1.6295,4.3466,3.2975,4.3474,5.7863.5025,2.8362-4.3814,5.47-8.8935,8.2495-13.3123,1.9094-3.0352,1.8663-5.8276.8945-9.4578-4.721-17.6354.2514-33.2872,11.076-47.4039,1.9471-2.5394,10.1718-4.0136,13.4586-2.6326,5.5719,2.3412,7.0544,7.4059,6.8443,12.5309a37.8928,37.8928,0,0,1-3.2379,12.6836c-4.3382,10.3809-9.062,20.6035-13.7676,30.8267-2.45,5.3224-1.1256,8.911,4.6244,11.5482,2.9355,1.3463,7.9147-1.4844,9.3356-5.6223,2.5371-7.3886,5.0576-14.7937,7.2281-22.2951,3.4545-11.9386,11.4974-21.0811,18.3224-30.9819a44,44,0,0,0,3.6867-5.7614c1.7419-3.637,4.4176-5.0146,8.3582-4.4445,3.6385,0.5264,7.114,1.317,10.8683-.7451,2.5939-1.4247,4.53,1.3533,3.67,4.9865-1.3846,5.849-3.4156,11.6108-4.1422,17.536-1.5371,12.5362-2.4083,25.154-3.5526,37.7384l1.5279,0.59c0.9367-.7278,2.2889-1.2587,2.7423-2.2155,2.8612-6.0375,5.9279-12.0292,8.11-18.3194,1.4763-4.2561,1.3873-9.0278,2.3972-13.4785,2.34-10.3146,4.8862-20.5833,7.4221-30.8524,1.2668-5.13.3051-6.09-4.8028-6.1262-6.6832-.0478-13.3587-0.7966-20.0448-0.9969-3.2773-.0981-6.5686.4442-9.8582,0.55-6.0055.1936-12.014,0.34-18.0222,0.3917-6.4982.0564-13.0066-.24-19.4938,0.0257-7.1726.2932-12.735-2.964-19.37-7.7328,6.1953-1.2726,11.1558-2.9121,16.1942-3.2034,12.2455-.708,24.5341-0.6363,36.7913-1.19,5.8863-.2659,11.7321-1.6617,17.6117-1.78a182.4568,182.4568,0,0,1,21.2883.9465c4.2867,0.4171,5.3706-1.971,6.2527-5.17,3.6214-13.1313,7.1741-26.2827,10.94-39.3725,1.6413-5.7041,5.2947-7.6265,10.806-6.2251,0.6267,0.1594,1.21.4971,1.8381,0.6429,7.6406,1.7719,7.1976,1.592,4.461,8.5583-4.0329,10.266-7.4184,20.79-10.9467,31.2483-1.0288,3.0495-1.6049,6.2517-2.54,9.988l47.395,1.5865-4.4132,7.7692-1.2543-.6214,0.9676,5.4972c-11.3286,0-22.1318-.0842-32.9324.0474a45.6652,45.6652,0,0,0-10.7427,1.1614c-1.4229.3658-3.094,2.5653-3.3651,4.1509-1.5969,9.3366-3.1208,18.7074-4.0648,28.1272-0.7918,7.9017-.8028,15.8847-1.0744,23.8346-0.1972,5.7707,6.1366,11.6378,13.1072,11.4889-0.2585-3.05-.4995-6.0736-0.7735-9.0942-1.19-13.1134,1.1737-25.2814,10.5891-35.0489,7.3766-7.6523,16.7937-5.7144,21.1786.17,3.4463,4.6249,3.7193,10.1859,1.6315,15.7636A83.27,83.27,0,0,1,430.24,265.0231c-3.2413,3.6055-2.1253,5.9451.6345,8.22,4.3327,3.5718,15.6732,5.9641,20.8452,1.6684,0.82-.6815,2.4117-0.435,3.9993-0.67-1.9775,7.4876-11.1168,12.0356-19.2276,9.3256-5.423-1.812-10.2563-5.35-15.4379-7.9483-1.4614-.7327-3.3508-1.493-4.821-1.1832-9.4171,1.9844-17.1823-.0352-22.74-8.3867a38.4683,38.4683,0,0,0-2.8717-3.5428c-4.528,4.6783-8.2036,9.3809-12.7626,12.9573-5.7089,4.4784-11.3822,3.515-16.5227-1.6367-2.5472-2.5529-4.4915-5.8041-8.6921-1.3474-2.428,2.5761-8.112-.203-10.6167-4.4019-1.5014-2.5171-2.9565-5.0618-4.3713-7.4893-3.2884,5.6584-6.1026,11.619-9.9576,16.8063-3.5485,4.7749-8.3729,9.1155-15.0216,7.4186-3.7352-.9533-6.9952-3.7685-9.7944-5.3609-3.0369,3.7-5.8043,8.67-9.9589,11.7965-8.35,6.2835-17.7386,3.7934-25.23-3.4925-7.7785-7.5654-7.9758-17.3915-9.426-26.525-2.7919-17.5847.9788-34.7613,6.3953-51.5566,1.4967-4.6411,2.7376-9.3658,4.0489-14.0653,0.8707-3.1205.1926-5.5466-3.1737-6.7226-1.825-.6376-3.6117-1.3847-6.4364-2.4771-3.094,8.81-6.3569,17.2369-9.0159,25.8505-5.5146,17.8641-10.4369,35.9152-16.2007,53.6956-1.7145,5.2889-4.9465,10.2892-8.33,14.7848-4.7173,6.2687-11.6925,6.6241-18.6265,4.6481-16.7507-4.7736-24.7081-17.2741-27.8312-33.3576-1.9272-9.9251-2.1275-19.8089.6142-29.933,2.7066-9.9944,10.4963-15.3006,16.9306-21.9791,2.2783-2.3648,4.8509-4.4524,7.3443-6.6025,9.9652-8.5934,17.23-6.9877,25.6964,1.011,2.9748,2.81-.0209,9.1892-5.3052,10.1388-5.9463,1.0686-10.9214,3.8258-13.8139,8.54-5.7149,9.3143-14.4521,17.3825-15.3414,28.9543-0.8856,11.5228,2.1015,22.8666,9.1489,31.8548,4.8192,6.1463,11.56,7.545,14.8321-1.6152q4.6656-13.06,9.1515-26.1831c6.5731-19.2187,13.1895-38.4238,19.5412-57.7158C248.974,185.2272,248.8226,181.5478,249.3581,177.0592Zm109.5354,46.7469-1.5683-.7714c-3.7735,7.8283-7.8368,15.534-11.2185,23.528a18.3545,18.3545,0,0,0,.9167,16.1679c0.8829,1.6468,2.6582,2.8151,4.0251,4.2023,1.6462-1.9335,3.35-3.8233,4.8922-5.8362,0.3234-.4219.0265-1.2991,0.0636-1.9638,0.3224-5.7669.5432-11.5424,1.017-17.2971C357.517,235.8153,358.2591,229.8152,358.8935,223.8061Zm-57.3327,32.0048c3.639-7.6057,7.0958-14.608,10.3144-21.7182a13.5165,13.5165,0,0,0,1.05-5.7023c-0.07-3.2423-1.28-4.6457-4.94-2.9979-4.3974,1.98-5.1859,5.9306-6.5757,9.72C298.9321,241.8668,297.3334,248.5981,301.5608,255.8109Zm122.64,1.2191c7.46-6.2822,9.1779-14.3273,10.4448-22.6026C427.71,234.0534,423.5251,242.7741,424.2008,257.03Z" transform="translate(-140.8309 -132.3938)" fill="none" stroke="#000" stroke-miterlimit="10"/>
    <path d="M323.4381,371.0181c-1.2238,6.8219-2.4382,13.0165-3.43,19.2466-1.7459,10.9666-3.7775,21.9129-4.8773,32.9486a149.3112,149.3112,0,0,0,.0044,23.0251c0.1443,2.5867,2.071,5.0741,3.9073,9.2559,3.3211-6.4438,6.5966-11.5661,8.709-17.13,6.1861-16.2938,15.1711-31.0594,24.1438-45.8513,0.5179-.8538,1.6674-1.9474,2.4637-1.9015,3.3972,0.1959,6.7629,1.0414,10.1573,1.16,5.6482,0.198,4.5775,3.6039,4.0459,7.2406q-2.446,16.7345-4.49,33.526c-0.1975,1.6146.5709,3.3474,0.8923,5.0255l1.3811,0.3639a96.4436,96.4436,0,0,0,4.16-9.0062c2.6209-7.5325,5.1633-15.1051,7.3348-22.7755a57.4729,57.4729,0,0,0,1.5529-11.1324c0.5523-7.0509.4615-7.0567,7.2268-7.0147,1.308,0.0081,2.6161.0012,4.5951,0.0012-1.7669,13.7493-8.4638,26.7524-3.3518,41.29,6.0627-7.91,8.785-16.2235,10.1777-25.1394,0.7528-4.8188,1.7968-9.6053,2.9824-14.338,0.6574-2.6243,6.5538-4.0259,10.7664-2.7482,3.201,0.9708,1.3731,3.0915,1.3858,5.1123,0.0781,12.4323.4115,24.8688,1.0944,37.28,0.0518,0.9408,3.4726,2.424,5.32,2.4136,8.433-.0475,16.8971-1.1237,25.2821-0.6439,4.7988,0.2746,9.5294,2.6633,14.1444,4.4731,0.9514,0.3731,1.2544,2.4,1.8563,3.6646-1.27.5449-2.529,1.5317-3.81,1.5609-6.8619.1567-13.7711-.3956-20.5829,0.2094-6.6062.5868-13.1426,2.1468-19.6505,3.5533-2.3461.507-2.8206,1.8818-2.2353,4.7844,2.6332,13.06-4.9558,36.102-14.6021,41.2371-6.3883,3.4007-12.7519,2.6027-16.8361-3.2473-7.2805-10.4283-7.3613-21.4539.8863-32.7635,4.3985-6.0316,9.879-11.3734,15.39-16.4654,5.0534-4.6695,5.892-7.5761,2.2222-14.9962-3.1394,4.6354-2.9677,11.8716-9.44,13.5034-6.9644,1.7559-10.0843-3.75-13.0427-8.973-2.8291,4.43-5.2008,8.6719-8.0839,12.5319-4.0973,5.4855-5.8864,5.6479-11.7272,2.083-6.83,12.7735-16.0038,13.1884-22.8668,1.3282-2.5611,4.267-5.06,8.6635-7.7843,12.9152-4.2558,6.6413-9.7622,7.2-15.7745,1.8478-2.4256-2.1595-4.9941-4.1586-7.4062-6.155a12.385,12.385,0,0,0-.61,1.0874c-4.8638,9.28-14.6227,9.7529-20.176.7024-3.262-5.3162-6.2309-10.9568-4.9063-18.623-5.3626,3.8914-10.1652,6.9594-10.9636,13.805a15.8555,15.8555,0,0,1-3.253,7.4521c-6.9889,8.9889-16.0752,3.5214-22.5587-3.5585-1.5809-1.7263-2.9589-3.6384-5.11-6.3088-2.4011,7.1-4.6879,13.0865-6.4255,19.2281-1.6057,5.6755-4.5215,10.3558-10.5772,10.6367-5.749.2667-10.4264-3.0137-13.994-7.7665-5.4061-7.2022-6.0969-15.6911-6.9181-24.1266-1.0191-10.4692-1.7735-20.9641-2.7036-32.1892-6.0518.9266-12.142,1.869-18.2357,2.7881-3.5544.5361-7.1173,1.4022-10.67,1.3735-1.4659-.0118-2.916-1.981-4.3732-3.06,1.0893-.9489,2.0284-2.3649,3.2921-2.7713,8.6659-2.7867,17.3608-5.5023,26.13-7.9391,3.7337-1.0375,6.1538-2.2357,5.6325-6.8818-0.5-4.4547-.1079-9.01-0.1079-13.4589,9.6085-2.1833,10.5177-2.0515,17.9447,2.6975l-4.1067,12.8376c13.0538-3.2982,25.3618-6.822,37.8581-9.4506,12.9169-2.7171,25.97-4.9388,39.0627-6.5846,4.4371-.5577,9.1779,1.3,13.8776,2.0707-0.4675,4.8588-3.6554,5.9618-6.7737,6.6143q-15.3142,3.2044-30.7188,5.9713c-6.7476,1.2158-13.592,1.9074-20.3215,3.2053-3.6224.6986-7.0618,2.2969-10.6413,3.2793-4.8211,1.3231-9.64,3.005-14.5648,3.5144-6.7083.6939-7.6143,1.1552-7.6157,7.8758-0.002,9.8333-.4011,19.6888.1442,29.4918,0.3474,6.245,2.0971,12.4119,3.218,18.6139l1.7523,0.14c3.2826-7.3776,6.8811-14.6338,9.7728-22.1614q6.2994-16.3985,11.6835-33.1414a8.8057,8.8057,0,0,1,7.6518-6.5345c4.86-.7354,10.3463-2.1486,14.6028-0.6108,3.7354,1.35,7.7974,5.9509,8.7769,9.8535,1.7074,6.8022,1.1548,14.1717,1.595,22.1254,5.2188-5.3471,10.876-10.3132,15.4526-16.13,2.9619-3.7643,5.72-6.1628,10.5823-5.3879,3.9245,0.6255,5.2943-.9905,5.9162-5.014,1.5919-10.2984,3.7148-20.5277,6.0614-30.6838,0.39-1.6873,2.7686-3.5721,4.5968-4.1078C317.2219,370.4846,320,371.0181,323.4381,371.0181Zm-21.5119,49.2913c-7.4816,3.69-10.8329,9.6466-12.5215,16.1764-1.733,6.7014-.3483,13.2354,5.5648,18.798C301.5165,444.5813,302.2245,433.1752,301.9261,420.3094Zm103.3194,32.2618-1.3916-.9673c-3.3784,3.6939-7.4291,6.9882-9.9332,11.2017-2.2041,3.7086-3.2418,8.3907-3.6638,12.7523-0.1922,1.9862,2.3421,4.2363,3.64,6.3667a37.4878,37.4878,0,0,0,5.0471-4.0925,9.9751,9.9751,0,0,0,2.0086-4.3879C402.476,466.5068,403.83,459.5323,405.2455,452.5711Zm-48.3817-45.6564-1.7617-.3208a74.8569,74.8569,0,0,0-11.814,31.484c-0.2787,2.0826,2.3713,4.5571,3.6694,6.8506,1.27-1.47,3.342-2.7762,3.6816-4.4366C352.92,429.3416,354.8321,418.116,356.8638,406.9147Zm-99.0968,1.0264c-4.6382,3.5309-4.6416,9.0531-4.457,13.7391a11.5022,11.5022,0,0,0,8.4455,10.8829C264.4809,423.3091,262.6881,411.8823,257.767,407.9412Zm-6.48,26.0461c-0.7361,9.205,1.1869,14.812,5.7683,17.343C260.521,439.65,262.4079,440.462,251.2866,433.9872Z" transform="translate(-140.8309 -132.3938)" fill="none" stroke="#000" stroke-miterlimit="10"/>
    <path d="M403.1652,292.7642c2.48-1.8492,4.4745-3.7521,4.7887-3.5064,2.8393,2.2209,5.3844,4.8181,8.0157,7.305-1.6364,1.4743-4.41,4.4344-4.73,4.189C408.5608,298.7026,406.3335,296.0635,403.1652,292.7642Z" transform="translate(-140.8309 -132.3938)" fill="none" stroke="#000" stroke-miterlimit="10"/>
  </g>
</svg>
