<svg id="create" xmlns="http://www.w3.org/2000/svg" width="1192.3984" height="1104.998" viewBox="0 0 1192.3984 1104.998">
  <title>abc</title>
  <g id="create">
  <path d="M91.01,209.5732H61.61c-5,0-7.2-2.2-7.2-7.2V149.5742c0-8,2.4-18,7.8-32l17.4-45.3994c1.6-4.6,4.8-6.6,10.2-6.6h53.7993c5.2,0,8.4,2,10,6.6l17.3994,45.3994c5.4,14,7.8,24,7.8,32v52.7993c0,5-2.2,7.2-7.2,7.2h-30.2c-5.4,0-7.8-2.2-7.8-7.2v-28H98.2095v28C98.2095,207.373,96.01,209.5732,91.01,209.5732Zm9.2-71.5991h31.3994l-9.4-30.3994c-1-2.4-2.2-3.4-3.8-3.4h-5c-1.6,0-2.8,1-3.8,3.4Z" transform="translate(-53.71 -65.0752)" fill="none" stroke="#231f20"/>
  <path d="M278.6089,209.9731c-5,0-7.2-2.2-7.2-7.2V73.1753c0-5,2.2-7.2,7.2-7.2h63.7993c26.2,0,38.3994,9.6,38.3994,30.6v9.6c0,11.2-3.8,18.2-11.8,21.6,17.2,1.6,25.2,11.4,25.2,31v18.4c0,22.3994-12.2,32.7993-38.8,32.7993H278.6089Zm37.8-88.3984h17c5.2,0,7.6-2.6,7.6-8v-5.6c0-5.4-2.4-8-7.6-8h-17v21.6Zm0,54.3989h26c5.2,0,7.6-2.6,7.6-8v-7.8c0-5.4-2.4-7.8-7.6-7.8h-26v23.6Z" transform="translate(-53.71 -65.0752)" fill="none" stroke="#231f20"/>
  <path d="M540.4043,209.5732c-33.5991,0-49.1992-13-49.1992-40.7993V106.5747c0-28,15.6-41,49.1992-41h48.7993c5,0,7.2,2.2,7.2,7.2v24.2c0,5-2.2,7.2-7.2,7.2H549.0044c-8.4,0-12.2,3.2-12.2,10v47.5991c0,6.6,3.8,9.6,12.2,9.6h40.1992c5,0,7.2,2.2,7.2,7.2v23.8c0,5-2.2,7.2-7.2,7.2H540.4043Z" transform="translate(-53.71 -65.0752)" fill="none" stroke="#231f20"/>
  <path d="M700.2012,209.5732c-5,0-7.2-2.2-7.2-7.2V72.7754c0-5,2.2-7.2,7.2-7.2H767.6c33.6,0,49.1992,13,49.1992,40.8v62.3989c0,27.7993-15.6,40.7993-49.1992,40.7993H700.2012ZM738.4,171.7739h23.8c6.3994,0,9.3994-3,9.3994-9.8v-48.6c0-6.6-3-9.6-9.3994-9.6H738.4v67.999Z" transform="translate(-53.71 -65.0752)" fill="none" stroke="#231f20"/>
  <path d="M920.3975,209.5732c-5,0-7.2-2.2-7.2-7.2V72.7754c0-5,2.2-7.2,7.2-7.2h92.7979c5,0,7.2,2.2,7.2,7.2V96.1748c0,5-2.2,7.2-7.2,7.2H957.9961v15.3994h39c5,0,7.2,2.2,7.2,7.2V147.374c0,5-2.2,7.2-7.2,7.2h-39v17.2h55.1992c5,0,7.2,2.2,7.2,7.2v23.4c0,5-2.2,7.2-7.2,7.2H920.3975Z" transform="translate(-53.71 -65.0752)" fill="none" stroke="#231f20"/>
  <path d="M1126.1934,209.5732c-5,0-7.2-2.2-7.2-7.2V72.7754c0-5,2.2-7.2,7.2-7.2h89.1982c5,0,7.2,2.2,7.2,7.2v23.8c0,5-2.2,7.2-7.2,7.2h-50.999v20.8h34.8c4.999,0,7.1992,2.2,7.1992,7.2v24c0,5-2.2,7.2-7.1992,7.2h-34.8v39.3994c0,5-2.2,7.2-7.2,7.2h-30.999Z" transform="translate(-53.71 -65.0752)" fill="none" stroke="#231f20"/>
  <path d="M103.4092,449.5732c-33.5991,0-49.1992-13-49.1992-40.7993V346.375c0-27.8,15.6-40.8,49.1992-40.8h50c5,0,7.2,2.2,7.2,7.2v24.2c0,5-2.2,7.2-7.2,7.2h-41.6c-8.4,0-12.2,3.2-12.2,10v47.7993c0,6.8,3,9.8,9.2,9.8H128.209v-31.2c0-5,2.2-7.2,7.2-7.2h31c5,0,7.2,2.2,7.2,7.2v61.7993c0,5-2.2,7.2-7.2,7.2h-63Z" transform="translate(-53.71 -65.0752)" fill="none" stroke="#231f20"/>
  <path d="M278.2065,449.5732c-5,0-7.2-2.2-7.2-7.2V312.7754c0-5,2.2-7.2,7.2-7.2h31c5,0,7.2,2.2,7.2,7.2v43.3994h33.3994V312.7754c0-5,2.2-7.2,7.2-7.2h31c5,0,7.2,2.2,7.2,7.2V442.3735c0,5-2.2,7.2-7.2,7.2h-31c-5,0-7.2-2.2-7.2-7.2V397.9741H316.4063v44.3994c0,5-2.2,7.2-7.2,7.2h-31Z" transform="translate(-53.71 -65.0752)" fill="none" stroke="#231f20"/>
  <path d="M492.6021,442.3735v-23.8c0-5,2.2-7.2,7.2-7.2h19.8V344.1748h-19.8c-5,0-7.2-2.2-7.2-7.2v-24.2c0-5,2.2-7.2,7.2-7.2H585.001c5,0,7.2,2.2,7.2,7.2v24.2c0,5-2.2,7.2-7.2,7.2h-19.4V411.374h19.4c5,0,7.2,2.2,7.2,7.2v23.8c0,5-2.2,7.2-7.2,7.2H499.8022C494.8022,449.5732,492.6021,447.373,492.6021,442.3735Z" transform="translate(-53.71 -65.0752)" fill="none" stroke="#231f20"/>
  <path d="M752.1992,452.5732c-46.6,0-57.999-16.4-57.999-40.7993V379.3745c0-5.2,2.1992-7.2,7.1992-7.2h29c5,0,7.2,2,7.2,7.2v24.3994c0,5.4,1.8,9.4,14.1992,9.4,11.6,0,13.2-4,13.2-9.4V312.7754c0-5,2.2-7.2,7.1992-7.2h31.4c4.999,0,7.1992,2.2,7.1992,7.2v98.9985C810.7979,436.1733,799.1982,452.5732,752.1992,452.5732Z" transform="translate(-53.71 -65.0752)" fill="none" stroke="#231f20"/>
  <path d="M920.5967,449.5732c-5,0-7.2-2.2-7.2-7.2V312.7754c0-5,2.2-7.2,7.2-7.2h30.999c5,0,7.2,2.2,7.2,7.2v45.999h8l20.6-46.5991c2-4.8,4.8-6.6,10-6.6h30.7988c4.6006,0,6.2,2.4,4.4,6.6l-20.3994,46.5991c14.999,0.8,24.6,11.2,24.6,27.2v56.3994c0,5-2.2,7.2-7.2,7.2h-30.8c-5,0-7.1992-2.2-7.1992-7.2v-39c0-4.4-2.2-6.8-6.4-6.8H958.7959v45.7993c0,5-2.2,7.2-7.2,7.2h-30.999Z" transform="translate(-53.71 -65.0752)" fill="none" stroke="#231f20"/>
  <path d="M1176.9922,452.5732c-46.6,0-57.999-16.4-57.999-40.7993V379.3745c0-5.2,2.1992-7.2,7.1992-7.2h29c5,0,7.2,2,7.2,7.2v24.3994c0,5.4,1.8,9.4,14.1992,9.4,11.6,0,13.2-4,13.2-9.4V312.7754c0-5,2.2-7.2,7.1992-7.2h31.4c4.999,0,7.1992,2.2,7.1992,7.2v98.9985C1235.5908,436.1733,1223.9912,452.5732,1176.9922,452.5732Z" transform="translate(-53.71 -65.0752)" fill="none" stroke="#231f20"/>
  <path d="M62.61,689.5732c-5,0-7.2-2.2-7.2-7.2V552.7754c0-5,2.2-7.2,7.2-7.2h32.2c4.2,0,6.8,1.6,9.2,6l18,32.6c1.4,2.4,2,3.4,3.6,3.4h1.8c1.6,0,2.2-1,3.6-3.4l17.8-32.6c2.4-4.4,5-6,9.2-6h32.3994c5,0,7.2,2.2,7.2,7.2V682.373c0,5-2.2,7.2-7.2,7.2h-30.8c-5.2,0-7.2-2.2-7.2-7.2V611.9746l-11.8,21.7993c-2.4,4.6-5.4,6.4-10.6,6.4h-8c-5.2,0-8.2-1.8-10.6-6.4l-11.8-21.7993V682.373c0,5-2.2,7.2-7.2,7.2H62.61Z" transform="translate(-53.71 -65.0752)" fill="none" stroke="#231f20"/>
  <path d="M278.4077,689.5732c-5,0-7.2-2.2-7.2-7.2V552.7754c0-5,2.2-7.2,7.2-7.2h20.8c5.2,0,8.4,1.4,11.8,5.4l38.7993,44.3989V552.7754c0-5,2.2-7.2,7.2-7.2h30c5,0,7.2,2.2,7.2,7.2V682.373c0,5-2.2,7.2-7.2,7.2h-30c-5,0-7.2-2.2-7.2-7.2V657.7739l-34.1992-41.3994V682.373c0,5-2.2,7.2-7.2,7.2h-30Z" transform="translate(-53.71 -65.0752)" fill="none" stroke="#231f20"/>
  <path d="M553.8032,692.5732c-49.999,0-62.1992-16.3994-62.1992-40.7993V583.5747c0-24.3994,12.2-40.999,62.1992-40.999s61.999,16.6,61.999,40.999v68.1992C615.8022,676.1738,603.8027,692.5732,553.8032,692.5732Zm0-38.6c14.6,0,16.8-4,16.8-9.4V590.7749c0-5.2-2.2-9.2-16.8-9.2-14.4,0-16.8,4-16.8,9.2v53.7988C537.0034,649.9736,539.4033,653.9736,553.8032,653.9736Z" transform="translate(-53.71 -65.0752)" fill="none" stroke="#231f20"/>
  <path d="M700.4023,689.5732c-5,0-7.2-2.2-7.2-7.2V552.7754c0-5,2.2-7.2,7.2-7.2h61.1992c36.3994,0,47.1992,15.8,47.1992,39v25.6c0,23.2-10.8,39-47.1992,39h-23V682.373c0,5-2.2,7.2-7.2,7.2h-30.999Zm37.7988-76.3989h18c7.8,0,9.3994-4.6,9.3994-9.8v-10.6c0-5.2-1.6-9.8-9.3994-9.8h-18v30.1992Z" transform="translate(-53.71 -65.0752)" fill="none" stroke="#231f20"/>
  <path d="M959.999,707.5732c-5,0-7.2-2.2-7.2-7.2v-11c-30.999-4.6-39.3994-19.2-39.3994-39.3994V583.5747c0-24.3994,12.2-40.999,62.1992-40.999s61.999,16.6,61.999,40.999v66.3989c0,20.2-8.2,35-39.6,39.3994v11c0,5-2.1992,7.2-7.1992,7.2h-30.8Zm15.6-52.6c14.6,0,16.8-4,16.8-9.4V590.9746c0-5.2-2.2-9.2-16.8-9.2-14.3994,0-16.8,4-16.8,9.2v54.5991C958.7988,650.9736,961.1992,654.9736,975.5986,654.9736Z" transform="translate(-53.71 -65.0752)" fill="none" stroke="#231f20"/>
  <path d="M1126.61,689.5732c-5,0-7.2-2.2-7.2-7.2V552.7754c0-5,2.2-7.2,7.2-7.2h66.5991c30,0,39.3994,13.6,39.3994,33.3994v9.2c0,11.2-2.8,19.1992-11.2,22.8,14.6,1.6,24.2,12.1992,24.2,28.999V682.373c0,5-2.2,7.2-7.2,7.2h-31c-5,0-7.2-2.2-7.2-7.2v-30.6c0-6-2-8.6-7.6-8.6h-28V682.373c0,5-2.2,7.2-7.2,7.2h-30.8Zm38-82.3984h15c7,0,8.8-4,8.8-9.4v-6.8c0-5.3994-1.8-9.3994-8.8-9.3994h-15v25.6Z" transform="translate(-53.71 -65.0752)" fill="none" stroke="#231f20"/>
  <path d="M62.6074,929.5732c-5,0-7.2-2.2-7.2-7.2V898.9736c0-5,2.2-7.2,7.2-7.2h53.7988c3.4,0,5.2-2.6,5.2-5.8,0-4.6-1.8-6.3994-5.2-6.8l-30-4.2c-18.7993-2.8-31-10.8-31-33.1992v-20.999c0-22.8,15.4-35.2,41.3994-35.2h55.999c5,0,7.2,2.2,7.2,7.2v23.8c0,5-2.2,7.1992-7.2,7.1992H106.2065c-3.4,0-5.4,2.4-5.4,6s2,6,5.4,6.4l29.8,4c18.7993,2.8,31.1992,10.8,31.1992,33.1992v21c0,22.8-15.6,35.1992-41.3994,35.1992H62.6074Z" transform="translate(-53.71 -65.0752)" fill="none" stroke="#231f20"/>
  <path d="M315.6045,929.5732c-5,0-7.2-2.2-7.2-7.2V824.1748H279.0049c-5,0-7.2-2.2-7.2-7.2V792.7754c0-5,2.2-7.2,7.2-7.2H384.6035c5,0,7.2,2.2,7.2,7.2v24.1992c0,5-2.2,7.2-7.2,7.2h-29.4V922.373c0,5-2.2,7.2-7.2,7.2H315.6045Z" transform="translate(-53.71 -65.0752)" fill="none" stroke="#231f20"/>
  <path d="M554.001,932.5732c-49.5986,0-61.7988-16.3994-61.7988-40.8v-98.998c0-5,2.2-7.2,7.2-7.2h31.3994c5,0,7.1992,2.2,7.1992,7.2v91.1982c0,5.4,2.4,9.4,16.4,9.4,14.1992,0,16.6-4,16.6-9.4V792.7754c0-5,2-7.2,7.2-7.2h30.3994c5,0,7.1992,2.2,7.1992,7.2v98.998C615.8,916.1738,603.6006,932.5732,554.001,932.5732Z" transform="translate(-53.71 -65.0752)" fill="none" stroke="#231f20"/>
  <path d="M730.5986,929.5732c-5.1992,0-8.1992-1.6-10.1992-6.6l-19.6-49c-4.8008-11.999-6.4-15.7988-6.4-28.3994V792.7754c0-5,2.2-7.2,7.2-7.2h31.7988c5,0,7.8008,2.2,7.8008,7.2v55.1992a24.8166,24.8166,0,0,0,1.6,8.2l9.3994,27.999c0.8008,2.6,1.6006,3.4,3.8,3.4h2.2c2.2,0,3-.8008,3.8-3.4l9.4-28.1992a24.8166,24.8166,0,0,0,1.6-8.2v-54.999c0-5,2.2-7.2,7.2-7.2h31.3994c5.2,0,7.2,2.2,7.2,7.2v52.7988c0,12.6006-1.6006,16.4-6.4,28.3994l-19.6,49c-2,5-5,6.6-10.2,6.6h-51.999Z" transform="translate(-53.71 -65.0752)" fill="none" stroke="#231f20"/>
  <path d="M1049.6079,785.5752c5,0,7.2,2.2,7.2,7.2V870.374c0,8.6,0,15-3.6,24.8l-10,27.1992c-1.4,4-3.8,7.2-8,7.2h-26.6c-4.4,0-8-1.8-9.2-6l-9.2-32.6c-0.8-2.6-2-3.3994-3.6-3.3994h-1.8c-1.6,0-2.8.8-3.6,3.3994l-9.4,32.6c-1.2,4-4.2,6-8.4,6H937.01c-4.4,0-7.4-3-8.8-7.2l-10-27.6c-3.6-9.8-3.6-16.1992-3.6-24.7988V792.7754c0-5,2.2-7.2,7.2-7.2h30.7993c5,0,7.2,2.2,7.2,7.2V866.374l11.6-25.1992c2.2-4.6006,5.4-6.2,10.6-6.2h8.4c5.2,0,8.4,1.6,10.6,6.2l11.6,25.1992V792.7754c0-5,2-7.2,7.2-7.2h29.7993Z" transform="translate(-53.71 -65.0752)" fill="none" stroke="#231f20"/>
  <path d="M1157.4063,929.5732h-30.3994c-5,0-7.2-2.2-7.2-7.2V900.9736c0-12.3994,1.6-16.3994,7.6-24.6l16.2-21.8-16.2-21.8c-6.2-8.1992-7.6-12.1992-7.6-24.6V792.7754c0-5,2.2-7.2,7.2-7.2h30.7993c5,0,7.2,2.2,7.2,7.2v13.8c0,2.8,0,5.8,1.8,8.3994l8.8,12.6006c1.4,2.1992,2.6,3.3994,4.8,3.3994h2.4c2.2,0,3.2-1.2,4.8-3.3994l9-12.6006c1.8-2.6,1.8-5.6,1.8-8.3994v-13.8c0-5,2.2-7.2,7.2-7.2h30.4c5,0,7.2,2.2,7.2,7.2v15.3994c0,12.4-1.6,16.4-7.6,24.6l-16.2,22,16.2,21.6c6.2,8.2,7.6,12.2,7.6,24.6V922.373c0,5-2.2,7.2-7.2,7.2h-30.4c-5,0-7.2-2.2-7.2-7.2v-19.8c0-2.8.2-5.6-1.8-8.3994l-8.8-12.6c-1.6-2.4-2.6-3.4-4.8-3.4h-2.8c-2.2,0-3.2,1-4.8,3.4l-9,12.6c-2,2.8-1.8,5.6-1.8,8.3994v19.8C1164.6064,927.373,1162.4063,929.5732,1157.4063,929.5732Z" transform="translate(-53.71 -65.0752)" fill="none" stroke="#231f20"/>
  <path d="M100.6055,1169.5732c-5.2,0-7.2-2.2-7.2-7.2v-25.6l-30.6-40.999c-6.2-8.2-7.6-12.2-7.6-24.6v-38.3994c0-5,2.2-7.2,7.2-7.2h30.8c5,0,7.2,2.2,7.2,7.2v32.8c0,2.8,0,5.6,1.8,8.3994l9.2,14.3994c1.4,2.4,2.6,3.4,4.8,3.4h2c2.2,0,3.4-1,4.8-3.4l9.2-14.3994c1.8-2.8,1.8-5.6,1.8-8.3994v-32.8c0-5,2.2-7.2,7.2-7.2h29.7993c5,0,7.2,2.2,7.2,7.2v38.3994c0,12.3994-1.6,16.3994-7.6,24.6l-30.3994,41.1992v25.3994c0,5-2.2,7.2-7.2,7.2H100.6055Z" transform="translate(-53.71 -65.0752)" fill="none" stroke="#231f20"/>
  <path d="M278.6016,1169.5732c-5,0-7.1992-2.2-7.1992-7.2v-26.7988a16.15,16.15,0,0,1,5-12.4l48.5986-58.999H282.2021c-5,0-7.2-2.2-7.2-7.2v-24.1992c0-5,2.2-7.2,7.2-7.2H374.2c5,0,7.2,2.2,7.2,7.2v29.8a16.2991,16.2991,0,0,1-5,12.6L330.001,1131.374h47.8c5,0,7.1992,2.2,7.1992,7.1992v23.8c0,5-2.1992,7.2-7.1992,7.2H278.6016Z" transform="translate(-53.71 -65.0752)" fill="none" stroke="#231f20"/>
</g>
</svg>
