<svg xmlns="http://www.w3.org/2000/svg" width="431.8165" height="73.2041" viewBox="0 0 431.8165 73.2041">
  <title>create</title>
  <g id="create">
    <path d="M117.0532,312.7979c0,19.3008,5.5,28.3018,16.4009,28.3018,9.9009,0,13.8008-6.1006,16.501-16.8018h7.5l-0.7,23.6016h-6.6006c-0.7-2.1-1.2-3.2-2.5-3.2-2,0-6.5,4.4-16.7012,4.4-18.2012,0-31.6021-10.7-31.6021-36.2017,0-23.7017,15.001-36.0024,32.1021-36.0024,9.3008,0,13.3008,3.9,15.501,3.9,1.4,0,1.9-1.2,2.7-3h6.2l0.7,23.2012h-7.5c-2.4-10.3008-6.4-16.3008-15.6011-16.3008C124.1538,284.6963,117.0532,291.3965,117.0532,312.7979Z" transform="translate(-98.8521 -276.3955)" style="fill: none;stroke: #231f20;stroke-miterlimit: 10"/>
    <path d="M197.853,315.7979V339.6l6.7007,0.8V348H174.6519v-7.6006l6.8-.8V286.2964l-6.8-.8v-7.5h25.0015c14.8008,0,29.4019,2.3,29.4019,16.9014,0,11.6006-7,15.7007-18.5015,16.6006v0.3c12.3008,1.4,16.9014,5.6,16.9014,17.2012v6.6c0,3.4.3,5.4,3.3,5.4,3.2,0,3.7-3.2,4.5-9.2l5,0.7c-0.4,9.9-3.6006,16.6006-15.1011,16.6006-8.8,0-14.1011-4.5-14.1011-15.8008V325.498c0-6.5-2.4-9.7-8.9-9.7h-4.3Zm0-7h1.3c9.1006,0,12.9009-3.9,12.9009-11.9,0-8.1006-4-10.6006-12.3008-10.6006h-1.9v22.501Z" transform="translate(-98.8521 -276.3955)" style="fill: none;stroke: #231f20;stroke-miterlimit: 10"/>
    <path d="M307.0527,277.9956l0.8008,21.9014h-7.2012c-2.5-11.5-6.5-13.9009-18.6006-13.9009h-5.4v22.9014h2.3c6.501,0,8.6006-2.6,10.001-10.9h5.8008v29.6016h-6.001c-1.5-10-3.4-11.7007-10.3008-11.7007h-1.8v23.9009h5.1006c14.7,0,18.9-4,21.001-16.9h7.1006L309.0537,348H254.05v-7.4l6.2-.8008V286.2964l-6.2-.8v-7.5h53.0029Z" transform="translate(-98.8521 -276.3955)" style="fill: none;stroke: #231f20;stroke-miterlimit: 10"/>
    <path d="M365.2529,328.2988H344.3516l-3.8008,11.4,6.8008,0.8V348h-23.001v-7.501l6.1-.8,22.502-61.9033h12.6006l21.501,61.9033,6.6006,0.8V348H361.7529v-7.501l7.1-.8Zm-18.6016-7.8h16.4014l-7.4-25.002h-0.3Z" transform="translate(-98.8521 -276.3955)" style="fill: none;stroke: #231f20;stroke-miterlimit: 10"/>
    <path d="M458.8535,301.7974h-7.1006c-2.5-13.9009-5.1006-15.6011-15.1016-15.6011v53.5029l9.2012,0.8V348H411.15v-7.501l9.1006-.8V286.1963c-10.1006,0-12.9014,2.5-15.1016,15.6011h-7.2l1-23.8018h59.0039Z" transform="translate(-98.8521 -276.3955)" style="fill: none;stroke: #231f20;stroke-miterlimit: 10"/>
    <path d="M527.3516,277.9956l0.8008,21.9014h-7.2012c-2.5-11.5-6.5-13.9009-18.6006-13.9009h-5.4v22.9014h2.3c6.501,0,8.6006-2.6,10.001-10.9h5.8008v29.6016h-6.001c-1.5-10-3.4-11.7007-10.3008-11.7007h-1.8v23.9009h5.1006c14.7,0,18.9-4,21.001-16.9h7.1006L529.3525,348H474.3486v-7.4l6.2-.8008V286.2964l-6.2-.8v-7.5h53.0029Z" transform="translate(-98.8521 -276.3955)" style="fill: none;stroke: #231f20;stroke-miterlimit: 10"/>
  </g>
</svg>
