<svg id="create" xmlns="http://www.w3.org/2000/svg" width="316.0327" height="192.4963" viewBox="0 0 316.0327 192.4963">
  <title>m</title>
  <g id="create">
  <path d="M223.0264,279.8135c27.2462-19.4612,97.09-61.4309,111.2686,0,43.8713-34.4678,117.4492-48.5418,117.4492,28.9761V399.582q-3.42,29.6217,26.6582,26.2715v14.2949c-28.5633,0-57.2191-1.34-85.77,0V425.8535q29.62,3.0377,25.8867-26.2715V322.6982c0-56.7084-45.5967-57.1362-81.1348-25.1128V399.582q-2.7788,30.2361,28.2051,26.2715v14.2949c-29.07,0-58.2617-1.4327-87.3154,0V425.8535q29.226,2.657,25.8853-26.2715V322.6982c0-56.4958-46.5588-58.1419-81.1333-23.5674V399.582q-3.1028,29.9312,27.4307,26.2715v14.2949c-29.3383,0-58.7608-1.3151-88.0874,0V425.8535q30.394,3.4193,27.4307-26.2715V308.79q6.8832-30.6246-22.4082-29.3623V267.45a79.1162,79.1162,0,0,0,42.8848-18.5444H224.958" transform="translate(-162.3696 -247.6521)" fill="#231f20"/>
</g>
</svg>
