<svg id="Layer_1" data-name="Layer 1" xmlns="http://www.w3.org/2000/svg" width="317.1928" height="491.66" viewBox="0 0 317.1928 491.66">
  <title>mesh</title>
  <g id="create">
  <path d="M220.8123,376.6582a0.7315,0.7315,0,0,1-1.2481.6191,1.7288,1.7288,0,0,1,.3939-1.7688l0.9958,0.9971Z" transform="translate(-157.1837 -83.5773)" fill="#010101"/>
  <path d="M466.09,306.8669c0.5527,0.8709-1.1319,1.9111-1.6629,1.0269-0.4164-.6539.805-1.0671,1.561-0.8953Z" transform="translate(-157.1837 -83.5773)" fill="#010101"/>
  <path d="M309.8362,387.4449c1.344-3.9333-2.6608-8.58-6.7493-7.8306l6.7493,7.8306" transform="translate(-157.1837 -83.5773)" fill="#010101"/>
  <path d="M272.7588,425.5914a2.0674,2.0674,0,0,0,.9181.67,1.0761,1.0761,0,0,0,1.2787-1.0911,4.6906,4.6906,0,0,0-6.268-3.9225l4.0712,4.3433" transform="translate(-157.1837 -83.5773)" fill="#010101"/>
  <path d="M285.6187,422.4908a0.77,0.77,0,0,0,1.3107.62c-0.0555-2.5973-.3414-5.627-2.5339-7.02a5.6578,5.6578,0,0,0,1.3039,6.3241" transform="translate(-157.1837 -83.5773)" fill="#010101"/>
  <path d="M287.7357,116.819a2.0446,2.0446,0,0,0,1.485,2.8713,6.1559,6.1559,0,0,0-1.8089-6.8073,3.139,3.139,0,0,0,.3332,3.7129" transform="translate(-157.1837 -83.5773)" fill="#010101"/>
  <path d="M453.8291,290.8876c0.3924-.5491-0.7255-1.1372-1.1681-0.6277a8.3029,8.3029,0,0,0,.7609,5.713,4.0881,4.0881,0,0,0,.5461-5.1293" transform="translate(-157.1837 -83.5773)" fill="#010101"/>
  <path d="M197.888,294.1846a2.5913,2.5913,0,0,0,2.5831.0208,4.6965,4.6965,0,0,0-2.8992-3.7675,3.4,3.4,0,0,0,.4731,3.6037" transform="translate(-157.1837 -83.5773)" fill="#fff"/>
  <path d="M280.3655,412.0033a1.726,1.726,0,0,0,2.6006,1.3654l-1.6209-3.6222a1.8591,1.8591,0,0,0-1.5906.2812,1.9422,1.9422,0,0,0,.6207,1.9949" transform="translate(-157.1837 -83.5773)" fill="#010101"/>
  <path d="M282.1659,402.722l1.4934-1.1a4.6457,4.6457,0,0,0-1.6206-1.9564,1.6025,1.6025,0,0,0-2.22.5326,3.744,3.744,0,0,0,2.2427,2.23" transform="translate(-157.1837 -83.5773)" fill="#010101"/>
  <path d="M260.4234,124.9374l2.0893,1.3452a2.7251,2.7251,0,0,0-3.4115-3.22,1.291,1.291,0,0,0,1.3541,1.8163" transform="translate(-157.1837 -83.5773)" fill="#010101"/>
  <path d="M204.1218,301.0417l-1.9659-.0019a2.0365,2.0365,0,0,0-.2921,1.6126,2.4559,2.4559,0,0,0,3.903-1.2915,2.2315,2.2315,0,0,0-1.64-.2994" transform="translate(-157.1837 -83.5773)" fill="#fff"/>
  <path d="M305.9544,370.8147a2.6536,2.6536,0,0,0-1.3662,1.8806l1.7223,1.0013a6.5655,6.5655,0,0,0,1.56-2.9318,1.6485,1.6485,0,0,0-1.9794-.0391" transform="translate(-157.1837 -83.5773)" fill="#010101"/>
  <path d="M301.6722,102.512a1.59,1.59,0,0,0-.9849,2.066,4.6077,4.6077,0,0,0,1.62,1.9773,3.7316,3.7316,0,0,0-.39-4.097" transform="translate(-157.1837 -83.5773)" fill="#010101"/>
  <path d="M274.2746,273.4256a3.42,3.42,0,0,0,3.5417.4775,6.6244,6.6244,0,0,0-5.9483-1.403l2.3064,1.0441" transform="translate(-157.1837 -83.5773)" fill="#fff"/>
  <path d="M269.2588,271.9032a4.6346,4.6346,0,0,0-5.2666-.9157,6.3219,6.3219,0,0,0,5.7153.9724" transform="translate(-157.1837 -83.5773)" fill="#fff"/>
  <path d="M392.9413,290.4755c-1.6747.323-1.2594,3.4726,0.4418,3.3505a2.4108,2.4108,0,0,0-.5408-2.7575Z" transform="translate(-157.1837 -83.5773)" fill="#fff"/>
  <path d="M315.1247,102.3525a2.0317,2.0317,0,0,0,.2873,1.68l2.33-.2a1.7743,1.7743,0,0,0-2.6369-1.55" transform="translate(-157.1837 -83.5773)" fill="#010101"/>
  <path d="M180.8979,243.7791a1.79,1.79,0,0,0-.3661-2.9152,2.2257,2.2257,0,0,0-.9345,1.571l1.0649,1.49" transform="translate(-157.1837 -83.5773)" fill="#010101"/>
  <path d="M259.6625,269.3433l-2.1707,1.0616a2.5878,2.5878,0,0,0,2.0781.7131c0.7316-.2029.9515-1.5,0.2039-1.6329" transform="translate(-157.1837 -83.5773)" fill="#fff"/>
  <path d="M359.6,285.5807a1.0017,1.0017,0,0,0,.3485-1.6194,1.9221,1.9221,0,0,0-1.6029,1.073c-0.17.6562,1.0341,1.1885,1.1408,0.519" transform="translate(-157.1837 -83.5773)" fill="#010101"/>
  <path d="M306.9293,374.3082c-0.8918-.0957-1.2568,1.1061-1.2942,2.0023a2.0817,2.0817,0,0,0,1.6583-.2906l-0.209-1.671" transform="translate(-157.1837 -83.5773)" fill="#010101"/>
  <path d="M276.0246,430.4328c0.16-.516-0.5857-0.9272-1.0754-0.699a2.14,2.14,0,0,0-.9178,1.2842,1.0319,1.0319,0,0,0,1.75-.729Z" transform="translate(-157.1837 -83.5773)" fill="#010101"/>
  <path d="M441.23,420.233l3.3714-14.2744a10.7174,10.7174,0,0,1-6.1969-5.1421l5.0068,0.4774a68.6244,68.6244,0,0,0,6.2007-24.65,4.1418,4.1418,0,0,1,3.8267.1038l-4.1774,17.804c-1.0471,4.4627-1.7515,10.0049,1.8374,12.8565a37.4508,37.4508,0,0,0,15.4029-24.22,8.267,8.267,0,0,1-9.2291-7.4782,5.6109,5.6109,0,0,1,5.3563,3.97c9.9153-12.3752,6.4588-30.6156.3941-45.2675-1.6741-4.0444-3.5447-8.2086-3.339-12.5809s3.2933-8.9768,7.6656-9.1835c5.0465,0.643,6.3876,7.2425,6.4664,12.3292q0.1879,12.1206.3758,24.2411c0.1754,11.3114.324,22.829-2.8883,33.6761S460.936,404.014,450.4,408.1326c-1.6889.66-3.7363,1.4887-3.9908,3.2841A178.194,178.194,0,0,1,409.81,496.6358c-0.1827-3.2064-.4014-6.5406-1.9766-9.3394s-4.94-4.8707-8-3.8941a5.6036,5.6036,0,0,1,10.4935,3.5405c3.6838-1.0736,5.7654-5.2228,5.7167-9.06s-1.738-7.4379-3.3933-10.9a9.0776,9.0776,0,0,0,9.265-3.8069,10.0954,10.0954,0,0,1-1.1785,5.0026,11.26,11.26,0,0,0,7.5142-12.1051,7.6142,7.6142,0,0,0-3.8462,5.2039,7.32,7.32,0,0,1-2.035-10.8164l1.3562,6.7086c8.4463-3.35,12.2828-12.9546,15.0048-21.6237,1.1114-3.54,2.198-7.2892,1.3752-10.9067s-4.2813-6.9141-7.9191-6.1865l2.9783-5.4934,6.0649,7.2731" transform="translate(-157.1837 -83.5773)" fill="#010101"/>
  <path d="M468.0061,380.9348a1.8233,1.8233,0,0,0-2.0191-2.5941,1.725,1.725,0,0,0,1.9484,2.481" transform="translate(-157.1837 -83.5773)" fill="#010101"/>
  <path d="M417.8527,475.5234a0.8041,0.8041,0,0,0,1.3609.6252l-0.1473-2.2658c-0.72-.4248-1.3365.78-1.1459,1.5937" transform="translate(-157.1837 -83.5773)" fill="#010101"/>
  <path d="M431.0682,456.5193l-0.3284-2.29-1.71,1.6405a1.5207,1.5207,0,0,0,1.969.7172Z" transform="translate(-157.1837 -83.5773)" fill="#010101"/>
  <path d="M314.8609,474.219l-15.2312.4961a3.0626,3.0626,0,0,1-.94,5.163,10.7758,10.7758,0,0,0-10.2186-11.2214l0.744,5.5725q-7.1236-8.1023-13.7516-16.6231A2.4,2.4,0,0,0,274.8,453.7l-10.1262,11.5016-2.3141-1.2306a108.2044,108.2044,0,0,1,9.4557-18.8068l-0.6356-2.9817a17.4284,17.4284,0,0,0,14.7579-.6551,39.4089,39.4089,0,0,0-8.3981-1.1088,117.4764,117.4764,0,0,1,21.2318-11.0556c4.3311-1.7195,9.0075-3.2012,13.5876-2.3429,5.5234,1.0351,11.4756,5.276,16.1129,2.1021,10.2814-7.0369,26.5351-2.1454,31.2251,9.3971,10.3008-.964,20.0911,9.2571,18.6846,19.5069-2.6041-.255-3.922-3.1331-5.367-5.3144s-4.89-3.8948-6.4067-1.7626l-6.807,9.57c-1.5254,2.1445-3.2636,4.44-5.8172,5.076s-5.8024-1.6212-5-4.1277L327.3511,465.95a11.1527,11.1527,0,0,0,8.3994.73,3.2654,3.2654,0,0,1,.5476,4.058,12.6449,12.6449,0,0,1-4.558-2.8443,10.0661,10.0661,0,0,1-9.8048,3.2936,15.9273,15.9273,0,0,1-1.1,6.0677c-0.1544-2.4817-3.489-3.1173-5.9742-3.0363" transform="translate(-157.1837 -83.5773)" fill="#010101"/>
  <path d="M313.5129,465.3571l-2.7761,4.5525c-0.5524.9059,0.5655,2.043,1.6265,2.0556a10.9817,10.9817,0,0,0,3.0363-.8917,5.2593,5.2593,0,0,1,4.4742.7852,6.75,6.75,0,0,0,.6524-3.7537c-0.2737-1.26-1.6228-2.3687-2.8209-1.8931a4.0042,4.0042,0,0,1-4.1924-.8549" transform="translate(-157.1837 -83.5773)" fill="#fff"/>
  <path d="M362.8651,450.3251l-8.6462,4.4661-3.6869,1.9044c0.8865,1.216,2.7806.7024,4.1463,0.07,3.2212-1.4908,6.6913-3.2218,8.1868-6.4409" transform="translate(-157.1837 -83.5773)" fill="#fff"/>
  <path d="M300.0073,460.9877a0.79,0.79,0,0,0,.32-1.3957,7.421,7.421,0,0,0-3.8339.008,2.5541,2.5541,0,0,0-1.7264,3.03,6.786,6.786,0,0,0,5.2013-1.5919" transform="translate(-157.1837 -83.5773)" fill="#fff"/>
  <path d="M301.6471,463.31a3.7973,3.7973,0,0,0-2.1822,1.7294,2.64,2.64,0,0,0,4.37,1.2116,3.1758,3.1758,0,0,0-2.1532-2.9057" transform="translate(-157.1837 -83.5773)" fill="#fff"/>
  <path d="M320.58,457.8767l-6.34,1.51a7.31,7.31,0,0,0,7.483-.3479l-0.8857-1.0287" transform="translate(-157.1837 -83.5773)" fill="#fff"/>
  <path d="M355.3233,436.5688a1.2766,1.2766,0,0,0,2.3322.2785,3.5451,3.5451,0,0,0-2.2893-.2444Z" transform="translate(-157.1837 -83.5773)" fill="#fff"/>
  <path d="M328.2881,436.0894a40.8552,40.8552,0,0,1,23.0275.0306c0.8925-.4108,0-1.7348-0.8889-2.1525a26.4264,26.4264,0,0,0-20.269-.8109c-10.5634,3.9652-23.5208-3.0974-33.257,2.6048a2.6607,2.6607,0,0,0-1.5488,1.8851,63.1481,63.1481,0,0,1,21.5234-1.5725c3.8125,0.3795,7.7375,1.0976,11.4129.0155" transform="translate(-157.1837 -83.5773)" fill="#fff"/>
  <path d="M246.4775,256.5988a9.1919,9.1919,0,0,1-4.1338-1.6147c-1.7181-1.448-2.1247-3.8822-3.1031-5.9049s-3.4441-3.8519-5.3319-2.6334a3.6727,3.6727,0,0,1,1.9272,3.457,20.7362,20.7362,0,0,1-8.8113-5.21l-1.98,2.7337L214.58,244.8047l2.4352,3.33-13.7524,4.2413c-1.3008.4012-2.7217,0.895-3.3979,2.0765s0.1383,3.1358,1.4812,2.9124l-7.96,2.4683c1.4222-6.9657,2.8985-14.0759,6.5-20.2057s9.7787-11.2111,16.8791-11.5686l-3.33-2.8331a5.5724,5.5724,0,0,1,8.1608,2.68c3.3642-2.5776,7.96-2.7467,12.1851-2.41a68.4335,68.4335,0,0,1,34.7121,12.87,2.3253,2.3253,0,0,0-2.7033-2.8573c-0.3281-1.2321,1.1937-2.3114,2.4449-2.0664a5.4023,5.4023,0,0,1,2.9494,2.2982c3.37,4.3422,6.9981,9.6527,12.4908,9.861,2.8331,0.1075,6.7957-.6064,7.541,2.129,1.8639,6.8413,14.6794,4.6781,16.7336,11.4646a13.5082,13.5082,0,0,1,15.2961-.5447,8.4478,8.4478,0,0,0-4.38,4.9142l-7.7888-3.7745a12.6582,12.6582,0,0,1-9.226,6.3642,3.9911,3.9911,0,0,1,.57,4.0859c-3.2239.2716-7.5689-.2821-8.0344-3.4838Z" transform="translate(-157.1837 -83.5773)" fill="#010101"/>
  <path d="M366.5287,352.6837c-0.6062-.2807.0171-1.4311,0.5833-1.0765,0.8294,0.3006-.0864,1.8569-0.7519,1.2778Z" transform="translate(-157.1837 -83.5773)" fill="#010101"/>
  <path d="M337.1429,268.148c-5.7667-.6931-13.0835-2.96-13.294-8.7643-0.1661-4.58-6.6012-7.4405-10.1125-4.4951a12.7465,12.7465,0,0,1,16.3384-.5662l-3.2423,2.9752a21.1291,21.1291,0,0,0,11.175-.48,42.0739,42.0739,0,0,0,8.5163-4.2609l12.393-7.422a27.4126,27.4126,0,0,1,4.644-2.3937c1.5484-.5626,3.1833-0.8409,4.7706-1.2818a66.2834,66.2834,0,0,0,6.99-2.635c13.1653-5.3164,27.389-7.3344,41.4491-9.31,5.5845-.7845,10.4065,3.7807,13.8089,8.278a89.05,89.05,0,0,1,11.3865,19.9791c0.565,1.3809.74,3.5134-.716,3.838-0.2911-2.167-2.2557-3.6569-4.0582-4.8945l-13.2052-9.0673a6.1536,6.1536,0,0,1-8.96-.7472c-5.5453.1462-12.7594,1.7471-13.275,7.27-0.2078-2.9934-3.93-4.6789-6.8357-3.93s-5.0877,3.0849-7.0975,5.313l5.1978,0.0845c-0.0914,1.1056-1.3971,1.61-2.4764,1.8662l-51.8653,12.3216,2.2725-4.03a4.6881,4.6881,0,0,0-3.1008-.1923c-0.9757.4078-1.52,1.871-.7042,2.5438" transform="translate(-157.1837 -83.5773)" fill="#010101"/>
  <path d="M333.9357,263.1629l-5.5028-1.38a10.5475,10.5475,0,0,0,6.61,3.8039,11.09,11.09,0,0,0,.3776-5.902,2.4209,2.4209,0,0,0-1.25,3.0119" transform="translate(-157.1837 -83.5773)" fill="#010101"/>
  <path d="M367.1733,255.9661a1.3181,1.3181,0,0,0-.6962,1.8867,5.2447,5.2447,0,0,0,3.72-1.1523,2.2987,2.2987,0,0,0-2.9592-.6646Z" transform="translate(-157.1837 -83.5773)" fill="#010101"/>
  <path d="M334.375,409.0717a1.4536,1.4536,0,0,1,.1249,1.8242,1.0264,1.0264,0,0,1-.1327-1.9614Z" transform="translate(-157.1837 -83.5773)" fill="#010101"/>
  <path d="M362.7426,419.9114c2.6985-.092,3.9218,3.2878,4.3413,5.9552-2.3766-1.3113-5.28-1.1671-7.8511-2.0375s-4.9668-3.7556-3.6341-6.12a3.1685,3.1685,0,0,1-5.7508-2.5889,4.6256,4.6256,0,0,0,4.6413-1.964c-5.9146-1.422-9.7851-8.4455-7.8282-14.2053a2.3891,2.3891,0,0,1,2.8643.4417c0.65-.8013-0.3448-1.8833-1.2235-2.4237l-12.1445-7.4672a3.6623,3.6623,0,0,1-1.8828,4.14,9.6457,9.6457,0,0,1-.5518-4.8336c0.3732-1.5978,1.906-3.0515,3.5138-2.7239a3.1142,3.1142,0,0,0,3.3292-3.9947,24.8494,24.8494,0,0,0-7.0329,4.08,4.4977,4.4977,0,0,1-1.7449-4.9635,22.4284,22.4284,0,0,0,8.8914-1.4376,8.8937,8.8937,0,0,1,4.5086-5.9482,18.9146,18.9146,0,0,1-10.979-7.0786c-0.85,2.0875-2.2186,4.195-4.3718,4.8611s-4.9844-1.0147-4.64-3.2422c2.3027,1,4.9719-.3316,6.8019-2.05s3.3062-3.8844,5.5051-5.0958c3.5168-1.9374,8.1854-.81,11.0712,1.9812S352.76,370.1,352.9535,374.11l3.9369,0.3567a8.043,8.043,0,0,0,6.1455,9.5816l-3.43,2.8855c0.05,2.19,2.5727,3.2722,4.4881,4.3359s3.5651,3.9126,1.7843,5.1889c-1.9789,1.4184,1.5244,5.0408-.1516,6.8067-0.8756.9226-2.5494,0.3666-3.2339-.7054a8.2955,8.2955,0,0,1-.837-3.6831,18.2181,18.2181,0,0,0-5.5888-11.2631,5.3222,5.3222,0,0,0-.1634-6.738,8.0175,8.0175,0,0,0-3.4574,1.7131l0.35,6.5291-6.6877-6.2773a14.1541,14.1541,0,0,0,4.7662,10.2977c0.406-1.8472,3.2408-2.0555,4.6026-.743s1.65,3.3476,1.9551,5.2141c0.6137,3.7539,2.2008,8.0807,5.8961,8.9828,1.5864,0.3873,3.2559.0307,4.8833,0.1667s3.4405,1.0657,3.6313,2.6875a2.8941,2.8941,0,0,1-1.6076,2.3374,3.4718,3.4718,0,0,0-4.3649-.8428l6.6107,4.6188q0.1471-2.7192.2943-5.4384a2.6588,2.6588,0,1,1,3.4562,4.0327c-1.4773,1.1441-.3065,3.6773,1.4036,4.43s3.713,0.5809,5.4338,1.309,2.9644,3.2042,1.5384,4.4118l-3.7948-2.8894a9.2407,9.2407,0,0,1-7.8628,3.8092c-2.5521-.1314-5.4289-2.8759-3.823-4.8637,1.0851-1.3431,3.8207-1.7192,3.4741-3.4108a5.835,5.835,0,0,1-7.0891-2.7285c-0.59-1.18-.7576-2.55-1.45-3.6727s-2.28-1.9081-3.3269-1.1065c1.2332,2.9815,2.2427,6.9621-.2736,8.9815-0.7192-2.6249-3.0041-5.95-5.3208-4.5218a7.743,7.743,0,0,0,7.6013,6.0088" transform="translate(-157.1837 -83.5773)" fill="#010101"/>
  <path d="M348.5268,404.1483a7.9693,7.9693,0,0,1,6.0909,5.01c0.2778,0.754,1.3547,1.6251,1.5848.8552,0.8994-2.4158-1.269-4.7989-3.23-6.4716a4.7045,4.7045,0,0,0-2.762-1.4344c-1.059-.0233-2.1531,1.0918-1.6834,2.0412" transform="translate(-157.1837 -83.5773)" fill="#010101"/>
  <path d="M352.5542,401.3312c1.2885,0.89,2.9884-1.5707,1.7-2.4608s-2.9884,1.5707-1.7,2.4608" transform="translate(-157.1837 -83.5773)" fill="#010101"/>
  <path d="M352.2908,396.026a0.933,0.933,0,0,0,1.4124.9623,5.0634,5.0634,0,0,0-1.5969-2.9973A1.6765,1.6765,0,0,0,352.0327,396Z" transform="translate(-157.1837 -83.5773)" fill="#010101"/>
  <path d="M219.3043,405.3419l1.0572-1.4594c0.9547,0.417,0,2.2292-.8839,1.6774Z" transform="translate(-157.1837 -83.5773)" fill="#010101"/>
  <path d="M262.3424,497.5764c2.5848,0.3637,3.4909,4.01,2.1709,6.262s-3.9067,3.3784-6.324,4.3628a30.6929,30.6929,0,0,0,15.2712-1.0957q-6.1737,5.52-12.3467,11.0394c8.5362,3.2579,12.1546,13.1291,14.7777,21.8813a16.1085,16.1085,0,0,1,11.8682-1.5409,3.7587,3.7587,0,0,1-5.2408,2.4374,17.2787,17.2787,0,0,1,1.7448,10.5779q5.1851,1.794,10.37,3.5878-3.8053-3.7827-7.61-7.5655a14.142,14.142,0,0,1,5.8462-10.44,4.2718,4.2718,0,1,1,5.774-5.4256l-3.9678,1.48q1.4244,1.8137,2.8494,3.6277a5.3014,5.3014,0,0,0,3.0447-5.1069,9.7494,9.7494,0,0,1,9.1808,10.319,5.6468,5.6468,0,0,1,3.8677-2.6538,5.9221,5.9221,0,0,0,5.8075,4.6,11.8418,11.8418,0,0,0-2.4627-9.426,24.7391,24.7391,0,0,1,20.203,1.4191c-6.046,2.3105-8.2936,11.16-4.0829,16.0757q0.8007-3.6423,1.6013-7.2848c5.1884,2.3626,11.3453,7.9429,7.9151,12.4969a14.6746,14.6746,0,0,0,6.1694-9.3582,3.5823,3.5823,0,0,0,5.6407,1.6969q-0.8217-3.1024-1.6432-6.2048c-3.6431-.8179-8.2916,1.9171-7.639,5.5934-2.6059-2.0529-5.3713-4.3453-6.1642-7.5664s1.6966-7.3337,4.9637-6.7587A9.59,9.59,0,0,0,343.4,542.57l5.3853-4.3676c5.2591,0.3081,8.9846,6.9422,6.5107,11.5933l8.4981-4.8768a3.5258,3.5258,0,0,0-5.0241-3.1138l2.1939-3.9467c4.405,2.0044,9.4362,7.5687,5.6583,10.5936-14.103,11.2919-33.4561,13.0144-51.5231,12.9409q-10.7182-.0431-21.4227-0.708a27.4848,27.4848,0,0,0,6.9192,9.3678c-0.7013-1.4255-1.4194-3.0351-.9336-4.5476s2.8593-2.3038,3.6587-.9311q-0.1256,5.1549-.2506,10.31h-0.0035c-0.8889-2.277-4.4683-2.01-5.913-.0575-5.028-.0406-10.7157-0.07-16.6964-0.0885-1.5252-2.3038-4.3091-3.9243-6.598-2.571l2.4595,2.56c-22.5868-.0483-47.8829.06-56.7787,0.3321-0.0793-.5271-0.1505-1.0554-0.2682-1.5748a68.3322,68.3322,0,0,0-.8745-19.2806q-1.8022,10.5164-3.6047,21.0327c-1.0813-.0074-2.3042-0.0115-3.3861-0.0105a28.5646,28.5646,0,0,0,2.5426-8.1149l3.794-23.7986,0.734-4.6044a34.5539,34.5539,0,0,1-6.5064,11.4161l11.1953-34.8156-8.0127,14.019c-1.1662,2.04-3.51,4.3912-5.4267,3.032,4.72-6.8174,9.5148-13.7882,11.8414-21.747s1.8-17.2217-3.4084-23.6738a124.5943,124.5943,0,0,1-26.1966-59.9775c-0.7044-4.8424-2.0093-10.8116-6.7514-12.0185-7.1587-1.822-11.5559-8.8971-14.6715-15.5947a144.4336,144.4336,0,0,1-11.67-82.5953c0.7874-5.0491,2.4-10.7836,7.0738-12.85s11.165,4.2265,7.5031,7.7908a6.9786,6.9786,0,0,1-8.54-2.9658,8.4118,8.4118,0,0,0-2.9558,5.6009c5.5116-2.571,11.4635,3.97,11.6553,10.0489s-2.8628,11.77-3.7818,17.7814c-7.5668,12.9321-5.1664,30.877,5.5335,41.3656a33.4657,33.4657,0,0,1-1.2653-28.504l6.2838-14.7275,10.6942,64.125a18.9441,18.9441,0,0,1,10.0924,14.3329l-3.93-2.6787c-1.8685,1.942-.0279,5.3707,2.4652,6.394s5.3323,0.6826,7.9492,1.3263c8.024,1.9738,10.3117,14.7073,3.4765,19.3507a27.7958,27.7958,0,0,0,13.7386-4.2062q0.2,4.0728.4,8.1455c-0.8026-2.7639-5.0245-3.2184-7.0722-1.1961s-2.1741,5.3544-1.299,8.0961c0.7052,2.2093,2.1778,4.3969,4.4209,4.9859s5.0409-1.3094,4.5962-3.5855a11.1668,11.1668,0,0,1-.3832,13.0106,6.5439,6.5439,0,0,0,4.9744,2.6939,4.4423,4.4423,0,0,1,4.4551-3.6327,10.1627,10.1627,0,0,1-1.2413,5.7756c3.51,0.19,4.7064-4.4756,5.4469-7.9118s4.8446-7.2618,7.0716-4.5422l-4.643,4.3491a15.0835,15.0835,0,0,1,8.9934,5.54,19.7068,19.7068,0,0,1-9.7355-3.9008c-1.671,3.0642,2.2131,7.2777,5.4029,5.8611a6.7328,6.7328,0,0,1-7.3453,4.2885l13.8351,12.42a45.5124,45.5124,0,0,0-6.3356-12.5425,10.5877,10.5877,0,0,0,7.8115-5.3544q-0.4141,2.9522-.8282,5.9044a11.5735,11.5735,0,0,1,12.7056-1.2327,28.6338,28.6338,0,0,0-11.8812,4.4861,44.2375,44.2375,0,0,1,15.6215,10.1849l-1.7243,5.3522c-0.3785-3.7863-5.81-5.8632-8.6183-3.2951l-1.9608-9.47c-4.3379,4.4053-1.3088,13.3463,4.8135,14.2077" transform="translate(-157.1837 -83.5773)" fill="#010101"/>
  <path d="M422.05,574.7262q1.2072-17.3435,2.4147-34.6864,1.9911,3.4155,3.9822,6.8313-5.27-25.3371-10.5405-50.6745c-1.01,18.7538-2.3233,38.48-12.5576,54.2271-1.6723,2.573-3.661,5.4253-3.01,8.424,0.4794,2.2083.6824,5.9622-.8029,5.8785,0.615-.3471.9288-2.1453-0.2049-2.2811-1.4968-.1793-2.47,1.4917-3.023,2.8939q-1.8568,4.7052-3.7131,9.41C403.3211,574.7157,412.8944,574.708,422.05,574.7262Z" transform="translate(-157.1837 -83.5773)" fill="#010101"/>
  <path d="M254.8753,503.2768c2.1339,0.27,5.1316-.1287,5.23-2.2773a20.7694,20.7694,0,0,0-4.3631-2.9316,6.916,6.916,0,0,0-.813,5.2856c-1.44-.4534-3.193,1.0858-2.6417,2.491a2.404,2.404,0,0,0,2.3508-2.4877" transform="translate(-157.1837 -83.5773)" fill="#010101"/>
  <path d="M232.7469,532.3205a7.6413,7.6413,0,0,1,.4394-9.7105,7.44,7.44,0,0,1-3.75-7.8034,1.5674,1.5674,0,0,1,2.2152.2635c0.0669,1.6467.19,3.4391,1.2938,4.6632s3.551,1.2428,4.0837-.3168a2.9869,2.9869,0,0,0,.0273-1.493,9.1038,9.1038,0,0,0-7.8672-7.2265,5.1627,5.1627,0,0,0-2.0065-6.209c-1.0319,2.13-.874,4.6194-0.6808,6.9783q1.2218,14.9219,3.1067,29.78c0.6362,5.0144,1.3727,10.157,3.8437,14.5665a3.1875,3.1875,0,0,0,1.1589-3.1824,12.2312,12.2312,0,0,1,7.4568,8.788c0.368,1.7883.4233,3.85,1.7939,5.0558a5.87,5.87,0,0,0,1.1483-4.5532,4.7251,4.7251,0,0,1,2.178-.3849c0.9421-1.4559-.62-3.29-2.2045-3.9948s-3.535-1.18-4.251-2.759c-1.0671-2.3541-3.4269-3.8088-5.1231-5.7591s-2.5784-5.2542-.6085-6.9275c1.0642-.9039-0.1327-2.5446-1.1971-3.4482s-1.9054-2.8921-.6046-3.3995c1.0838-.4228.273-2.0174-0.452-2.9272" transform="translate(-157.1837 -83.5773)" fill="#010101"/>
  <path d="M182.4942,403.5328a3.6359,3.6359,0,0,1,.6663,5.1007,4.6033,4.6033,0,0,0-3.1983-3.05c-1.0579.8991,0.2228,2.5487,1.4566,3.1853a21.1288,21.1288,0,0,0,7.5181,2.2363A88.0993,88.0993,0,0,1,184.89,387.758a19.5944,19.5944,0,0,0-1.8968-6.6833c-1.3984-3.3475-3.4093-7.1836-7.0106-7.6213-1.069,1.7631,1.0832,3.6185,2.34,5.2527a6.6771,6.6771,0,0,1-4.95,10.74l6.7115,6.6326a6.7158,6.7158,0,0,1,2.2853,3.5007,7.1507,7.1507,0,0,1-3.1231.3235,1.8469,1.8469,0,0,0,.7928,2.3619c0.76,0.5234,1.7.7381,2.4548,1.2681" transform="translate(-157.1837 -83.5773)" fill="#010101"/>
  <path d="M243.6224,549.8867c0.7818-2.9007,6.9218.5028,7.8194-2.3642-0.218-4.03-7.7461-4.7851-7.3922-8.8057a8.9872,8.9872,0,0,1-4.0807,7.3715,6.2937,6.2937,0,0,0-2.7287-1.9611,2.169,2.169,0,0,0-2.7144,1.3584c2.293,3.12,8.6708,2.2979,9.2779,6.1218,0.2336,1.471,2.142,1.7936,3.5153,2.37,3.33,1.3985,4.2373,6.5294,1.5881,8.9848a7.692,7.692,0,0,0,4.13,2.5024c1.9438-6.4878-2.8626-13.8646-9.415-15.5782" transform="translate(-157.1837 -83.5773)" fill="#010101"/>
  <path d="M240.4612,499.896c1.6776,0.144,2.8148,1.7734,3.428,3.3415s1.0015,3.3162,2.2055,4.4931,3.6327,1.2654,4.2638-.2955c-3.7132-2.1452-4.4163-8.0607-1.3094-11.0166a2.09,2.09,0,0,0,1.9015,1.72,27.91,27.91,0,0,0-6.2267-13.2575c-1.1891,2.3726-2.2948,5.49-.4935,7.4387,0.6279,0.6793,1.5133,1.0662,2.1861,1.7011a1.9436,1.9436,0,0,1,.5191,2.47,8.94,8.94,0,0,1-6.1535.8923,4.16,4.16,0,0,0-.3209,2.5127" transform="translate(-157.1837 -83.5773)" fill="#010101"/>
  <path d="M248.6408,570.0111a12.9392,12.9392,0,0,1,2.4691,4.7279q1.6382-.0053,3.3043-0.0089a2.6456,2.6456,0,0,1-.2065-0.7092c-0.131-1.3753,2.15-2.4886,2.5317-1.1605,0.4,1.3926,2.4326.9064,3.8716,0.7339a6.62,6.62,0,0,1,4.1717,1.1232c0.878,0,1.7538,0,2.6318,0a5.8224,5.8224,0,0,0-4.298-2.3889c-2.4525-.2042-5.4144-0.02-6.8016-2.0526-1.034-1.5153-1.3216-4.2248-3.15-4.0672a3.6779,3.6779,0,0,0-.8374,3.6488q-0.8913.16-1.7825,0.3206a7.7283,7.7283,0,0,0-1.6886-3.1735,2.6475,2.6475,0,0,0-3.3-.4593C246.1017,568.0081,247.5819,568.864,248.6408,570.0111Z" transform="translate(-157.1837 -83.5773)" fill="#010101"/>
  <path d="M206.468,459.5742c-0.0758-2.0158,1.2019-4.1985,3.1935-4.5193s4.0363,2.0647,2.9877,3.7881c1.9217-.0784,2.9322-2.5985,2.2576-4.4s-2.3759-2.9764-3.9815-4.0351c0.1654,1.951-2.8323,2.5736-4.4615,1.4877s-2.6013-3-4.3093-3.9572a22.8231,22.8231,0,0,0,4.3135,11.6354" transform="translate(-157.1837 -83.5773)" fill="#010101"/>
  <path d="M265.9,532.9309a3.0759,3.0759,0,0,1,2.804,2.0433c1.508-2.3141-.966-5.9317-3.6694-5.3655-1.3969.2925-2.3655-1.3506-2.745-2.7264s-0.9624-3.0761-2.3815-3.2287a11.61,11.61,0,0,0,6.5173,13.0519,4.6388,4.6388,0,0,0-.5254-3.7745" transform="translate(-157.1837 -83.5773)" fill="#010101"/>
  <path d="M212.2225,435.9466a2.8264,2.8264,0,0,0-1.2878-1.7016l-7.3271-5.7018a39.8664,39.8664,0,0,0,5.4745,12.8451,6.1253,6.1253,0,0,0,1.201-5.1415,2.6127,2.6127,0,0,1,1.9394-.3" transform="translate(-157.1837 -83.5773)" fill="#010101"/>
  <path d="M323.2032,554.3682a1.85,1.85,0,0,0,.9229-0.9882,25.8573,25.8573,0,0,0,2.8217-15.2332c-2.0682.8133-2.8576,3.33-2.9973,5.5475s0.0747,4.58-.9994,6.5256a7.9846,7.9846,0,0,0-1.2413,2.4225c-0.144.9023,0.6261,2.0132,1.4934,1.7257" transform="translate(-157.1837 -83.5773)" fill="#010101"/>
  <path d="M239.1651,484.4927L236.7416,495.4c-0.41,1.8467-.81,3.8334-0.0852,5.5806a20.6558,20.6558,0,0,0,4.011-14.3019c-0.0957-.9681-0.53-2.1785-1.5024-2.186" transform="translate(-157.1837 -83.5773)" fill="#010101"/>
  <path d="M208.1088,447.3369c0.4261-.9578-0.4451-1.9533-1.1877-2.6933a21.65,21.65,0,0,1-5.4809-9.2523c-1.4993-.223-2.7086,1.4961-2.55,3.0035a6.9748,6.9748,0,0,0,2.2644,3.8441,19.4836,19.4836,0,0,0,6.9539,5.098" transform="translate(-157.1837 -83.5773)" fill="#010101"/>
  <path d="M235.6377,530.9411l2.3419,7.4823c0.3459,1.1052,1.1187,2.4705,2.2419,2.1887a15.2735,15.2735,0,0,0-.7156-8.0279,4.0243,4.0243,0,0,0-1.5288-2.1712,1.6782,1.6782,0,0,0-2.3395.5281" transform="translate(-157.1837 -83.5773)" fill="#010101"/>
  <path d="M296.5928,549.5771a7.35,7.35,0,0,1-.4817-3.9832,4.5729,4.5729,0,0,0-4.0825-.8271q2.3384,5.6911,5.1362,11.1786a4.33,4.33,0,0,0-.5823-6.1975" transform="translate(-157.1837 -83.5773)" fill="#010101"/>
  <path d="M303.3326,548.6245a3.6822,3.6822,0,0,0,.51,1.8382,1.8732,1.8732,0,0,0,1.9235.7066,51.6633,51.6633,0,0,0-.6233-12.9742c-2.3655,2.7557-2.1534,6.814-1.81,10.4294" transform="translate(-157.1837 -83.5773)" fill="#010101"/>
  <path d="M287.2744,572.239c0.7724-1.24,1.6663-2.576,3.07-2.9821s3.245,0.8664,2.7517,2.2418a3.6077,3.6077,0,0,0-1.2249-5.7993,5.949,5.949,0,0,0-4.5967,6.54" transform="translate(-157.1837 -83.5773)" fill="#010101"/>
  <path d="M214.8532,471.9376c1.3619-1.03.9851-3.2078,0.0762-4.6533s-2.2387-2.733-2.4847-4.4227a3.7934,3.7934,0,0,1,.7423-2.83,1.1835,1.1835,0,0,0-1.9079.1585,3.1221,3.1221,0,0,0-.2255,2.2287,23.8832,23.8832,0,0,0,3.8,9.5186" transform="translate(-157.1837 -83.5773)" fill="#010101"/>
  <path d="M310.9181,554.1916c0.6331,1.0925,2.6542,1.8315,2.7716.5742a16.2232,16.2232,0,0,1-2.4265-7.8753,1.803,1.803,0,0,0-2.1217-.0185,13.3878,13.3878,0,0,0,1.7766,7.32" transform="translate(-157.1837 -83.5773)" fill="#010101"/>
  <path d="M230.6873,491.2214a7.1506,7.1506,0,0,0,2.123,3.6905c1.6485-3.134-1.2038-7.565-4.7391-7.362a5.1643,5.1643,0,0,0,2.6089,3.5988" transform="translate(-157.1837 -83.5773)" fill="#010101"/>
  <path d="M218.7783,462.4412a1.9111,1.9111,0,0,0-2.7747-.6244l1.9677,6.43a3.8213,3.8213,0,0,0,.683-5.63" transform="translate(-157.1837 -83.5773)" fill="#010101"/>
  <path d="M235.6008,526.8407a5.1137,5.1137,0,0,0,3.5864.6849,5.15,5.15,0,0,0-4.2916-4.3974,3.5672,3.5672,0,0,0,.4242,3.9955" transform="translate(-157.1837 -83.5773)" fill="#010101"/>
  <path d="M271.822,542.822a7.3694,7.3694,0,0,0-2.0905-7.4074,5.8146,5.8146,0,0,0,2.0905,7.4074" transform="translate(-157.1837 -83.5773)" fill="#010101"/>
  <path d="M196.5314,429.5165a6.8043,6.8043,0,0,0,3.8137,3.8059,2.61,2.61,0,0,0-3.4214-3.9305" transform="translate(-157.1837 -83.5773)" fill="#010101"/>
  <path d="M226.5306,475.1786l0.2645-2.0037a2.7406,2.7406,0,0,0-1.0067,5.3645l0.5149-3.3589" transform="translate(-157.1837 -83.5773)" fill="#010101"/>
  <path d="M260.6842,566.532A6.0207,6.0207,0,0,0,257.1,562.18a3.556,3.556,0,0,0,3.689,4.5867" transform="translate(-157.1837 -83.5773)" fill="#010101"/>
  <path d="M234.5515,480.78a2.7549,2.7549,0,0,0,2.6548.0118,2.8638,2.8638,0,0,0-3.9721-2.706,2.476,2.476,0,0,0,1.3618,2.588" transform="translate(-157.1837 -83.5773)" fill="#010101"/>
  <path d="M281.463,556.0587a3.3232,3.3232,0,0,0-1.2446-2.3709,7.0829,7.0829,0,0,0,2.4771,6.9653,5.156,5.156,0,0,0-1.1022-4.5063" transform="translate(-157.1837 -83.5773)" fill="#010101"/>
  <path d="M337.49,555.7892a3.0864,3.0864,0,0,0,1.7783-3.7869,1.9038,1.9038,0,0,0-1.8553,3.3166" transform="translate(-157.1837 -83.5773)" fill="#010101"/>
  <path d="M263.1686,542.6019a4.0157,4.0157,0,0,0,3.9814,3.21,4.8558,4.8558,0,0,0-4.0647-3.8222" transform="translate(-157.1837 -83.5773)" fill="#010101"/>
  <path d="M193.2287,412.6572a2.4425,2.4425,0,0,0-.3506-2.4054,1.2249,1.2249,0,0,0-2.0247.4143l2.01,4.38a2.61,2.61,0,0,0,.4015-2.3588" transform="translate(-157.1837 -83.5773)" fill="#010101"/>
  <path d="M251.5689,513.4427a2.92,2.92,0,0,0,1.4355-2.0554c-1.9608-.7715-3.9628,2.3191-2.4571,3.7931a2.6228,2.6228,0,0,0,1.028-1.6857" transform="translate(-157.1837 -83.5773)" fill="#010101"/>
  <path d="M220.16,533.6583c-1.5146.115-1.479,2.3568-.9669,3.7868A2.4666,2.4666,0,0,0,220.25,533.71" transform="translate(-157.1837 -83.5773)" fill="#010101"/>
  <path d="M256.2136,512.1976a1.7736,1.7736,0,0,0,1.5932,2.25,5.6823,5.6823,0,0,0,.3375-2.9348,1.2918,1.2918,0,0,0-1.8709.7038" transform="translate(-157.1837 -83.5773)" fill="#010101"/>
  <path d="M218.2644,476.8313l-0.2225-1.4674a3.9642,3.9642,0,0,0-1.5875,2.0937c-0.17.8782,0.6063,1.9466,1.4621,1.6867a3.6472,3.6472,0,0,0,.2439-2.3074" transform="translate(-157.1837 -83.5773)" fill="#010101"/>
  <path d="M328.8614,553.9548l-1.6563-.2533a2.6953,2.6953,0,0,0-.3351,1.7222,3.55,3.55,0,0,0,2.2971.2692,1.012,1.012,0,0,0-.351-1.5605" transform="translate(-157.1837 -83.5773)" fill="#010101"/>
  <path d="M223.0894,471.2146a1.065,1.065,0,0,0,.0123-1.8889l-2.3272,1.5524a1.5434,1.5434,0,0,0,2.2613.33" transform="translate(-157.1837 -83.5773)" fill="#010101"/>
  <path d="M236.5423,563.9012a2.7107,2.7107,0,0,0-1.619-2.329,2.0089,2.0089,0,0,0,1.632,2.856" transform="translate(-157.1837 -83.5773)" fill="#010101"/>
  <path d="M228.3109,483.6278a1.8135,1.8135,0,0,0,.7395-2.5517,1.681,1.681,0,0,0-.88,2.8681" transform="translate(-157.1837 -83.5773)" fill="#010101"/>
  <path d="M227.546,496.1038a2.6208,2.6208,0,0,0,1.6111,3.2352,3.8544,3.8544,0,0,0-1.48-3.18" transform="translate(-157.1837 -83.5773)" fill="#010101"/>
  <path d="M270.071,547.8385a2.4617,2.4617,0,0,0,2.1619,2.6667,2.6073,2.6073,0,0,0-2.0121-2.5105" transform="translate(-157.1837 -83.5773)" fill="#010101"/>
  <path d="M306.6853,554.7682c-0.4571.9562,1.5271,1.6656,1.78,0.6364a1.38,1.38,0,0,0-1.9058-.6982" transform="translate(-157.1837 -83.5773)" fill="#010101"/>
  <path d="M352.8631,521.4725l1.4594,1.0572c-0.417.9547-2.2292,0-1.6774-.8839Z" transform="translate(-157.1837 -83.5773)" fill="#010101"/>
  <path d="M385.0136,508.8786c1.1062-.84,2.4988.84,2.49,2.2285s-0.4986,2.9664.3793,4.0428c1.3214,1.62,4.16-.0012,4.5694-2.0515-1.7476-.1408-2.7842-2.2323-2.472-3.9576a9.5333,9.5333,0,0,1,2.7135-4.4214c1.1752,0.6945.9821,2.4,0.9222,3.7635s0.8115,3.179,2.1086,2.7535c1.8127-.5946,1.2939-4.7084,3.1185-4.1512l-0.6171-3.8594c-0.2735-1.7108.3763-4.3085,2.0324-3.8,1.59,0.4884.8374,2.8942-.2,4.1942a4.4755,4.4755,0,0,0,1.68-8.4835,7.0729,7.0729,0,0,1-.5109-3.26,2.4244,2.4244,0,0,1,2.1733-2.1505c1.5588,0.0205,2.3226,1.921,2.4309,3.4762s0.0909,3.3807,1.34,4.314c1.6627,1.2429.43,3.858-.8851,5.4638L382.2534,532.318a12.614,12.614,0,0,0-2.84,4.7593,8.6294,8.6294,0,0,1-7.0582,6.3351A5.1779,5.1779,0,0,1,375,537.3088c-1.4706-1.2391-.8324-3.6474.2229-5.255s2.4779-3.2663,2.2212-5.1722a6.9737,6.9737,0,0,1,4.4419,2.8021c1.5321-1.4306.0249-4.57-2.05-4.2691,1.4989-3.2156,6.9542-3.856,7.1665-7.3975l-3.1928-.5557Z" transform="translate(-157.1837 -83.5773)" fill="#010101"/>
  <path d="M312.7733,518.4036c0.8439-.3348,1.2,1.1393.75,1.9278a1.4466,1.4466,0,0,1-.7691-1.9448Z" transform="translate(-157.1837 -83.5773)" fill="#010101"/>
  <path d="M262.9211,401.3328a6.8715,6.8715,0,0,0-4.0989-2.203,24.0138,24.0138,0,0,1-4.34,10.2619c-4.1234,5.5929-5.5084,12.6821-6.7843,19.5125l-3.14,16.8093-1.5392,8.24a103.28,103.28,0,0,1,6.4053-43.1214,27.0991,27.0991,0,0,1,4.0253-7.686c2.5053-3.0769,6.4332-5.8008,6.1888-9.7611A12.1207,12.1207,0,0,1,262.9211,401.3328Z" transform="translate(-157.1837 -83.5773)" fill="#010101"/>
  <path d="M400.9038,197.2583c-0.29-.4056.2632-0.9766,0.7554-0.8967a1.939,1.939,0,0,1,1.1272.9209,1.6335,1.6335,0,0,1-1.9712.0239Z" transform="translate(-157.1837 -83.5773)" fill="#010101"/>
  <path d="M288.5919,525.249c-0.6074-.9374-0.66-2.1337-1.1626-3.1314s-1.9037-1.7454-2.7072-.9694a5.0491,5.0491,0,0,0,2.2846,6.324c1.1264,0.56,1.2433,2.2387.5566,3.2926a6.7707,6.7707,0,0,1-3.0329,2.1558,14.4881,14.4881,0,0,1-1.5028-7.0542c-1.2249-.4961-2.4875.8706-2.6268,2.1848s0.3686,2.6144.38,3.936a5.4066,5.4066,0,0,1-3.4867,5.0024c0.4923-1.8818-.9207-3.6558-1.9319-5.3175s-1.4536-4.2521.2438-5.2022c1.2327-.69,3.3967-0.4524,3.5064-1.8608a4.5556,4.5556,0,0,0-6.6163-.7557l-1.7108-2.2914c-0.2807,1.3808-2.3542,1.7233-3.3975.7763a3.9758,3.9758,0,0,1-.8106-3.9361c0.5328-2.05,2.3294-3.9777,4.44-3.8s3.4418,3.3754,1.6866,4.5618a3.1457,3.1457,0,0,0,2.4972-5.6475c-1.2706-.8863.0349-3.1917,1.5742-3.0176s2.5018,1.8425,2.6189,3.3872a38.9656,38.9656,0,0,1-.4143,4.621c-0.0681,1.5476.4114,3.3081,1.7913,4.0121l4.6827-6.5766a36.4132,36.4132,0,0,0,11.83,8.8957,6.7371,6.7371,0,0,0,4.4163.8459c1.4827-.3787,2.6794-2.1242,1.953-3.4711a4.7852,4.7852,0,0,1-5.8067-.8963,15.46,15.46,0,0,1,10.9708-5.5633,2.7673,2.7673,0,0,1-2.1465,4.209c-0.7048-.0165-0.8622.9809-0.7727,1.68l1.0572,8.26a7.0213,7.0213,0,0,0-6.6479.9819c0.5361-2.3646-2.5884-3.8245-5.013-3.83S289.91,527.2838,288.5919,525.249Z" transform="translate(-157.1837 -83.5773)" fill="#010101"/>
  <path d="M291.7251,487.5371c1.5734,1.7211,4.5128,1.0915,6.4787,2.3456,2.091,1.3339,2.5423,4.4338,4.6967,5.6626a6.7873,6.7873,0,0,1,1.7937,1.0395c0.8306,0.9051.501,2.3185,0.46,3.5463s0.8009,2.8031,1.9749,2.4413c1.0239-1.421.3229-3.39-.4054-4.9833-1.8958-4.1458-3.9842-8.5192-7.8282-10.97-3.3585-2.141-7.7512-2.5854-10.5911-5.3779a3.4253,3.4253,0,0,1-1.2379-2.7639c0.1477-1.0377,1.4456-1.8741,2.2941-1.2588,0.8709,2.4389,2.7878,5.43,5.2365,4.5873,3.665-1.2615,6.9972,3.8456,10.8205,3.2083a3.5789,3.5789,0,0,1,3.5947,4.8551,3.1132,3.1132,0,0,1-2.4258.4,7.082,7.082,0,0,0,6.4086,5.9146,15.6891,15.6891,0,0,1-2.6779-5.3134,5.3372,5.3372,0,0,1,1.6654-5.4119,15.9489,15.9489,0,0,1-9.8232-5.7508,3.0387,3.0387,0,0,1,4.5987,1.82c5.5494-.8728,11.2077,1.0133,16.8027.5093,2.6416-.238,5.2245-1.0064,7.8753-1.0953s5.5453,0.662,7.108,2.8051,0.942,5.8259-1.585,6.6314a5.117,5.117,0,0,0,.3542,4.6324c0.8376,1.3467,2.2686,2.2366,3.1292,3.5688s0.7688,3.5628-.7445,4.0371a2.3749,2.3749,0,0,1-2.6741-1.5295,6.9185,6.9185,0,0,1-.2336-3.337l-1.84-.3712c0.4407,1.7692-.9287,3.5753-2.6,4.3041a13.4142,13.4142,0,0,1-5.3868.6667,63.075,63.075,0,0,0-20.5641,3.481c-1.7311.601-4.0641,1.0919-5.0493-.4533-0.89-1.3955-.6-4.1718-2.2391-3.9447l-1.664,8.81c-1.7.82-3.7007-1.0416-3.7713-2.9278s1.0811-3.5738,2.1832-5.1061c0.9915-1.3786-.2867-3.54-1.9737-3.7328a4.0183,4.0183,0,0,0-3.8951,2.6973,9.6387,9.6387,0,0,0-.239,5.0266c-0.8658.9783-2.656,0.1575-3.0184-1.0977a5.437,5.437,0,0,1,.77-3.7491q1.9737-4.0864,4.2139-8.0369a3.778,3.778,0,0,0,4.5478,1.9423,5.8376,5.8376,0,0,0-3.7895-4.3881,1.5626,1.5626,0,0,1-1.32,1.3883l-3.87-6.9952c-0.3516-1.1572,1.6672-1.6354,2.5354-.7934s1.0895,2.1746,1.9055,3.0673" transform="translate(-157.1837 -83.5773)" fill="#010101"/>
  <path d="M332.4926,487.1256a2.5676,2.5676,0,0,0-1.47,3.242,2.1969,2.1969,0,0,0,1.4062-3.3707" transform="translate(-157.1837 -83.5773)" fill="#010101"/>
  <path d="M324.7928,490.5944a1.2792,1.2792,0,0,0,2.1166.625,1.9742,1.9742,0,0,0-.8514-1.5126c-0.5413-.2617-1.3565.35-1.0257,0.8526Z" transform="translate(-157.1837 -83.5773)" fill="#010101"/>
  <path d="M371.5023,392.364a1.2119,1.2119,0,0,1-2.0046.6849,1.41,1.41,0,0,1,1.9208-.7147Z" transform="translate(-157.1837 -83.5773)" fill="#010101"/>
  <path d="M271.678,481.212a5.6182,5.6182,0,0,1,6.8975.8171,5.6424,5.6424,0,0,1,3.8957-4.246,75.9037,75.9037,0,0,0-2.1993,14.3339,9.2975,9.2975,0,0,1-5.9543-2.5081c-1.3781.8886-.29,3.0785,1.0739,3.9891s3.17,1.8911,3.0563,3.527c-0.1794,2.5923,5.0795,1.76,5.88,4.2321-1.6329,0-2.3516,2.35-1.486,3.7346s2.5581,1.9643,4.1223,2.433L286.912,510.2c-1.4245,1.619-4.189.229-5.2956-1.6218s-1.6308-4.1973-3.4185-5.4033a11.0043,11.0043,0,0,1-2.3158-1.4648c-0.7464-.8427-0.7879-2.088-1.2844-3.0983s-2.0544-1.6994-2.6736-.7594a7.5723,7.5723,0,0,1,.6193,3.9041c-0.9856.667-2.4228-.0359-2.9517-1.102a6.3376,6.3376,0,0,1-.2849-3.5079c1.5715-.37,2.1032-2.3447,2.0627-3.9586A14.55,14.55,0,0,0,267.55,483.78l-3.881-.0757c-0.3419-1.8661,2.3552-2.9694,4.0712-2.16s2.7249,2.5809,4.065,3.9237a9.9727,9.9727,0,0,0,6.9089,2.8934c1.1922-1.4806-.3963-3.6617-2.131-4.4392S272.7218,482.8007,271.678,481.212Z" transform="translate(-157.1837 -83.5773)" fill="#010101"/>
  <path d="M431.8848,291.1965c0.1356,0.48-.786.593-0.9782,0.1327a1.5235,1.5235,0,0,1,.3936-1.3748c0.58-.3751,1.1387.7757,0.6183,1.23Z" transform="translate(-157.1837 -83.5773)" fill="#010101"/>
  <path d="M221.3044,188.1566c-2.38-.4875-4.3572,1.7513-5.7531,3.74-1.6517-3.1728,1.44-7.617,4.9888-7.1722,3.3716,0.4225,6.3834-1.8818,9.4518-3.3419a40.3824,40.3824,0,0,1,9.5734-2.7419l17.4266-3.4676c-0.3827,1.372-1.9135,2.0247-3.2706,2.4571-8.1367,2.5925-16.748,3.9868-24.278,8.015C226.8829,187.0149,224.1489,188.7391,221.3044,188.1566Z" transform="translate(-157.1837 -83.5773)" fill="#010101"/>
  <path d="M231.5985,288.6019c0.864-.3289,1.1794,1.1829.7178,1.984-0.8788.3168-1.1952-1.1944-.7576-2.02Z" transform="translate(-157.1837 -83.5773)" fill="#010101"/>
  <path d="M323.3778,130.3776l-13.5539-1.9992a7.6476,7.6476,0,0,1,.3979-3.6193,2.6236,2.6236,0,0,1,2.9578-1.5983,4.3519,4.3519,0,0,0,.0839,4.3486,11.2449,11.2449,0,0,0,6.0182-3.9474,2.98,2.98,0,0,0,.7954-1.9766c-0.115-1.43-1.8855-2.0894-3.318-2.0064s-2.9257.5543-4.2589,0.0238c0.5635-3.4482,5.8579-4.8345,8.039-2.105,0.5231,0.6547,1.6418.1793,2.0574-.5484a24.8183,24.8183,0,0,1,.9734-2.3088c0.9128-1.2757,3.24-2.3357,2.3034-3.5942-0.7338-.9863-2.2659-0.0138-2.9988.9732s-2.0747,2.1109-2.9837,1.2832c-0.753-.6857-0.2185-1.9215.35-2.7667l4.0113-5.9687c1.6514,0.3263,2.6549,1.9625,3.456,3.4429,1.1533-.3879.8873-2.0582,0.5884-3.2377s0.3039-3.0046,1.4385-2.5652c3.2553,1.1341-.1192,7.6248,2.9853,9.1232,1.131,0.5458,2.776.1033,3.4883,1.1375a2.6739,2.6739,0,0,1,.1522,2.0136c-0.5055,2.6824-1.1239,5.5711-3.1677,7.38-0.9784.8662-2.3333,2.2807-1.3491,3.14,1.3811,1.2061-.0178,3.5926-1.7553,4.1786s-3.7183.3087-5.3615,1.1224a2.2888,2.2888,0,0,1-1.3493.0743" transform="translate(-157.1837 -83.5773)" fill="#010101"/>
  <path d="M327.6809,121.6684l-3.69-1.9256a7.7656,7.7656,0,0,0-3.0168,7.9945,15.5894,15.5894,0,0,0,6.0726-5.1039,3.6334,3.6334,0,0,0,2.6907,3.778,15.5354,15.5354,0,0,1,5.4782-9.7867,7.2214,7.2214,0,0,0-7.5349,5.0437" transform="translate(-157.1837 -83.5773)" fill="#010101"/>
  <path d="M328.5938,117.494a1.5127,1.5127,0,1,0-2.9795-.08,2.4627,2.4627,0,0,0,2.5751-.0169Z" transform="translate(-157.1837 -83.5773)" fill="#010101"/>
  <path d="M450.9686,372.6046a8.4327,8.4327,0,0,0,1.8464-8.58,5.9029,5.9029,0,0,1-.16-2.4848l2.1652-27.6975a6.0553,6.0553,0,0,1,2.9036,6.3084c-0.9913,4.9152,1.7723,9.6948,3.9611,14.2059s3.7818,10.2182.8211,14.2649c-1.47,2.0092-3.7959,3.1766-6.0321,4.2706C454.633,373.7924,451.8981,374.4312,450.9686,372.6046Z" transform="translate(-157.1837 -83.5773)" fill="#010101"/>
  <path d="M434.6621,558.9267a1.5933,1.5933,0,0,1,.4921-2.5865,1.7964,1.7964,0,0,1-.4909,2.7679Z" transform="translate(-157.1837 -83.5773)" fill="#010101"/>
  <path d="M379.2089,517.424a1.87,1.87,0,0,1-.8676,2.1637,1.4219,1.4219,0,0,1,.9564-2.44Z" transform="translate(-157.1837 -83.5773)" fill="#010101"/>
  <path d="M307.5914,360.9151a19.5,19.5,0,0,0-15.8336-3.0833,11.4734,11.4734,0,0,0,3.4392-4.0756c0.6754-1.6635.3587-3.8782-1.1817-4.8-1.2407-.7426.5261-2.7988,1.8255-2.1646s1.6018,2.3172,1.7433,3.7561c1.7585,0.3377,3.3184-1.4667,3.49-3.249s-0.5912-3.5015-1.1951-5.1872-1.05-3.6024-.2861-5.2218a15.3154,15.3154,0,0,1,3.8988,11.3675c-0.432,5.5052,7.2469,8.606,7.8843,14.0912-1.3457.39-2.6484-.6128-3.7844-1.433h0Z" transform="translate(-157.1837 -83.5773)" fill="#010101"/>
  <path d="M217.3063,205.7791c8.5045-6.4806,19.6188-8.1471,30.2113-9.6042,4.4757-.6157,9.1222-1.2192,13.4386.1148-0.6637,1.3364-2.4351,1.5678-3.9247,1.654a122.1918,122.1918,0,0,0-33.9976,6.9071C221.1854,205.5111,219.2176,206.2267,217.3063,205.7791Z" transform="translate(-157.1837 -83.5773)" fill="#010101"/>
  <path d="M199.8019,525.8736" transform="translate(-157.1837 -83.5773)" fill="#010101"/>
  <path d="M381.1061,424.4642c2.114,1.0464,1.2733,4.15.9862,6.491-0.4241,3.4589,1.13,6.8116,1.864,10.2182s0.2633,7.6586-2.8,9.32c3.24,1.6634,4.1215,5.8043,4.639,9.4095-1.0506-.6165-2.31.7675-2.1986,1.98s0.96,2.21,1.4806,3.3111,0.5787,2.6769-.4781,3.2827a7.504,7.504,0,0,1-2.6574-9.867c1.266-2.196-2.628-4.9849-1.2444-7.1089-2.9755-.9125-2.9648-5.0857-2.34-8.1346a4.74,4.74,0,0,0,2.9408-1.2156A19.5932,19.5932,0,0,1,381.1061,424.4642Z" transform="translate(-157.1837 -83.5773)" fill="#010101"/>
  <path d="M316.2179,574.4056c-0.04-1.1912,1.912-.6853,2.705.2044l-2.5236-.0038Z" transform="translate(-157.1837 -83.5773)" fill="#010101"/>
  <path d="M199.4433,352.4236c1.7574-2.0375-3.9731-5.1266-1.9974-6.9532a0.9838,0.9838,0,0,1,1.3595-.5176,4.69,4.69,0,0,0,5.7267,2.5063c1.185-.4338,2.1628,1.3623,1.563,2.4726s-1.944,1.5447-3.16,1.8811a3.51,3.51,0,0,0,6.1178-3.4185,1.5809,1.5809,0,0,1,1.402-2.0047,4.5648,4.5648,0,0,1,2.6838.8306,17.5729,17.5729,0,0,1-2.3846,6.0371,5.9726,5.9726,0,0,1-5.5781,2.6911,16.7225,16.7225,0,0,0-2.7343-.6246c-0.9377-.0042-1.9951.7508-1.792,1.6663a6.5487,6.5487,0,0,1-4.0793,7.34,5.157,5.157,0,0,1,.5981,3.64c-1.5851.521-3.1989-1.1793-3.2239-2.8476s1.0013-3.1541,2.0524-4.45a10.4936,10.4936,0,0,0,2.545-4.2491C198.819,355.0623,198.5359,353.4756,199.4433,352.4236Z" transform="translate(-157.1837 -83.5773)" fill="#010101"/>
  <path d="M404.3869,514.5555a2.5343,2.5343,0,0,1,.8071,2.52,1.95,1.95,0,0,1-.8153-2.6434Z" transform="translate(-157.1837 -83.5773)" fill="#010101"/>
  <path d="M255.3636,456.8492a3.7177,3.7177,0,0,0,.4481,2.6034c0.5561,0.7105,1.9452.7259,2.1783-.1458a7.2883,7.2883,0,0,1,5.1341-5.0741c0.6058,1.2632-.412,2.6532-1.2191,3.7984a15.478,15.478,0,0,0-2.206,12.9393c-1.7126,1.1047-3.8887-.8654-4.3682-2.8462s-0.1914-4.2-1.2578-5.9365c-0.8991-1.4643-2.5868-2.27-3.6168-3.6458s-0.7949-3.9716.9163-4.1272a3.2794,3.2794,0,0,1,.7523,3.4737A2.6564,2.6564,0,0,0,255.3636,456.8492Z" transform="translate(-157.1837 -83.5773)" fill="#010101"/>
  <path d="M203.122,199.0633c0.9291,0.1928.7863,1.5626,0.411,2.4341a2.1046,2.1046,0,0,1-.5555-2.3283Z" transform="translate(-157.1837 -83.5773)" fill="#010101"/>
  <path d="M416.8907,307.6424c0.7234-.2,1.85.1981,1.5618,0.8913a1.92,1.92,0,0,1-1.729.43c-0.5663-.254-0.42-1.3906.1791-1.23Z" transform="translate(-157.1837 -83.5773)" fill="#010101"/>
  <path d="M175.6272,334.7613a19.2773,19.2773,0,0,1,2.8029-11.4627c1.9719,1.7569,1.8351,4.8041,1.8127,7.445s0.648,5.8541,3.158,6.6756c-0.583.8845-1.9278,0.7824-2.8927,0.3451a6.831,6.831,0,0,0-2.953-1.0708c-2.4869.1122-2.9327,3.5921-2.6,6.0591A4.318,4.318,0,0,1,175.6272,334.7613Z" transform="translate(-157.1837 -83.5773)" fill="#010101"/>
  <path d="M436.485,292.553c-0.9988.6182-2.1939-1.2689-1.2082-1.9076,0.636-.421,1.0463.7877,0.8675,1.5291Z" transform="translate(-157.1837 -83.5773)" fill="#010101"/>
  <path d="M202.5546,410.11l-1.1876-1.9226c1.7166-3.7908,7.5765-4.7737,10.436-1.75a2.3208,2.3208,0,0,1,.7174,1.3327,70.0541,70.0541,0,0,1-.4213,15.7162,5.0749,5.0749,0,0,1-.4776-3.2822l-7.27.5249a1.6983,1.6983,0,0,1-1.1729-.2006,1.5941,1.5941,0,0,1-.3637-1.5159,11.1716,11.1716,0,0,1,9.4431-9.2791,7.1828,7.1828,0,0,0-9.7039.3769" transform="translate(-157.1837 -83.5773)" fill="#010101"/>
  <path d="M208.722,416.1662c1.5627,0.2621,2.0632-2.7225.5-2.9846S207.1592,415.9041,208.722,416.1662Z" transform="translate(-157.1837 -83.5773)" fill="#010101"/>
  <path d="M215.836,173.4513a13.2779,13.2779,0,0,1,3.6227,7.2408,4.1531,4.1531,0,0,0-5.5834-.4595,60.9658,60.9658,0,0,1-9.9583,6.74c-0.031-2.406,2.0068-4.2662,3.8747-5.783l6.6923-5.4345-0.1465-1.4067A1.879,1.879,0,0,1,215.836,173.4513Z" transform="translate(-157.1837 -83.5773)" fill="#010101"/>
  <path d="M339.8673,564.5157a1.2494,1.2494,0,0,1-1.8028.7111,1.2322,1.2322,0,0,1,.5528-1.6818,0.9774,0.9774,0,0,1,1.2776,1.0193Z" transform="translate(-157.1837 -83.5773)" fill="#010101"/>
  <path d="M428.47,557.4053a1.158,1.158,0,0,1,1.7716-.6588,1.048,1.048,0,1,1-1.8958.6206Z" transform="translate(-157.1837 -83.5773)" fill="#010101"/>
  <path d="M431.2977,537.3475c1.0006,0.0463,1.9575,1.2664,1.31,2.0309-0.9918-.0306-1.9489-1.2466-1.2977-1.9953Z" transform="translate(-157.1837 -83.5773)" fill="#010101"/>
  <path d="M433.3809,193.4316c-0.16-.516.5857-0.9272,1.0753-0.699a2.14,2.14,0,0,1,.9178,1.2842,1.0319,1.0319,0,0,1-1.75-.729Z" transform="translate(-157.1837 -83.5773)" fill="#010101"/>
  <path d="M220.1663,422.0138a3.6929,3.6929,0,0,0,.8913,6.0861,10.1428,10.1428,0,0,1,4.4782,2.6031c1.1215,1.34,1.3608,3.5884.0315,4.7229a30.78,30.78,0,0,1-6.94-5.8512c-1.8919-2.3765-3.0694-5.51-2.4121-8.4761A5.06,5.06,0,0,1,220.1663,422.0138Z" transform="translate(-157.1837 -83.5773)" fill="#010101"/>
  <path d="M231.6567,448.2621a1.3532,1.3532,0,0,1-.7327-1.8786,1.3,1.3,0,0,1,1.3809.6595,0.8366,0.8366,0,0,1-.7249,1.1576Z" transform="translate(-157.1837 -83.5773)" fill="#010101"/>
  <path d="M255.5151,378.5816a96.6418,96.6418,0,0,1-11.7783,3.5353l2.1042-2.7433a1.7428,1.7428,0,1,0-1.3156-2.1683c-0.4254,1.54-.9267,3.1955-2.207,4.1518s-3.569.6318-3.9379-.923c1.9048-1.3332,2.58-3.8227,4.0819-5.5976s5.0266-2.2911,5.685-.0613C249,377.6642,255.3259,375.5753,255.5151,378.5816Z" transform="translate(-157.1837 -83.5773)" fill="#010101"/>
  <path d="M230.2154,428.0812l-0.6244-2.01a1.9756,1.9756,0,0,1,1.5663.7915c0.2876,0.5361-.2866,1.3868-0.8147,1.0848Z" transform="translate(-157.1837 -83.5773)" fill="#010101"/>
  <path d="M350.8416,529.5886l-1.448,2.0246a7.1863,7.1863,0,0,1,0-5.6632c0.2916-.67,1.228-1.333,1.6246-0.7193,1.5008,2.3227,5.0874,1.55,7.4974.1938s5.2585-3.0773,7.72-1.8164a66.3242,66.3242,0,0,1-13.5543,7.7569A2.13,2.13,0,0,0,350.8416,529.5886Z" transform="translate(-157.1837 -83.5773)" fill="#010101"/>
  <path d="M262.7181,358.4453c0.6261-.051.1842,1.249-0.2811,0.8269l-0.9894-1.6034a0.7305,0.7305,0,0,1,1.2207.6554Z" transform="translate(-157.1837 -83.5773)" fill="#010101"/>
  <path d="M230.5565,361.6337a2.7878,2.7878,0,0,1-1.8324.3125,12.9158,12.9158,0,0,0,1.442,4.761c-1.1066.9192-2.6514-.7664-2.61-2.2044s0.7453-2.9248.2059-4.2583a9.6974,9.6974,0,0,0-1.7873-2.2146c-0.6014-.7408-0.9446-1.9114-0.2819-2.5978,0.6363-.6592,1.7238-0.4255,2.5957-0.1438l8.6789,2.8036a10.8222,10.8222,0,0,1-7.0317.5248Z" transform="translate(-157.1837 -83.5773)" fill="#010101"/>
  <path d="M406.0847,316.95l1.7218-.2589,0.3381,1.7126a1.41,1.41,0,0,1-2.0371-1.3032Z" transform="translate(-157.1837 -83.5773)" fill="#010101"/>
  <path d="M326.9336,522.4884c-0.3865-1.5391-2.1864-3.3776-.8581-4.2459a28.3184,28.3184,0,0,1,5.71,5.7576c0.9,1.2157,1.7379,2.726,1.2914,4.1714s-2.8768,2.008-3.3984.5881a13.15,13.15,0,0,1-.0805-2.1409c-0.1324-.7065-1.2485-1.2136-1.4965-0.5389a1.943,1.943,0,0,1,.0817,2.7884,5.1731,5.1731,0,0,1-2.7991,1.3436q-1.521.3562-3.0659,0.5974c-0.7047-3.2726,5.4306-5.0741,4.6152-8.3209h0Z" transform="translate(-157.1837 -83.5773)" fill="#010101"/>
  <path d="M270.6243,389.1626c2.2849-1.6581,6.1095.1407,6.29,2.9581a7.9575,7.9575,0,0,1-.3653,2.4689l-1.6044,6.2281-6.7433,1.75c-0.8989-.7614-0.2893-2.32.7078-2.9472s2.2423-.7568,3.249-1.3686a3.8608,3.8608,0,0,0-1.5841-7.1371Z" transform="translate(-157.1837 -83.5773)" fill="#010101"/>
  <path d="M435.4067,319.44c-0.6494-.6385.6919-1.8277,1.237-1.0982s-1.0212,1.6549-1.3848.82Z" transform="translate(-157.1837 -83.5773)" fill="#010101"/>
  <path d="M419.9188,423.3452a2.1145,2.1145,0,0,1,.8332,3.34,2.6586,2.6586,0,0,1-.8337-2.8624Z" transform="translate(-157.1837 -83.5773)" fill="#010101"/>
  <path d="M219.0173,174.0384a8.7632,8.7632,0,0,1,5.1253-7.1435c2.0469-.8909,4.3605-0.9538,6.4724-1.6773A57.6276,57.6276,0,0,1,219.0173,174.0384Z" transform="translate(-157.1837 -83.5773)" fill="#010101"/>
  <path d="M216.5742,369.9289c-0.33.3817-.9121-0.3918-0.5706-0.7631a1.2968,1.2968,0,0,1,1.4178-.0811,2.0132,2.0132,0,0,0,1.4542.2337,1.1729,1.1729,0,0,1-2.1881.4407Z" transform="translate(-157.1837 -83.5773)" fill="#010101"/>
  <path d="M234.9151,365.8382a2.6113,2.6113,0,0,1-.0056,2.61,2.8991,2.8991,0,0,1-1.1566-1.753c-0.0567-.7158.7761-1.4633,1.3633-1.05Z" transform="translate(-157.1837 -83.5773)" fill="#010101"/>
  <path d="M427.1975,418.5843a6.7144,6.7144,0,0,1,2.4037,6.6212c1.5119-.0109,3.1586.0506,4.3185,1.02s1.29,3.19-.1017,3.7817c-0.9441-1.9282-4.3318-.436-5.8467-1.9573a3.4044,3.4044,0,0,1-.7709-1.6412A16.5765,16.5765,0,0,1,427.1975,418.5843Z" transform="translate(-157.1837 -83.5773)" fill="#010101"/>
  <path d="M433.9173,552.5115c-0.7867-.09-0.46-1.502.3287-1.5714a2.4831,2.4831,0,0,1,1.9182,1.2245,3.3184,3.3184,0,0,1-2.2347.2416Z" transform="translate(-157.1837 -83.5773)" fill="#010101"/>
  <path d="M372.4626,491.5832a12.4,12.4,0,0,1,6.6981,5.5862c0.515,0.9156.303,2.65-.6944,2.32a9.1212,9.1212,0,0,0-2.1794-3.9935c-1.141-1.0254-3.0824-1.3337-4.1593-.2412a2.618,2.618,0,0,1-4.1032-.8751A5.6694,5.6694,0,0,0,372.4626,491.5832Z" transform="translate(-157.1837 -83.5773)" fill="#010101"/>
  <path d="M395.3245,429.1221c-0.4754-.5647,1.0117-0.7811,1.2068-0.0693s-0.1817,1.5606.2384,2.1676a1.7665,1.7665,0,0,1-1.096-2.1658Z" transform="translate(-157.1837 -83.5773)" fill="#010101"/>
  <path d="M214.5826,196.224a4.8009,4.8009,0,0,0-6.3823-.6833c-1.1429.8872-1.9134,2.3314-3.2967,2.7556-1.2667-1.477.3263-3.6977,1.995-4.6983s3.7887-2.078,3.8519-4.0227A8.3989,8.3989,0,0,1,214.5826,196.224Z" transform="translate(-157.1837 -83.5773)" fill="#010101"/>
  <path d="M179.2471,389.8744c1.2827,0.3668,1.1182,2.2261.673,3.4837a2.5164,2.5164,0,0,1-.698-3.2878Z" transform="translate(-157.1837 -83.5773)" fill="#010101"/>
  <path d="M317.7429,514.7882a2.0282,2.0282,0,0,1,.2876-1.677l2.3226,0.19c0.4775,1.2957-1.6433,2.5178-2.5249,1.455Z" transform="translate(-157.1837 -83.5773)" fill="#010101"/>
  <path d="M465.6986,304.6238a2.1784,2.1784,0,0,1-.4953-2.085,2.1562,2.1562,0,0,1,1.4919-.8711,15.3136,15.3136,0,0,1,5.0447,12.0917Z" transform="translate(-157.1837 -83.5773)" fill="#010101"/>
  <path d="M275.4824,507.9222a2.6667,2.6667,0,0,1-.9894-1.6655,3.6412,3.6412,0,0,1,2.3024-.2723,2.17,2.17,0,0,1,.3173,1.6205,2.1346,2.1346,0,0,1-1.6251.3Z" transform="translate(-157.1837 -83.5773)" fill="#010101"/>
  <path d="M409.0611,452.98a1.1023,1.1023,0,0,1-1.0028-1.4708,2.0544,2.0544,0,0,1,1.645-1.19,1.7162,1.7162,0,0,1-.6934,2.5358Z" transform="translate(-157.1837 -83.5773)" fill="#010101"/>
  <path d="M234.0037,463.0957l-2.601.978a20.1259,20.1259,0,0,0-3.6549-11.9883c1.2826-.87,3.1447-0.19,4.0806,1.0457a9.21,9.21,0,0,1,1.4,4.3773Q233.6222,460.3012,234.0037,463.0957Z" transform="translate(-157.1837 -83.5773)" fill="#010101"/>
  <path d="M262.762,373.4581a0.9972,0.9972,0,0,1-1.2975-1.3576,2.2512,2.2512,0,0,1,2.5642-.0258l-1.3113,1.3113Z" transform="translate(-157.1837 -83.5773)" fill="#010101"/>
  <path d="M219.2091,447.6689a1.8621,1.8621,0,0,1,2.1066-.1158,6.4335,6.4335,0,0,1,4.0776,4.9486c0.227,2.2317-1.5556,4.6361-3.798,4.5776l-2.4354-7.4347A2.0583,2.0583,0,0,1,219.2091,447.6689Z" transform="translate(-157.1837 -83.5773)" fill="#010101"/>
  <path d="M443.2515,287.4347l1.6062-6.3144c0.4724-.76,1.7733-0.4118,2.1668.3916a3.8319,3.8319,0,0,1-.05,2.6237c-0.65,2.4969-1.5319,5.29-3.8513,6.42a4.6255,4.6255,0,0,1-2.8054-3.72A3.71,3.71,0,0,1,443.2515,287.4347Z" transform="translate(-157.1837 -83.5773)" fill="#010101"/>
  <path d="M208.0945,574.6027a1.3063,1.3063,0,0,1-.07-2.3745,1.4187,1.4187,0,0,1,.0607,2.5986Z" transform="translate(-157.1837 -83.5773)" fill="#010101"/>
  <path d="M336.6709,516.2041a0.9072,0.9072,0,0,1,.36,1.5158c-0.9147.4969-1.812-.6772-2.1993-1.6435a1.5585,1.5585,0,0,1,1.92.0154Z" transform="translate(-157.1837 -83.5773)" fill="#010101"/>
  <path d="M192.3944,389.7733a1.59,1.59,0,0,1-1.1617-.2465,1.6986,1.6986,0,0,1-.4263-1.1546,4.6363,4.6363,0,0,1,.2218-2.5716,1.6,1.6,0,0,1,2.17-.79,5.043,5.043,0,0,0,6.9136-1.4983l1.0534,1.6679A12.4018,12.4018,0,0,1,192.3944,389.7733Z" transform="translate(-157.1837 -83.5773)" fill="#010101"/>
  <path d="M431.8292,564.6919a1.9771,1.9771,0,0,1-2.9581.4133l0.9976-1.5061,1.7484,0.9635Z" transform="translate(-157.1837 -83.5773)" fill="#010101"/>
  <path d="M262.6855,383.3246c0.4475-.78,1.6778-0.3232,2.2694.3538a5.8876,5.8876,0,0,1-1.14,8.4194,3.1651,3.1651,0,0,1-3.5686.2123c-0.3574-1.43-.6911-3.04.0745-4.3s3.1249-1.3835,3.45.0542Z" transform="translate(-157.1837 -83.5773)" fill="#010101"/>
  <path d="M279.0526,477.488a1.9665,1.9665,0,0,1-.2613,1.6278,4.2292,4.2292,0,0,1-1.6547-2.2465,1.15,1.15,0,0,1,1.96.6018Z" transform="translate(-157.1837 -83.5773)" fill="#010101"/>
  <path d="M249.66,433.6366c0.7376-.91,1.89.7271,1.808,1.8956-0.3176,4.54-2.5846,9.1209-1.2157,13.4617-2.2855.0432-2.7026-3.2393-2.31-5.4913Z" transform="translate(-157.1837 -83.5773)" fill="#010101"/>
  <path d="M219.69,381.5076c2.1634,1.7359,4.49,3.7527,4.8318,6.5053,0.24,1.9326-.5671,3.8177-1.0528,5.7035A16.6208,16.6208,0,0,1,219.69,381.5076Z" transform="translate(-157.1837 -83.5773)" fill="#010101"/>
  <path d="M332.543,321.095a7.427,7.427,0,0,1-3.9487-3.9095,3.5858,3.5858,0,0,1,5.1241,2.1423l2.2227,0.25a5.3106,5.3106,0,0,1-2.0618,5.8769,6.6121,6.6121,0,0,1-1.2055-4.1Z" transform="translate(-157.1837 -83.5773)" fill="#010101"/>
  <path d="M337.8835,523.7082c1.53-.103,2.34,1.6926,3.1379,3.0023s3.0813,2.177,3.5859.7289A5.0736,5.0736,0,0,1,344.9,531.91,8.8112,8.8112,0,0,1,337.8835,523.7082Z" transform="translate(-157.1837 -83.5773)" fill="#010101"/>
  <path d="M390.6455,436.6167a0.9744,0.9744,0,0,1,1.3111-1.2922l1.0238,1.5719a1.5916,1.5916,0,0,1-2.2689-.3368Z" transform="translate(-157.1837 -83.5773)" fill="#010101"/>
  <path d="M437.2105,362.6132a1.1467,1.1467,0,1,1-.0214,1.73c-0.9522-.04-0.9424-1.8327.01-1.8625Z" transform="translate(-157.1837 -83.5773)" fill="#010101"/>
  <path d="M303.7876,329.361c-0.3369,1.8111.9025,3.4836,1.8461,5.0657s1.5622,3.8139.2507,5.1075a2.3921,2.3921,0,0,1-2.23.6022c0.88-1.7619-.3487-3.7815-1.3158-5.4969s-1.5253-4.26.1171-5.3467Z" transform="translate(-157.1837 -83.5773)" fill="#010101"/>
  <path d="M226.4192,396.5361a1.2164,1.2164,0,1,0-.0728.0035Z" transform="translate(-157.1837 -83.5773)" fill="#010101"/>
  <path d="M320.7271,413.5673c-0.6821.9592-2.1774,0.4787-3.2076-.0906-1.0223-.565-2.185-1.83-1.3809-2.6774,1.0183-1.073.2677-2.7891-.2071-4.19s0.0084-3.5855,1.4735-3.3811a63.2721,63.2721,0,0,1,3.3219,8.2063A2.429,2.429,0,0,1,320.7271,413.5673Z" transform="translate(-157.1837 -83.5773)" fill="#010101"/>
  <path d="M344.084,500.9524l-1.3227-1.0834a1.0791,1.0791,0,1,1,1.5375.9308Z" transform="translate(-157.1837 -83.5773)" fill="#010101"/>
  <path d="M311.7674,523.7c1.76-.7862,3.0226,1.9894,2.54,3.8554s-1.5494,3.9932-.4,5.5406c-2.2218.2936-5.4043-.2132-5.3275-2.453,1.3329,0.6817,2.3962-1.3954,2.237-2.884S310.4005,524.3109,311.7674,523.7Z" transform="translate(-157.1837 -83.5773)" fill="#010101"/>
  <path d="M377.8976,459.8189a1.4245,1.4245,0,0,1,.4393,2.1,2.3363,2.3363,0,0,1-1.597-1.3494c-0.1662-.7065.9217-1.4288,1.2771-0.796Z" transform="translate(-157.1837 -83.5773)" fill="#010101"/>
  <path d="M202.6764,231.597c-0.1093-1.2658-2.4951-.7666-3.0343-1.917a1.8959,1.8959,0,0,1,.1136-1.4057l2.2335-6.352a3.9511,3.9511,0,0,1,1.3592,5.6188,1.5957,1.5957,0,0,0,1.0529,2.4A1.5965,1.5965,0,0,1,202.6764,231.597Z" transform="translate(-157.1837 -83.5773)" fill="#010101"/>
  <path d="M340.2547,468.2462l5.8168-1.71c1.3107-.3854,2.8015-0.7518,3.9765-0.0548a26.2607,26.2607,0,0,1-6.1229,4.1262,4.1553,4.1553,0,0,1-3.498.4622C339.3273,470.5453,339.0858,468.59,340.2547,468.2462Z" transform="translate(-157.1837 -83.5773)" fill="#010101"/>
  <path d="M329.3483,472.4714a1.1889,1.1889,0,0,1-.176,2.0244,2.3284,2.3284,0,0,1-1.06-1.6372c0.0117-.6733,1.0575-1.1667,1.3614-0.5659Z" transform="translate(-157.1837 -83.5773)" fill="#010101"/>
  <path d="M330.1384,411.056l1.9521,0.9886a2.06,2.06,0,0,1-.3373,1.7331,2.8833,2.8833,0,0,1-1.5943-2.7455Z" transform="translate(-157.1837 -83.5773)" fill="#010101"/>
  <path d="M199.6734,399.5111a20.8584,20.8584,0,0,0,.8927-5.9256,4.28,4.28,0,0,1,3.7594,2.3864c-2.5481,2.0529-3.1878,5.61-3.6538,8.8487l-0.73-5.2341Z" transform="translate(-157.1837 -83.5773)" fill="#010101"/>
  <path d="M239.454,255.8137c-0.9257.5246-1.8347-.7094-2.1925-1.7115a1.9427,1.9427,0,0,1,2.2907,1.77Z" transform="translate(-157.1837 -83.5773)" fill="#010101"/>
  <path d="M282.1542,473.8332l-6.0325-.5787a7.3813,7.3813,0,0,1-3.5731-.9723,2.5376,2.5376,0,0,1-.9549-3.25,11.9579,11.9579,0,0,0,7.642,2.84C280.657,471.8784,282.7969,472.5655,282.1542,473.8332Z" transform="translate(-157.1837 -83.5773)" fill="#010101"/>
  <path d="M369.4775,500.7538l-1.66,2.61a1.7055,1.7055,0,0,1,1.6-2.604Z" transform="translate(-157.1837 -83.5773)" fill="#010101"/>
  <path d="M370.2227,525.8985l0.8214,8.6609a3.5814,3.5814,0,0,1-.4443,2.655l-2.136-3.62c-0.8741-1.4813-1.7784-3.0826-1.6586-4.7984S368.5834,525.3782,370.2227,525.8985Z" transform="translate(-157.1837 -83.5773)" fill="#010101"/>
  <path d="M190.0376,368.5974a2.6252,2.6252,0,0,1,2.5753,1.6552,2.2852,2.2852,0,0,1-2.4314-1.4981Z" transform="translate(-157.1837 -83.5773)" fill="#010101"/>
  <path d="M213.9765,308.1428a1.2968,1.2968,0,0,1-.7037-1.8556c1.1046-.21,2.4865.59,2.3271,1.7033l-1.6373.3479Z" transform="translate(-157.1837 -83.5773)" fill="#010101"/>
  <path d="M208.3674,564.1492a7.0323,7.0323,0,0,1,.199-3.64,2.4207,2.4207,0,0,1,2.9665-1.4761l-2.29,7.9714c-0.3078,1.0717-.7964,2.3208-1.887,2.5524a5.7286,5.7286,0,0,1,.808-5.2424Z" transform="translate(-157.1837 -83.5773)" fill="#010101"/>
  <path d="M285.358,363.1947a2.0712,2.0712,0,0,1,1.2563-3.236,5.793,5.793,0,0,1,.3293,2.9547,2.1658,2.1658,0,0,1-1.6351.3035Z" transform="translate(-157.1837 -83.5773)" fill="#010101"/>
  <path d="M287.596,494.5053l0.0118,2.0867a7.2218,7.2218,0,0,1-5.9573-2.3039,3.3962,3.3962,0,0,0,2.7816-1.5567,1.9144,1.9144,0,0,0-.9772-2.7134,3.9557,3.9557,0,0,1,4.4446,4.5372Z" transform="translate(-157.1837 -83.5773)" fill="#010101"/>
  <path d="M197.1315,382.5382a2.9769,2.9769,0,0,1-2.6086.1823,15.5764,15.5764,0,0,0-.6414-11.4182,2.5407,2.5407,0,0,1,2.0706,4.6283A7.1086,7.1086,0,0,1,197.1315,382.5382Z" transform="translate(-157.1837 -83.5773)" fill="#010101"/>
  <path d="M215.5581,363.56a1.3646,1.3646,0,0,1-1.9266,1.34c-0.1323-1.315.3293-3.2229,1.6265-2.97a2.1672,2.1672,0,0,1,.2995,1.6313Z" transform="translate(-157.1837 -83.5773)" fill="#010101"/>
  <path d="M338.0417,122.63a1.8894,1.8894,0,0,1,.2691-1.6207c1.1036-.0992,2.5-0.0354,2.9373.9828a2.4814,2.4814,0,0,1-3.2546.6591Z" transform="translate(-157.1837 -83.5773)" fill="#010101"/>
  <path d="M222.1261,254.2308l0.0014,1.9672a2.2581,2.2581,0,0,1-1.6258.3176,1.8729,1.8729,0,0,1,1.7812-2.7988Z" transform="translate(-157.1837 -83.5773)" fill="#010101"/>
  <path d="M403.2536,535.4963l-3.2464,4.7513c-1.2663-1.3309-1.1031-3.5584-.1286-5.1157a12.5968,12.5968,0,0,1,4.1147-3.595,8.09,8.09,0,0,1-.9136,3.85Z" transform="translate(-157.1837 -83.5773)" fill="#010101"/>
  <path d="M238.1264,374.3841c0.9023,1.2148-1.264,2.4683-2.7427,2.1469a7.3724,7.3724,0,0,1-5.3257-4.79l6.8622,1.9873A2.1768,2.1768,0,0,1,238.1264,374.3841Z" transform="translate(-157.1837 -83.5773)" fill="#010101"/>
  <path d="M205.1149,563.2467a0.7731,0.7731,0,0,1-1.3.6438,5.6185,5.6185,0,0,1,.3014-2.9044c1.0271-.4583,1.6729,1.4786.784,2.1677Z" transform="translate(-157.1837 -83.5773)" fill="#010101"/>
  <path d="M435.939,285.3761c-0.7393-.6178.1007-1.7938,0.9619-2.2256s1.9833-1.0235,1.8092-1.9711c-0.1866-1.0159-1.8225-1.915-1.0746-2.6275,1.0637-1.1522,3.1916-.2334,3.705,1.2482s-0.0554,3.1018-.6741,4.5427Z" transform="translate(-157.1837 -83.5773)" fill="#010101"/>
  <path d="M404.4829,463.7473c0.1461,0.7016.716,1.3152,0.6431,2.0282a1.2012,1.2012,0,0,1-.8548,1.01c-2.3589-2.9691-.6311-8.1444,3.0383-9.1009C407.9565,459.9285,404.0071,461.461,404.4829,463.7473Z" transform="translate(-157.1837 -83.5773)" fill="#010101"/>
  <path d="M214.8435,387.7776l0.2848-2.326a5.13,5.13,0,0,1,1.707,2.9771,1.1289,1.1289,0,0,1-1.9177-.6449Z" transform="translate(-157.1837 -83.5773)" fill="#010101"/>
  <path d="M237.5272,386.8391a4.09,4.09,0,0,1,3.8355.0729c0.7011,0.261-.0869,1.2644-0.8024,1.4828l-7.814,2.3846a4.9153,4.9153,0,0,1,4.7591-3.8164Z" transform="translate(-157.1837 -83.5773)" fill="#010101"/>
  <path d="M373.4822,547.3505a6.96,6.96,0,0,1,1.94,2.6978,2.3878,2.3878,0,0,1-1.0379,2.8859c-1.2843.5627-.7157,3.0306-2.0524,3.4541-2.6675-1.8359,2.3068-7.0731-.36-8.91Z" transform="translate(-157.1837 -83.5773)" fill="#010101"/>
  <path d="M379.7324,512.3291l-5.5115,2.0841a5.0181,5.0181,0,0,1,9.3761-1.8083,3.7606,3.7606,0,0,1-3.685.2361Z" transform="translate(-157.1837 -83.5773)" fill="#010101"/>
  <path d="M217.2065,321.9579a1.8608,1.8608,0,0,1-1.6339-.2847l0.0026-2.6327a1.606,1.606,0,0,1,2.0291.005l-0.2717,2.9574Z" transform="translate(-157.1837 -83.5773)" fill="#010101"/>
  <path d="M318.4058,520.8522l0.667,6.6247,0.389,3.8639c-2.1044.6276-3.7561-2.1777-3.3645-4.3385S317.9637,523.0032,318.4058,520.8522Z" transform="translate(-157.1837 -83.5773)" fill="#010101"/>
  <path d="M255.5422,454.88a9.0246,9.0246,0,0,1,3.9424-8.5331A7.0155,7.0155,0,0,1,255.5422,454.88Z" transform="translate(-157.1837 -83.5773)" fill="#010101"/>
  <path d="M357.0443,536.4572c-0.6389.6263-1.7155-.5439-1.3177-1.3452a2.5585,2.5585,0,0,1,2.3245-1.0513,1.7222,1.7222,0,0,1-1.0923,2.2051Z" transform="translate(-157.1837 -83.5773)" fill="#010101"/>
  <path d="M288.9331,515.3623a0.9146,0.9146,0,0,1-.3555-1.53c1.4694-.3825,2.9742,1.7333,1.862,2.7669l-1.5994-1.0438Z" transform="translate(-157.1837 -83.5773)" fill="#010101"/>
  <path d="M392.1788,487.0916a4.4964,4.4964,0,0,1,5.6153,2.0013,5.5362,5.5362,0,0,1,.417,3.4377,1.0623,1.0623,0,0,1-1.4417.11A17.0763,17.0763,0,0,1,392.1788,487.0916Z" transform="translate(-157.1837 -83.5773)" fill="#010101"/>
  <path d="M236.9643,400.7c-1.0406.9426-2.9918-.623-2.2972-1.8431a1.8078,1.8078,0,0,1,2.2437,1.7092Z" transform="translate(-157.1837 -83.5773)" fill="#010101"/>
  <path d="M169.0576,354.9995a1.4211,1.4211,0,0,1,1.9267.7,3.925,3.925,0,0,1-2.1717,1.7312,1.6752,1.6752,0,0,1,.267-2.3747Z" transform="translate(-157.1837 -83.5773)" fill="#010101"/>
  <path d="M319.3993,369.53a10.59,10.59,0,0,1-4.9922-5.1409c1.2551,0.187,2.5439.0921,3.7891,0.3365a3.7631,3.7631,0,0,1,2.9462,2.1331C321.57,368.0538,320.6611,369.6648,319.3993,369.53Z" transform="translate(-157.1837 -83.5773)" fill="#010101"/>
  <path d="M351.7873,349.1506a0.88,0.88,0,0,1-.9955.9445,4.0786,4.0786,0,0,1-1.6935-2.3437,2.2058,2.2058,0,0,1,2.5058,1.4563Z" transform="translate(-157.1837 -83.5773)" fill="#010101"/>
  <path d="M266.9318,362.54a4.2011,4.2011,0,0,1-4.3983,5.3381,3.1206,3.1206,0,0,1-2.1361-1.3318Z" transform="translate(-157.1837 -83.5773)" fill="#010101"/>
  <path d="M408.9109,475.2177a10.0759,10.0759,0,0,1,2.9215,5.3582,13.02,13.02,0,0,0-7.047-1.9824l0.0525-1.7135A5.796,5.796,0,0,1,408.9109,475.2177Z" transform="translate(-157.1837 -83.5773)" fill="#010101"/>
  <path d="M420.3542,204.7552c-0.7071-.5049.4307-1.6591,1.1892-1.2352a2.6457,2.6457,0,0,1,.9342,2.3084,2.6976,2.6976,0,0,1-1.9262-1.3817Z" transform="translate(-157.1837 -83.5773)" fill="#010101"/>
  <path d="M367.969,562.9059q0.1127,1.17.2254,2.341a1.4679,1.4679,0,0,1-1.9887-.9081,4.246,4.246,0,0,1,.1153-2.4684l1.5539,0.9378Z" transform="translate(-157.1837 -83.5773)" fill="#010101"/>
  <path d="M372.0678,521.9826a3.364,3.364,0,0,1,.9531-5.0689,12.0933,12.0933,0,0,1,1.4758,9.6414,5.4945,5.4945,0,0,1-2.2636-4.5366Z" transform="translate(-157.1837 -83.5773)" fill="#010101"/>
  <path d="M358.6407,567.4812A2.3582,2.3582,0,0,1,358,571.4355a3.3088,3.3088,0,0,1,.5841-3.9773Z" transform="translate(-157.1837 -83.5773)" fill="#010101"/>
  <path d="M425.886,567.3241a2.4069,2.4069,0,1,1,.29-0.429Z" transform="translate(-157.1837 -83.5773)" fill="#010101"/>
  <path d="M315.7787,568.0023a7.64,7.64,0,0,1-4.0567-1.302,3.8218,3.8218,0,0,1-1.306-2.2172,14.1847,14.1847,0,0,1,9.3779,1.3846C320.1468,567.6157,317.549,568.2171,315.7787,568.0023Z" transform="translate(-157.1837 -83.5773)" fill="#010101"/>
  <path d="M264.3547,469.9542l3.4059-.025a1.627,1.627,0,1,1-3.22.0316Z" transform="translate(-157.1837 -83.5773)" fill="#010101"/>
  <path d="M422.2253,442.89a9.1016,9.1016,0,0,1,.6962,4.8633c-0.8322-1.6578-3.6127-.6435-5.0409-1.8271-1.1338-.94-0.7278-2.9806.5361-3.7364a3.8765,3.8765,0,0,1,4.1446.4521Z" transform="translate(-157.1837 -83.5773)" fill="#010101"/>
  <path d="M441.6747,310.79a2.4908,2.4908,0,0,1-1.0893-3.8789,2.11,2.11,0,0,1,1.1606,3.2738Z" transform="translate(-157.1837 -83.5773)" fill="#010101"/>
  <path d="M387.4635,420.0829a19.3232,19.3232,0,0,1-4.2492-6.3458C386.3438,413.3268,389.0348,417.3456,387.4635,420.0829Z" transform="translate(-157.1837 -83.5773)" fill="#010101"/>
  <path d="M433.7295,305.5386a5.1188,5.1188,0,0,1-.5922-3.9625c1.865,0.1962,2.2571,3.4085.494,4.0475Z" transform="translate(-157.1837 -83.5773)" fill="#010101"/>
  <path d="M227.0445,381.6063a1.8186,1.8186,0,0,1,1.6092.2713,1.9294,1.9294,0,0,1-2.2762,2.2955l-0.9926-2.2745a2.19,2.19,0,0,1,1.6465-.3082Z" transform="translate(-157.1837 -83.5773)" fill="#010101"/>
  <path d="M309.8474,509.4423a4.3643,4.3643,0,0,1,1.4508.4087c1.19,0.6608,1.4862,2.2084,1.6558,3.5587a5.5561,5.5561,0,0,1-6.3456-4.4852Z" transform="translate(-157.1837 -83.5773)" fill="#010101"/>
  <path d="M310.2814,316.1544a3.6112,3.6112,0,0,1,.923-1.7152,0.7867,0.7867,0,0,1,1.0716-.08,13.74,13.74,0,0,1-2.01,10.4034C308.5269,322.339,309.37,318.9951,310.2814,316.1544Z" transform="translate(-157.1837 -83.5773)" fill="#010101"/>
  <path d="M226.0358,349.8213a3.8771,3.8771,0,0,1-.2548,2.354,2.8585,2.8585,0,0,1-2.3615-2.9924,1.8135,1.8135,0,0,1,2.7687.5757Z" transform="translate(-157.1837 -83.5773)" fill="#010101"/>
  <path d="M306.6672,573.049a6.984,6.984,0,0,1,1.4436-6.16c1.7284,0.9605,3.1358,2.8792,2.7379,4.8161s-3.2673,3.0588-4.4855,1.5013Z" transform="translate(-157.1837 -83.5773)" fill="#010101"/>
  <path d="M240.4956,367.3082c-0.3428-1.1531,1.7069-1.8447,2.3538-.83s-0.2542,2.4782-1.4354,2.7062l-0.65-2.0109Z" transform="translate(-157.1837 -83.5773)" fill="#010101"/>
  <path d="M192.64,402.21a6.5607,6.5607,0,0,1,1.59-3.3887c0.9343-.8557,2.6564-0.9657,3.3271.1092,1.0491,1.6813-1.32,3.3853-3.2139,3.9693-0.9255.2854-2.3325,0.2783-2.423-.686Z" transform="translate(-157.1837 -83.5773)" fill="#010101"/>
  <path d="M285.6332,241.138l1.3362,1.44a5.9874,5.9874,0,0,1-6.54-3.4159,1.9916,1.9916,0,0,1,1.5423-.8908l3.68,2.8379Z" transform="translate(-157.1837 -83.5773)" fill="#010101"/>
  <path d="M408.9322,255.0763c1.0248-.9479,2.9825.5816,2.3108,1.8053a2.416,2.416,0,0,1-2.7124-.4785c-0.6433-.1862-0.1369-1.42.4518-1.101Z" transform="translate(-157.1837 -83.5773)" fill="#010101"/>
  <path d="M338.0193,357.1965l-2.4011.2146a2.3975,2.3975,0,0,1,2.7621-2.6521,2.1446,2.1446,0,0,1-.4352,2.2056Z" transform="translate(-157.1837 -83.5773)" fill="#010101"/>
  <path d="M305.7043,318.6978a6.4894,6.4894,0,0,1-1.0868,6.4724c-0.6095.71-1.7352,1.2812-2.4205,0.644A11.8727,11.8727,0,0,1,305.7043,318.6978Z" transform="translate(-157.1837 -83.5773)" fill="#010101"/>
  <path d="M264.6665,513.8494l1.9711,0.9683,0.0322,1.9673a1.5681,1.5681,0,1,1-1.7539-2.5836Z" transform="translate(-157.1837 -83.5773)" fill="#010101"/>
  <path d="M258.7136,366.2117c-2.6339,1.367-6.2794-1.46-5.6111-4.3513A63.83,63.83,0,0,1,258.7136,366.2117Z" transform="translate(-157.1837 -83.5773)" fill="#010101"/>
  <path d="M421.4974,417.5495a1.94,1.94,0,0,1-.6713,3.2956,2.6436,2.6436,0,0,1-.9861-1.64l1.4342-1.8Z" transform="translate(-157.1837 -83.5773)" fill="#010101"/>
  <path d="M387.3885,460.9368a2.5546,2.5546,0,0,1,1.4907,3.1621,2.4548,2.4548,0,0,1-1.8181-3.5516Z" transform="translate(-157.1837 -83.5773)" fill="#010101"/>
  <path d="M431.5391,432.49a4.3024,4.3024,0,0,1,1.9426,5.4543,11.4,11.4,0,0,1-4.0075-5.5756,1.8345,1.8345,0,0,1,2.1738-.1126Z" transform="translate(-157.1837 -83.5773)" fill="#010101"/>
  <path d="M211.91,400.5531c-0.1646.8026-1.4795,0.6963-1.9129,0.001a5.3217,5.3217,0,0,1-.3957-2.3971,1.7643,1.7643,0,0,0-1.3548-1.7884,4.1817,4.1817,0,0,1,4.7881-.66l-0.9289,4.8731Z" transform="translate(-157.1837 -83.5773)" fill="#010101"/>
  <path d="M422.77,153.766a0.7519,0.7519,0,0,1-.6305,1.2694l-2.3023-2.2942a1.9632,1.9632,0,0,1,2.8143,1.04Z" transform="translate(-157.1837 -83.5773)" fill="#010101"/>
  <path d="M334.9108,529.08l3.2568,1.9316a2.3382,2.3382,0,0,1-3.4416-1.1433Z" transform="translate(-157.1837 -83.5773)" fill="#010101"/>
  <path d="M387.1415,494.5243a4.9219,4.9219,0,0,1,2.6575-2.0526,4.55,4.55,0,0,1-4.4528,4.7759,2.8732,2.8732,0,0,1,1.8178-2.61Z" transform="translate(-157.1837 -83.5773)" fill="#010101"/>
  <path d="M440.141,408.74q-0.0392.9429-.0785,1.8859a2.54,2.54,0,0,1-3.5375-.2612,3.0938,3.0938,0,0,1-.0816-3.6873,2.5446,2.5446,0,0,1,2.93-1.0356,1.6787,1.6787,0,0,1,.4823,2.7292Z" transform="translate(-157.1837 -83.5773)" fill="#010101"/>
  <path d="M410.6171,162.7307a1.5161,1.5161,0,0,1,1.163,1.8266c-0.9488-.121-2.0795-0.3821-2.39-1.2866s1.4-1.7137,1.527-.7657Z" transform="translate(-157.1837 -83.5773)" fill="#010101"/>
  <path d="M344.1931,483.1015c0.5208,0.22.269,1.1167-.2778,1.26a1.8674,1.8674,0,0,1-1.541-.5416,11.518,11.518,0,0,1-3.16-3.9039,6.4638,6.4638,0,0,1,4.9251,3.1818Z" transform="translate(-157.1837 -83.5773)" fill="#010101"/>
  <path d="M228.8757,388.8542a3.1806,3.1806,0,0,1-1.0534,4.5744,3.5534,3.5534,0,0,1,1.0245-4.8608Z" transform="translate(-157.1837 -83.5773)" fill="#010101"/>
  <path d="M427.0145,571.13a2.0661,2.0661,0,0,1-.418,1.8625,3.5336,3.5336,0,0,1-1.0649-4.871,2.8727,2.8727,0,0,1,1.4982,2.9815Z" transform="translate(-157.1837 -83.5773)" fill="#010101"/>
  <path d="M350.3647,531.9392l0.7442,1.0829a13.2023,13.2023,0,0,0-2.8158,4.4156,4.771,4.771,0,0,1-1.78-4.315l3.5422-1.1693Z" transform="translate(-157.1837 -83.5773)" fill="#010101"/>
  <path d="M214.019,554.1664a11.3289,11.3289,0,0,1-9.3447,1.2558A7.738,7.738,0,0,1,214.019,554.1664Z" transform="translate(-157.1837 -83.5773)" fill="#010101"/>
  <path d="M424.1722,431.7784a4.09,4.09,0,0,1,.5164,4.7627,5.1179,5.1179,0,0,1-1.2535-4.3216Z" transform="translate(-157.1837 -83.5773)" fill="#010101"/>
  <path d="M202.4544,218.8775a5.1017,5.1017,0,0,1,1.6415-3.6c0.5958,1.9893.6933,4.9057-1.3363,5.3451l-0.37-1.7086Z" transform="translate(-157.1837 -83.5773)" fill="#010101"/>
  <path d="M347.52,510.1463a2.1258,2.1258,0,0,1,3.7892.0006l-7.3281,1.919a2.1975,2.1975,0,0,1,2.8979-2.295Z" transform="translate(-157.1837 -83.5773)" fill="#010101"/>
  <path d="M209.6135,312.9175a6.306,6.306,0,0,1-.573-1.9482,1.58,1.58,0,0,1,1.1536-1.4183,35.9062,35.9062,0,0,1,2.2109,6.7615c-0.3432.95-1.9152,0.511-2.3175-.4154S209.8948,313.8875,209.6135,312.9175Z" transform="translate(-157.1837 -83.5773)" fill="#010101"/>
  <path d="M347.5414,565.5024a4.2812,4.2812,0,0,1-1.0514-2.9356,3.4011,3.4011,0,0,1,2.2916-.2591,3.978,3.978,0,0,1,.4372,2.3873,1.3772,1.3772,0,0,1-1.8567,1.0208Z" transform="translate(-157.1837 -83.5773)" fill="#010101"/>
  <path d="M294.5207,248.507a2.0946,2.0946,0,0,1-1.4181-2.46,21.7187,21.7187,0,0,1,5.6617,2.9685,2.7045,2.7045,0,0,1-4.1722-.42Z" transform="translate(-157.1837 -83.5773)" fill="#010101"/>
  <path d="M454.87,395.9585a2.3405,2.3405,0,0,1,2.0776,2.6236c-1.6378.3047-3.6251-.6813-3.7635-2.3414l1.6634-.3662Z" transform="translate(-157.1837 -83.5773)" fill="#010101"/>
  <path d="M257.8021,132.8311a4.8123,4.8123,0,0,1,2.9857,1.5864,2.79,2.79,0,0,1-2.9291.921c-0.9976-.4379-1.0852-2.2622-0.0109-2.4435Z" transform="translate(-157.1837 -83.5773)" fill="#010101"/>
  <path d="M260.81,402.8165c-0.431-.5365.7141-1.0367,1.2637-0.6226l1.3385,3.3111c-1.3822.8934-3.3913-1.1661-2.4639-2.5257Z" transform="translate(-157.1837 -83.5773)" fill="#010101"/>
  <path d="M343.8161,505.52a2.5457,2.5457,0,0,1,4.0118,1.5423,4.3226,4.3226,0,0,1-4.0761-1.3072Z" transform="translate(-157.1837 -83.5773)" fill="#010101"/>
  <path d="M419.5179,432.6364l-1.3256,1.3333a2.2034,2.2034,0,0,1,.7114-3.7676,1.715,1.715,0,0,1,.6535,2.4808Z" transform="translate(-157.1837 -83.5773)" fill="#010101"/>
  <path d="M390.7135,429.6092a4.4432,4.4432,0,0,1-5.0022,3.1064,3.3209,3.3209,0,0,1-1.9308-1.1059A7.5906,7.5906,0,0,1,390.7135,429.6092Z" transform="translate(-157.1837 -83.5773)" fill="#010101"/>
  <path d="M431.3979,544.888c0.6539-1.6248,3.2506-.8445,4.2134.6186l-1.7,1.0175-2.3287-1.5358Z" transform="translate(-157.1837 -83.5773)" fill="#010101"/>
  <path d="M292.0487,479.4176c0.3074-1.7581-2.0668-3.714-.8353-5.0058,0.9435-.99,2.67.2361,2.9062,1.5831s-0.2645,2.7515.027,4.0876a1.184,1.184,0,0,1-1.9905-.6258Z" transform="translate(-157.1837 -83.5773)" fill="#010101"/>
  <path d="M369.4405,500.7049a2.0422,2.0422,0,0,1,3.9072,1.1867,10.2616,10.2616,0,0,1-3.9015-1.19Z" transform="translate(-157.1837 -83.5773)" fill="#010101"/>
  <path d="M441.1085,247.3811a2.061,2.061,0,0,1,1.4608,3.221,6.0834,6.0834,0,0,1-3.7455-4.2761,1.63,1.63,0,0,1,2.1472,1.0687Z" transform="translate(-157.1837 -83.5773)" fill="#010101"/>
  <path d="M204.35,208.3839a1.3458,1.3458,0,0,1-1.9645.6467l1.1353-3.61a1.7318,1.7318,0,0,1,.778,2.8259Z" transform="translate(-157.1837 -83.5773)" fill="#010101"/>
  <path d="M203.025,573.5768l0.6695,0.054" transform="translate(-157.1837 -83.5773)" fill="#010101"/>
  <path d="M234.467,378.04a2.254,2.254,0,0,1-.2505,2.8582,5.423,5.423,0,0,1-1.6663-3.5981,1.3221,1.3221,0,0,1,1.91.6919Z" transform="translate(-157.1837 -83.5773)" fill="#010101"/>
  <path d="M265.2619,450.05a2.38,2.38,0,0,1-1.6437,3.5306,3.0711,3.0711,0,0,1,1.6561-3.7528Z" transform="translate(-157.1837 -83.5773)" fill="#010101"/>
  <path d="M400.6764,474.2605c0.534,0.7123-.5916,1.7032-1.424,1.3876a2.87,2.87,0,0,1-1.44-2.1247,4.4566,4.4566,0,0,1,.1235-3.4c0.5978-1.0008,2.268-1.3528,2.9-.3735a4.07,4.07,0,0,0,.1093,4.399Z" transform="translate(-157.1837 -83.5773)" fill="#010101"/>
  <path d="M365.887,560.7976l-3.9555-3.8981A2.5063,2.5063,0,0,1,365.93,559.84Z" transform="translate(-157.1837 -83.5773)" fill="#010101"/>
  <path d="M338.3229,331.7563c0.9706,0.1244,2.0062,1.2669,1.3061,1.9506a4.3729,4.3729,0,0,1-5.0355-3.6707,4.123,4.123,0,0,1,3.7164,1.7925Z" transform="translate(-157.1837 -83.5773)" fill="#010101"/>
  <path d="M297.5663,516.3827a2.788,2.788,0,0,1-2.8754,1.8552,3.2819,3.2819,0,0,1,2.8536-2.618,0.8369,0.8369,0,0,1,.914.3912c0.1166,0.3385-.5231.6358-0.58,0.2824Z" transform="translate(-157.1837 -83.5773)" fill="#010101"/>
  <path d="M356.982,559.9858a1.859,1.859,0,0,1-.6179-1.978l1.61-.8555,1.6406,0.8562,0.0053,1.978a2.5347,2.5347,0,0,1-2.6374.0067Z" transform="translate(-157.1837 -83.5773)" fill="#010101"/>
  <path d="M392.1744,553.4a2.7266,2.7266,0,0,1-3.1489,2.0859c-0.4188-1.828,2.2338-3.165,3.8423-2.2008Z" transform="translate(-157.1837 -83.5773)" fill="#010101"/>
  <path d="M377.29,432.31l-0.0085,2.2091a4.2454,4.2454,0,0,1-3.8189-5.024,3.2762,3.2762,0,0,1,3.6042,2.8365Z" transform="translate(-157.1837 -83.5773)" fill="#010101"/>
  <path d="M202.9373,187.49a2.5579,2.5579,0,0,1-3.211,2.7217,3.7173,3.7173,0,0,1,3.4107-2.7408Z" transform="translate(-157.1837 -83.5773)" fill="#010101"/>
  <path d="M416.7754,456.6692a18.0572,18.0572,0,0,1-3.1668,3.4542,2.9975,2.9975,0,0,1,2.6392-5.213,2.091,2.091,0,0,1,.3012,1.6185Z" transform="translate(-157.1837 -83.5773)" fill="#010101"/>
  <path d="M398.3939,257.7985c-0.39-1.1485,1.2709-1.9668,2.4524-1.6922s2.3135,1.053,3.5023.8116a4.9567,4.9567,0,0,1-5.4039.4989Z" transform="translate(-157.1837 -83.5773)" fill="#010101"/>
  <path d="M343.646,522.1329c-1.1837-.2887-1.4755-2.0512-0.6788-2.9731a3.4081,3.4081,0,0,1,3.382-.7874,2.1936,2.1936,0,0,1,1.0245.4924c0.7714,0.744.3369,2.1567-.5635,2.738a5.4091,5.4091,0,0,1-3.117.543Z" transform="translate(-157.1837 -83.5773)" fill="#010101"/>
  <path d="M328.7581,306.0394c-0.5145,1.973-3.9717,1.9984-4.5151.0332a2.7447,2.7447,0,0,1,4.01-.2149Z" transform="translate(-157.1837 -83.5773)" fill="#010101"/>
  <path d="M407.5952,507.672a5.4671,5.4671,0,0,1-1.9513,4.9887c-0.6091-1.31-1.19-2.7922-.7276-4.1608s2.51-2.1578,3.3834-1.0075Z" transform="translate(-157.1837 -83.5773)" fill="#010101"/>
  <path d="M449.7284,303.3245c-0.9814.9539-2.1243,1.9737-3.492,1.9272s-2.5145-1.9439-1.4607-2.817a2.5744,2.5744,0,0,1,1.4314-.4333c1.4126-.1359,3.2626.004,3.6592,1.3665Z" transform="translate(-157.1837 -83.5773)" fill="#010101"/>
  <path d="M208.4685,542.3139a11.0528,11.0528,0,0,1,1.9559-4.9758,17.0474,17.0474,0,0,1-.9289,7.3126c-0.9844.2491-1.2655-1.3052-1.0278-2.2924Z" transform="translate(-157.1837 -83.5773)" fill="#010101"/>
  <path d="M219.22,312.8494c-0.9744,1.2593-3.4639-.1064-2.9254-1.6049l4.0484-1.8811a2.216,2.216,0,0,1-1.0986,3.4961Z" transform="translate(-157.1837 -83.5773)" fill="#010101"/>
  <path d="M364.5223,511.1975a3.6007,3.6007,0,0,1-1.3011-2.6347,4.8617,4.8617,0,0,1,4.3847,3.6443l-3.0968-.9572Z" transform="translate(-157.1837 -83.5773)" fill="#010101"/>
  <path d="M206.01,371.3239a6.3793,6.3793,0,0,1-4.1386-3.9568,3.4468,3.4468,0,0,1,4.2563,3.7586Z" transform="translate(-157.1837 -83.5773)" fill="#010101"/>
  <path d="M339.9763,489.9313a1.7617,1.7617,0,0,0,.6013-1.97c0.7565-1.16,2.7308.3758,2.3017,1.6925s-1.9355,1.8912-3.26,2.2953a1.2951,1.2951,0,0,1,.412-2.0042Z" transform="translate(-157.1837 -83.5773)" fill="#010101"/>
  <path d="M214.1933,220.78a2.523,2.523,0,0,1-2.614.7345l0.3209-3.57,4.3716,1.6478-1.9415,1.3353Z" transform="translate(-157.1837 -83.5773)" fill="#010101"/>
  <path d="M306.0335,318.68a8.4868,8.4868,0,0,1-.04-4.4953,2.132,2.132,0,0,1-.0776,4.2591Z" transform="translate(-157.1837 -83.5773)" fill="#010101"/>
  <path d="M276.7938,463.6649a8.9439,8.9439,0,0,0,2.4527,4.5454,3.3164,3.3164,0,0,1-2.4964.4461,4.651,4.651,0,0,1-.0222-4.7657Z" transform="translate(-157.1837 -83.5773)" fill="#010101"/>
  <path d="M205.7038,380.3842a2.2525,2.2525,0,0,1-.9746-2.898,6.5464,6.5464,0,0,1,2.2084-2.5276,3.25,3.25,0,0,1-1.4311,4.6738Z" transform="translate(-157.1837 -83.5773)" fill="#010101"/>
  <path d="M353.2309,501.6548l-0.8273-2.5714a2.3494,2.3494,0,0,1,1.6437-.32l1.6352,2.9417-1.5749,2.316a2.27,2.27,0,0,1-1.0314-2.3Z" transform="translate(-157.1837 -83.5773)" fill="#010101"/>
  <path d="M428.4731,442.6857a3.4824,3.4824,0,0,1-.4836-3.5592,3.7213,3.7213,0,0,1,2.1187,5.369l-1.7514-1.711Z" transform="translate(-157.1837 -83.5773)" fill="#010101"/>
  <path d="M400.5019,524.212c-1.5014.5765-3.2468-.6874-3.6122-2.2537a2.1987,2.1987,0,0,1,3.6872,2.3649Z" transform="translate(-157.1837 -83.5773)" fill="#010101"/>
  <path d="M394.3367,497.7945a2.0437,2.0437,0,0,1,.6327-2.059,1.0649,1.0649,0,0,1,1.6627.7452,5.7433,5.7433,0,0,1-1.9341,4.2417,1.8945,1.8945,0,0,1-.4276-2.9861Z" transform="translate(-157.1837 -83.5773)" fill="#010101"/>
  <path d="M459.4792,385.3467a1.7965,1.7965,0,1,1-1.2381,3.2668,2.279,2.279,0,0,1,1.1473-3.4779Z" transform="translate(-157.1837 -83.5773)" fill="#010101"/>
  <path d="M221.5534,434.8715a3.6047,3.6047,0,0,1,.2381,3.681,3.4884,3.4884,0,0,1-2.8162-2.3007l0.8633-1.6927,1.6538,0.1894Z" transform="translate(-157.1837 -83.5773)" fill="#010101"/>
  <path d="M312.16,407.0191l2.3984,0.2951-1.1526,3.7672a3.0629,3.0629,0,0,1-2.0689-2.3487l0.7868-1.6459Z" transform="translate(-157.1837 -83.5773)" fill="#010101"/>
  <path d="M414.2989,463.3776a2.1877,2.1877,0,0,1-.99-2.2555l3.7181-.815,1.5861,2.1656a4.64,4.64,0,0,1-4.2982.8274Z" transform="translate(-157.1837 -83.5773)" fill="#010101"/>
  <path d="M400.8958,542.9386a1.882,1.882,0,0,1,.3117-1.6847,4.6836,4.6836,0,0,1,.4005,6.69,3.0731,3.0731,0,0,1-.5575-4.7776Z" transform="translate(-157.1837 -83.5773)" fill="#010101"/>
  <path d="M189.061,379.16a1.8474,1.8474,0,0,1,2.6443-.3623,5.3519,5.3519,0,0,1,1.61,2.513,3.1977,3.1977,0,0,1-3.9627-2.0228Z" transform="translate(-157.1837 -83.5773)" fill="#010101"/>
  <path d="M449.3161,366.1717a5.1454,5.1454,0,0,1-.7841,6.4871,4.5139,4.5139,0,0,1,.5546-6.7417Z" transform="translate(-157.1837 -83.5773)" fill="#010101"/>
  <path d="M432.5987,256.6061a0.8835,0.8835,0,0,1-.9032,1.4109c-1.2043.6075-2.8622-.8305-2.32-2.0656s2.8784-.768,2.7994.5785Z" transform="translate(-157.1837 -83.5773)" fill="#010101"/>
  <path d="M195.4532,396.8321l-2.25-3.0666a2.1707,2.1707,0,1,1,2.3182,3.63Z" transform="translate(-157.1837 -83.5773)" fill="#010101"/>
  <path d="M341.7716,513.68a2.436,2.436,0,0,1,.5408,2.8536,4.369,4.369,0,0,1-3.0718-3.68,1.783,1.783,0,0,1,2.6226.6571Z" transform="translate(-157.1837 -83.5773)" fill="#010101"/>
  <path d="M215.2611,375.2177a11.2506,11.2506,0,0,1-.001,8.9138A11.3834,11.3834,0,0,1,215.2611,375.2177Z" transform="translate(-157.1837 -83.5773)" fill="#010101"/>
  <path d="M206.2163,386.9754l-0.2754-6.6948,1.735,1.0061A8.1431,8.1431,0,0,1,206.2163,386.9754Z" transform="translate(-157.1837 -83.5773)" fill="#010101"/>
  <path d="M362.9333,498.4652a3.3185,3.3185,0,0,1,3.213-1.4125,6.8234,6.8234,0,0,1-2.8643,3.84,3.2174,3.2174,0,0,1-.3506-2.4424Z" transform="translate(-157.1837 -83.5773)" fill="#010101"/>
  <path d="M448.1082,313.199a1.2113,1.2113,0,0,1,1.7509-.7184,6.6845,6.6845,0,0,1-2.0121,5.8226,5.3823,5.3823,0,0,1,.2183-5.1056Z" transform="translate(-157.1837 -83.5773)" fill="#010101"/>
  <path d="M238.1717,461.4618a3.6112,3.6112,0,0,1-2.8381-3.7818,3.7155,3.7155,0,0,1,3.1739,3.7773Z" transform="translate(-157.1837 -83.5773)" fill="#010101"/>
  <path d="M368.4532,538.4087a1.482,1.482,0,0,1,.7181,2.6683c-1.1312-.2651-2.4435-0.69-2.7948-1.7972s1.5333-2.2381,1.93-1.1461Z" transform="translate(-157.1837 -83.5773)" fill="#010101"/>
  <path d="M269.2678,478.1293a2.4954,2.4954,0,0,1,3.4757-1.9652,12.7229,12.7229,0,0,1-3.2063,3.5965l-0.3779-1.5982Z" transform="translate(-157.1837 -83.5773)" fill="#010101"/>
  <path d="M244.6969,360.8064c0.7819,0.0965-.2778,1.1688-1.0435.9835a13.103,13.103,0,0,1-4.531-2.0738,5.1422,5.1422,0,0,1,5.6863.8Z" transform="translate(-157.1837 -83.5773)" fill="#010101"/>
  <path d="M273.1828,348.5094a2.4421,2.4421,0,0,1-3.342,1.9964,2.3022,2.3022,0,0,0,1.302-1.5174,2.3359,2.3359,0,0,1,1.2931-1.5278c0.669-.1778,1.4285.7661,0.8832,1.1925Z" transform="translate(-157.1837 -83.5773)" fill="#010101"/>
  <path d="M207.3952,312.8261a6.3781,6.3781,0,0,1,1.6291,2.9321l-1.62.9266a3.2764,3.2764,0,0,1-1.635-3.5347,2.1123,2.1123,0,0,1,1.6231-.302Z" transform="translate(-157.1837 -83.5773)" fill="#010101"/>
  <path d="M381.2359,542.9615a2.8637,2.8637,0,0,1-3.9722,2.668,4.6372,4.6372,0,0,1,4.1511-3.4544Z" transform="translate(-157.1837 -83.5773)" fill="#010101"/>
  <path d="M207.4867,224.3572a2.817,2.817,0,0,1-.838-3.04,5.625,5.625,0,0,1,2.5843.8113,1.9306,1.9306,0,0,1,.7124,2.3925c-0.4616.7872-1.9458,0.7049-2.0924-.1958Z" transform="translate(-157.1837 -83.5773)" fill="#010101"/>
  <path d="M361.9558,534.086a4.1208,4.1208,0,0,1,.562-4.6324c0.899,0.9142,1.8588,1.9706,1.8518,3.2527s-1.6854,2.4447-2.5951,1.5411Z" transform="translate(-157.1837 -83.5773)" fill="#010101"/>
  <path d="M312.47,402.1951a2.7055,2.7055,0,0,1-1.6864.996c-0.9784-1.953,1.2914-4.574,3.3642-3.8848a1.8745,1.8745,0,0,1-1.6664,2.7148Z" transform="translate(-157.1837 -83.5773)" fill="#010101"/>
  <path d="M331.4452,375.9785l-1.6471.9616a2.4257,2.4257,0,0,1-.9508-1.5924l3.6027-1.6186a2.584,2.584,0,0,1,.9792,1.6518l-1.9609.6472Z" transform="translate(-157.1837 -83.5773)" fill="#010101"/>
  <path d="M269.3032,437.6187c-1.7943,1.0556-4.2758-1.522-3.1529-3.2749l1.476-1.0026a3.6756,3.6756,0,0,1,1.5468,4.1757Z" transform="translate(-157.1837 -83.5773)" fill="#010101"/>
  <path d="M385.7657,503.0221a1.9657,1.9657,0,0,1-.9277,2.2187c-1.4556-1.192-2.8961-3.6048-1.3115-4.6191l2.5068,2.1155Z" transform="translate(-157.1837 -83.5773)" fill="#010101"/>
  <path d="M223.7478,377.66a2.4369,2.4369,0,0,1-.0232-2.5015,4.0945,4.0945,0,0,1,3.066,3.4229l-1.7892,1.027-1.3286-1.9051Z" transform="translate(-157.1837 -83.5773)" fill="#010101"/>
  <path d="M206.7882,547.887a2.7906,2.7906,0,0,1,1.94-1.3974,3.3835,3.3835,0,0,1-3.2227,4.5928l0.84-3.2993Z" transform="translate(-157.1837 -83.5773)" fill="#010101"/>
  <path d="M279.1916,422.506l2.4705,7.148a16.1548,16.1548,0,0,0-7.0425,8.8065c0.6023-4.2739-4.1893-8.313-8.3-6.9961s-5.6627,7.3885-2.6889,10.5167a5.6349,5.6349,0,0,1-6.2838-.2212c1.1849,1.6622-.6785,4.3944-2.6586,3.8982l-1.8114-25.4008a7.4213,7.4213,0,0,1,6.9141,2.7766,13.7866,13.7866,0,0,0,5.2631-10.947,14.08,14.08,0,0,1-11.1072,5.7716c1.2129-7.8892,11.424-12.809,18.35-8.841l-2.3548-4.9779a3.5529,3.5529,0,0,1,4.8708,1.8736,42.44,42.44,0,0,0,5.9527-16.6764,23.8483,23.8483,0,0,0,18.42-4.4993c-7.2978,4.8883-15.5541-9.367-23.9761-6.8721-2.8247.8368-4.8855,3.4759-7.7582,4.1291s-6.2019-3.4828-3.62-4.9023c0.0761,2.2442,3.7408.7613,4.648-1.2929a24.9679,24.9679,0,0,0-2.709-24.43,7.3735,7.3735,0,0,1,6.4963,5.8067A47.4667,47.4667,0,0,1,290.81,335.0144c-22.2671,13.2673-50.1068,11.9687-75.7595,8.2556-10.6372-1.54-22.1807-3.9584-28.9638-12.2956-9.6085-11.81-6.5385-31.8634-18.9487-40.6829a14.8749,14.8749,0,0,1,6.3041-26.819c-1.3165-21.2533,4.7952-42.2833,12.5752-62.1052,12.1143-30.8646,28.8331-60.5647,53.249-82.9979s57.2791-36.9877,90.3441-34.52c5.9963,0.4475,12.0544,1.4722,17.4355,4.1555l-10.82.4347Q323.03,105.2506,308.58,121.0249c-1.3673,1.4925-2.91,3.0683-4.9158,3.34s-4.318-1.6268-3.6131-3.5241l8.1829-3.829a10.7778,10.7778,0,0,0-12.5106,5.1943l2.1513,4.62a131.8644,131.8644,0,0,1-18.2324-.2967q2.553-2.3686,5.26-4.5641a55.5072,55.5072,0,0,1-29.1841,6.7441c0.0685,5.0059-7.8207,7.6131-10.7486,3.5521-3.3544,2.2275-6.71,4.4561-9.9529,6.8434-30.937,22.7758-50.3083,60.5065-50.7865,98.92-0.12,9.6072.05,21.0144-7.8218,26.5233,29.0627-4.248,58.84-8.4808,87.6012-2.5244,26.4576,5.4793,53.6353,19.4217,79.0632,10.2865a192.5856,192.5856,0,0,1,113.5051-4.91,125.27,125.27,0,0,1-2.2618-37.2047c-0.9217-.8341-1.0308,1.9037.1684,1.5765s1.3477-1.9481,1.2338-3.186c-5.674-61.6765-49.032-118.3345-107.0823-139.9295,3.3432-2.1591,7.7576-.6836,11.38.964,62.8469,28.5836,104.5607,98.1253,100.19,167.0285-0.335,5.2812.9611,12.7022,6.2493,12.5049,6.1919-.231,9.3435,8.1258,7.3008,13.9756s-7.0151,10.137-10.2253,15.4367c-4.0822,6.7392-5.1546,14.8054-7.3923,22.36s-6.3492,15.3644-13.6755,18.2635a116.3736,116.3736,0,0,1-93.8-4.1781,43.37,43.37,0,0,1,12.4,15.0627c-1.3919.3509-1.1737-2.4961,0.2616-2.5228s2.3755,1.4451,3.0206,2.7275l7.6569,15.2231c0.2509-1.9572,3.6307-1.5947,4.2975.2624s-0.3934,3.8483-1.4165,5.5355A12.845,12.845,0,0,1,381.48,376.79l-5.395-.8008a108.9358,108.9358,0,0,1,18.84,49.5363,164.1915,164.1915,0,0,0-27.9928-51.9079c-2.2613-2.8214-4.7163-5.7939-5.12-9.3871-0.5932-5.2854-3.7788-9.8587-6.6565-14.3315a165.4187,165.4187,0,0,1-18.2714-38.6041c-2.8486-8.8191-7.6334-19.9363-16.8815-19.3333-7.0866.462-11.3237,7.8712-14.2652,14.3349-6.9375,15.245-13.9646,30.8036-15.8813,47.4429a4.8061,4.8061,0,0,0-4.3-4.2409,23.9226,23.9226,0,0,0-2.9022,21.9475,7.6609,7.6609,0,0,1,4.5726-3.908,4.3708,4.3708,0,0,1-1.1244,6.1132,4.9334,4.9334,0,0,0,4.29,3.277,10.7586,10.7586,0,0,0-.4016-10.0082c0.6728-6.2494,9.7815-7.3609,15.3243-4.3969s10.1362,8.2059,16.371,9.0024c3.77,0.4816,4.5,5.5486,4.439,9.3483s1.4223,8.9157,5.21,8.6071a18.8092,18.8092,0,0,0,5.44,13.67c2.3895-2.4252,1.1022-7.2731-2.1756-8.1935a5.6829,5.6829,0,1,1,3.7185,10.7122l6.8174,1.9782c0.952,1.0176-.1812,2.8277-1.5639,3s-2.6687-.6617-3.812-1.4583c-8.4718-5.9027-17.77-13.1946-18.4759-23.4959-4.2883,7.7611,1.6459,19.0245,10.4719,19.8764a10.9135,10.9135,0,0,0-1.6678,10.7346c-3.673.34-6.1793-5.1405-3.52-7.6967a23.249,23.249,0,0,1-11.0625-18.2655c-3.0627,3.8714-7.4988,8.1895-12.1659,6.5815a3.2638,3.2638,0,0,0,3.8578,3.8468l-1.9274,6.531c-2.5927-6.181-12.5185-7.3212-16.4453-1.8891a7.3,7.3,0,0,0-2.069-8.457q-0.3231,4.9662-.6461,9.9324a7.1037,7.1037,0,0,0,9.4956-4.3713,14.6608,14.6608,0,0,1,9.3021,14.3706,24.3816,24.3816,0,0,1-7.0427-7.8584l1.5335,11.12-8.27-.6328-3.0815,7.9021-8.8556-4.9128M216.1174,338.71a164.3025,164.3025,0,0,0,49.7354-.8714c4.3763-.75,8.7938-1.7039,12.6954-3.8234,9.6542-5.2446,14.2785-16.4043,17.5553-26.891,1.8183-5.8189,3.4582-11.9705,2.2572-17.9474s-6.12-11.6436-12.2161-11.65c3.8362,3.408,7.8821,7.1633,8.9643,12.1792s-2.5914,11.2764-7.69,10.7c-1.4407,5.07-8.25,5.6668-13.52,5.56s-12.2126,1.6436-12.3875,6.9115c-10.2038-2.6761-22.2639,7.0089-30.77.7705,12.5307-1.4744,25.8847-3.2989,35.4093-11.5738-16.907,5.58-36.4231,10.9142-51.6257,1.648-1.5409-.9392-3.5485.2558-4.6014,1.7214s-1.7183,3.2815-3.1852,4.3327c-2.0365,1.4593-5.0222.8689-6.9374-.7463a14.1837,14.1837,0,0,1-3.8-6.378,54.2135,54.2135,0,0,1-2.76-23.2245,5.7229,5.7229,0,0,1,1.1683-3.4313,6.0508,6.0508,0,0,1,3.7789-1.4118l41.51-5.3656a96.2148,96.2148,0,0,0-43.2234,2.7505c-4.6505,1.3956-9.5285,3.4109-12.062,7.553-2.1132,3.4549-2.1886,7.738-2.164,11.7878,0.09,14.8908,1.7619,31.9252,13.7866,40.7086,5.7587,4.2064,13.0155,5.7328,20.0822,6.6908m13.5756-52.6849a5.1,5.1,0,0,0-1.6968,2.4777c-0.5521,2.4979,2.1961,4.3258,4.4152,5.5986s4.57,3.9473,3.09,6.0337c2.5739-.1337,5.8716.2053,6.6287,2.6689l-15.64-.5372c-1.4688-.05-3.5809.7307-3.0279,2.0924a44.1823,44.1823,0,0,0,37.8317-7.5091l-7.0306,1.4678c-3.4769.7259-7.0443,1.455-10.5554,0.9184s-7.0108-2.6149-8.2177-5.9554c-1.5638-4.3282,1.0635-8.9439,3.5841-12.7943a25.4842,25.4842,0,0,0-9.3809,5.5385m-8.19-4.4651c-0.8593.9282-1.6732,2.3846-.8522,3.3468A33.8566,33.8566,0,0,1,244.3256,273.87c1.4518-.0508,3.0072-0.0361,4.2113-0.8488s1.6749-2.8387.4849-3.6718c-1.4557-1.0192-3.2125.637-4.72,1.5785-1.7283,1.08-3.854,1.2245-5.8655,1.5505a29.7685,29.7685,0,0,0-16.9334,9.0823m32.1784-3.4089c1.58,1.8442,3.6553,3.1881,5.4094,4.8671s3.2476,3.91,3.1071,6.3338a15.8981,15.8981,0,0,0-.223,2.65,1.8559,1.8559,0,0,0,1.6363,1.7866c1.7311-1.1966,1.8393-3.7269,1.3578-5.7755s-1.3766-4.1033-1.0158-6.1765a19.7659,19.7659,0,0,0-10.2718-3.6852M282.6161,290.89a22.2,22.2,0,0,0-9.1557,6.8953,30.3011,30.3011,0,0,0,9.8419-3.3259c2.5506-3.5025-.0825-9.37-4.3946-9.7922a16.722,16.722,0,0,1,3.7084,6.2228m4.6555-.972a4.94,4.94,0,0,0,1.0623,5.3859,8.8878,8.8878,0,0,1,4.3814-4.4792,3.2231,3.2231,0,0,0-5.3873-.8683m-2.2047,25.0084c1.507-1.45,3.371-3.154,5.3831-2.5835l4.4463-9.8606a6.3409,6.3409,0,0,0-6.7349,6.4443l-7.1979,2.176c-4.6213,7.4105-14.6814,8.7776-23.4088,9.1005-14.39.5326-29.218,0.3671-42.5734,5.7519-2.1683.8742-4.6187,0.1326-6.82-.654-1.8882-.6746-3.93-1.5217-4.8448-3.306s0.3236-4.5934,2.3058-4.2916a23.5642,23.5642,0,0,1-10.93-12.6755c-2.0374,3.9012-1.4209,8.7616.5246,12.7095s5.0623,7.1747,8.1291,10.3315c2.6072,2.6838,5.6835,5.5679,9.4232,5.4443a15.0973,15.0973,0,0,0,5.52-1.7485,65.8284,65.8284,0,0,1,33.4824-5.3725A42.4329,42.4329,0,0,0,285.1235,314.9646Zm-99.8172-24.5393c-2.97,2.3277-2.4519,7.7555.9053,9.4789,1.8548,0.9521,1.2111,3.7261.3234,5.6127s-1.4529,4.7025.4428,5.57c3.5582-4.3344,1.09-10.8729,2.3029-16.348a19.6166,19.6166,0,0,0,.6492-3.0753c0.1785-3.1174-2.3214-5.974-1.9524-9.0746,0.1149-.9654-1.33-1.4716-2.1227-0.9091a3.398,3.398,0,0,0-1.088,2.6024A18.5306,18.5306,0,0,0,185.3063,290.4253ZM274.64,326.9734a2.1319,2.1319,0,0,0,1.5024,2.9461,4.0243,4.0243,0,0,1,3.5976-2.9433,4.6575,4.6575,0,0,0-1.6068-4.174,4.1937,4.1937,0,0,0-3.677,4.0987Zm71.445-37.22,6.2132-10.3836c-4.6492.3421-8.3042,4.5212-9.4955,9.0281s-0.4333,9.2783.467,13.8523c2.5107,12.7567,7.0083,26.5587,18.2452,33.0986,6.34,3.69,13.9218,4.4675,21.2492,4.8232a238.0474,238.0474,0,0,0,41.6656-1.636c5.0505-.6449,10.21-1.4962,14.6261-4.0307,6.14-3.524,10.157-9.98,12.2143-16.7535s2.3778-13.9345,2.6838-21.0071a15.0822,15.0822,0,0,0-11.1055,5.1509,13.3339,13.3339,0,0,1,6.7065-13.1706c3.1023-1.6743,3.1612-6.4633.9669-9.2224s-5.7757-3.95-9.1817-4.86a127.5728,127.5728,0,0,0-57.22-1.9214c-1.2608.2474-2.8289,0.8872-2.7706,2.1707a59.8178,59.8178,0,0,1,31.9867,9.1355,24.3336,24.3336,0,0,0-13.0289-9.7914c4.3158-2.1438,9.7271-.643,13.4615,2.4028s6.154,7.3716,8.4849,11.5893a7.1276,7.1276,0,0,0-3.0417-10.0511l3.2246,1a2.7423,2.7423,0,0,1,3.1347-3.622,4.1352,4.1352,0,0,0,.9561,4.905c1.5206-2.2825,5.8937-1.0092,5.9512,1.7329-1.4633-2.318-5.4755-1.0454-6.4733,1.5078s-0.0192,5.4087.9607,7.9688q2.8286,7.39,5.7166,14.7567c-0.0342,2.302-3.6737,1.7366-5.5445.3949s-5.5088-1.9108-5.5464.3911a7.8463,7.8463,0,0,0-5.8012-3.6292l-4.84,8.4681a12.5182,12.5182,0,0,1-12.6107-4.5874,14.2949,14.2949,0,0,0,14.2311-7.4909,10.5107,10.5107,0,0,0-11.3121-2.6925c2.8059-2.1679,4.8364-5.7649,4.041-9.22s-5.26-5.87-8.1609-3.8308c4.489,2.2025,3.9824,9.3745.2512,12.7031s-9.1068,3.8675-14.0925,4.2476l26.4477-.5437a49.3389,49.3389,0,0,1-35.4611.6691,19.2449,19.2449,0,0,0,14.3794,6.7519c1.9473,0.0136,3.9355-.2682,5.8162.2367a4.2541,4.2541,0,0,0-3.105,2.8965,12.6192,12.6192,0,0,1,11.5633,3.4973,63.08,63.08,0,0,1-40.7631-12.3927l-2.0122,2.3085c-4.9249,3.975-13.6959.3732-14.4059-5.9158l7.7411,5.0735a7.4484,7.4484,0,0,1,3.015-7.6687l1.6166,4.4325a12.2011,12.2011,0,0,0,4.4293-3.6764,23.046,23.046,0,0,1-7.5008-9.3939l-8.9724,2.2982" transform="translate(-157.1837 -83.5773)" fill="#010101"/>
  <path d="M357.9082,309.5291a36.3948,36.3948,0,0,1,11.8228,1.351l9.9485,2.8431c2.3445,0.67,4.8439,1.44,6.3666,3.3443a31.1145,31.1145,0,0,1-19.3305-4.53,1.4106,1.4106,0,0,0-1.91,1.1541,4.07,4.07,0,0,0,.7111,2.49A42.9575,42.9575,0,0,1,357.9082,309.5291Z" transform="translate(-157.1837 -83.5773)" fill="#010101"/>
  <path d="M380.7923,280.0088c-5.2288-.8032-10.4645,4.374-9.72,9.6115a6.3911,6.3911,0,0,0,3.4771,5.0269,17.3823,17.3823,0,0,1,6.2429-14.6384" transform="translate(-157.1837 -83.5773)" fill="#fff"/>
</g>
</svg>
