<svg id="Layer_1" data-name="Layer 1" xmlns="http://www.w3.org/2000/svg" width="458.5342" height="108.9985" viewBox="0 0 458.5342 108.9985">
  <title>vote</title>
  <g id="create">
  <path d="M112.2964,371.8391c-3.7441,0-5.9038-1.1523-7.3437-4.752l-14.1118-35.28c-3.4561-8.64-4.6079-11.376-4.6079-20.4478V273.3445c0-3.6,1.584-5.1836,5.1841-5.1836h22.8955c3.6,0,5.6157,1.5835,5.6157,5.1836v39.7432a17.8706,17.8706,0,0,0,1.1519,5.9038l6.7681,20.16C128.4238,341.0237,129,341.6,130.584,341.6h1.584c1.584,0,2.16-.5762,2.7358-2.4482l6.7681-20.3042a17.8706,17.8706,0,0,0,1.1519-5.9038V273.3445c0-3.6,1.584-5.1836,5.1841-5.1836h22.6074c3.7441,0,5.1841,1.5835,5.1841,5.1836V311.36c0,9.0718-1.1523,11.8081-4.6079,20.4478l-14.1118,35.28c-1.44,3.6-3.6,4.752-7.3437,4.752H112.2964Z" transform="translate(-85.7329 -265.5007)" fill="none" stroke="#231f20"/>
  <path d="M261.1118,373.9993c-36,0-44.7832-11.8086-44.7832-29.376V295.52c0-17.5679,8.7837-29.52,44.7832-29.52S305.75,277.9524,305.75,295.52v49.103C305.75,362.1907,297.1108,373.9993,261.1118,373.9993Z" transform="translate(-85.7329 -265.5007)" fill="none" stroke="#231f20"/>
  <path d="M261.1118,346.2073c10.5117,0,12.0957-2.88,12.0957-6.7676V300.7039c0-3.7437-1.584-6.6235-12.0957-6.6235-10.3682,0-12.0957,2.88-12.0957,6.6235V339.44C249.0161,343.3274,250.7437,346.2073,261.1118,346.2073Z" transform="translate(-85.7329 -265.5007)" fill="none" stroke="#231f20"/>
  <path d="M373.353,371.8391c-3.6,0-5.1836-1.584-5.1836-5.1846V295.9519h-21.168c-3.6,0-5.1836-1.584-5.1836-5.1836V273.3445c0-3.6,1.584-5.1836,5.1836-5.1836h76.03c3.6006,0,5.1846,1.5835,5.1846,5.1836v17.4238c0,3.6-1.584,5.1836-5.1846,5.1836h-21.167v70.7026c0,3.6006-1.584,5.1846-5.1846,5.1846H373.353Z" transform="translate(-85.7329 -265.5007)" fill="none" stroke="#231f20"/>
  <path d="M471.769,371.8391c-3.6006,0-5.1846-1.584-5.1846-5.1846v-93.31c0-3.6,1.584-5.1836,5.1846-5.1836h66.8145c3.6,0,5.1836,1.5835,5.1836,5.1836v16.8477c0,3.6-1.584,5.1841-5.1836,5.1841H498.84v11.0879h28.0791c3.6,0,5.1836,1.584,5.1836,5.1836v15.4077c0,3.6-1.584,5.1841-5.1836,5.1841H498.84v12.3838h39.7432c3.6,0,5.1836,1.584,5.1836,5.1836v16.8477c0,3.6006-1.584,5.1846-5.1836,5.1846H471.769Z" transform="translate(-85.7329 -265.5007)" fill="none" stroke="#231f20"/>
</g>
</svg>
