<?xml version="1.0" encoding="utf-8"?>
<!-- Generator: Adobe Illustrator 18.1.1, SVG Export Plug-In . SVG Version: 6.00 Build 0)  -->
<svg version="1.1" id="Layer_1" xmlns="http://www.w3.org/2000/svg" xmlns:xlink="http://www.w3.org/1999/xlink" x="0px" y="0px"
	 viewBox="0 0 100 100" enable-background="new 0 0 100 100" xml:space="preserve">
<path fill="#010101" d="M28.3,59c0,0.1-0.2,0.2-0.2,0.1c0-0.1,0-0.3,0.1-0.3C28.2,58.8,28.3,58.9,28.3,59L28.3,59z"/>
<path fill="#010101" d="M75.2,45.6c0.1,0.2-0.2,0.4-0.3,0.2C74.8,45.7,75,45.6,75.2,45.6L75.2,45.6z"/>
<path fill="#010101" d="M45.3,61c0.3-0.8-0.5-1.6-1.3-1.5C44.5,60,44.9,60.5,45.3,61"/>
<path fill="#010101" d="M38.2,68.3c0.1,0.1,0.1,0.1,0.2,0.1c0.1,0,0.3-0.1,0.2-0.2c0-0.6-0.7-1-1.2-0.7C37.7,67.8,38,68,38.2,68.3"
	/>
<path fill="#010101" d="M40.7,67.7c0,0.1,0.2,0.2,0.3,0.1c0-0.5-0.1-1.1-0.5-1.3C40.3,66.9,40.4,67.4,40.7,67.7"/>
<path fill="#010101" d="M41.1,9.3c-0.1,0.2,0,0.5,0.3,0.5c0.2-0.4,0-1-0.3-1.3C40.9,8.8,40.9,9.1,41.1,9.3"/>
<path fill="#010101" d="M72.8,42.6c0.1-0.1-0.1-0.2-0.2-0.1c-0.1,0.4,0,0.8,0.1,1.1C73,43.3,73.1,42.9,72.8,42.6"/>
<path fill="#FFFFFF" d="M24,43.2c0.1,0.1,0.3,0.1,0.5,0c0-0.3-0.3-0.6-0.6-0.7C23.8,42.7,23.8,43,24,43.2"/>
<path fill="#010101" d="M39.7,65.7c0,0.2,0.3,0.4,0.5,0.3c-0.1-0.2-0.2-0.5-0.3-0.7c-0.1,0-0.2,0-0.3,0.1
	C39.5,65.5,39.6,65.6,39.7,65.7"/>
<path fill="#010101" d="M40,63.9c0.1-0.1,0.2-0.1,0.3-0.2c-0.1-0.1-0.2-0.3-0.3-0.4c-0.1-0.1-0.4,0-0.4,0.1
	C39.7,63.7,39.8,63.8,40,63.9"/>
<path fill="#010101" d="M35.9,10.9c0.1,0.1,0.3,0.2,0.4,0.3c0.1-0.4-0.3-0.8-0.7-0.6C35.5,10.7,35.7,10.9,35.9,10.9"/>
<path fill="#FFFFFF" d="M25.1,44.5c-0.1,0-0.3,0-0.4,0c-0.1,0.1-0.1,0.2-0.1,0.3c0.2,0.2,0.7,0.1,0.7-0.2
	C25.4,44.5,25.2,44.5,25.1,44.5"/>
<path fill="#010101" d="M44.6,57.9c-0.1,0.1-0.2,0.2-0.3,0.4c0.1,0.1,0.2,0.1,0.3,0.2c0.1-0.2,0.2-0.4,0.3-0.6
	C44.8,57.8,44.7,57.8,44.6,57.9"/>
<path fill="#010101" d="M43.8,6.6c-0.2,0-0.2,0.2-0.2,0.4c0,0.2,0.2,0.3,0.3,0.4C44,7.1,44,6.8,43.8,6.6"/>
<path fill="#FFFFFF" d="M38.5,39.3c0.2,0.2,0.5,0.2,0.7,0.1c-0.3-0.3-0.7-0.4-1.1-0.3C38.2,39.1,38.4,39.2,38.5,39.3"/>
<path fill="#FFFFFF" d="M37.6,39c-0.3-0.3-0.7-0.3-1-0.2C36.9,39,37.3,39.1,37.6,39"/>
<path fill="#FFFFFF" d="M61.2,42.5c-0.3,0.1-0.2,0.7,0.1,0.6c0.1-0.2,0-0.4-0.1-0.5L61.2,42.5z"/>
<path fill="#010101" d="M46.3,6.6c0,0.1,0,0.2,0.1,0.3c0.1,0,0.3,0,0.4,0C46.9,6.6,46.5,6.4,46.3,6.6"/>
<path fill="#010101" d="M20.7,33.6c0.2-0.1,0.1-0.5-0.1-0.6c-0.1,0.1-0.2,0.2-0.2,0.3C20.5,33.4,20.6,33.5,20.7,33.6"/>
<path fill="#FFFFFF" d="M35.7,38.5c-0.1,0.1-0.3,0.1-0.4,0.2c0.1,0.1,0.3,0.2,0.4,0.1C35.9,38.8,35.9,38.5,35.7,38.5"/>
<path fill="#010101" d="M54.8,41.6c0.1,0,0.2-0.2,0.1-0.3c-0.1,0-0.3,0.1-0.3,0.2S54.8,41.7,54.8,41.6"/>
<path fill="#010101" d="M44.8,58.5c-0.2,0-0.2,0.2-0.2,0.4c0.1,0,0.2,0,0.3-0.1C44.8,58.7,44.8,58.6,44.8,58.5"/>
<path fill="#010101" d="M38.9,69.2c0-0.1-0.1-0.2-0.2-0.1c-0.1,0-0.1,0.1-0.2,0.2C38.6,69.5,38.8,69.4,38.9,69.2L38.9,69.2z"/>
<path fill="#010101" d="M70.4,67.3c0.2-0.9,0.4-1.8,0.6-2.7c-0.5-0.2-0.9-0.5-1.2-1c0.3,0,0.6,0.1,1,0.1c0.7-1.5,1.1-3.1,1.2-4.7
	c0.2-0.1,0.5-0.1,0.7,0c-0.3,1.1-0.5,2.3-0.8,3.4c-0.2,0.9-0.3,1.9,0.4,2.5c1.5-1.1,2.6-2.8,2.9-4.6c-0.8,0.1-1.7-0.6-1.8-1.4
	c0.5,0,0.9,0.3,1,0.8c1.9-2.4,1.2-5.8,0.1-8.6c-0.3-0.8-0.7-1.6-0.6-2.4c0-0.8,0.6-1.7,1.5-1.8c1,0.1,1.2,1.4,1.2,2.4
	c0,1.5,0,3.1,0.1,4.6c0,2.2,0.1,4.4-0.6,6.4s-2,4-4,4.8c-0.3,0.1-0.7,0.3-0.8,0.6c-0.8,5.9-3.3,11.6-7,16.3c0-0.6-0.1-1.2-0.4-1.8
	c-0.3-0.5-0.9-0.9-1.5-0.7c0.2-0.4,0.8-0.7,1.3-0.5c0.5,0.2,0.8,0.7,0.7,1.2c0.7-0.2,1.1-1,1.1-1.7c0-0.7-0.3-1.4-0.6-2.1
	c0.7,0.1,1.4-0.2,1.8-0.7c0,0.3-0.1,0.7-0.2,1c0.9-0.3,1.6-1.3,1.4-2.3c-0.4,0.2-0.7,0.6-0.7,1c-0.7-0.4-0.9-1.5-0.4-2.1
	c0.1,0.4,0.2,0.9,0.3,1.3c1.6-0.6,2.3-2.5,2.9-4.1c0.2-0.7,0.4-1.4,0.3-2.1c-0.2-0.7-0.8-1.3-1.5-1.2c0.2-0.3,0.4-0.7,0.6-1
	C69.6,66.4,70,66.8,70.4,67.3"/>
<path fill="#010101" d="M75.5,59.8c0.2-0.2-0.1-0.6-0.4-0.5C75,59.5,75.3,59.9,75.5,59.8"/>
<path fill="#010101" d="M66,77.8c0,0.1,0.2,0.2,0.3,0.1c0-0.1,0-0.3,0-0.4C66,77.5,65.9,77.7,66,77.8"/>
<path fill="#010101" d="M68.5,74.2c0-0.1,0-0.3-0.1-0.4c-0.1,0.1-0.2,0.2-0.3,0.3C68.2,74.2,68.3,74.3,68.5,74.2L68.5,74.2z"/>
<path fill="#010101" d="M46.3,77.6c-1,0-1.9,0.1-2.9,0.1c0.3,0.2,0.2,0.9-0.2,1c0.1-1.1-0.9-2.1-2-2.1c0,0.4,0.1,0.7,0.1,1.1
	c-0.9-1-1.8-2.1-2.6-3.2c0.2-0.2,0.2-0.6-0.1-0.7c-0.6,0.7-1.3,1.5-1.9,2.2c-0.1-0.1-0.3-0.2-0.4-0.2c0.5-1.3,1.1-2.5,1.8-3.6
	c0-0.2-0.1-0.4-0.1-0.6c0.9,0.4,2,0.3,2.8-0.1c-0.5-0.1-1.1-0.2-1.6-0.2c1.3-0.8,2.6-1.5,4.1-2.1c0.8-0.3,1.7-0.6,2.6-0.4
	c1.1,0.2,2.2,1,3.1,0.4c2-1.3,5.1-0.4,6,1.8c2-0.2,3.8,1.8,3.6,3.7c-0.5,0-0.7-0.6-1-1c-0.3-0.4-0.9-0.7-1.2-0.3
	c-0.4,0.6-0.9,1.2-1.3,1.8c-0.3,0.4-0.6,0.8-1.1,1c-0.5,0.1-1.1-0.3-1-0.8c-1.4,0.3-2.8,0.6-4.1,0.9c0.5,0.3,1.1,0.3,1.6,0.1
	c0.2,0.2,0.3,0.5,0.1,0.8c-0.3-0.1-0.6-0.3-0.9-0.5c-0.4,0.5-1.2,0.8-1.9,0.6c0,0.4-0.1,0.8-0.2,1.2C47.4,77.7,46.8,77.6,46.3,77.6"
	/>
<path fill="#FFFFFF" d="M46,75.9c-0.2,0.3-0.4,0.6-0.5,0.9c-0.1,0.2,0.1,0.4,0.3,0.4c0.2,0,0.4-0.1,0.6-0.2c0.3-0.1,0.6,0,0.9,0.1
	c0.1-0.2,0.2-0.5,0.1-0.7c-0.1-0.2-0.3-0.5-0.5-0.4C46.6,76.2,46.2,76.1,46,75.9"/>
<path fill="#FFFFFF" d="M55.5,73c-0.6,0.3-1.1,0.6-1.7,0.9c-0.2,0.1-0.5,0.2-0.7,0.4c0.2,0.2,0.5,0.1,0.8,0
	C54.5,74,55.2,73.6,55.5,73"/>
<path fill="#FFFFFF" d="M43.5,75.1c0.1,0,0.2-0.2,0.1-0.3c-0.2,0-0.5-0.1-0.7,0c-0.2,0.1-0.4,0.3-0.3,0.6
	C42.8,75.4,43.2,75.3,43.5,75.1"/>
<path fill="#FFFFFF" d="M43.8,75.5c-0.2,0.1-0.3,0.2-0.4,0.3c0.1,0.4,0.6,0.5,0.8,0.2C44.2,75.8,44,75.6,43.8,75.5"/>
<path fill="#FFFFFF" d="M47.4,74.5c-0.4,0.1-0.8,0.2-1.2,0.3c0.4,0.2,1,0.2,1.4-0.1C47.5,74.6,47.5,74.6,47.4,74.5"/>
<path fill="#FFFFFF" d="M54,70.4c0,0.2,0.4,0.2,0.4,0.1C54.3,70.4,54.2,70.4,54,70.4L54,70.4z"/>
<path fill="#FFFFFF" d="M48.9,70.3c1.4-0.4,3-0.4,4.4,0c0.2-0.1,0-0.3-0.2-0.4c-1.2-0.6-2.6-0.6-3.9-0.2c-2,0.8-4.5-0.6-6.4,0.5
	c-0.1,0.1-0.3,0.2-0.3,0.4c1.3-0.3,2.7-0.4,4.1-0.3C47.4,70.4,48.1,70.5,48.9,70.3"/>
<path fill="#010101" d="M33.2,36c-0.3-0.1-0.6-0.1-0.8-0.3c-0.3-0.3-0.4-0.7-0.6-1.1s-0.7-0.7-1-0.5c0.2,0.1,0.4,0.4,0.4,0.7
	c-0.6-0.2-1.2-0.5-1.7-1c-0.1,0.2-0.3,0.3-0.4,0.5c-0.7-0.2-1.3-0.3-2-0.5c0.2,0.2,0.3,0.4,0.5,0.6c-0.9,0.3-1.8,0.5-2.6,0.8
	c-0.2,0.1-0.5,0.2-0.6,0.4c-0.1,0.2,0,0.6,0.3,0.6c-0.5,0.2-1,0.3-1.5,0.5c0.3-1.3,0.6-2.7,1.2-3.9c0.7-1.2,1.9-2.1,3.2-2.2
	c-0.2-0.2-0.4-0.4-0.6-0.5c0.5-0.4,1.4-0.1,1.6,0.5c0.6-0.5,1.5-0.5,2.3-0.5c2.4,0.2,4.7,1.1,6.6,2.5c0.1-0.3-0.2-0.6-0.5-0.5
	c-0.1-0.2,0.2-0.4,0.5-0.4c0.2,0,0.4,0.2,0.6,0.4c0.6,0.8,1.3,1.8,2.4,1.9c0.5,0,1.3-0.1,1.4,0.4c0.4,1.3,2.8,0.9,3.2,2.2
	c0.8-0.6,2.1-0.7,2.9-0.1c-0.4,0.2-0.7,0.5-0.8,0.9c-0.5-0.2-1-0.5-1.5-0.7c-0.4,0.6-1,1.1-1.8,1.2c0.2,0.2,0.2,0.5,0.1,0.8
	c-0.6,0.1-1.4-0.1-1.5-0.7C39.3,37.3,36.3,36.7,33.2,36z"/>
<path fill="#010101" d="M56.2,54.4c-0.1-0.1,0-0.3,0.1-0.2C56.4,54.2,56.2,54.5,56.2,54.4L56.2,54.4z"/>
<path fill="#010101" d="M50.5,38.2c-1.1-0.1-2.5-0.6-2.5-1.7c0-0.9-1.3-1.4-1.9-0.9c0.8-0.8,2.2-0.8,3.1-0.1
	c-0.2,0.2-0.4,0.4-0.6,0.6c0.7,0.2,1.4,0.1,2.1-0.1c0.6-0.2,1.1-0.5,1.6-0.8c0.8-0.5,1.6-0.9,2.4-1.4c0.3-0.2,0.6-0.3,0.9-0.5
	c0.3-0.1,0.6-0.2,0.9-0.2c0.5-0.1,0.9-0.3,1.3-0.5c2.5-1,5.2-1.4,7.9-1.8c1.1-0.1,2,0.7,2.6,1.6c0.9,1.2,1.6,2.5,2.2,3.8
	c0.1,0.3,0.1,0.7-0.1,0.7c-0.1-0.4-0.4-0.7-0.8-0.9c-0.8-0.6-1.7-1.2-2.5-1.7c-0.5,0.5-1.3,0.4-1.7-0.1c-1.1,0-2.4,0.3-2.5,1.4
	c0-0.6-0.8-0.9-1.3-0.8c-0.6,0.1-1,0.6-1.4,1c0.3,0,0.7,0,1,0c0,0.2-0.3,0.3-0.5,0.4c-3.3,0.8-6.6,1.6-9.9,2.4
	c0.1-0.3,0.3-0.5,0.4-0.8c-0.2-0.1-0.4-0.1-0.6,0C50.5,37.8,50.4,38.1,50.5,38.2"/>
<path fill="#010101" d="M49.9,37.3c-0.4-0.1-0.7-0.2-1.1-0.3c0.3,0.4,0.8,0.7,1.3,0.7c0.1-0.4,0.2-0.8,0.1-1.1
	C50,36.7,49.9,37,49.9,37.3"/>
<path fill="#010101" d="M56.3,35.9c-0.1,0-0.2,0.2-0.1,0.4c0.3,0,0.5-0.1,0.7-0.2C56.7,35.9,56.5,35.8,56.3,35.9L56.3,35.9z"/>
<path fill="#010101" d="M50,65.2c0.1,0.1,0.1,0.2,0,0.3C49.9,65.5,49.8,65.2,50,65.2L50,65.2z"/>
<path fill="#010101" d="M55.4,67.2c0.5,0,0.7,0.6,0.8,1.1c-0.5-0.3-1-0.2-1.5-0.4c-0.5-0.2-0.9-0.7-0.7-1.2
	c-0.1,0.3-0.5,0.4-0.8,0.3c-0.3-0.1-0.4-0.5-0.3-0.7c0.3,0.1,0.7-0.1,0.9-0.4c-1.1-0.3-1.9-1.6-1.5-2.7c0.2-0.1,0.4-0.1,0.5,0.1
	c0.1-0.2-0.1-0.4-0.2-0.5c-0.8-0.5-1.5-1-2.3-1.4c0.1,0.3-0.1,0.7-0.4,0.8c-0.1-0.3-0.2-0.6-0.1-0.9c0.1-0.3,0.4-0.6,0.7-0.5
	c0.4,0.1,0.8-0.4,0.6-0.8c-0.5,0.2-0.9,0.4-1.3,0.8c-0.3-0.2-0.4-0.6-0.3-0.9c0.6,0,1.2-0.1,1.7-0.3c0.1-0.5,0.4-0.9,0.9-1.1
	c-0.8-0.2-1.6-0.7-2.1-1.4c-0.2,0.4-0.4,0.8-0.8,0.9c-0.4,0.1-1-0.2-0.9-0.6c0.4,0.2,0.9-0.1,1.3-0.4c0.3-0.3,0.6-0.7,1.1-1
	c0.7-0.4,1.6-0.2,2.1,0.4c0.6,0.5,0.8,1.3,0.8,2.1c0.3,0,0.5,0,0.8,0.1c-0.2,0.8,0.4,1.7,1.2,1.8c-0.2,0.2-0.4,0.4-0.7,0.6
	c0,0.4,0.5,0.6,0.9,0.8c0.4,0.2,0.7,0.7,0.3,1c-0.4,0.3,0.3,1,0,1.3c-0.2,0.2-0.5,0.1-0.6-0.1c-0.1-0.2-0.1-0.5-0.2-0.7
	c-0.1-0.8-0.5-1.6-1.1-2.2c0.3-0.4,0.3-0.9,0-1.3c-0.2,0.1-0.5,0.2-0.7,0.3c0,0.4,0,0.8,0.1,1.2c-0.4-0.4-0.9-0.8-1.3-1.2
	c0,0.7,0.4,1.5,0.9,2c0.1-0.4,0.6-0.4,0.9-0.1c0.3,0.3,0.3,0.6,0.4,1c0.1,0.7,0.4,1.5,1.1,1.7c0.3,0.1,0.6,0,0.9,0
	c0.3,0,0.7,0.2,0.7,0.5c0,0.2-0.1,0.4-0.3,0.4c-0.2-0.2-0.6-0.3-0.8-0.2c0.4,0.3,0.8,0.6,1.3,0.9c0-0.3,0-0.7,0.1-1
	c0.2-0.2,0.6-0.2,0.7,0s0.1,0.6-0.1,0.7c-0.3,0.2-0.1,0.7,0.3,0.8c0.3,0.1,0.7,0.1,1,0.2c0.3,0.1,0.6,0.6,0.3,0.8
	c-0.2-0.2-0.5-0.4-0.7-0.6c-0.3,0.5-0.9,0.8-1.5,0.7c-0.5,0-1-0.5-0.7-0.9c0.2-0.3,0.7-0.3,0.7-0.7c-0.5,0.2-1.1,0-1.4-0.5
	c-0.1-0.2-0.1-0.5-0.3-0.7c-0.1-0.2-0.4-0.4-0.6-0.2c0.2,0.6,0.4,1.3-0.1,1.7c-0.1-0.5-0.6-1.1-1-0.9C54.1,66.7,54.8,67.2,55.4,67.2
	"/>
<path fill="#010101" d="M52.7,64.2c0.5,0.1,1,0.5,1.2,1c0.1,0.1,0.3,0.3,0.3,0.2c0.2-0.5-0.2-0.9-0.6-1.2c-0.2-0.1-0.3-0.3-0.5-0.3
	C52.8,63.8,52.6,64,52.7,64.2"/>
<path fill="#010101" d="M53.5,63.7c0.2,0.2,0.6-0.3,0.3-0.5C53.6,63,53.2,63.5,53.5,63.7"/>
<path fill="#010101" d="M53.4,62.7c0,0.1,0.2,0.3,0.3,0.2c0-0.2-0.1-0.4-0.3-0.6C53.3,62.4,53.3,62.5,53.4,62.7L53.4,62.7z"/>
<path fill="#010101" d="M28,64.4c0.1-0.1,0.1-0.2,0.2-0.3C28.4,64.2,28.2,64.6,28,64.4L28,64.4z"/>
<path fill="#010101" d="M36.3,82.1c0.5,0.1,0.7,0.8,0.4,1.2s-0.7,0.6-1.2,0.8c1,0.2,2,0.1,2.9-0.2c-0.8,0.7-1.6,1.4-2.4,2.1
	c1.6,0.6,2.3,2.5,2.8,4.2c0.7-0.4,1.5-0.5,2.3-0.3c-0.1,0.4-0.6,0.7-1,0.5c0.3,0.6,0.4,1.3,0.3,2c0.7,0.2,1.3,0.5,2,0.7
	c-0.5-0.5-1-1-1.5-1.4c0.1-0.8,0.5-1.5,1.1-2c-0.5-0.2-0.6-1-0.2-1.3c0.4-0.4,1.1-0.2,1.3,0.3l-0.8,0.3c0.2,0.2,0.4,0.5,0.5,0.7
	c0.4-0.2,0.6-0.6,0.6-1c1,0,1.9,1,1.8,2c0.2-0.3,0.4-0.5,0.7-0.5c0.1,0.5,0.6,0.9,1.1,0.9c0.1-0.6-0.1-1.3-0.5-1.8
	c1.2-0.5,2.7-0.4,3.9,0.3c-1.2,0.4-1.6,2.1-0.8,3.1c0.1-0.5,0.2-0.9,0.3-1.4c1,0.5,2.2,1.5,1.5,2.4c0.6-0.4,1-1.1,1.2-1.8
	c0.1,0.4,0.7,0.6,1.1,0.3c-0.1-0.4-0.2-0.8-0.3-1.2c-0.7-0.2-1.6,0.4-1.5,1.1c-0.5-0.4-1-0.8-1.2-1.4s0.3-1.4,0.9-1.3
	c-0.3,0.5-0.3,1-0.1,1.5c0.3-0.3,0.7-0.6,1-0.8c1,0.1,1.7,1.3,1.2,2.2c0.5-0.3,1.1-0.6,1.6-0.9c0-0.5-0.6-0.8-1-0.6l0.4-0.8
	c0.8,0.4,1.8,1.4,1.1,2c-2.7,2.2-6.4,2.5-9.8,2.5c-1.4,0-2.7-0.1-4.1-0.1c0.3,0.7,0.8,1.3,1.3,1.8c-0.1-0.3-0.3-0.6-0.2-0.9
	c0.1-0.3,0.5-0.4,0.7-0.2c0,0.7,0,1.3,0,2h0c-0.2-0.4-0.9-0.4-1.1,0c-1,0-2,0-3.2,0c-0.3-0.4-0.8-0.7-1.3-0.5l0.5,0.5
	c-4.3,0-9.1,0-10.8,0.1c0-0.1,0-0.2-0.1-0.3c0.1-1.2,0.1-2.5-0.2-3.7c-0.2,1.3-0.5,2.7-0.7,4c-0.2,0-0.4,0-0.6,0
	c0.2-0.5,0.4-1,0.5-1.5l0.7-4.5c0-0.3,0.1-0.6,0.1-0.9c-0.3,0.8-0.7,1.5-1.2,2.2c0.7-2.2,1.4-4.4,2.1-6.6c-0.5,0.9-1,1.8-1.5,2.7
	c-0.2,0.4-0.7,0.8-1,0.6c0.9-1.3,1.8-2.6,2.3-4.2c0.4-1.5,0.3-3.3-0.7-4.5c-2.6-3.3-4.4-7.3-5-11.5c-0.1-0.9-0.4-2.1-1.3-2.3
	c-1.4-0.3-2.2-1.7-2.8-3c-2.3-4.9-3.1-10.4-2.2-15.8c0.2-1,0.5-2.1,1.4-2.5c0.9-0.4,2.1,0.8,1.4,1.5c-0.6,0.2-1.3,0-1.6-0.6
	c-0.3,0.3-0.5,0.7-0.6,1.1c1.1-0.5,2.2,0.8,2.2,1.9c0,1.2-0.5,2.2-0.7,3.4c-1.4,2.5-1,5.9,1.1,7.9c-0.9-1.7-1-3.7-0.2-5.4
	c0.4-0.9,0.8-1.9,1.2-2.8c0.7,4.1,1.4,8.2,2,12.2c1,0.5,1.8,1.6,1.9,2.7c-0.3-0.2-0.5-0.3-0.8-0.5c-0.4,0.4,0,1,0.5,1.2
	c0.5,0.2,1,0.1,1.5,0.3c1.5,0.4,2,2.8,0.7,3.7c0.9,0,1.8-0.3,2.6-0.8c0,0.5,0.1,1,0.1,1.6c-0.2-0.5-1-0.6-1.4-0.2
	c-0.4,0.4-0.4,1-0.2,1.5c0.1,0.4,0.4,0.8,0.8,1c0.4,0.1,1-0.3,0.9-0.7c0.5,0.7,0.5,1.8-0.1,2.5c0.2,0.3,0.6,0.5,0.9,0.5
	c0.1-0.4,0.5-0.7,0.9-0.7c0,0.4-0.1,0.8-0.2,1.1c0.7,0,0.9-0.9,1-1.5s0.9-1.4,1.4-0.9c-0.3,0.3-0.6,0.6-0.9,0.8
	c0.7,0.1,1.3,0.5,1.7,1.1c-0.7-0.1-1.3-0.3-1.9-0.7c-0.3,0.6,0.4,1.4,1,1.1c-0.2,0.6-0.8,0.9-1.4,0.8c0.9,0.8,1.8,1.6,2.6,2.4
	c-0.3-0.9-0.7-1.7-1.2-2.4c0.6-0.1,1.2-0.5,1.5-1c-0.1,0.4-0.1,0.8-0.2,1.1c0.7-0.6,1.7-0.7,2.4-0.2c-0.8,0.1-1.6,0.4-2.3,0.9
	c1.1,0.4,2.1,1.1,3,1.9c-0.1,0.3-0.2,0.7-0.3,1c-0.1-0.7-1.1-1.1-1.6-0.6c-0.1-0.6-0.2-1.2-0.4-1.8C34.5,80.2,35.1,81.9,36.3,82.1"
	/>
<path fill="#010101" d="M66.8,96.8c0.2-2.2,0.3-4.4,0.5-6.6c0.3,0.4,0.5,0.9,0.8,1.3c-0.7-3.2-1.3-6.5-2-9.7
	c-0.2,3.6-0.4,7.3-2.4,10.4c-0.3,0.5-0.7,1-0.6,1.6c0.1,0.4,0.1,1.1-0.2,1.1c0.1-0.1,0.2-0.4,0-0.4c-0.3,0-0.5,0.3-0.6,0.6
	c-0.2,0.6-0.5,1.2-0.7,1.8C63.2,96.8,65,96.8,66.8,96.8z"/>
<path fill="#010101" d="M34.8,83.1c0.4,0.1,1,0,1-0.4c-0.3-0.2-0.5-0.4-0.8-0.6C34.8,82.4,34.8,82.8,34.8,83.1
	c-0.3-0.1-0.6,0.2-0.5,0.5C34.6,83.6,34.8,83.4,34.8,83.1"/>
<path fill="#010101" d="M30.6,88.7c-0.4-0.5-0.4-1.4,0.1-1.9c-0.5-0.3-0.8-0.9-0.7-1.5c0.1-0.1,0.3-0.1,0.4,0.1c0,0.3,0,0.7,0.2,0.9
	c0.2,0.2,0.7,0.2,0.8-0.1c0-0.1,0-0.2,0-0.3c-0.1-0.7-0.8-1.3-1.5-1.4c0.2-0.4,0-1-0.4-1.2c-0.2,0.4-0.2,0.9-0.1,1.3
	c0.2,1.9,0.4,3.8,0.6,5.7c0.1,1,0.3,1.9,0.7,2.8c0.2-0.1,0.3-0.4,0.2-0.6c0.7,0.3,1.3,0.9,1.4,1.7c0.1,0.3,0.1,0.7,0.3,1
	c0.2-0.2,0.3-0.6,0.2-0.9c0.1-0.1,0.3-0.1,0.4-0.1c0.2-0.3-0.1-0.6-0.4-0.8c-0.3-0.1-0.7-0.2-0.8-0.5c-0.2-0.4-0.7-0.7-1-1.1
	c-0.3-0.4-0.5-1-0.1-1.3c0.2-0.2,0-0.5-0.2-0.7c-0.2-0.2-0.4-0.6-0.1-0.6C30.9,89.2,30.7,88.9,30.6,88.7"/>
<path fill="#010101" d="M21,64.1c0.3,0.2,0.4,0.7,0.1,1c-0.1-0.3-0.3-0.5-0.6-0.6c-0.2,0.2,0,0.5,0.3,0.6c0.4,0.2,0.9,0.4,1.4,0.4
	c-0.5-1.4-0.7-2.9-0.8-4.4c0-0.4-0.2-0.9-0.4-1.3c-0.3-0.6-0.7-1.4-1.3-1.5c-0.2,0.3,0.2,0.7,0.4,1c0.3,0.4,0.3,0.9,0.1,1.3
	c-0.2,0.4-0.6,0.7-1.1,0.7c0.4,0.4,0.9,0.8,1.3,1.3c0.2,0.2,0.4,0.4,0.4,0.7c-0.2,0.1-0.4,0.1-0.6,0.1c-0.1,0.1,0,0.4,0.2,0.5
	C20.7,64,20.9,64,21,64.1"/>
<path fill="#010101" d="M32.7,92c0.1-0.6,1.3,0.1,1.5-0.5c0-0.8-1.5-0.9-1.4-1.7c0,0.6-0.3,1.1-0.8,1.4c-0.2-0.2-0.3-0.3-0.5-0.4
	c-0.2-0.1-0.5,0-0.5,0.3c0.4,0.6,1.7,0.4,1.8,1.2c0,0.3,0.4,0.3,0.7,0.5c0.6,0.3,0.8,1.2,0.3,1.7c0.2,0.2,0.5,0.4,0.8,0.5
	C34.9,93.8,33.9,92.4,32.7,92"/>
<path fill="#010101" d="M32.1,82.5c0.3,0,0.5,0.3,0.7,0.6c0.1,0.3,0.2,0.6,0.4,0.9c0.2,0.2,0.7,0.2,0.8-0.1
	c-0.7-0.4-0.8-1.5-0.3-2.1c0,0.2,0.2,0.3,0.4,0.3c-0.2-0.9-0.6-1.8-1.2-2.5c-0.2,0.5-0.4,1-0.1,1.4c0.1,0.1,0.3,0.2,0.4,0.3
	c0.1,0.1,0.2,0.3,0.1,0.5C33,82,32.5,82.1,32.1,82C32.1,82.2,32,82.3,32.1,82.5"/>
<path fill="#010101" d="M33.6,95.9c0.2,0.3,0.4,0.6,0.5,0.9c0.2,0,0.4,0,0.6,0c0,0,0-0.1,0-0.1c0-0.3,0.4-0.5,0.5-0.2
	c0.1,0.3,0.5,0.2,0.7,0.1c0.3,0,0.5,0.1,0.8,0.2c0.2,0,0.3,0,0.5,0c-0.1-0.2-0.5-0.4-0.8-0.5c-0.5,0-1,0-1.3-0.4
	c-0.2-0.3-0.3-0.8-0.6-0.8c-0.2,0.2-0.2,0.5-0.2,0.7c-0.1,0-0.2,0-0.3,0.1c-0.1-0.2-0.2-0.4-0.3-0.6c-0.2-0.2-0.4-0.2-0.6-0.1
	C33.2,95.5,33.4,95.7,33.6,95.9z"/>
<path fill="#010101" d="M25.6,74.8c0-0.4,0.2-0.8,0.6-0.9c0.4-0.1,0.8,0.4,0.6,0.7c0.4,0,0.6-0.5,0.4-0.8c-0.1-0.3-0.5-0.6-0.8-0.8
	c0,0.4-0.5,0.5-0.9,0.3c-0.3-0.2-0.5-0.6-0.8-0.8C24.8,73.4,25.1,74.2,25.6,74.8"/>
<path fill="#010101" d="M36.9,88.8c0.2,0,0.5,0.2,0.5,0.4c0.3-0.4-0.2-1.1-0.7-1c-0.3,0.1-0.5-0.3-0.5-0.5s-0.2-0.6-0.5-0.6
	c-0.2,1,0.3,2.1,1.2,2.5C37.1,89.3,37.1,89,36.9,88.8"/>
<path fill="#010101" d="M26.7,70.3c0-0.1-0.1-0.2-0.2-0.3c-0.5-0.4-0.9-0.7-1.4-1.1c0.2,0.9,0.6,1.7,1,2.5c0.2-0.3,0.3-0.6,0.2-1
	C26.4,70.3,26.6,70.3,26.7,70.3"/>
<path fill="#010101" d="M47.9,92.9c0.1,0,0.1-0.1,0.2-0.2c0.5-0.9,0.7-1.9,0.5-2.9C48.2,90,48,90.4,48,90.9c0,0.4,0,0.9-0.2,1.2
	c-0.1,0.2-0.2,0.3-0.2,0.5C47.6,92.7,47.7,93,47.9,92.9"/>
<path fill="#010101" d="M31.8,79.6c-0.2,0.7-0.3,1.4-0.5,2.1c-0.1,0.4-0.2,0.7,0,1.1c0.6-0.8,0.9-1.8,0.8-2.7
	C32.1,79.8,32,79.6,31.8,79.6"/>
<path fill="#010101" d="M25.9,72.5c0.1-0.2-0.1-0.4-0.2-0.5c-0.5-0.5-0.9-1.1-1-1.8c-0.3,0-0.5,0.3-0.5,0.6c0,0.3,0.2,0.5,0.4,0.7
	C25,71.9,25.4,72.3,25.9,72.5"/>
<path fill="#010101" d="M31.2,88.4c0.1,0.5,0.3,1,0.4,1.4c0.1,0.2,0.2,0.5,0.4,0.4c0.1-0.5,0-1-0.1-1.5c-0.1-0.2-0.1-0.3-0.3-0.4
	C31.5,88.2,31.2,88.3,31.2,88.4"/>
<path fill="#010101" d="M42.8,92c-0.1-0.2-0.1-0.5-0.1-0.8c-0.2-0.2-0.5-0.2-0.8-0.2c0.3,0.7,0.6,1.4,1,2.1
	C43.2,92.9,43.2,92.3,42.8,92"/>
<path fill="#010101" d="M44.1,91.8c0,0.1,0,0.3,0.1,0.4c0.1,0.1,0.2,0.2,0.4,0.1c0.1-0.8,0-1.7-0.1-2.5C44,90.3,44,91.1,44.1,91.8"
	/>
<path fill="#010101" d="M41,96.3c0.1-0.2,0.3-0.5,0.6-0.6c0.3-0.1,0.6,0.2,0.5,0.4c0.3-0.3,0.2-1-0.2-1.1
	C41.3,95.2,40.9,95.8,41,96.3"/>
<path fill="#010101" d="M27.2,77.2c0.3-0.2,0.2-0.6,0-0.9c-0.2-0.3-0.4-0.5-0.5-0.8c0-0.2,0-0.4,0.1-0.5c-0.1-0.1-0.3-0.1-0.4,0
	c-0.1,0.1-0.1,0.3,0,0.4C26.6,76,26.8,76.6,27.2,77.2"/>
<path fill="#010101" d="M45.5,92.9c0.1,0.2,0.5,0.3,0.5,0.1c-0.3-0.5-0.4-1-0.5-1.5c-0.1-0.1-0.3-0.1-0.4,0
	C45.2,92,45.3,92.4,45.5,92.9"/>
<path fill="#010101" d="M30.2,80.8c0.1,0.3,0.2,0.5,0.4,0.7c0.3-0.6-0.2-1.4-0.9-1.4C29.8,80.4,30,80.7,30.2,80.8"/>
<path fill="#010101" d="M27.9,75.3c-0.1-0.2-0.4-0.2-0.5-0.1c0.1,0.4,0.3,0.8,0.4,1.2C28.1,76.2,28.2,75.7,27.9,75.3"/>
<path fill="#010101" d="M31.2,87.6c0.2,0.1,0.5,0.2,0.7,0.1c0-0.4-0.4-0.8-0.8-0.8C30.9,87.2,30.9,87.5,31.2,87.6"/>
<path fill="#010101" d="M38.1,90.7c0.1-0.5,0-1.1-0.4-1.4C37.4,89.8,37.6,90.4,38.1,90.7"/>
<path fill="#010101" d="M23.7,69.1c0.1,0.3,0.4,0.6,0.7,0.7c0.2-0.2,0.2-0.5,0-0.7C24.3,68.9,24,68.9,23.7,69.1"/>
<path fill="#010101" d="M29.4,77.8c0-0.1,0-0.3,0.1-0.4c-0.3,0-0.5,0.2-0.6,0.4c0,0.3,0.1,0.5,0.4,0.6C29.3,78.2,29.3,78,29.4,77.8"
	/>
<path fill="#010101" d="M35.9,95.2c-0.1-0.4-0.3-0.7-0.7-0.8C35.1,94.8,35.5,95.3,35.9,95.2"/>
<path fill="#010101" d="M31,78.8c0.2,0.1,0.4,0.1,0.5,0c0-0.4-0.4-0.7-0.8-0.5C30.7,78.5,30.8,78.7,31,78.8"/>
<path fill="#010101" d="M39.9,93.2c0-0.2-0.1-0.3-0.2-0.5c-0.1,0.5,0.1,1,0.5,1.3C40.2,93.8,40.1,93.5,39.9,93.2"/>
<path fill="#010101" d="M50.6,93.2c0.3-0.1,0.4-0.4,0.3-0.7c-0.2-0.1-0.4,0-0.5,0.2C50.4,92.8,50.4,93,50.6,93.2"/>
<path fill="#010101" d="M36.4,90.7c0.1,0.4,0.4,0.6,0.8,0.6c-0.1-0.4-0.4-0.7-0.8-0.7"/>
<path fill="#010101" d="M23.1,65.8c0-0.2,0-0.3-0.1-0.5s-0.4-0.1-0.4,0.1c0.1,0.3,0.3,0.6,0.4,0.8C23.1,66.2,23.1,66,23.1,65.8"/>
<path fill="#010101" d="M34.2,85.1c0.1-0.1,0.2-0.2,0.3-0.4c-0.4-0.1-0.8,0.4-0.5,0.7C34.1,85.3,34.2,85.2,34.2,85.1"/>
<path fill="#010101" d="M28.2,88.9c-0.3,0-0.3,0.5-0.2,0.7C28.3,89.6,28.4,89.2,28.2,88.9"/>
<path fill="#010101" d="M35.1,84.8c-0.1,0.2,0.1,0.4,0.3,0.4c0.1-0.2,0.1-0.4,0.1-0.6C35.3,84.6,35.1,84.7,35.1,84.8"/>
<path fill="#010101" d="M27.8,78.1c0-0.1,0-0.2,0-0.3c-0.1,0.1-0.3,0.2-0.3,0.4s0.1,0.4,0.3,0.3C27.8,78.4,27.9,78.2,27.8,78.1"/>
<path fill="#010101" d="M49,92.8c-0.1,0-0.2,0-0.3,0c-0.1,0.1-0.1,0.2-0.1,0.3c0.1,0.1,0.3,0.1,0.4,0.1C49.1,93.1,49.1,92.9,49,92.8
	"/>
<path fill="#010101" d="M28.8,77c0.1-0.1,0.1-0.3,0-0.4c-0.1,0.1-0.3,0.2-0.4,0.3C28.4,77.1,28.6,77.1,28.8,77"/>
<path fill="#010101" d="M31.3,94.7c0-0.2-0.1-0.4-0.3-0.4c-0.1,0.2,0.1,0.5,0.3,0.5"/>
<path fill="#010101" d="M29.8,79.4c0.2-0.1,0.2-0.3,0.1-0.5C29.7,78.9,29.5,79.3,29.8,79.4"/>
<path fill="#010101" d="M29.6,81.8c-0.1,0.2,0.1,0.5,0.3,0.6C29.9,82.2,29.8,81.9,29.6,81.8"/>
<path fill="#010101" d="M37.7,91.7c0,0.2,0.2,0.5,0.4,0.5C38.2,91.9,38,91.7,37.7,91.7"/>
<path fill="#010101" d="M44.7,93c-0.1,0.2,0.3,0.3,0.3,0.1C45,93,44.8,92.9,44.7,93"/>
<path fill="#010101" d="M53.5,86.6c0.1,0.1,0.2,0.1,0.3,0.2C53.7,87,53.4,86.8,53.5,86.6L53.5,86.6z"/>
<path fill="#010101" d="M59.7,84.2c0.2-0.2,0.5,0.2,0.5,0.4c0,0.3-0.1,0.6,0.1,0.8c0.3,0.3,0.8,0,0.9-0.4c-0.3,0-0.5-0.4-0.5-0.8
	c0.1-0.3,0.3-0.6,0.5-0.8c0.2,0.1,0.2,0.5,0.2,0.7c0,0.3,0.2,0.6,0.4,0.5c0.3-0.1,0.2-0.9,0.6-0.8c0-0.2-0.1-0.5-0.1-0.7
	c-0.1-0.3,0.1-0.8,0.4-0.7c0.3,0.1,0.2,0.6,0,0.8c0.4,0,0.7-0.3,0.8-0.7c0.1-0.4-0.1-0.8-0.5-0.9c-0.1-0.2-0.1-0.4-0.1-0.6
	c0-0.2,0.2-0.4,0.4-0.4c0.3,0,0.4,0.4,0.5,0.7c0,0.3,0,0.6,0.3,0.8c0.3,0.2,0.1,0.7-0.2,1c-1.5,1.9-3.1,3.7-4.6,5.6
	c-0.2,0.3-0.5,0.6-0.5,0.9c-0.2,0.6-0.7,1.1-1.3,1.2c-0.1-0.4,0.1-1,0.5-1.2c-0.3-0.2-0.2-0.7,0-1c0.2-0.3,0.5-0.6,0.4-1
	c0.3,0.1,0.6,0.3,0.8,0.5c0.3-0.3,0-0.9-0.4-0.8c0.3-0.6,1.3-0.7,1.4-1.4c-0.2,0-0.4-0.1-0.6-0.1C59.5,85.3,59.6,84.8,59.7,84.2z"/>
<path fill="#010101" d="M45.9,86c0.2-0.1,0.2,0.2,0.1,0.4C45.9,86.4,45.8,86.2,45.9,86L45.9,86z"/>
<path fill="#010101" d="M36.4,63.7c-0.2-0.2-0.5-0.4-0.8-0.4c-0.1,0.7-0.4,1.4-0.8,2c-0.8,1.1-1.1,2.4-1.3,3.7
	c-0.2,1.1-0.4,2.1-0.6,3.2c-0.1,0.5-0.2,1-0.3,1.6c-0.2-2.8,0.2-5.6,1.2-8.2c0.2-0.5,0.4-1,0.8-1.5c0.5-0.6,1.2-1.1,1.2-1.9
	C36.1,62.6,36.4,63.1,36.4,63.7z"/>
<path fill="#010101" d="M62.7,24.7c-0.1-0.1,0.1-0.2,0.1-0.2c0.1,0,0.2,0.1,0.2,0.2C63,24.8,62.8,24.8,62.7,24.7L62.7,24.7z"/>
<path fill="#010101" d="M41.3,87.3c-0.1-0.2-0.1-0.4-0.2-0.6s-0.4-0.3-0.5-0.2c-0.2,0.4,0,1,0.4,1.2c0.2,0.1,0.2,0.4,0.1,0.6
	c-0.1,0.2-0.4,0.3-0.6,0.4c-0.2-0.4-0.3-0.9-0.3-1.3c-0.2-0.1-0.5,0.2-0.5,0.4c0,0.3,0.1,0.5,0.1,0.8c0,0.4-0.3,0.8-0.7,1
	c0.1-0.4-0.2-0.7-0.4-1c-0.2-0.3-0.3-0.8,0-1c0.2-0.1,0.6-0.1,0.7-0.4c-0.3-0.4-0.9-0.5-1.3-0.1c-0.1-0.1-0.2-0.3-0.3-0.4
	c-0.1,0.3-0.4,0.3-0.6,0.1C37,86.6,37,86.3,37.1,86c0.1-0.4,0.4-0.8,0.8-0.7c0.4,0,0.7,0.6,0.3,0.9c0.3,0.1,0.6-0.1,0.7-0.3
	c0.1-0.3,0-0.6-0.2-0.7c-0.2-0.2,0-0.6,0.3-0.6c0.3,0,0.5,0.4,0.5,0.6c0,0.3-0.1,0.6-0.1,0.9c0,0.3,0.1,0.6,0.3,0.8
	c0.3-0.4,0.6-0.8,0.9-1.3c0.6,0.7,1.4,1.3,2.3,1.7c0.3,0.1,0.6,0.2,0.8,0.2c0.3-0.1,0.5-0.4,0.4-0.7c-0.3,0.2-0.8,0.1-1.1-0.2
	c0.5-0.6,1.3-1,2.1-1.1c0.2,0.3,0,0.8-0.4,0.8c-0.1,0-0.2,0.2-0.1,0.3c0.1,0.5,0.1,1.1,0.2,1.6c-0.4-0.2-0.9-0.1-1.3,0.2
	c0.1-0.5-0.5-0.7-1-0.7C42.1,87.7,41.5,87.7,41.3,87.3z"/>
<path fill="#010101" d="M41.9,80.1c0.3,0.3,0.9,0.2,1.2,0.4c0.4,0.3,0.5,0.8,0.9,1.1c0.1,0.1,0.3,0.1,0.3,0.2
	c0.2,0.2,0.1,0.4,0.1,0.7c0,0.2,0.2,0.5,0.4,0.5c0.2-0.3,0.1-0.6-0.1-1c-0.4-0.8-0.8-1.6-1.5-2.1c-0.6-0.4-1.5-0.5-2-1
	c-0.1-0.1-0.3-0.3-0.2-0.5s0.3-0.4,0.4-0.2c0.2,0.5,0.5,1,1,0.9c0.7-0.2,1.3,0.7,2.1,0.6c0.5-0.1,0.9,0.5,0.7,0.9
	c-0.1,0.1-0.3,0.1-0.5,0.1c0.1,0.6,0.6,1.1,1.2,1.1c-0.2-0.3-0.4-0.6-0.5-1c-0.1-0.4,0-0.8,0.3-1c-0.7-0.1-1.4-0.5-1.9-1.1
	c0.3-0.2,0.8,0,0.9,0.3c1.1-0.2,2.1,0.2,3.2,0.1c0.5,0,1-0.2,1.5-0.2c0.5,0,1.1,0.1,1.4,0.5c0.3,0.4,0.2,1.1-0.3,1.3
	c-0.1,0.3-0.1,0.6,0.1,0.9c0.2,0.3,0.4,0.4,0.6,0.7c0.2,0.3,0.1,0.7-0.1,0.8c-0.2,0.1-0.4-0.1-0.5-0.3c-0.1-0.2-0.1-0.4,0-0.6
	c-0.1,0-0.2,0-0.4-0.1c0.1,0.3-0.2,0.7-0.5,0.8c-0.3,0.1-0.7,0.1-1,0.1c-1.3,0-2.7,0.2-3.9,0.7c-0.3,0.1-0.8,0.2-1-0.1
	c-0.2-0.3-0.1-0.8-0.4-0.8c-0.1,0.6-0.2,1.1-0.3,1.7c-0.3,0.2-0.7-0.2-0.7-0.6c0-0.4,0.2-0.7,0.4-1c0.2-0.3-0.1-0.7-0.4-0.7
	c-0.3,0-0.6,0.2-0.7,0.5c-0.1,0.3-0.1,0.6,0,1c-0.2,0.2-0.5,0-0.6-0.2c-0.1-0.2,0-0.5,0.1-0.7c0.3-0.5,0.5-1,0.8-1.5
	c0.1,0.3,0.5,0.5,0.9,0.4c-0.1-0.4-0.4-0.7-0.7-0.8c0,0.1-0.1,0.2-0.3,0.3c-0.2-0.4-0.5-0.9-0.7-1.3c-0.1-0.2,0.3-0.3,0.5-0.2
	C41.7,79.7,41.7,80,41.9,80.1"/>
<path fill="#010101" d="M49.7,80.1c-0.2,0.1-0.4,0.4-0.3,0.6C49.7,80.7,49.8,80.3,49.7,80.1"/>
<path fill="#010101" d="M48.2,80.7c0,0.2,0.3,0.3,0.4,0.1c0-0.1-0.1-0.2-0.2-0.3C48.3,80.5,48.2,80.6,48.2,80.7L48.2,80.7z"/>
<path fill="#010101" d="M57.1,62c0,0.2-0.3,0.3-0.4,0.1C56.8,62,57,61.9,57.1,62L57.1,62z"/>
<path fill="#010101" d="M38,78.9c0.4-0.3,1-0.2,1.3,0.2c0.1-0.4,0.4-0.7,0.7-0.8c-0.2,0.9-0.4,1.8-0.4,2.7c-0.4,0-0.8-0.2-1.1-0.5
	c-0.3,0.2-0.1,0.6,0.2,0.8s0.6,0.4,0.6,0.7c0,0.5,1,0.3,1.1,0.8c-0.3,0-0.4,0.4-0.3,0.7c0.2,0.3,0.5,0.4,0.8,0.5c0,0.2,0,0.3,0,0.5
	c-0.3,0.3-0.8,0-1-0.3c-0.2-0.4-0.3-0.8-0.7-1C39.1,83,39,83,38.8,82.8c-0.1-0.2-0.2-0.4-0.2-0.6c-0.1-0.2-0.4-0.3-0.5-0.1
	c0.1,0.2,0.1,0.5,0.1,0.7c-0.2,0.1-0.5,0-0.6-0.2s-0.1-0.4-0.1-0.7c0.3-0.1,0.4-0.4,0.4-0.8c0-0.7-0.3-1.3-0.7-1.8
	c-0.2,0-0.5,0-0.7,0c-0.1-0.4,0.4-0.6,0.8-0.4c0.3,0.2,0.5,0.5,0.8,0.7c0.3,0.3,0.8,0.5,1.3,0.6c0.2-0.3-0.1-0.7-0.4-0.8
	C38.6,79.3,38.2,79.2,38,78.9z"/>
<path fill="#010101" d="M68.6,42.6c0,0.1-0.2,0.1-0.2,0s0-0.2,0.1-0.3C68.6,42.3,68.7,42.6,68.6,42.6L68.6,42.6z"/>
<path fill="#010101" d="M28.4,23c-0.5-0.1-0.8,0.3-1.1,0.7c-0.3-0.6,0.3-1.5,1-1.4c0.6,0.1,1.2-0.4,1.8-0.6c0.6-0.3,1.2-0.4,1.8-0.5
	c1.1-0.2,2.2-0.4,3.3-0.7c-0.1,0.3-0.4,0.4-0.6,0.5c-1.6,0.5-3.2,0.8-4.6,1.5C29.5,22.8,29,23.1,28.4,23z"/>
<path fill="#010101" d="M30.4,42.2c0.2-0.1,0.2,0.2,0.1,0.4C30.4,42.6,30.3,42.3,30.4,42.2L30.4,42.2z"/>
<path fill="#010101" d="M47.9,11.9c-0.9-0.1-1.7-0.3-2.6-0.4c0-0.2,0-0.5,0.1-0.7s0.3-0.4,0.6-0.3c-0.1,0.3-0.1,0.6,0,0.8
	c0.5-0.1,0.9-0.4,1.1-0.8c0.1-0.1,0.2-0.2,0.2-0.4c0-0.3-0.4-0.4-0.6-0.4c-0.3,0-0.6,0.1-0.8,0C45.9,9.2,47,9,47.4,9.5
	c0.1,0.1,0.3,0,0.4-0.1c0.1-0.1,0.1-0.3,0.2-0.4c0.2-0.2,0.6-0.4,0.4-0.7c-0.1-0.2-0.4,0-0.6,0.2c-0.1,0.2-0.4,0.4-0.6,0.2
	c-0.1-0.1,0-0.4,0.1-0.5c0.3-0.4,0.5-0.8,0.8-1.1c0.3,0.1,0.5,0.4,0.7,0.7C49,7.6,48.9,7.3,48.9,7c-0.1-0.2,0.1-0.6,0.3-0.5
	c0.6,0.2,0,1.5,0.6,1.7c0.2,0.1,0.5,0,0.7,0.2c0.1,0.1,0.1,0.3,0,0.4c-0.1,0.5-0.2,1.1-0.6,1.4c-0.2,0.2-0.4,0.4-0.3,0.6
	c0.3,0.2,0,0.7-0.3,0.8c-0.3,0.1-0.7,0.1-1,0.2C48.1,12,48,11.9,47.9,11.9"/>
<path fill="#010101" d="M48.7,10.3c-0.2-0.1-0.5-0.2-0.7-0.4c-0.5,0.3-0.7,1-0.6,1.5c0.5-0.2,0.9-0.6,1.2-1c0,0.3,0.2,0.6,0.5,0.7
	c0.1-0.7,0.5-1.4,1-1.9C49.6,9.2,48.9,9.7,48.7,10.3"/>
<path fill="#010101" d="M48.9,9.5c0-0.2-0.1-0.3-0.3-0.3c-0.2,0-0.3,0.2-0.3,0.3C48.5,9.6,48.7,9.6,48.9,9.5L48.9,9.5z"/>
<path fill="#010101" d="M72.3,58.2c0.4-0.4,0.6-1.1,0.4-1.6c-0.1-0.2,0-0.3,0-0.5c0.1-1.8,0.3-3.5,0.4-5.3c0.4,0.2,0.6,0.7,0.6,1.2
	c-0.2,0.9,0.3,1.9,0.8,2.7s0.7,2,0.2,2.7c-0.3,0.4-0.7,0.6-1.2,0.8C73,58.4,72.5,58.5,72.3,58.2z"/>
<path fill="#010101" d="M69.2,93.8c-0.2-0.1-0.1-0.4,0.1-0.5C69.4,93.4,69.4,93.7,69.2,93.8L69.2,93.8z"/>
<path fill="#010101" d="M58.6,85.8c0.1,0.2,0,0.3-0.2,0.4C58.2,86.1,58.4,85.8,58.6,85.8L58.6,85.8z"/>
<path fill="#010101" d="M44.9,56c-0.9-0.6-2-0.8-3-0.6c0.3-0.2,0.5-0.5,0.7-0.8s0.1-0.7-0.2-0.9c-0.2-0.1,0.1-0.5,0.3-0.4
	c0.2,0.1,0.3,0.4,0.3,0.7c0.3,0.1,0.6-0.3,0.7-0.6c0-0.3-0.1-0.7-0.2-1c-0.1-0.3-0.2-0.7-0.1-1c0.5,0.6,0.8,1.4,0.7,2.2
	c-0.1,1.1,1.4,1.6,1.5,2.7C45.4,56.3,45.1,56.1,44.9,56L44.9,56z"/>
<path fill="#010101" d="M27.7,26.3c1.6-1.2,3.7-1.6,5.8-1.8c0.9-0.1,1.7-0.2,2.6,0c-0.1,0.3-0.5,0.3-0.7,0.3
	c-2.2,0.1-4.4,0.6-6.5,1.3C28.4,26.3,28,26.4,27.7,26.3z"/>
<path fill="#010101" d="M24.3,87.5"/>
<path fill="#010101" d="M58.9,68.1c0.4,0.2,0.2,0.8,0.2,1.2c-0.1,0.7,0.2,1.3,0.4,2c0.1,0.7,0.1,1.5-0.5,1.8
	c0.6,0.3,0.8,1.1,0.9,1.8c-0.2-0.1-0.4,0.1-0.4,0.4c0,0.2,0.2,0.4,0.3,0.6c0.1,0.2,0.1,0.5-0.1,0.6c-0.6-0.4-0.9-1.3-0.5-1.9
	c0.2-0.4-0.5-1-0.2-1.4c-0.6-0.2-0.6-1-0.4-1.6c0.2,0,0.4-0.1,0.6-0.2C58.4,70.4,58.4,69.1,58.9,68.1z"/>
<path fill="#010101" d="M46.5,96.7c0-0.2,0.4-0.1,0.5,0C46.9,96.8,46.7,96.8,46.5,96.7L46.5,96.7z"/>
<path fill="#010101" d="M24.2,54.3c0.3-0.4-0.8-1-0.4-1.3c0-0.1,0.2-0.2,0.3-0.1c0.2,0.4,0.7,0.6,1.1,0.5c0.2-0.1,0.4,0.3,0.3,0.5
	c-0.1,0.2-0.4,0.3-0.6,0.4c0.2,0.3,0.6,0.4,0.9,0.2c0.3-0.2,0.4-0.6,0.3-0.9c-0.1-0.2,0.1-0.4,0.3-0.4c0.2,0,0.4,0.1,0.5,0.2
	c-0.1,0.4-0.2,0.8-0.5,1.2c-0.2,0.3-0.7,0.6-1.1,0.5c-0.2,0-0.3-0.1-0.5-0.1c-0.2,0-0.4,0.1-0.3,0.3c0.1,0.6-0.2,1.2-0.8,1.4
	c0.1,0.2,0.2,0.5,0.1,0.7c-0.3,0.1-0.6-0.2-0.6-0.5c0-0.3,0.2-0.6,0.4-0.8s0.4-0.5,0.5-0.8C24.1,54.8,24.1,54.5,24.2,54.3z"/>
<path fill="#010101" d="M63.4,85.3c0.1,0.1,0.2,0.3,0.2,0.5C63.4,85.7,63.3,85.4,63.4,85.3L63.4,85.3z"/>
<path fill="#010101" d="M34.9,74.3c0,0.2,0,0.4,0.1,0.5c0.1,0.1,0.4,0.1,0.4,0c0.1-0.5,0.5-0.8,1-1c0.1,0.2-0.1,0.5-0.2,0.7
	c-0.5,0.7-0.7,1.6-0.4,2.5c-0.3,0.2-0.7-0.2-0.8-0.5c-0.1-0.4,0-0.8-0.2-1.1c-0.2-0.3-0.5-0.4-0.7-0.7c-0.2-0.3-0.2-0.8,0.2-0.8
	c0.2,0.2,0.2,0.4,0.1,0.7C34.5,74.6,34.8,74.5,34.9,74.3z"/>
<path fill="#010101" d="M24.9,25.1c0.2,0,0.2,0.3,0.1,0.5C24.9,25.4,24.9,25.2,24.9,25.1L24.9,25.1z"/>
<path fill="#010101" d="M65.8,45.8c0.1,0,0.4,0,0.3,0.2C66,46,65.8,46.1,65.7,46C65.6,46,65.7,45.8,65.8,45.8L65.8,45.8z"/>
<path fill="#010101" d="M19.7,51c-0.1-0.8,0.1-1.5,0.5-2.2c0.4,0.3,0.4,0.9,0.3,1.4c0,0.5,0.1,1.1,0.6,1.3c-0.1,0.2-0.4,0.1-0.6,0.1
	c-0.2-0.1-0.4-0.2-0.6-0.2c-0.5,0-0.6,0.7-0.5,1.2c-0.3-0.1-0.5-0.5-0.5-0.8C19.1,51.4,19.4,51.1,19.7,51z"/>
<path fill="#010101" d="M69.5,42.9c-0.2,0.1-0.4-0.2-0.2-0.4C69.4,42.5,69.5,42.7,69.5,42.9L69.5,42.9z"/>
<path fill="#010101" d="M24.8,65.4c-0.1-0.1-0.2-0.2-0.2-0.4c0.3-0.7,1.4-0.9,2-0.3c0.1,0.1,0.1,0.2,0.1,0.3c0.1,1,0.1,2-0.1,3
	c-0.1-0.2-0.1-0.4-0.1-0.6c-0.5,0-0.9,0.1-1.4,0.1c-0.1,0-0.2,0-0.2,0c-0.1-0.1-0.1-0.2-0.1-0.3c0.1-0.9,0.9-1.7,1.8-1.8
	C26.2,64.8,25.3,64.9,24.8,65.4"/>
<path fill="#010101" d="M26,66.5c0.3,0.1,0.4-0.5,0.1-0.6S25.7,66.5,26,66.5z"/>
<path fill="#010101" d="M27.4,20.2c0.4,0.4,0.6,0.9,0.7,1.4c-0.3-0.3-0.8-0.3-1.1-0.1c-0.6,0.5-1.2,0.9-1.9,1.3
	c0-0.5,0.4-0.8,0.7-1.1c0.4-0.3,0.9-0.7,1.3-1c0-0.1,0-0.2,0-0.3C27.2,20.2,27.3,20.2,27.4,20.2z"/>
<path fill="#010101" d="M51.1,94.8c0,0.1-0.2,0.2-0.3,0.1c-0.1-0.1,0-0.3,0.1-0.3C50.9,94.6,51.1,94.7,51.1,94.8L51.1,94.8z"/>
<path fill="#010101" d="M68,93.5c0-0.1,0.2-0.2,0.3-0.1c0.1,0.1,0,0.3-0.1,0.3C68.1,93.7,68,93.6,68,93.5L68,93.5z"/>
<path fill="#010101" d="M68.5,89.7c0.2,0,0.4,0.2,0.3,0.4C68.6,90,68.4,89.8,68.5,89.7L68.5,89.7z"/>
<path fill="#010101" d="M68.9,24c0-0.1,0.1-0.2,0.2-0.1c0.1,0,0.1,0.1,0.2,0.2C69.2,24.2,68.9,24.1,68.9,24L68.9,24z"/>
<path fill="#010101" d="M28.2,67.6c-0.4,0.3-0.3,1,0.2,1.2c0.3,0.1,0.6,0.2,0.9,0.5c0.2,0.3,0.3,0.7,0,0.9c-0.5-0.3-1-0.7-1.3-1.1
	c-0.4-0.5-0.6-1.1-0.5-1.6C27.7,67.4,28,67.5,28.2,67.6z"/>
<path fill="#010101" d="M30.4,72.6c-0.1,0-0.2-0.2-0.1-0.4c0.1,0,0.2,0,0.3,0.1C30.6,72.5,30.5,72.6,30.4,72.6L30.4,72.6z"/>
<path fill="#010101" d="M35,59.3c-0.7,0.3-1.5,0.5-2.2,0.7c0.1-0.2,0.3-0.3,0.4-0.5c0.3,0.1,0.5-0.3,0.4-0.5
	c-0.1-0.2-0.5-0.2-0.6,0.1c-0.1,0.3-0.2,0.6-0.4,0.8c-0.2,0.2-0.7,0.1-0.8-0.2c0.4-0.3,0.5-0.7,0.8-1.1c0.3-0.3,1-0.4,1.1,0
	C33.7,59.2,34.9,58.8,35,59.3z"/>
<path fill="#010101" d="M30.1,68.8c0-0.1-0.1-0.3-0.1-0.4c0.1,0,0.2,0,0.3,0.2C30.4,68.7,30.2,68.8,30.1,68.8L30.1,68.8z"/>
<path fill="#010101" d="M53.2,88.2c-0.1,0.1-0.2,0.3-0.3,0.4c-0.1-0.3-0.1-0.7,0-1.1c0.1-0.1,0.2-0.3,0.3-0.1c0.3,0.4,1,0.3,1.4,0
	c0.5-0.3,1-0.6,1.5-0.3c-0.8,0.6-1.7,1.1-2.6,1.5C53.5,88.3,53.3,88.2,53.2,88.2z"/>
<path fill="#010101" d="M36.3,55.5c0.1,0,0,0.2-0.1,0.2c-0.1-0.1-0.1-0.2-0.2-0.3C36.2,55.2,36.4,55.3,36.3,55.5L36.3,55.5z"/>
<path fill="#010101" d="M30.2,56.1c-0.1,0.1-0.2,0.1-0.3,0.1c0,0.3,0.1,0.6,0.3,0.9c-0.2,0.2-0.5-0.1-0.5-0.4c0-0.3,0.1-0.6,0-0.8
	c-0.1-0.2-0.2-0.3-0.3-0.4c-0.1-0.1-0.2-0.4-0.1-0.5c0.1-0.1,0.3-0.1,0.5,0c0.6,0.2,1.1,0.4,1.7,0.5c-0.4,0.2-0.9,0.2-1.3,0.1
	C30.1,55.7,30.1,55.9,30.2,56.1z"/>
<path fill="#010101" d="M63.7,47.6c0.1,0,0.2,0,0.3,0c0,0.1,0,0.2,0.1,0.3C63.9,47.9,63.7,47.8,63.7,47.6L63.7,47.6z"/>
<path fill="#010101" d="M48.6,86.8c-0.1-0.3-0.4-0.6-0.2-0.8c0.4,0.3,0.8,0.7,1.1,1.1c0.2,0.2,0.3,0.5,0.2,0.8
	c-0.1,0.3-0.5,0.4-0.6,0.1c0-0.1,0-0.3,0-0.4c0-0.1-0.2-0.2-0.3-0.1c0.2,0.1,0.1,0.4,0,0.5c-0.1,0.2-0.3,0.2-0.5,0.3
	c-0.2,0-0.4,0.1-0.6,0.1C47.6,87.8,48.7,87.4,48.6,86.8L48.6,86.8z"/>
<path fill="#010101" d="M37.8,61.4c0.4-0.3,1.2,0,1.2,0.6c0,0.2,0,0.3-0.1,0.5c-0.1,0.4-0.2,0.8-0.3,1.2c-0.4,0.1-0.9,0.2-1.3,0.3
	c-0.2-0.1-0.1-0.4,0.1-0.6c0.2-0.1,0.4-0.1,0.6-0.3c0.3-0.2,0.4-0.5,0.3-0.8c-0.1-0.3-0.3-0.5-0.6-0.6
	C37.8,61.6,37.8,61.5,37.8,61.4z"/>
<path fill="#010101" d="M69.3,48c-0.1-0.1,0.1-0.3,0.2-0.2C69.6,48,69.3,48.1,69.3,48L69.3,48z"/>
<path fill="#010101" d="M66.3,67.9c0.3,0.1,0.3,0.5,0.2,0.6C66.4,68.4,66.3,68.2,66.3,67.9L66.3,67.9z"/>
<path fill="#010101" d="M28,20.3c0-0.6,0.4-1.1,1-1.4c0.4-0.2,0.8-0.2,1.2-0.3C29.5,19.2,28.8,19.8,28,20.3z"/>
<path fill="#010101" d="M27.5,57.7c-0.1,0.1-0.2-0.1-0.1-0.1s0.2-0.1,0.3,0c0.1,0,0.2,0.1,0.3,0C28,57.8,27.6,57.8,27.5,57.7
	L27.5,57.7z"/>
<path fill="#010101" d="M31,56.9c0.1,0.2,0.1,0.3,0,0.5c-0.1-0.1-0.2-0.2-0.2-0.3C30.8,56.9,30.9,56.8,31,56.9L31,56.9z"/>
<path fill="#010101" d="M67.7,67c0.4,0.3,0.6,0.8,0.5,1.3c0.3,0,0.6,0,0.8,0.2c0.2,0.2,0.2,0.6,0,0.7c-0.2-0.4-0.8-0.1-1.1-0.4
	c-0.1-0.1-0.1-0.2-0.1-0.3C67.6,68,67.6,67.5,67.7,67z"/>
<path fill="#010101" d="M69,92.5c-0.2,0-0.1-0.3,0.1-0.3c0.2,0,0.3,0.1,0.4,0.2C69.3,92.5,69.2,92.6,69,92.5L69,92.5z"/>
<path fill="#010101" d="M57.3,80.9c0.5,0.2,1,0.6,1.3,1.1c0.1,0.2,0.1,0.5-0.1,0.4c-0.1-0.3-0.2-0.6-0.4-0.8c-0.2-0.2-0.6-0.3-0.8,0
	c-0.2,0.2-0.7,0.1-0.8-0.2C56.8,81.4,57.1,81.2,57.3,80.9z"/>
<path fill="#010101" d="M61.7,69c-0.1-0.1,0.2-0.1,0.2,0c0,0.1,0,0.3,0,0.4C61.8,69.3,61.7,69.1,61.7,69L61.7,69z"/>
<path fill="#010101" d="M27.1,24.5c-0.3-0.3-0.9-0.4-1.2-0.1c-0.2,0.2-0.4,0.4-0.6,0.5c-0.2-0.3,0.1-0.7,0.4-0.9
	c0.3-0.2,0.7-0.4,0.7-0.8C26.8,23.5,27.1,24,27.1,24.5z"/>
<path fill="#010101" d="M20.4,61.5c0.2,0.1,0.2,0.4,0.1,0.7C20.3,62,20.3,61.7,20.4,61.5L20.4,61.5z"/>
<path fill="#010101" d="M46.8,85.3c0-0.1,0-0.2,0.1-0.3c0.1,0,0.3,0,0.4,0C47.4,85.3,47,85.5,46.8,85.3L46.8,85.3z"/>
<path fill="#010101" d="M75.1,45.2c-0.1-0.1-0.2-0.3-0.1-0.4c0.1-0.1,0.2-0.1,0.3-0.2c0.6,0.6,1,1.4,1,2.3
	C75.9,46.4,75.5,45.8,75.1,45.2z"/>
<path fill="#010101" d="M38.8,84c-0.1-0.1-0.2-0.2-0.2-0.3c0.1-0.1,0.3-0.1,0.4-0.1c0.1,0.1,0.1,0.2,0.1,0.3
	C39,84,38.9,84.1,38.8,84L38.8,84z"/>
<path fill="#010101" d="M64.3,73.5c-0.1,0-0.2-0.2-0.2-0.3c0-0.1,0.2-0.2,0.3-0.2C64.5,73.2,64.4,73.4,64.3,73.5L64.3,73.5z"/>
<path fill="#010101" d="M30.8,75.5c-0.2,0.1-0.3,0.1-0.5,0.2c0-0.8-0.2-1.6-0.7-2.3c0.2-0.2,0.6,0,0.8,0.2c0.2,0.2,0.2,0.5,0.3,0.8
	C30.7,74.8,30.8,75.1,30.8,75.5z"/>
<path fill="#010101" d="M36.3,58.4c-0.1,0.1-0.4-0.1-0.2-0.3c0.1-0.1,0.3-0.1,0.5,0C36.5,58.2,36.4,58.3,36.3,58.4L36.3,58.4z"/>
<path fill="#010101" d="M28,72.5c0.1-0.1,0.3-0.1,0.4,0c0.4,0.2,0.7,0.5,0.8,0.9c0,0.4-0.3,0.9-0.7,0.9c-0.2-0.5-0.3-0.9-0.5-1.4
	C28,72.8,27.9,72.6,28,72.5z"/>
<path fill="#010101" d="M70.8,41.9c0.1-0.4,0.2-0.8,0.3-1.2c0.1-0.1,0.3-0.1,0.4,0.1c0.1,0.2,0,0.3,0,0.5c-0.1,0.5-0.3,1-0.7,1.2
	c-0.3-0.1-0.5-0.4-0.5-0.7C70.4,41.8,70.6,41.8,70.8,41.9z"/>
<path fill="#010101" d="M25.9,96.8c-0.2-0.1-0.2-0.4,0-0.5C26.1,96.4,26.1,96.7,25.9,96.8L25.9,96.8z"/>
<path fill="#010101" d="M50.5,85.6c0.1,0,0.2,0.2,0.1,0.3c-0.2,0.1-0.3-0.1-0.4-0.3C50.2,85.5,50.4,85.5,50.5,85.6L50.5,85.6z"/>
<path fill="#010101" d="M22.9,61.5c-0.1,0-0.2,0-0.2,0c-0.1-0.1-0.1-0.1-0.1-0.2c0-0.2,0-0.3,0-0.5s0.3-0.2,0.4-0.2
	c0.4,0.3,1.1,0.1,1.3-0.3c0.1,0.1,0.1,0.2,0.2,0.3C24.2,61.1,23.5,61.4,22.9,61.5z"/>
<path fill="#010101" d="M68.6,94.9c-0.1,0.2-0.4,0.2-0.6,0.1c0.1-0.1,0.1-0.2,0.2-0.3C68.4,94.7,68.5,94.8,68.6,94.9L68.6,94.9z"/>
<path fill="#010101" d="M36.3,60.2c0.1-0.1,0.3-0.1,0.4,0.1c0.4,0.5,0.3,1.3-0.2,1.6c-0.2,0.1-0.5,0.2-0.7,0c-0.1-0.3-0.1-0.6,0-0.8
	c0.1-0.2,0.6-0.3,0.7,0C36.5,60.8,36.4,60.5,36.3,60.2z"/>
<path fill="#010101" d="M39.4,78.2c0,0.1,0,0.2,0,0.3c-0.1-0.1-0.3-0.3-0.3-0.4C39.2,78,39.5,78,39.4,78.2L39.4,78.2z"/>
<path fill="#010101" d="M33.8,69.8c0.1-0.2,0.4,0.1,0.3,0.4c-0.1,0.9-0.5,1.7-0.2,2.6c-0.4,0-0.5-0.6-0.4-1
	C33.6,71.1,33.7,70.5,33.8,69.8z"/>
<path fill="#010101" d="M28.1,59.9c0.4,0.3,0.9,0.7,0.9,1.2c0,0.4-0.1,0.7-0.2,1.1C28.3,61.6,28,60.7,28.1,59.9z"/>
<path fill="#010101" d="M49.7,48.4c-0.3-0.1-0.6-0.4-0.8-0.7c0.4-0.2,0.9,0,1,0.4c0.1,0,0.3,0,0.4,0c0.1,0.4,0,0.9-0.4,1.1
	C49.8,49,49.7,48.7,49.7,48.4L49.7,48.4z"/>
<path fill="#010101" d="M50.7,87c0.3,0,0.4,0.3,0.6,0.6s0.6,0.4,0.7,0.1c0.1,0.3,0.2,0.6,0.1,0.9C51.3,88.5,50.7,87.8,50.7,87z"/>
<path fill="#010101" d="M60.8,70.4c-0.1-0.1,0.1-0.3,0.3-0.2c0.1,0.1,0.1,0.2,0.2,0.3C61.1,70.6,60.9,70.5,60.8,70.4L60.8,70.4z"/>
<path fill="#010101" d="M69.7,56.3c0.1,0,0.2,0,0.3,0.1c0,0.1-0.2,0.3-0.3,0.3C69.5,56.6,69.5,56.3,69.7,56.3L69.7,56.3z"/>
<path fill="#010101" d="M44.2,49.9c-0.1,0.3,0.2,0.7,0.4,1c0.2,0.3,0.3,0.7,0,1C44.5,52,44.3,52,44.1,52c0.2-0.3-0.1-0.7-0.3-1
	c-0.2-0.3-0.3-0.8,0-1C44,49.9,44.1,49.9,44.2,49.9z"/>
<path fill="#010101" d="M29.4,62.8c-0.2-0.1-0.2-0.4,0-0.5C29.6,62.4,29.6,62.7,29.4,62.8L29.4,62.8z"/>
<path fill="#010101" d="M47.4,66c-0.1,0.2-0.4,0.1-0.6,0c-0.2-0.1-0.4-0.3-0.3-0.5c0.2-0.2,0.1-0.5,0-0.8c-0.1-0.3,0-0.7,0.3-0.6
	c0.2,0.5,0.5,1,0.6,1.6C47.5,65.7,47.5,65.9,47.4,66z"/>
<path fill="#010101" d="M51.9,82.7c-0.1-0.1-0.2-0.1-0.3-0.2c0-0.1,0.2-0.3,0.3-0.2C52.1,82.4,52,82.6,51.9,82.7L51.9,82.7z"/>
<path fill="#010101" d="M45.7,87c0.3-0.2,0.6,0.4,0.5,0.7c-0.1,0.4-0.3,0.8-0.1,1.1c-0.4,0.1-1,0-1-0.5c0.3,0.1,0.5-0.3,0.4-0.6
	C45.5,87.5,45.4,87.2,45.7,87z"/>
<path fill="#010101" d="M58.3,74.8c0.1,0.1,0.2,0.3,0.1,0.4c-0.1-0.1-0.3-0.1-0.3-0.3S58.3,74.7,58.3,74.8L58.3,74.8z"/>
<path fill="#010101" d="M24.9,31.3c0-0.2-0.5-0.1-0.6-0.4c0-0.1,0-0.2,0-0.3c0.1-0.4,0.3-0.8,0.4-1.2c0.4,0.2,0.5,0.7,0.3,1.1
	c-0.1,0.2,0,0.4,0.2,0.5C25.2,31.1,25,31.3,24.9,31.3z"/>
<path fill="#010101" d="M51.1,76.5c0.4-0.1,0.7-0.2,1.1-0.3c0.3-0.1,0.5-0.1,0.8,0c-0.4,0.3-0.7,0.6-1.2,0.8
	c-0.2,0.1-0.5,0.2-0.7,0.1C51,76.9,50.9,76.5,51.1,76.5z"/>
<path fill="#010101" d="M49.1,77.3c0.1,0.1,0.1,0.3,0,0.4c-0.1-0.1-0.2-0.2-0.2-0.3C48.8,77.2,49,77.1,49.1,77.3L49.1,77.3z"/>
<path fill="#010101" d="M49.2,65.5c0.1,0.1,0.2,0.1,0.4,0.2c0,0.1,0,0.2-0.1,0.3C49.3,66,49.2,65.7,49.2,65.5L49.2,65.5z"/>
<path fill="#010101" d="M24.3,63.3c0.1-0.4,0.2-0.7,0.2-1.1c0.3,0,0.6,0.2,0.7,0.5c-0.5,0.4-0.6,1.1-0.7,1.7
	C24.4,64,24.4,63.7,24.3,63.3L24.3,63.3z"/>
<path fill="#010101" d="M31.9,35.9c-0.2,0.1-0.4-0.1-0.4-0.3C31.7,35.5,31.9,35.7,31.9,35.9L31.9,35.9z"/>
<path fill="#010101" d="M40,77.5c-0.4,0-0.8-0.1-1.2-0.1c-0.2,0-0.5,0-0.7-0.2c-0.2-0.1-0.3-0.4-0.2-0.6c0.4,0.3,0.9,0.5,1.5,0.5
	C39.8,77.2,40.2,77.3,40,77.5z"/>
<path fill="#010101" d="M56.7,82.7c-0.1,0.2-0.2,0.3-0.3,0.5C56.2,83,56.5,82.6,56.7,82.7L56.7,82.7z"/>
<path fill="#010101" d="M56.9,87.5c0.1,0.6,0.1,1.1,0.2,1.7c0,0.2,0,0.4-0.1,0.5c-0.1-0.2-0.3-0.5-0.4-0.7c-0.2-0.3-0.3-0.6-0.3-0.9
	C56.2,87.7,56.5,87.4,56.9,87.5z"/>
<path fill="#010101" d="M22.5,57.4c0.2,0,0.4,0.1,0.5,0.3C22.7,57.8,22.5,57.6,22.5,57.4L22.5,57.4z"/>
<path fill="#010101" d="M27,45.9c-0.1,0-0.2-0.2-0.1-0.4c0.2,0,0.5,0.1,0.4,0.3C27.2,45.9,27.1,45.9,27,45.9L27,45.9z"/>
<path fill="#010101" d="M26,94.8c0-0.2-0.1-0.5,0-0.7c0.1-0.2,0.4-0.4,0.6-0.3c-0.1,0.5-0.3,1-0.4,1.5c-0.1,0.2-0.2,0.4-0.4,0.5
	C25.6,95.5,25.7,95.1,26,94.8L26,94.8z"/>
<path fill="#010101" d="M40.7,56.4c-0.2-0.2,0-0.6,0.2-0.6C41,56,41,56.2,41,56.3C40.9,56.4,40.8,56.4,40.7,56.4L40.7,56.4z"/>
<path fill="#010101" d="M41.1,81.5c0,0.1,0,0.3,0,0.4c-0.4,0-0.9-0.1-1.1-0.4c0.2,0,0.4-0.1,0.5-0.3s0-0.5-0.2-0.5
	C40.8,80.5,41.2,81,41.1,81.5L41.1,81.5z"/>
<path fill="#010101" d="M23.8,60.1c-0.1,0.1-0.3,0.1-0.5,0c0.2-0.7,0.2-1.5-0.1-2.2c0.2-0.1,0.5,0,0.6,0.3s0,0.5-0.2,0.6
	C23.9,59.2,23.9,59.7,23.8,60.1z"/>
<path fill="#010101" d="M27.3,56.5c0,0.2-0.2,0.4-0.4,0.3c0-0.3,0.1-0.6,0.3-0.6C27.3,56.2,27.3,56.4,27.3,56.5L27.3,56.5z"/>
<path fill="#010101" d="M50.7,10.5c0-0.1,0-0.2,0.1-0.3c0.2,0,0.5,0,0.6,0.2C51.2,10.5,50.9,10.6,50.7,10.5L50.7,10.5z"/>
<path fill="#010101" d="M28.6,35.6c0,0.1,0,0.3,0,0.4C28.5,36,28.4,36,28.3,36C28.1,35.8,28.3,35.4,28.6,35.6L28.6,35.6z"/>
<path fill="#010101" d="M63.2,89.3c-0.2,0.3-0.4,0.6-0.6,0.9c-0.2-0.3-0.2-0.7,0-1c0.2-0.3,0.5-0.5,0.8-0.7
	C63.3,88.8,63.3,89.1,63.2,89.3L63.2,89.3z"/>
<path fill="#010101" d="M31.6,58.5c0.2,0.2-0.2,0.5-0.5,0.4c-0.5-0.1-0.9-0.5-1-0.9c0.4,0.1,0.9,0.3,1.3,0.4
	C31.5,58.4,31.6,58.5,31.6,58.5z"/>
<path fill="#010101" d="M25.3,94.6c0,0.1-0.2,0.2-0.2,0.1c0-0.2,0-0.4,0.1-0.6C25.3,94.1,25.5,94.4,25.3,94.6L25.3,94.6z"/>
<path fill="#010101" d="M69.4,41.5c-0.1-0.1,0-0.3,0.2-0.4c0.2-0.1,0.4-0.2,0.3-0.4c0-0.2-0.3-0.4-0.2-0.5c0.2-0.2,0.6,0,0.7,0.2
	c0.1,0.3,0,0.6-0.1,0.9C70,41.4,69.7,41.5,69.4,41.5z"/>
<path fill="#010101" d="M63.4,75.6c0,0.1,0.1,0.3,0.1,0.4c0,0.1-0.1,0.2-0.2,0.2c-0.5-0.6-0.1-1.6,0.6-1.7
	C64.1,74.9,63.3,75.2,63.4,75.6z"/>
<path fill="#010101" d="M27.2,61.1c0-0.1,0-0.3,0.1-0.4c0.2,0.1,0.3,0.3,0.3,0.6C27.5,61.3,27.2,61.3,27.2,61.1L27.2,61.1z"/>
<path fill="#010101" d="M31.5,60.9c0.2-0.1,0.5-0.1,0.7,0c0.1,0,0,0.2-0.2,0.3c-0.5,0.2-1,0.3-1.5,0.5
	C30.7,61.3,31.1,60.9,31.5,60.9L31.5,60.9z"/>
<path fill="#010101" d="M57.5,91.6c0.2,0.2,0.3,0.3,0.4,0.5c0.1,0.2,0,0.5-0.2,0.6c-0.2,0.1-0.1,0.6-0.4,0.7
	c-0.5-0.4,0.4-1.4-0.1-1.7C57.3,91.6,57.4,91.6,57.5,91.6z"/>
<path fill="#010101" d="M58.7,84.9c-0.4,0.1-0.7,0.3-1.1,0.4c0-0.4,0.4-0.7,0.8-0.8c0.4-0.1,0.8,0.1,1,0.5
	C59.2,85.1,58.9,85.1,58.7,84.9L58.7,84.9z"/>
<path fill="#010101" d="M27.6,48.5c-0.1,0-0.2,0-0.3-0.1c0-0.2,0-0.3,0-0.5c0.1-0.1,0.3-0.1,0.4,0C27.7,48.2,27.7,48.3,27.6,48.5
	L27.6,48.5z"/>
<path fill="#010101" d="M47,86.5c0,0.4,0.1,0.8,0.1,1.3c0,0.2,0,0.5,0.1,0.7c-0.4,0.1-0.7-0.4-0.6-0.8C46.6,87.3,46.9,86.9,47,86.5z
	"/>
<path fill="#010101" d="M35,73.9c-0.1-0.6,0.2-1.3,0.8-1.6C35.9,72.9,35.6,73.7,35,73.9z"/>
<path fill="#010101" d="M54.3,89.5c-0.1,0.1-0.3-0.1-0.3-0.3c0.1-0.2,0.3-0.2,0.4-0.2C54.6,89.2,54.5,89.4,54.3,89.5L54.3,89.5z"/>
<path fill="#010101" d="M41.3,85.5c-0.1,0-0.2-0.2-0.1-0.3c0.3-0.1,0.6,0.3,0.4,0.5C41.5,85.6,41.4,85.6,41.3,85.5L41.3,85.5z"/>
<path fill="#010101" d="M61.1,80.1c0.4-0.2,0.9,0,1.1,0.4c0.1,0.2,0.1,0.4,0.1,0.7c-0.1,0.1-0.2,0.1-0.3,0
	C61.6,80.8,61.3,80.5,61.1,80.1z"/>
<path fill="#010101" d="M31.4,63.6c-0.2,0.2-0.6-0.1-0.4-0.4C31.2,63.1,31.4,63.3,31.4,63.6L31.4,63.6z"/>
<path fill="#010101" d="M18.4,54.8c0.1-0.1,0.3,0,0.4,0.1c-0.1,0.2-0.2,0.3-0.4,0.3C18.3,55.2,18.3,54.9,18.4,54.8L18.4,54.8z"/>
<path fill="#010101" d="M47.2,57.6c-0.4-0.2-0.8-0.6-1-1c0.2,0,0.5,0,0.7,0.1s0.5,0.2,0.6,0.4C47.6,57.3,47.4,57.6,47.2,57.6z"/>
<path fill="#010101" d="M53.3,53.7c0,0.1-0.1,0.2-0.2,0.2c-0.2-0.1-0.3-0.3-0.3-0.4C53,53.4,53.2,53.5,53.3,53.7L53.3,53.7z"/>
<path fill="#010101" d="M37.1,56.3c0.2,0.5-0.3,1.1-0.8,1c-0.2,0-0.3-0.1-0.4-0.3C36.3,56.8,36.7,56.5,37.1,56.3z"/>
<path fill="#010101" d="M64.2,77.8c0.3,0.3,0.5,0.6,0.6,1c-0.4-0.3-0.9-0.4-1.3-0.4c0-0.1,0-0.2,0-0.3C63.7,77.9,64,77.8,64.2,77.8z
	"/>
<path fill="#010101" d="M66.4,26.1c-0.1-0.1,0.1-0.3,0.2-0.2c0.1,0.1,0.2,0.3,0.2,0.4C66.7,26.3,66.5,26.2,66.4,26.1L66.4,26.1z"/>
<path fill="#010101" d="M56.4,94.5c0,0.1,0,0.3,0,0.4c-0.1,0.1-0.3,0-0.4-0.2c-0.1-0.2,0-0.3,0-0.5C56.2,94.4,56.3,94.5,56.4,94.5
	L56.4,94.5z"/>
<path fill="#010101" d="M57.2,86.7c-0.3-0.3-0.2-0.8,0.2-1c0.3,0.5,0.5,1.2,0.3,1.8C57.4,87.4,57.2,87.1,57.2,86.7L57.2,86.7z"/>
<path fill="#010101" d="M54.6,95.4c0.3,0.2,0.2,0.7-0.1,0.8C54.4,95.9,54.4,95.6,54.6,95.4L54.6,95.4z"/>
<path fill="#010101" d="M67.5,95.4c-0.3-0.1-0.4-0.5-0.2-0.7C67.5,94.7,67.6,95.1,67.5,95.4L67.5,95.4z"/>
<path fill="#010101" d="M46.5,95.5c-0.3,0-0.6-0.1-0.8-0.2c-0.1-0.1-0.2-0.3-0.2-0.4c0.6-0.1,1.2,0,1.8,0.3
	C47.3,95.4,46.8,95.5,46.5,95.5z"/>
<path fill="#010101" d="M36.6,76.8c0.2,0,0.4,0,0.7,0c0,0.2-0.1,0.4-0.3,0.4S36.7,77,36.6,76.8L36.6,76.8z"/>
<path fill="#010101" d="M66.8,71.6c0.1,0.3,0.2,0.6,0.1,0.9c-0.2-0.3-0.7-0.1-1-0.3c-0.2-0.2-0.1-0.6,0.1-0.7
	C66.3,71.3,66.6,71.4,66.8,71.6L66.8,71.6z"/>
<path fill="#010101" d="M70.5,46.4c-0.3-0.1-0.4-0.5-0.2-0.7c0.3,0,0.4,0.4,0.2,0.6L70.5,46.4z"/>
<path fill="#010101" d="M60.2,67.3c-0.3-0.3-0.6-0.8-0.8-1.2C59.9,66,60.5,66.7,60.2,67.3z"/>
<path fill="#010101" d="M69,45.4c-0.1-0.2-0.2-0.5-0.1-0.8C69.2,44.7,69.3,45.3,69,45.4L69,45.4z"/>
<path fill="#010101" d="M29.5,59.9c0.1,0,0.2,0,0.3,0.1c0.1,0.2-0.2,0.5-0.4,0.4c-0.1-0.1-0.1-0.3-0.2-0.4
	C29.3,59.9,29.4,59.9,29.5,59.9L29.5,59.9z"/>
<path fill="#010101" d="M45.3,84.3c0.1,0,0.2,0,0.3,0.1c0.2,0.1,0.3,0.4,0.3,0.7c-0.5,0.1-1.1-0.3-1.2-0.9
	C44.9,84.3,45.1,84.3,45.3,84.3z"/>
<path fill="#010101" d="M45.4,47.4c0-0.1,0.1-0.2,0.2-0.3c0.1,0,0.2-0.1,0.2,0c0.1,0.7,0,1.4-0.4,2C45.1,48.6,45.2,48,45.4,47.4z"/>
<path fill="#010101" d="M29.3,53.8c0,0.1,0,0.3,0,0.4c-0.3,0-0.5-0.3-0.5-0.6C29,53.6,29.3,53.6,29.3,53.8L29.3,53.8z"/>
<path fill="#010101" d="M44.7,96.5c-0.1-0.4,0-0.9,0.3-1.2c0.3,0.2,0.6,0.5,0.5,0.9C45.4,96.6,44.9,96.8,44.7,96.5L44.7,96.5z"/>
<path fill="#010101" d="M32.1,57.2C32,57,32.4,56.8,32.5,57c0.1,0.2,0,0.5-0.3,0.5C32.2,57.4,32.2,57.3,32.1,57.2L32.1,57.2z"/>
<path fill="#010101" d="M22.9,63.8c0.1-0.2,0.1-0.5,0.3-0.6s0.5-0.2,0.6,0c0.2,0.3-0.3,0.6-0.6,0.8c-0.2,0.1-0.4,0.1-0.5-0.1
	L22.9,63.8z"/>
<path fill="#010101" d="M40.7,33.1c0.1,0.1,0.2,0.2,0.3,0.3c-0.5,0.1-1.1-0.2-1.2-0.7c0.1-0.1,0.2-0.2,0.3-0.2
	C40.2,32.7,40.5,32.9,40.7,33.1L40.7,33.1z"/>
<path fill="#010101" d="M64.3,35.7c0.2-0.2,0.6,0.1,0.4,0.3c-0.2,0.1-0.4,0-0.5-0.1C64.1,36,64.1,35.7,64.3,35.7L64.3,35.7z"/>
<path fill="#010101" d="M50.7,55.3c-0.2,0-0.3,0-0.5,0c-0.1-0.3,0.2-0.6,0.5-0.5C50.8,54.9,50.8,55.1,50.7,55.3L50.7,55.3z"/>
<path fill="#010101" d="M44.5,47.9c0.2,0.4,0.1,0.9-0.2,1.2c-0.1,0.1-0.3,0.2-0.5,0.1C43.9,48.7,44.2,48.3,44.5,47.9z"/>
<path fill="#010101" d="M36.7,85.2c0.1,0.1,0.3,0.1,0.4,0.2c0,0.1,0,0.3,0,0.4c-0.1,0.1-0.3,0.1-0.4-0.1
	C36.6,85.5,36.6,85.3,36.7,85.2L36.7,85.2z"/>
<path fill="#010101" d="M35.6,57c-0.5,0.3-1.2-0.3-1.1-0.8C34.9,56.4,35.2,56.7,35.6,57z"/>
<path fill="#010101" d="M66.7,66.8c0.2,0.2,0.1,0.6-0.1,0.6c-0.1-0.1-0.2-0.2-0.2-0.3C66.4,67,66.5,66.9,66.7,66.8L66.7,66.8z"/>
<path fill="#010101" d="M60.1,75.1c0.2,0.1,0.4,0.4,0.3,0.6C60.1,75.6,59.9,75.2,60.1,75.1L60.1,75.1z"/>
<path fill="#010101" d="M68.6,69.6c0.4,0.2,0.5,0.7,0.4,1c-0.4-0.3-0.6-0.6-0.8-1.1C68.3,69.5,68.5,69.5,68.6,69.6L68.6,69.6z"/>
<path fill="#010101" d="M26.6,63.5c0,0.2-0.3,0.1-0.4,0c-0.1-0.1-0.1-0.3-0.1-0.5c0-0.2-0.1-0.3-0.3-0.3c0.2-0.2,0.6-0.3,0.9-0.1
	C26.8,62.9,26.7,63.2,26.6,63.5L26.6,63.5z"/>
<path fill="#010101" d="M66.9,16.4c0.1,0.1,0,0.3-0.1,0.2c-0.1-0.1-0.3-0.3-0.4-0.4C66.5,16.1,66.8,16.2,66.9,16.4L66.9,16.4z"/>
<path fill="#010101" d="M50.1,88.1c0.2,0.1,0.4,0.2,0.6,0.4c-0.2,0.2-0.6,0-0.7-0.2L50.1,88.1z"/>
<path fill="#010101" d="M60.1,81.5c0.1-0.2,0.3-0.3,0.5-0.4c0,0.5-0.4,0.9-0.9,0.9C59.7,81.8,59.9,81.6,60.1,81.5L60.1,81.5z"/>
<path fill="#010101" d="M70.2,65.1c0,0.1,0,0.2,0,0.4c-0.2,0.2-0.5,0.1-0.7,0c-0.2-0.2-0.2-0.5,0-0.7c0.1-0.2,0.4-0.3,0.6-0.2
	C70.3,64.6,70.3,64.9,70.2,65.1L70.2,65.1z"/>
<path fill="#010101" d="M64.6,18.1c0.2,0,0.3,0.2,0.2,0.3c-0.2,0-0.4-0.1-0.5-0.2S64.6,17.9,64.6,18.1L64.6,18.1z"/>
<path fill="#010101" d="M51.9,79.3c0.1,0,0.1,0.2-0.1,0.2c-0.1,0-0.2,0-0.3-0.1c-0.3-0.2-0.5-0.5-0.6-0.7
	C51.3,78.7,51.7,79,51.9,79.3L51.9,79.3z"/>
<path fill="#010101" d="M29.9,61.3c0.2,0.3,0.1,0.7-0.2,0.9C29.5,61.9,29.6,61.4,29.9,61.3L29.9,61.3z"/>
<path fill="#010101" d="M67.7,96.1c0,0.1,0,0.3-0.1,0.4c-0.3-0.2-0.4-0.6-0.2-0.9C67.6,95.6,67.7,95.9,67.7,96.1L67.7,96.1z"/>
<path fill="#010101" d="M53.1,88.6c0,0.1,0.1,0.1,0.1,0.2c-0.2,0.2-0.4,0.5-0.5,0.8c-0.2-0.2-0.4-0.5-0.3-0.8
	C52.6,88.8,52.8,88.7,53.1,88.6L53.1,88.6z"/>
<path fill="#010101" d="M27,92.9c-0.5,0.3-1.2,0.4-1.8,0.2C25.7,92.6,26.5,92.5,27,92.9z"/>
<path fill="#010101" d="M67.2,69.5c0.2,0.2,0.3,0.6,0.1,0.9c-0.2-0.2-0.3-0.5-0.2-0.8L67.2,69.5z"/>
<path fill="#010101" d="M24.8,28.8c0-0.3,0.1-0.5,0.3-0.7c0.1,0.4,0.1,0.9-0.3,1C24.9,29.1,24.8,29,24.8,28.8L24.8,28.8z"/>
<path fill="#010101" d="M52.5,84.5c0.1-0.3,0.6-0.3,0.7,0c-0.5,0.1-0.9,0.2-1.4,0.4c-0.1-0.3,0.3-0.6,0.6-0.4L52.5,84.5z"/>
<path fill="#010101" d="M26.2,46.8c0-0.1-0.1-0.2-0.1-0.4c0-0.1,0.1-0.2,0.2-0.3c0.2,0.4,0.3,0.8,0.4,1.3c-0.1,0.2-0.4,0.1-0.4-0.1
	C26.2,47.2,26.2,47,26.2,46.8z"/>
<path fill="#010101" d="M52.5,95c-0.1-0.2-0.2-0.4-0.2-0.6c0.1-0.1,0.3-0.1,0.4,0c0.1,0.1,0.1,0.3,0.1,0.5S52.6,95.2,52.5,95
	L52.5,95z"/>
<path fill="#010101" d="M42.4,34.5c-0.2-0.1-0.3-0.3-0.3-0.5c0.4,0.1,0.8,0.3,1.1,0.6C43,34.8,42.6,34.8,42.4,34.5L42.4,34.5z"/>
<path fill="#010101" d="M73,62.7c0.2,0,0.4,0.3,0.4,0.5c-0.3,0.1-0.7-0.1-0.7-0.4C72.8,62.7,72.9,62.7,73,62.7L73,62.7z"/>
<path fill="#010101" d="M35.4,12.4c0.2,0,0.4,0.1,0.6,0.3c-0.1,0.1-0.4,0.3-0.6,0.2C35.2,12.8,35.2,12.5,35.4,12.4L35.4,12.4z"/>
<path fill="#010101" d="M36,64c-0.1-0.1,0.1-0.2,0.2-0.1c0.1,0.2,0.2,0.4,0.3,0.6C36.2,64.6,35.8,64.3,36,64L36,64z"/>
<path fill="#010101" d="M51.8,83.6c0.3-0.2,0.7,0,0.8,0.3C52.3,83.9,52,83.8,51.8,83.6L51.8,83.6z"/>
<path fill="#010101" d="M66.3,69.7c-0.1,0.1-0.2,0.2-0.3,0.3c-0.3-0.2-0.2-0.7,0.1-0.7C66.3,69.3,66.4,69.5,66.3,69.7L66.3,69.7z"/>
<path fill="#010101" d="M60.8,69.1c-0.1,0.4-0.6,0.7-1,0.6c-0.1,0-0.3-0.1-0.4-0.2C59.8,69.1,60.3,69,60.8,69.1z"/>
<path fill="#010101" d="M68.5,91.1c0.1-0.3,0.6-0.2,0.8,0.1c-0.1,0.1-0.2,0.1-0.3,0.2C68.9,91.3,68.7,91.2,68.5,91.1L68.5,91.1z"/>
<path fill="#010101" d="M41.9,78.6c0.1-0.3-0.4-0.7-0.2-1c0.2-0.2,0.5,0,0.6,0.3c0,0.3-0.1,0.5,0,0.8C42.2,78.8,42,78.8,41.9,78.6
	L41.9,78.6z"/>
<path fill="#010101" d="M56.7,82.7c0.1-0.2,0.3-0.3,0.5-0.3c0.2,0.1,0.3,0.3,0.3,0.5C57.2,82.9,56.9,82.8,56.7,82.7L56.7,82.7z"/>
<path fill="#010101" d="M70.4,34.3c0.3,0,0.5,0.4,0.3,0.6c-0.4-0.1-0.6-0.4-0.7-0.8C70.1,34,70.3,34.1,70.4,34.3L70.4,34.3z"/>
<path fill="#010101" d="M25.2,26.8c0,0.1-0.3,0.2-0.4,0.1c0.1-0.2,0.1-0.5,0.2-0.7C25.3,26.3,25.3,26.7,25.2,26.8L25.2,26.8z"/>
<path fill="#010101" d="M24.9,96.6l0.1,0"/>
<path fill="#010101" d="M30.9,59.2c0.1,0.2,0.1,0.4,0,0.5c-0.2-0.2-0.3-0.4-0.3-0.7C30.7,59,30.9,59.1,30.9,59.2L30.9,59.2z"/>
<path fill="#010101" d="M36.8,73c0.2,0.2,0,0.6-0.3,0.7C36.4,73.4,36.6,73,36.8,73L36.8,73z"/>
<path fill="#010101" d="M62.7,77.6c0.1,0.1-0.1,0.3-0.3,0.3c-0.2-0.1-0.2-0.2-0.3-0.4c-0.1-0.2-0.1-0.5,0-0.6s0.4-0.3,0.6-0.1
	C62.5,77,62.6,77.3,62.7,77.6L62.7,77.6z"/>
<path fill="#010101" d="M56,94.1c-0.3-0.2-0.5-0.5-0.8-0.7c0.2-0.2,0.4-0.2,0.6-0.1c0.2,0.1,0.2,0.4,0.1,0.6L56,94.1z"/>
<path fill="#010101" d="M50.8,50.4c0.2,0,0.4,0.2,0.2,0.4c-0.4,0.1-0.9-0.3-1-0.7C50.3,50,50.6,50.2,50.8,50.4L50.8,50.4z"/>
<path fill="#010101" d="M43,85.6c-0.1,0.2-0.3,0.4-0.5,0.4c0-0.3,0.3-0.5,0.5-0.5c0.1,0,0.2,0,0.2,0.1C43.2,85.6,43.1,85.7,43,85.6
	L43,85.6z"/>
<path fill="#010101" d="M54.3,94c-0.1-0.1-0.2-0.2-0.1-0.4c0.1-0.1,0.2-0.1,0.3-0.2c0.1,0.1,0.2,0.1,0.3,0.2c0,0.1,0,0.3,0,0.4
	C54.7,94.1,54.5,94.1,54.3,94L54.3,94z"/>
<path fill="#010101" d="M61.1,92.7c0,0.3-0.3,0.5-0.6,0.4c-0.1-0.3,0.4-0.6,0.7-0.4L61.1,92.7z"/>
<path fill="#010101" d="M58.2,69.6c0,0.1,0,0.3,0,0.4c-0.5,0-0.8-0.5-0.7-1C57.8,69,58.1,69.3,58.2,69.6L58.2,69.6z"/>
<path fill="#010101" d="M24.9,22.8c0.1,0.3-0.3,0.6-0.6,0.5C24.4,23.1,24.7,22.8,24.9,22.8L24.9,22.8z"/>
<path fill="#010101" d="M65.7,74.2c-0.2,0.2-0.4,0.5-0.6,0.7c-0.2-0.2-0.3-0.5-0.1-0.7c0.1-0.2,0.4-0.4,0.6-0.3
	C65.7,74,65.7,74.1,65.7,74.2L65.7,74.2z"/>
<path fill="#010101" d="M62.2,36.3c-0.1-0.2,0.2-0.4,0.5-0.3c0.2,0.1,0.4,0.2,0.7,0.2c-0.3,0.2-0.7,0.3-1,0.1L62.2,36.3z"/>
<path fill="#010101" d="M51.8,86.7c-0.2-0.1-0.3-0.4-0.1-0.6s0.4-0.2,0.6-0.2c0.1,0,0.1,0,0.2,0.1c0.1,0.1,0.1,0.4-0.1,0.5
	C52.2,86.8,52,86.8,51.8,86.7L51.8,86.7z"/>
<path fill="#010101" d="M48.9,45.5c-0.1,0.4-0.8,0.4-0.9,0C48.3,45.3,48.6,45.2,48.9,45.5L48.9,45.5z"/>
<path fill="#010101" d="M64,84c0.1,0.4-0.1,0.7-0.4,1c-0.1-0.3-0.2-0.5-0.1-0.8s0.5-0.4,0.6-0.2L64,84z"/>
<path fill="#010101" d="M72,45c-0.2,0.2-0.4,0.4-0.7,0.4c-0.3,0-0.5-0.4-0.3-0.5c0.1-0.1,0.2-0.1,0.3-0.1C71.6,44.7,72,44.7,72,45
	L72,45z"/>
<path fill="#010101" d="M26,90.6c0-0.3,0.2-0.7,0.4-1c0,0.5,0,1-0.2,1.4C26,91.1,25.9,90.8,26,90.6L26,90.6z"/>
<path fill="#010101" d="M28,46.8c-0.2,0.2-0.7,0-0.6-0.3c0.3-0.1,0.5-0.2,0.8-0.4C28.4,46.3,28.3,46.7,28,46.8L28,46.8z"/>
<path fill="#010101" d="M55.8,84.7c-0.1-0.1-0.2-0.3-0.2-0.5c0.4,0,0.7,0.3,0.8,0.7C56.2,84.8,56,84.7,55.8,84.7L55.8,84.7z"/>
<path fill="#010101" d="M25.5,57.9c-0.4-0.1-0.7-0.4-0.8-0.8C25.1,57.1,25.6,57.5,25.5,57.9L25.5,57.9z"/>
<path fill="#010101" d="M51.1,80.6c0.1-0.1,0.2-0.2,0.1-0.4c0.1-0.2,0.5,0.1,0.4,0.3c-0.1,0.3-0.4,0.4-0.6,0.4
	C50.9,80.9,51,80.7,51.1,80.6L51.1,80.6z"/>
<path fill="#010101" d="M27.1,29.2c-0.1,0.1-0.3,0.2-0.5,0.1c0-0.2,0-0.5,0.1-0.7c0.3,0.1,0.6,0.2,0.8,0.3
	C27.3,29.1,27.2,29.1,27.1,29.2L27.1,29.2z"/>
<path fill="#010101" d="M44.6,47.9c-0.1-0.3-0.1-0.6,0-0.9c0.2,0,0.4,0.2,0.4,0.4C45,47.7,44.8,47.8,44.6,47.9L44.6,47.9z"/>
<path fill="#010101" d="M39,75.6c0.1,0.3,0.2,0.6,0.5,0.9c-0.1,0.1-0.3,0.1-0.5,0.1C38.8,76.3,38.8,75.9,39,75.6L39,75.6z"/>
<path fill="#010101" d="M25.4,59.7c-0.2-0.1-0.3-0.4-0.2-0.6c0.1-0.2,0.3-0.3,0.4-0.5c0.2,0.3,0.1,0.8-0.3,0.9L25.4,59.7z"/>
<path fill="#010101" d="M53.6,82.8c-0.1-0.2-0.1-0.3-0.2-0.5c0.1-0.1,0.2-0.1,0.3-0.1c0.1,0.2,0.2,0.4,0.3,0.6
	c-0.1,0.1-0.2,0.3-0.3,0.4C53.6,83.2,53.6,83,53.6,82.8L53.6,82.8z"/>
<path fill="#010101" d="M68,71.6c-0.2-0.2-0.2-0.5-0.1-0.7c0.4,0.1,0.6,0.7,0.4,1C68.2,71.8,68.1,71.7,68,71.6L68,71.6z"/>
<path fill="#010101" d="M62.6,87.1C62.4,87.3,62,87,62,86.7c0.1-0.2,0.4-0.2,0.6-0.1C62.7,86.7,62.8,87,62.6,87.1L62.6,87.1z"/>
<path fill="#010101" d="M61.5,82.1c0-0.1,0-0.3,0.1-0.4c0.1-0.1,0.3,0,0.3,0.1c0,0.3-0.1,0.6-0.4,0.8C61.3,82.6,61.3,82.2,61.5,82.1
	L61.5,82.1z"/>
<path fill="#010101" d="M73.9,60.6c0.2,0,0.4,0.3,0.3,0.5c-0.1,0.2-0.3,0.3-0.5,0.2C73.5,61,73.6,60.7,73.9,60.6L73.9,60.6z"/>
<path fill="#010101" d="M28.5,70.1c0.1,0.2,0.2,0.5,0,0.7c-0.2,0-0.5-0.2-0.5-0.4c0.1-0.1,0.1-0.2,0.2-0.3
	C28.2,70,28.4,70,28.5,70.1L28.5,70.1z"/>
<path fill="#010101" d="M45.8,64.8c0.2,0,0.3,0,0.5,0.1c-0.1,0.2-0.1,0.5-0.2,0.7c-0.2-0.1-0.4-0.2-0.4-0.4
	C45.7,65,45.7,64.9,45.8,64.8L45.8,64.8z"/>
<path fill="#010101" d="M65.3,75.5c-0.1-0.1-0.2-0.3-0.2-0.4c0.2-0.1,0.5-0.1,0.7-0.2c0.1,0.1,0.2,0.3,0.3,0.4
	C65.9,75.5,65.6,75.6,65.3,75.5L65.3,75.5z"/>
<path fill="#010101" d="M62.7,90.7c0-0.1,0-0.2,0.1-0.3c0.4,0.3,0.4,0.9,0.1,1.3C62.5,91.5,62.5,91,62.7,90.7L62.7,90.7z"/>
<path fill="#010101" d="M22.3,59.4c0.1-0.2,0.3-0.2,0.5-0.1c0.2,0.1,0.2,0.3,0.3,0.5C22.8,60,22.4,59.8,22.3,59.4L22.3,59.4z"/>
<path fill="#010101" d="M72,57c0.3,0.4,0.2,0.9-0.1,1.2C71.5,57.9,71.5,57.2,72,57L72,57z"/>
<path fill="#010101" d="M68.8,36c0.1,0.1,0,0.3-0.2,0.3c-0.2,0.1-0.5-0.2-0.4-0.4S68.7,35.8,68.8,36L68.8,36z"/>
<path fill="#010101" d="M23.5,62.8c-0.1-0.2-0.3-0.4-0.4-0.6c0.2-0.2,0.5-0.1,0.6,0.1c0.1,0.2,0,0.5-0.2,0.6L23.5,62.8z"/>
<path fill="#010101" d="M51.4,85.1c0.1,0.1,0.2,0.4,0.1,0.5c-0.3-0.1-0.6-0.4-0.6-0.7C51.1,84.9,51.4,84.9,51.4,85.1L51.4,85.1z"/>
<path fill="#010101" d="M27.3,58.7c0.2,0.5,0.2,1.2,0,1.7C27,59.9,27,59.2,27.3,58.7z"/>
<path fill="#010101" d="M25.5,60.9c0-0.4,0-0.9-0.1-1.3c0.1,0.1,0.2,0.1,0.3,0.2C25.9,60.2,25.8,60.6,25.5,60.9z"/>
<path fill="#010101" d="M55.5,82.2c0.1-0.2,0.4-0.3,0.6-0.3c-0.1,0.3-0.3,0.6-0.5,0.7C55.5,82.6,55.4,82.4,55.5,82.2L55.5,82.2z"/>
<path fill="#010101" d="M71.7,46.8c0-0.1,0.2-0.2,0.3-0.1c0.1,0.4-0.1,0.8-0.4,1.1C71.5,47.5,71.5,47.1,71.7,46.8L71.7,46.8z"/>
<path fill="#010101" d="M31.6,75.2c-0.3-0.1-0.6-0.4-0.5-0.7C31.4,74.5,31.7,74.8,31.6,75.2L31.6,75.2z"/>
<path fill="#010101" d="M56.5,89.9c0.2,0,0.4,0.4,0.1,0.5c-0.2-0.1-0.5-0.1-0.5-0.3C56.1,89.8,56.4,89.6,56.5,89.9L56.5,89.9z"/>
<path fill="#010101" d="M37.6,78.3c0-0.3,0.4-0.5,0.7-0.4c-0.2,0.3-0.4,0.5-0.6,0.7C37.6,78.6,37.6,78.5,37.6,78.3L37.6,78.3z"/>
<path fill="#010101" d="M32.9,55.9c0.1,0-0.1,0.2-0.2,0.2c-0.3-0.1-0.6-0.2-0.9-0.4C32.2,55.6,32.6,55.6,32.9,55.9L32.9,55.9z"/>
<path fill="#010101" d="M38.3,53.6c0,0.3-0.4,0.5-0.6,0.4c0.1,0,0.2-0.2,0.2-0.3s0.1-0.3,0.2-0.3C38.3,53.4,38.5,53.5,38.3,53.6
	L38.3,53.6z"/>
<path fill="#010101" d="M25.8,46.8c0.2,0.2,0.3,0.4,0.3,0.6c-0.1,0.1-0.2,0.1-0.3,0.2c-0.2-0.1-0.4-0.4-0.3-0.7
	C25.5,46.8,25.7,46.8,25.8,46.8L25.8,46.8z"/>
<path fill="#010101" d="M59,90.7c0,0.4-0.4,0.7-0.8,0.5c0.1-0.4,0.4-0.6,0.8-0.7L59,90.7z"/>
<path fill="#010101" d="M25.8,29.9c-0.2-0.1-0.2-0.4-0.2-0.6c0.2,0,0.4,0.1,0.5,0.2s0.2,0.3,0.1,0.5C26.2,30.1,25.9,30,25.8,29.9
	L25.8,29.9z"/>
<path fill="#010101" d="M55.3,89c-0.2-0.3-0.1-0.7,0.1-0.9c0.2,0.2,0.4,0.4,0.4,0.6C55.7,89,55.4,89.2,55.3,89L55.3,89z"/>
<path fill="#010101" d="M45.8,63.8c-0.1,0.1-0.2,0.2-0.3,0.2c-0.2-0.4,0.2-0.9,0.6-0.7C46.3,63.5,46.1,63.8,45.8,63.8L45.8,63.8z"/>
<path fill="#010101" d="M49.5,58.8c-0.1,0.1-0.2,0.1-0.3,0.2C49,58.9,49,58.8,49,58.7c0.2-0.1,0.5-0.2,0.7-0.3
	c0.1,0.1,0.2,0.2,0.2,0.3C49.7,58.8,49.6,58.8,49.5,58.8L49.5,58.8z"/>
<path fill="#010101" d="M37.6,70.6c-0.3,0.2-0.8-0.3-0.6-0.6c0.1-0.1,0.2-0.1,0.3-0.2C37.5,69.9,37.7,70.3,37.6,70.6L37.6,70.6z"/>
<path fill="#010101" d="M59.8,83.1c0,0.2,0,0.3-0.2,0.4c-0.3-0.2-0.6-0.7-0.3-0.9C59.6,82.8,59.7,82.9,59.8,83.1L59.8,83.1z"/>
<path fill="#010101" d="M28.9,59.2c-0.1-0.1-0.1-0.3,0-0.5c0.3,0.1,0.5,0.3,0.6,0.7c-0.1,0.1-0.2,0.1-0.3,0.2
	C29,59.4,29,59.3,28.9,59.2L28.9,59.2z"/>
<path fill="#010101" d="M25.6,91.7c0.1-0.1,0.2-0.2,0.4-0.3c0.2,0.4-0.2,0.9-0.6,0.9C25.5,92.1,25.5,91.9,25.6,91.7L25.6,91.7z"/>
<path fill="#010101" d="M39.5,67.7c0.2,0.5,0.3,0.9,0.5,1.4c-0.6,0.4-1.1,1-1.3,1.7c0.1-0.8-0.8-1.6-1.6-1.3c-0.8,0.3-1.1,1.4-0.5,2
	c-0.4,0.2-0.9,0.2-1.2,0c0.2,0.3-0.1,0.8-0.5,0.7c-0.1-1.6-0.2-3.2-0.3-4.9c0.5-0.1,1,0.1,1.3,0.5c0.6-0.5,1-1.3,1-2.1
	c-0.5,0.7-1.3,1.1-2.1,1.1c0.2-1.5,2.2-2.4,3.5-1.7c-0.1-0.3-0.3-0.6-0.4-1c0.3-0.2,0.8,0,0.9,0.4c0.6-1,1-2.1,1.1-3.2
	c1.2,0.2,2.5-0.1,3.5-0.9c-1.4,0.9-3-1.8-4.6-1.3c-0.5,0.2-0.9,0.7-1.5,0.8c-0.5,0.1-1.2-0.7-0.7-0.9c0,0.4,0.7,0.1,0.9-0.2
	c0.7-1.5,0.5-3.3-0.5-4.7c0.6,0,1.1,0.5,1.2,1.1c0.7-1.7,2-3.2,3.5-4.2c-4.3,2.5-9.6,2.3-14.5,1.6c-2-0.3-4.2-0.8-5.5-2.3
	c-1.8-2.3-1.2-6.1-3.6-7.8c-0.9-0.6-1.4-1.9-1.1-3c0.3-1.1,1.2-2,2.3-2.2c-0.3-4.1,0.9-8.1,2.4-11.9c2.3-5.9,5.5-11.6,10.2-15.8
	s10.9-7.1,17.3-6.6c1.1,0.1,2.3,0.3,3.3,0.8c-0.7,0-1.4,0.1-2.1,0.1c-1.7,2.1-3.4,4.2-5.3,6.2c-0.3,0.3-0.6,0.6-0.9,0.6
	c-0.4,0.1-0.8-0.3-0.7-0.7c0.5-0.2,1-0.5,1.6-0.7c-0.9-0.3-2,0.2-2.4,1c0.1,0.3,0.3,0.6,0.4,0.9c-1.2,0.1-2.3,0-3.5-0.1
	c0.3-0.3,0.7-0.6,1-0.9c-1.7,0.9-3.6,1.4-5.6,1.3c0,1-1.5,1.5-2.1,0.7c-0.6,0.4-1.3,0.9-1.9,1.3c-5.9,4.3-9.6,11.6-9.7,18.9
	c0,1.8,0,4-1.5,5.1c5.5-0.8,11.2-1.6,16.7-0.5c5.1,1,10.2,3.7,15.1,2c6.9-2.5,14.6-2.8,21.7-0.9c-0.5-2.3-0.6-4.7-0.4-7.1
	c-0.2-0.2-0.2,0.4,0,0.3c0.2-0.1,0.3-0.4,0.2-0.6C72.1,18.9,63.8,8.1,52.7,4c0.6-0.4,1.5-0.1,2.2,0.2c12,5.5,20,18.7,19.1,31.9
	c-0.1,1,0.2,2.4,1.2,2.4c1.2,0,1.8,1.6,1.4,2.7c-0.4,1.1-1.3,1.9-2,2.9c-0.8,1.3-1,2.8-1.4,4.3c-0.4,1.4-1.2,2.9-2.6,3.5
	c-5.7,2.3-12.4,2-17.9-0.8c1,0.8,1.8,1.8,2.4,2.9c-0.3,0.1-0.2-0.5,0-0.5c0.3,0,0.5,0.3,0.6,0.5c0.5,1,1,1.9,1.5,2.9
	c0-0.4,0.7-0.3,0.8,0.1c0.1,0.4-0.1,0.7-0.3,1.1c0.5,0.2,1,0.6,1.3,1c-0.3-0.1-0.7-0.1-1-0.2c2,2.8,3.2,6.1,3.6,9.5
	c-1.2-3.6-3-7-5.3-9.9c-0.4-0.5-0.9-1.1-1-1.8c-0.1-1-0.7-1.9-1.3-2.7c-1.5-2.3-2.7-4.8-3.5-7.4c-0.5-1.7-1.5-3.8-3.2-3.7
	c-1.4,0.1-2.2,1.5-2.7,2.7c-1.3,2.9-2.7,5.9-3,9.1c0-0.4-0.4-0.8-0.8-0.8c-0.9,1.2-1.1,2.8-0.6,4.2c0.2-0.4,0.5-0.6,0.9-0.7
	c0.3,0.4,0.2,0.9-0.2,1.2c0.1,0.3,0.5,0.6,0.8,0.6c0.3-0.6,0.3-1.3-0.1-1.9c0.1-1.2,1.9-1.4,2.9-0.8c1.1,0.6,1.9,1.6,3.1,1.7
	c0.7,0.1,0.9,1.1,0.8,1.8c0,0.7,0.3,1.7,1,1.6c0,1,0.4,1.9,1,2.6c0.5-0.5,0.2-1.4-0.4-1.6c0.5-0.2,1.3,0.1,1.5,0.6
	c0.2,0.6-0.2,1.2-0.7,1.4c0.4,0.1,0.9,0.3,1.3,0.4c0.2,0.2,0,0.5-0.3,0.6s-0.5-0.1-0.7-0.3c-1.6-1.1-3.4-2.5-3.5-4.5
	c-0.8,1.5,0.3,3.6,2,3.8c-0.5,0.6-0.6,1.4-0.3,2c-0.7,0.1-1.2-1-0.7-1.5c-1.2-0.7-2-2.1-2.1-3.5c-0.6,0.7-1.4,1.6-2.3,1.3
	c-0.1,0.4,0.3,0.9,0.7,0.7c-0.1,0.4-0.2,0.8-0.4,1.2c-0.5-1.2-2.4-1.4-3.1-0.4c0.2-0.5,0.1-1.2-0.4-1.6c0,0.6-0.1,1.3-0.1,1.9
	c0.7,0.3,1.6-0.1,1.8-0.8c1.1,0.4,1.9,1.6,1.8,2.7c-0.6-0.4-1-0.9-1.3-1.5c0.1,0.7,0.2,1.4,0.3,2.1c-0.5,0-1.1-0.1-1.6-0.1
	c-0.2,0.5-0.4,1-0.6,1.5C40.6,68.3,40,68,39.5,67.7 M27.4,51.7c3.1,0.4,6.4,0.4,9.5-0.2c0.8-0.1,1.7-0.3,2.4-0.7
	c1.8-1,2.7-3.1,3.4-5.1c0.3-1.1,0.7-2.3,0.4-3.4C42.9,41.1,42,40,40.8,40c0.7,0.7,1.5,1.4,1.7,2.3c0.2,1-0.5,2.2-1.5,2
	c-0.3,1-1.6,1.1-2.6,1.1c-1,0-2.3,0.3-2.4,1.3c-1.9-0.5-4.3,1.3-5.9,0.1c2.4-0.3,4.9-0.6,6.8-2.2c-3.2,1.1-7,2.1-9.9,0.3
	c-0.3-0.2-0.7,0-0.9,0.3c-0.2,0.3-0.3,0.6-0.6,0.8c-0.4,0.3-1,0.2-1.3-0.1c-0.4-0.3-0.6-0.8-0.7-1.2c-0.5-1.4-0.7-2.9-0.5-4.4
	c0-0.2,0.1-0.5,0.2-0.7c0.2-0.2,0.5-0.2,0.7-0.3c2.6-0.3,5.3-0.7,7.9-1c-2.7-0.5-5.6-0.3-8.3,0.5c-0.9,0.3-1.8,0.7-2.3,1.4
	C21,41.1,21,41.9,21,42.7c0,2.8,0.3,6.1,2.6,7.8C24.7,51.2,26.1,51.5,27.4,51.7 M30,41.7c-0.1,0.1-0.3,0.3-0.3,0.5
	c-0.1,0.5,0.4,0.8,0.8,1.1s0.9,0.8,0.6,1.2c0.5,0,1.1,0,1.3,0.5c-1,0-2-0.1-3-0.1c-0.3,0-0.7,0.1-0.6,0.4c2.5,0.7,5.2,0.1,7.2-1.4
	c-0.4,0.1-0.9,0.2-1.3,0.3c-0.7,0.1-1.3,0.3-2,0.2s-1.3-0.5-1.6-1.1c-0.3-0.8,0.2-1.7,0.7-2.4C31.2,40.8,30.5,41.2,30,41.7
	 M28.5,40.8c-0.2,0.2-0.3,0.5-0.2,0.6c1.1-1.3,2.8-2,4.5-2.1c0.3,0,0.6,0,0.8-0.2c0.2-0.2,0.3-0.5,0.1-0.7c-0.3-0.2-0.6,0.1-0.9,0.3
	c-0.3,0.2-0.7,0.2-1.1,0.3C30.5,39.3,29.3,39.9,28.5,40.8 M34.6,40.2c0.3,0.4,0.7,0.6,1,0.9s0.6,0.7,0.6,1.2c0,0.2-0.1,0.3,0,0.5
	c0,0.2,0.1,0.3,0.3,0.3c0.3-0.2,0.4-0.7,0.3-1.1c-0.1-0.4-0.3-0.8-0.2-1.2C36,40.4,35.3,40.2,34.6,40.2 M40.1,42.6
	c-0.7,0.3-1.3,0.7-1.7,1.3c0.7-0.1,1.3-0.3,1.9-0.6c0.5-0.7,0-1.8-0.8-1.9C39.7,41.7,40,42.1,40.1,42.6 M41,42.4
	c-0.1,0.3-0.1,0.8,0.2,1c0.2-0.4,0.5-0.7,0.8-0.9C41.9,42.2,41.3,42.1,41,42.4 M40.6,47.2c0.3-0.3,0.6-0.6,1-0.5
	c0.3-0.6,0.6-1.3,0.8-1.9c-0.7-0.1-1.3,0.6-1.3,1.2c-0.5,0.1-0.9,0.3-1.4,0.4c-0.9,1.4-2.8,1.7-4.5,1.7c-2.7,0.1-5.6,0.1-8.1,1.1
	c-0.4,0.2-0.9,0-1.3-0.1c-0.4-0.1-0.8-0.3-0.9-0.6s0.1-0.9,0.4-0.8c-1-0.5-1.7-1.4-2.1-2.4C23,46,23.1,47,23.5,47.7
	c0.4,0.8,1,1.4,1.6,2c0.5,0.5,1.1,1.1,1.8,1c0.4,0,0.7-0.2,1.1-0.3c2-0.9,4.2-1.3,6.4-1C36.6,49.6,38.9,48.8,40.6,47.2z M21.5,42.5
	c-0.6,0.4-0.5,1.5,0.2,1.8c0.4,0.2,0.2,0.7,0.1,1.1c-0.2,0.4-0.3,0.9,0.1,1.1c0.7-0.8,0.2-2.1,0.4-3.1c0-0.2,0.1-0.4,0.1-0.6
	c0-0.6-0.4-1.1-0.4-1.7c0-0.2-0.3-0.3-0.4-0.2c-0.2,0.1-0.2,0.3-0.2,0.5C21.4,41.7,21.4,42.1,21.5,42.5z M38.6,49.5
	c-0.1,0.2,0,0.5,0.3,0.6c0.1-0.3,0.4-0.5,0.7-0.6c0-0.3-0.1-0.6-0.3-0.8C38.9,48.7,38.6,49.1,38.6,49.5L38.6,49.5z M52.2,42.4
	c0.4-0.7,0.8-1.3,1.2-2c-0.9,0.1-1.6,0.9-1.8,1.7c-0.2,0.9-0.1,1.8,0.1,2.6c0.5,2.4,1.3,5.1,3.5,6.3c1.2,0.7,2.7,0.9,4.1,0.9
	c2.7,0.1,5.3,0,8-0.3c1-0.1,1.9-0.3,2.8-0.8c1.2-0.7,1.9-1.9,2.3-3.2c0.4-1.3,0.5-2.7,0.5-4c-0.8,0-1.6,0.4-2.1,1
	c-0.1-1,0.4-2,1.3-2.5c0.6-0.3,0.6-1.2,0.2-1.8c-0.4-0.5-1.1-0.8-1.8-0.9c-3.6-0.9-7.3-1.1-10.9-0.4c-0.2,0-0.5,0.2-0.5,0.4
	c2.1,0,4.3,0.6,6.1,1.7c-0.6-0.9-1.5-1.6-2.5-1.9c0.8-0.4,1.9-0.1,2.6,0.5c0.7,0.6,1.2,1.4,1.6,2.2c0.4-0.6,0.1-1.6-0.6-1.9
	c0.2,0.1,0.4,0.1,0.6,0.2c-0.2-0.3,0.2-0.8,0.6-0.7c-0.2,0.3-0.1,0.7,0.2,0.9c0.3-0.4,1.1-0.2,1.1,0.3c-0.3-0.4-1-0.2-1.2,0.3
	c-0.2,0.5,0,1,0.2,1.5c0.4,0.9,0.7,1.9,1.1,2.8c0,0.4-0.7,0.3-1.1,0.1c-0.4-0.3-1.1-0.4-1.1,0.1c-0.2-0.4-0.7-0.6-1.1-0.7
	c-0.3,0.5-0.6,1.1-0.9,1.6c-0.9,0.2-1.9-0.1-2.4-0.9c1.1,0.1,2.2-0.5,2.7-1.4c-0.5-0.6-1.4-0.8-2.2-0.5c0.5-0.4,0.9-1.1,0.8-1.8
	c-0.2-0.7-1-1.1-1.6-0.7c0.9,0.4,0.8,1.8,0,2.4c-0.7,0.6-1.7,0.7-2.7,0.8c1.7,0,3.4-0.1,5.1-0.1c-2.1,0.9-4.6,0.9-6.8,0.1
	c0.7,0.8,1.7,1.3,2.7,1.3c0.4,0,0.8-0.1,1.1,0c-0.3,0.1-0.5,0.3-0.6,0.6c0.8-0.2,1.7,0.1,2.2,0.7c-2.8,0.1-5.6-0.7-7.8-2.4
	c-0.1,0.1-0.3,0.3-0.4,0.4c-0.9,0.8-2.6,0.1-2.8-1.1c0.5,0.3,1,0.6,1.5,1c-0.1-0.5,0.1-1.2,0.6-1.5c0.1,0.3,0.2,0.6,0.3,0.8
	c0.3-0.2,0.6-0.4,0.8-0.7c-0.6-0.5-1.1-1.1-1.4-1.8C53.4,42.1,52.8,42.2,52.2,42.4"/>
<path fill="#010101" d="M54.5,46.1c0.8,0,1.5,0,2.3,0.3c0.6,0.2,1.3,0.4,1.9,0.5c0.4,0.1,0.9,0.3,1.2,0.6c-1.3,0.1-2.6-0.2-3.7-0.9
	c-0.1-0.1-0.3,0.1-0.4,0.2c0,0.2,0.1,0.3,0.1,0.5C55.4,47.1,54.9,46.6,54.5,46.1z"/>
<path fill="#FFFFFF" d="M58.9,40.5c-1-0.2-2,0.8-1.9,1.8c0.1,0.4,0.3,0.8,0.7,1C57.6,42.3,58.1,41.2,58.9,40.5"/>
</svg>
