<?xml version="1.0" encoding="utf-8"?>
<!-- Generator: Adobe Illustrator 18.1.1, SVG Export Plug-In . SVG Version: 6.00 Build 0)  -->
<svg version="1.1" id="Layer_1" xmlns="http://www.w3.org/2000/svg" xmlns:xlink="http://www.w3.org/1999/xlink" x="0px" y="0px"
	 viewBox="0 0 100 100" enable-background="new 0 0 100 100" xml:space="preserve">
<path fill="#010101" d="M31.3,59c0,0.1-0.2,0.2-0.2,0.1c0-0.1,0-0.3,0.1-0.3C31.2,58.8,31.3,58.9,31.3,59L31.3,59z"/>
<path fill="#010101" d="M78.2,45.6c0.1,0.2-0.2,0.4-0.3,0.2C77.8,45.7,78,45.6,78.2,45.6L78.2,45.6z"/>
<path fill="#010101" d="M48.3,61c0.3-0.8-0.5-1.6-1.3-1.5C47.5,60,47.9,60.5,48.3,61"/>
<path fill="#010101" d="M41.2,68.3c0.1,0.1,0.1,0.1,0.2,0.1c0.1,0,0.3-0.1,0.2-0.2c0-0.6-0.7-1-1.2-0.7C40.7,67.8,41,68,41.2,68.3"
	/>
<path fill="#010101" d="M43.7,67.7c0,0.1,0.2,0.2,0.3,0.1c0-0.5-0.1-1.1-0.5-1.3C43.3,66.9,43.4,67.4,43.7,67.7"/>
<path fill="#010101" d="M44.1,9.3c-0.1,0.2,0,0.5,0.3,0.5c0.2-0.4,0-1-0.3-1.3C43.9,8.8,43.9,9.1,44.1,9.3"/>
<path fill="#010101" d="M75.8,42.6c0.1-0.1-0.1-0.2-0.2-0.1c-0.1,0.4,0,0.8,0.1,1.1C76,43.3,76.1,42.9,75.8,42.6"/>
<path fill="#FFFFFF" d="M27,43.2c0.1,0.1,0.3,0.1,0.5,0c0-0.3-0.3-0.6-0.6-0.7C26.8,42.7,26.8,43,27,43.2"/>
<path fill="#010101" d="M42.7,65.7c0,0.2,0.3,0.4,0.5,0.3c-0.1-0.2-0.2-0.5-0.3-0.7c-0.1,0-0.2,0-0.3,0.1
	C42.5,65.5,42.6,65.6,42.7,65.7"/>
<path fill="#010101" d="M43,63.9c0.1-0.1,0.2-0.1,0.3-0.2c-0.1-0.1-0.2-0.3-0.3-0.4c-0.1-0.1-0.4,0-0.4,0.1
	C42.7,63.7,42.8,63.8,43,63.9"/>
<path fill="#010101" d="M38.9,10.9c0.1,0.1,0.3,0.2,0.4,0.3c0.1-0.4-0.3-0.8-0.7-0.6C38.5,10.7,38.7,10.9,38.9,10.9"/>
<path fill="#FFFFFF" d="M28.1,44.5c-0.1,0-0.3,0-0.4,0c-0.1,0.1-0.1,0.2-0.1,0.3c0.2,0.2,0.7,0.1,0.7-0.2
	C28.4,44.5,28.2,44.5,28.1,44.5"/>
<path fill="#010101" d="M47.6,57.9c-0.1,0.1-0.2,0.2-0.3,0.4c0.1,0.1,0.2,0.1,0.3,0.2c0.1-0.2,0.2-0.4,0.3-0.6
	C47.8,57.8,47.7,57.8,47.6,57.9"/>
<path fill="#010101" d="M46.8,6.6c-0.2,0-0.2,0.2-0.2,0.4c0,0.2,0.2,0.3,0.3,0.4C47,7.1,47,6.8,46.8,6.6"/>
<path fill="#FFFFFF" d="M41.5,39.3c0.2,0.2,0.5,0.2,0.7,0.1c-0.3-0.3-0.7-0.4-1.1-0.3C41.2,39.1,41.4,39.2,41.5,39.3"/>
<path fill="#FFFFFF" d="M40.6,39c-0.3-0.3-0.7-0.3-1-0.2C39.9,39,40.3,39.1,40.6,39"/>
<path fill="#FFFFFF" d="M64.2,42.5c-0.3,0.1-0.2,0.7,0.1,0.6c0.1-0.2,0-0.4-0.1-0.5L64.2,42.5z"/>
<path fill="#010101" d="M49.3,6.6c0,0.1,0,0.2,0.1,0.3c0.1,0,0.3,0,0.4,0C49.9,6.6,49.5,6.4,49.3,6.6"/>
<path fill="#010101" d="M23.7,33.6c0.2-0.1,0.1-0.5-0.1-0.6c-0.1,0.1-0.2,0.2-0.2,0.3C23.5,33.4,23.6,33.5,23.7,33.6"/>
<path fill="#FFFFFF" d="M38.7,38.5c-0.1,0.1-0.3,0.1-0.4,0.2c0.1,0.1,0.3,0.2,0.4,0.1C38.9,38.8,38.9,38.5,38.7,38.5"/>
<path fill="#010101" d="M57.8,41.6c0.1,0,0.2-0.2,0.1-0.3c-0.1,0-0.3,0.1-0.3,0.2S57.8,41.7,57.8,41.6"/>
<path fill="#010101" d="M47.8,58.5c-0.2,0-0.2,0.2-0.2,0.4c0.1,0,0.2,0,0.3-0.1C47.8,58.7,47.8,58.6,47.8,58.5"/>
<path fill="#010101" d="M41.9,69.2c0-0.1-0.1-0.2-0.2-0.1c-0.1,0-0.1,0.1-0.2,0.2C41.6,69.5,41.8,69.4,41.9,69.2L41.9,69.2z"/>
<path fill="#010101" d="M73.4,67.3c0.2-0.9,0.4-1.8,0.6-2.7c-0.5-0.2-0.9-0.5-1.2-1c0.3,0,0.6,0.1,1,0.1c0.7-1.5,1.1-3.1,1.2-4.7
	c0.2-0.1,0.5-0.1,0.7,0c-0.3,1.1-0.5,2.3-0.8,3.4c-0.2,0.9-0.3,1.9,0.4,2.5c1.5-1.1,2.6-2.8,2.9-4.6c-0.8,0.1-1.7-0.6-1.8-1.4
	c0.5,0,0.9,0.3,1,0.8c1.9-2.4,1.2-5.8,0.1-8.6c-0.3-0.8-0.7-1.6-0.6-2.4c0-0.8,0.6-1.7,1.5-1.8c1,0.1,1.2,1.4,1.2,2.4
	c0,1.5,0,3.1,0.1,4.6c0,2.2,0.1,4.4-0.6,6.4s-2,4-4,4.8c-0.3,0.1-0.7,0.3-0.8,0.6c-0.8,5.9-3.3,11.6-7,16.3c0-0.6-0.1-1.2-0.4-1.8
	c-0.3-0.5-0.9-0.9-1.5-0.7c0.2-0.4,0.8-0.7,1.3-0.5c0.5,0.2,0.8,0.7,0.7,1.2c0.7-0.2,1.1-1,1.1-1.7c0-0.7-0.3-1.4-0.6-2.1
	c0.7,0.1,1.4-0.2,1.8-0.7c0,0.3-0.1,0.7-0.2,1c0.9-0.3,1.6-1.3,1.4-2.3c-0.4,0.2-0.7,0.6-0.7,1c-0.7-0.4-0.9-1.5-0.4-2.1
	c0.1,0.4,0.2,0.9,0.3,1.3c1.6-0.6,2.3-2.5,2.9-4.1c0.2-0.7,0.4-1.4,0.3-2.1c-0.2-0.7-0.8-1.3-1.5-1.2c0.2-0.3,0.4-0.7,0.6-1
	C72.6,66.4,73,66.8,73.4,67.3"/>
<path fill="#010101" d="M78.5,59.8c0.2-0.2-0.1-0.6-0.4-0.5C78,59.5,78.3,59.9,78.5,59.8"/>
<path fill="#010101" d="M69,77.8c0,0.1,0.2,0.2,0.3,0.1c0-0.1,0-0.3,0-0.4C69,77.5,68.9,77.7,69,77.8"/>
<path fill="#010101" d="M71.5,74.2c0-0.1,0-0.3-0.1-0.4c-0.1,0.1-0.2,0.2-0.3,0.3C71.2,74.2,71.3,74.3,71.5,74.2L71.5,74.2z"/>
<path fill="#010101" d="M49.3,77.6c-1,0-1.9,0.1-2.9,0.1c0.3,0.2,0.2,0.9-0.2,1c0.1-1.1-0.9-2.1-2-2.1c0,0.4,0.1,0.7,0.1,1.1
	c-0.9-1-1.8-2.1-2.6-3.2c0.2-0.2,0.2-0.6-0.1-0.7c-0.6,0.7-1.3,1.5-1.9,2.2c-0.1-0.1-0.3-0.2-0.4-0.2c0.5-1.3,1.1-2.5,1.8-3.6
	c0-0.2-0.1-0.4-0.1-0.6c0.9,0.4,2,0.3,2.8-0.1c-0.5-0.1-1.1-0.2-1.6-0.2c1.3-0.8,2.6-1.5,4.1-2.1c0.8-0.3,1.7-0.6,2.6-0.4
	c1.1,0.2,2.2,1,3.1,0.4c2-1.3,5.1-0.4,6,1.8c2-0.2,3.8,1.8,3.6,3.7c-0.5,0-0.7-0.6-1-1c-0.3-0.4-0.9-0.7-1.2-0.3
	c-0.4,0.6-0.9,1.2-1.3,1.8c-0.3,0.4-0.6,0.8-1.1,1c-0.5,0.1-1.1-0.3-1-0.8c-1.4,0.3-2.8,0.6-4.1,0.9c0.5,0.3,1.1,0.3,1.6,0.1
	c0.2,0.2,0.3,0.5,0.1,0.8c-0.3-0.1-0.6-0.3-0.9-0.5c-0.4,0.5-1.2,0.8-1.9,0.6c0,0.4-0.1,0.8-0.2,1.2C50.4,77.7,49.8,77.6,49.3,77.6"
	/>
<path fill="#FFFFFF" d="M49,75.9c-0.2,0.3-0.4,0.6-0.5,0.9c-0.1,0.2,0.1,0.4,0.3,0.4c0.2,0,0.4-0.1,0.6-0.2c0.3-0.1,0.6,0,0.9,0.1
	c0.1-0.2,0.2-0.5,0.1-0.7c-0.1-0.2-0.3-0.5-0.5-0.4C49.6,76.2,49.2,76.1,49,75.9"/>
<path fill="#FFFFFF" d="M58.5,73c-0.6,0.3-1.1,0.6-1.7,0.9c-0.2,0.1-0.5,0.2-0.7,0.4c0.2,0.2,0.5,0.1,0.8,0
	C57.5,74,58.2,73.6,58.5,73"/>
<path fill="#FFFFFF" d="M46.5,75.1c0.1,0,0.2-0.2,0.1-0.3c-0.2,0-0.5-0.1-0.7,0c-0.2,0.1-0.4,0.3-0.3,0.6
	C45.8,75.4,46.2,75.3,46.5,75.1"/>
<path fill="#FFFFFF" d="M46.8,75.5c-0.2,0.1-0.3,0.2-0.4,0.3c0.1,0.4,0.6,0.5,0.8,0.2C47.2,75.8,47,75.6,46.8,75.5"/>
<path fill="#FFFFFF" d="M50.4,74.5c-0.4,0.1-0.8,0.2-1.2,0.3c0.4,0.2,1,0.2,1.4-0.1C50.5,74.6,50.5,74.6,50.4,74.5"/>
<path fill="#FFFFFF" d="M57,70.4c0,0.2,0.4,0.2,0.4,0.1C57.3,70.4,57.2,70.4,57,70.4L57,70.4z"/>
<path fill="#FFFFFF" d="M51.9,70.3c1.4-0.4,3-0.4,4.4,0c0.2-0.1,0-0.3-0.2-0.4c-1.2-0.6-2.6-0.6-3.9-0.2c-2,0.8-4.5-0.6-6.4,0.5
	c-0.1,0.1-0.3,0.2-0.3,0.4c1.3-0.3,2.7-0.4,4.1-0.3C50.4,70.4,51.1,70.5,51.9,70.3"/>
<path fill="#010101" d="M36.2,36c-0.3-0.1-0.6-0.1-0.8-0.3c-0.3-0.3-0.4-0.7-0.6-1.1s-0.7-0.7-1-0.5c0.2,0.1,0.4,0.4,0.4,0.7
	c-0.6-0.2-1.2-0.5-1.7-1c-0.1,0.2-0.3,0.3-0.4,0.5c-0.7-0.2-1.3-0.3-2-0.5c0.2,0.2,0.3,0.4,0.5,0.6c-0.9,0.3-1.8,0.5-2.6,0.8
	c-0.2,0.1-0.5,0.2-0.6,0.4c-0.1,0.2,0,0.6,0.3,0.6c-0.5,0.2-1,0.3-1.5,0.5c0.3-1.3,0.6-2.7,1.2-3.9c0.7-1.2,1.9-2.1,3.2-2.2
	c-0.2-0.2-0.4-0.4-0.6-0.5c0.5-0.4,1.4-0.1,1.6,0.5c0.6-0.5,1.5-0.5,2.3-0.5c2.4,0.2,4.7,1.1,6.6,2.5c0.1-0.3-0.2-0.6-0.5-0.5
	c-0.1-0.2,0.2-0.4,0.5-0.4c0.2,0,0.4,0.2,0.6,0.4c0.6,0.8,1.3,1.8,2.4,1.9c0.5,0,1.3-0.1,1.4,0.4c0.4,1.3,2.8,0.9,3.2,2.2
	c0.8-0.6,2.1-0.7,2.9-0.1c-0.4,0.2-0.7,0.5-0.8,0.9c-0.5-0.2-1-0.5-1.5-0.7c-0.4,0.6-1,1.1-1.8,1.2c0.2,0.2,0.2,0.5,0.1,0.8
	c-0.6,0.1-1.4-0.1-1.5-0.7C42.3,37.3,39.3,36.7,36.2,36z"/>
<path fill="#010101" d="M59.2,54.4c-0.1-0.1,0-0.3,0.1-0.2C59.4,54.2,59.2,54.5,59.2,54.4L59.2,54.4z"/>
<path fill="#010101" d="M53.5,38.2c-1.1-0.1-2.5-0.6-2.5-1.7c0-0.9-1.3-1.4-1.9-0.9c0.8-0.8,2.2-0.8,3.1-0.1
	c-0.2,0.2-0.4,0.4-0.6,0.6c0.7,0.2,1.4,0.1,2.1-0.1c0.6-0.2,1.1-0.5,1.6-0.8c0.8-0.5,1.6-0.9,2.4-1.4c0.3-0.2,0.6-0.3,0.9-0.5
	c0.3-0.1,0.6-0.2,0.9-0.2c0.5-0.1,0.9-0.3,1.3-0.5c2.5-1,5.2-1.4,7.9-1.8c1.1-0.1,2,0.7,2.6,1.6c0.9,1.2,1.6,2.5,2.2,3.8
	c0.1,0.3,0.1,0.7-0.1,0.7c-0.1-0.4-0.4-0.7-0.8-0.9c-0.8-0.6-1.7-1.2-2.5-1.7c-0.5,0.5-1.3,0.4-1.7-0.1c-1.1,0-2.4,0.3-2.5,1.4
	c0-0.6-0.8-0.9-1.3-0.8c-0.6,0.1-1,0.6-1.4,1c0.3,0,0.7,0,1,0c0,0.2-0.3,0.3-0.5,0.4c-3.3,0.8-6.6,1.6-9.9,2.4
	c0.1-0.3,0.3-0.5,0.4-0.8c-0.2-0.1-0.4-0.1-0.6,0C53.5,37.8,53.4,38.1,53.5,38.2"/>
<path fill="#010101" d="M52.9,37.3c-0.4-0.1-0.7-0.2-1.1-0.3c0.3,0.4,0.8,0.7,1.3,0.7c0.1-0.4,0.2-0.8,0.1-1.1
	C53,36.7,52.9,37,52.9,37.3"/>
<path fill="#010101" d="M59.3,35.9c-0.1,0-0.2,0.2-0.1,0.4c0.3,0,0.5-0.1,0.7-0.2C59.7,35.9,59.5,35.8,59.3,35.9L59.3,35.9z"/>
<path fill="#010101" d="M53,65.2c0.1,0.1,0.1,0.2,0,0.3C52.9,65.5,52.8,65.2,53,65.2L53,65.2z"/>
<path fill="#010101" d="M58.4,67.2c0.5,0,0.7,0.6,0.8,1.1c-0.5-0.3-1-0.2-1.5-0.4c-0.5-0.2-0.9-0.7-0.7-1.2
	c-0.1,0.3-0.5,0.4-0.8,0.3c-0.3-0.1-0.4-0.5-0.3-0.7c0.3,0.1,0.7-0.1,0.9-0.4c-1.1-0.3-1.9-1.6-1.5-2.7c0.2-0.1,0.4-0.1,0.5,0.1
	c0.1-0.2-0.1-0.4-0.2-0.5c-0.8-0.5-1.5-1-2.3-1.4c0.1,0.3-0.1,0.7-0.4,0.8c-0.1-0.3-0.2-0.6-0.1-0.9c0.1-0.3,0.4-0.6,0.7-0.5
	c0.4,0.1,0.8-0.4,0.6-0.8c-0.5,0.2-0.9,0.4-1.3,0.8c-0.3-0.2-0.4-0.6-0.3-0.9c0.6,0,1.2-0.1,1.7-0.3c0.1-0.5,0.4-0.9,0.9-1.1
	c-0.8-0.2-1.6-0.7-2.1-1.4c-0.2,0.4-0.4,0.8-0.8,0.9c-0.4,0.1-1-0.2-0.9-0.6c0.4,0.2,0.9-0.1,1.3-0.4c0.3-0.3,0.6-0.7,1.1-1
	c0.7-0.4,1.6-0.2,2.1,0.4c0.6,0.5,0.8,1.3,0.8,2.1c0.3,0,0.5,0,0.8,0.1c-0.2,0.8,0.4,1.7,1.2,1.8c-0.2,0.2-0.4,0.4-0.7,0.6
	c0,0.4,0.5,0.6,0.9,0.8c0.4,0.2,0.7,0.7,0.3,1c-0.4,0.3,0.3,1,0,1.3c-0.2,0.2-0.5,0.1-0.6-0.1c-0.1-0.2-0.1-0.5-0.2-0.7
	c-0.1-0.8-0.5-1.6-1.1-2.2c0.3-0.4,0.3-0.9,0-1.3c-0.2,0.1-0.5,0.2-0.7,0.3c0,0.4,0,0.8,0.1,1.2c-0.4-0.4-0.9-0.8-1.3-1.2
	c0,0.7,0.4,1.5,0.9,2c0.1-0.4,0.6-0.4,0.9-0.1c0.3,0.3,0.3,0.6,0.4,1c0.1,0.7,0.4,1.5,1.1,1.7c0.3,0.1,0.6,0,0.9,0
	c0.3,0,0.7,0.2,0.7,0.5c0,0.2-0.1,0.4-0.3,0.4c-0.2-0.2-0.6-0.3-0.8-0.2c0.4,0.3,0.8,0.6,1.3,0.9c0-0.3,0-0.7,0.1-1
	c0.2-0.2,0.6-0.2,0.7,0s0.1,0.6-0.1,0.7c-0.3,0.2-0.1,0.7,0.3,0.8c0.3,0.1,0.7,0.1,1,0.2c0.3,0.1,0.6,0.6,0.3,0.8
	c-0.2-0.2-0.5-0.4-0.7-0.6c-0.3,0.5-0.9,0.8-1.5,0.7c-0.5,0-1-0.5-0.7-0.9c0.2-0.3,0.7-0.3,0.7-0.7c-0.5,0.2-1.1,0-1.4-0.5
	c-0.1-0.2-0.1-0.5-0.3-0.7c-0.1-0.2-0.4-0.4-0.6-0.2c0.2,0.6,0.4,1.3-0.1,1.7c-0.1-0.5-0.6-1.1-1-0.9C57.1,66.7,57.8,67.2,58.4,67.2
	"/>
<path fill="#010101" d="M55.7,64.2c0.5,0.1,1,0.5,1.2,1c0.1,0.1,0.3,0.3,0.3,0.2c0.2-0.5-0.2-0.9-0.6-1.2c-0.2-0.1-0.3-0.3-0.5-0.3
	C55.8,63.8,55.6,64,55.7,64.2"/>
<path fill="#010101" d="M56.5,63.7c0.2,0.2,0.6-0.3,0.3-0.5C56.6,63,56.2,63.5,56.5,63.7"/>
<path fill="#010101" d="M56.4,62.7c0,0.1,0.2,0.3,0.3,0.2c0-0.2-0.1-0.4-0.3-0.6C56.3,62.4,56.3,62.5,56.4,62.7L56.4,62.7z"/>
<path fill="#010101" d="M31,64.4c0.1-0.1,0.1-0.2,0.2-0.3C31.4,64.2,31.2,64.6,31,64.4L31,64.4z"/>
<path fill="#010101" d="M39.3,82.1c0.5,0.1,0.7,0.8,0.4,1.2s-0.7,0.6-1.2,0.8c1,0.2,2,0.1,2.9-0.2c-0.8,0.7-1.6,1.4-2.4,2.1
	c1.6,0.6,2.3,2.5,2.8,4.2c0.7-0.4,1.5-0.5,2.3-0.3c-0.1,0.4-0.6,0.7-1,0.5c0.3,0.6,0.4,1.3,0.3,2c0.7,0.2,1.3,0.5,2,0.7
	c-0.5-0.5-1-1-1.5-1.4c0.1-0.8,0.5-1.5,1.1-2c-0.5-0.2-0.6-1-0.2-1.3c0.4-0.4,1.1-0.2,1.3,0.3l-0.8,0.3c0.2,0.2,0.4,0.5,0.5,0.7
	c0.4-0.2,0.6-0.6,0.6-1c1,0,1.9,1,1.8,2c0.2-0.3,0.4-0.5,0.7-0.5c0.1,0.5,0.6,0.9,1.1,0.9c0.1-0.6-0.1-1.3-0.5-1.8
	c1.2-0.5,2.7-0.4,3.9,0.3c-1.2,0.4-1.6,2.1-0.8,3.1c0.1-0.5,0.2-0.9,0.3-1.4c1,0.5,2.2,1.5,1.5,2.4c0.6-0.4,1-1.1,1.2-1.8
	c0.1,0.4,0.7,0.6,1.1,0.3c-0.1-0.4-0.2-0.8-0.3-1.2c-0.7-0.2-1.6,0.4-1.5,1.1c-0.5-0.4-1-0.8-1.2-1.4s0.3-1.4,0.9-1.3
	c-0.3,0.5-0.3,1-0.1,1.5c0.3-0.3,0.7-0.6,1-0.8c1,0.1,1.7,1.3,1.2,2.2c0.5-0.3,1.1-0.6,1.6-0.9c0-0.5-0.6-0.8-1-0.6l0.4-0.8
	c0.8,0.4,1.8,1.4,1.1,2c-2.7,2.2-6.4,2.5-9.8,2.5c-1.4,0-2.7-0.1-4.1-0.1c0.3,0.7,0.8,1.3,1.3,1.8c-0.1-0.3-0.3-0.6-0.2-0.9
	c0.1-0.3,0.5-0.4,0.7-0.2c0,0.7,0,1.3,0,2h0c-0.2-0.4-0.9-0.4-1.1,0c-1,0-2,0-3.2,0c-0.3-0.4-0.8-0.7-1.3-0.5l0.5,0.5
	c-4.3,0-9.1,0-10.8,0.1c0-0.1,0-0.2-0.1-0.3c0.1-1.2,0.1-2.5-0.2-3.7c-0.2,1.3-0.5,2.7-0.7,4c-0.2,0-0.4,0-0.6,0
	c0.2-0.5,0.4-1,0.5-1.5l0.7-4.5c0-0.3,0.1-0.6,0.1-0.9c-0.3,0.8-0.7,1.5-1.2,2.2c0.7-2.2,1.4-4.4,2.1-6.6c-0.5,0.9-1,1.8-1.5,2.7
	c-0.2,0.4-0.7,0.8-1,0.6c0.9-1.3,1.8-2.6,2.3-4.2c0.4-1.5,0.3-3.3-0.7-4.5c-2.6-3.3-4.4-7.3-5-11.5c-0.1-0.9-0.4-2.1-1.3-2.3
	c-1.4-0.3-2.2-1.7-2.8-3c-2.3-4.9-3.1-10.4-2.2-15.8c0.2-1,0.5-2.1,1.4-2.5c0.9-0.4,2.1,0.8,1.4,1.5c-0.6,0.2-1.3,0-1.6-0.6
	c-0.3,0.3-0.5,0.7-0.6,1.1c1.1-0.5,2.2,0.8,2.2,1.9c0,1.2-0.5,2.2-0.7,3.4c-1.4,2.5-1,5.9,1.1,7.9c-0.9-1.7-1-3.7-0.2-5.4
	c0.4-0.9,0.8-1.9,1.2-2.8c0.7,4.1,1.4,8.2,2,12.2c1,0.5,1.8,1.6,1.9,2.7c-0.3-0.2-0.5-0.3-0.8-0.5c-0.4,0.4,0,1,0.5,1.2
	c0.5,0.2,1,0.1,1.5,0.3c1.5,0.4,2,2.8,0.7,3.7c0.9,0,1.8-0.3,2.6-0.8c0,0.5,0.1,1,0.1,1.6c-0.2-0.5-1-0.6-1.4-0.2
	c-0.4,0.4-0.4,1-0.2,1.5c0.1,0.4,0.4,0.8,0.8,1c0.4,0.1,1-0.3,0.9-0.7c0.5,0.7,0.5,1.8-0.1,2.5c0.2,0.3,0.6,0.5,0.9,0.5
	c0.1-0.4,0.5-0.7,0.9-0.7c0,0.4-0.1,0.8-0.2,1.1c0.7,0,0.9-0.9,1-1.5s0.9-1.4,1.4-0.9c-0.3,0.3-0.6,0.6-0.9,0.8
	c0.7,0.1,1.3,0.5,1.7,1.1c-0.7-0.1-1.3-0.3-1.9-0.7c-0.3,0.6,0.4,1.4,1,1.1c-0.2,0.6-0.8,0.9-1.4,0.8c0.9,0.8,1.8,1.6,2.6,2.4
	c-0.3-0.9-0.7-1.7-1.2-2.4c0.6-0.1,1.2-0.5,1.5-1c-0.1,0.4-0.1,0.8-0.2,1.1c0.7-0.6,1.7-0.7,2.4-0.2c-0.8,0.1-1.6,0.4-2.3,0.9
	c1.1,0.4,2.1,1.1,3,1.9c-0.1,0.3-0.2,0.7-0.3,1c-0.1-0.7-1.1-1.1-1.6-0.6c-0.1-0.6-0.2-1.2-0.4-1.8C37.5,80.2,38.1,81.9,39.3,82.1"
	/>
<path fill="#010101" d="M69.8,96.8c0.2-2.2,0.3-4.4,0.5-6.6c0.3,0.4,0.5,0.9,0.8,1.3c-0.7-3.2-1.3-6.5-2-9.7
	c-0.2,3.6-0.4,7.3-2.4,10.4c-0.3,0.5-0.7,1-0.6,1.6c0.1,0.4,0.1,1.1-0.2,1.1c0.1-0.1,0.2-0.4,0-0.4c-0.3,0-0.5,0.3-0.6,0.6
	c-0.2,0.6-0.5,1.2-0.7,1.8C66.2,96.8,68,96.8,69.8,96.8z"/>
<path fill="#010101" d="M37.8,83.1c0.4,0.1,1,0,1-0.4c-0.3-0.2-0.5-0.4-0.8-0.6C37.8,82.4,37.8,82.8,37.8,83.1
	c-0.3-0.1-0.6,0.2-0.5,0.5C37.6,83.6,37.8,83.4,37.8,83.1"/>
<path fill="#010101" d="M33.6,88.7c-0.4-0.5-0.4-1.4,0.1-1.9c-0.5-0.3-0.8-0.9-0.7-1.5c0.1-0.1,0.3-0.1,0.4,0.1c0,0.3,0,0.7,0.2,0.9
	c0.2,0.2,0.7,0.2,0.8-0.1c0-0.1,0-0.2,0-0.3c-0.1-0.7-0.8-1.3-1.5-1.4c0.2-0.4,0-1-0.4-1.2c-0.2,0.4-0.2,0.9-0.1,1.3
	c0.2,1.9,0.4,3.8,0.6,5.7c0.1,1,0.3,1.9,0.7,2.8c0.2-0.1,0.3-0.4,0.2-0.6c0.7,0.3,1.3,0.9,1.4,1.7c0.1,0.3,0.1,0.7,0.3,1
	c0.2-0.2,0.3-0.6,0.2-0.9c0.1-0.1,0.3-0.1,0.4-0.1c0.2-0.3-0.1-0.6-0.4-0.8c-0.3-0.1-0.7-0.2-0.8-0.5c-0.2-0.4-0.7-0.7-1-1.1
	c-0.3-0.4-0.5-1-0.1-1.3c0.2-0.2,0-0.5-0.2-0.7c-0.2-0.2-0.4-0.6-0.1-0.6C33.9,89.2,33.7,88.9,33.6,88.7"/>
<path fill="#010101" d="M24,64.1c0.3,0.2,0.4,0.7,0.1,1c-0.1-0.3-0.3-0.5-0.6-0.6c-0.2,0.2,0,0.5,0.3,0.6c0.4,0.2,0.9,0.4,1.4,0.4
	c-0.5-1.4-0.7-2.9-0.8-4.4c0-0.4-0.2-0.9-0.4-1.3c-0.3-0.6-0.7-1.4-1.3-1.5c-0.2,0.3,0.2,0.7,0.4,1c0.3,0.4,0.3,0.9,0.1,1.3
	c-0.2,0.4-0.6,0.7-1.1,0.7c0.4,0.4,0.9,0.8,1.3,1.3c0.2,0.2,0.4,0.4,0.4,0.7c-0.2,0.1-0.4,0.1-0.6,0.1c-0.1,0.1,0,0.4,0.2,0.5
	C23.7,64,23.9,64,24,64.1"/>
<path fill="#010101" d="M35.7,92c0.1-0.6,1.3,0.1,1.5-0.5c0-0.8-1.5-0.9-1.4-1.7c0,0.6-0.3,1.1-0.8,1.4c-0.2-0.2-0.3-0.3-0.5-0.4
	c-0.2-0.1-0.5,0-0.5,0.3c0.4,0.6,1.7,0.4,1.8,1.2c0,0.3,0.4,0.3,0.7,0.5c0.6,0.3,0.8,1.2,0.3,1.7c0.2,0.2,0.5,0.4,0.8,0.5
	C37.9,93.8,36.9,92.4,35.7,92"/>
<path fill="#010101" d="M35.1,82.5c0.3,0,0.5,0.3,0.7,0.6c0.1,0.3,0.2,0.6,0.4,0.9c0.2,0.2,0.7,0.2,0.8-0.1
	c-0.7-0.4-0.8-1.5-0.3-2.1c0,0.2,0.2,0.3,0.4,0.3c-0.2-0.9-0.6-1.8-1.2-2.5c-0.2,0.5-0.4,1-0.1,1.4c0.1,0.1,0.3,0.2,0.4,0.3
	c0.1,0.1,0.2,0.3,0.1,0.5C36,82,35.5,82.1,35.1,82C35.1,82.2,35,82.3,35.1,82.5"/>
<path fill="#010101" d="M36.6,95.9c0.2,0.3,0.4,0.6,0.5,0.9c0.2,0,0.4,0,0.6,0c0,0,0-0.1,0-0.1c0-0.3,0.4-0.5,0.5-0.2
	c0.1,0.3,0.5,0.2,0.7,0.1c0.3,0,0.5,0.1,0.8,0.2c0.2,0,0.3,0,0.5,0c-0.1-0.2-0.5-0.4-0.8-0.5c-0.5,0-1,0-1.3-0.4
	c-0.2-0.3-0.3-0.8-0.6-0.8c-0.2,0.2-0.2,0.5-0.2,0.7c-0.1,0-0.2,0-0.3,0.1c-0.1-0.2-0.2-0.4-0.3-0.6c-0.2-0.2-0.4-0.2-0.6-0.1
	C36.2,95.5,36.4,95.7,36.6,95.9z"/>
<path fill="#010101" d="M28.6,74.8c0-0.4,0.2-0.8,0.6-0.9c0.4-0.1,0.8,0.4,0.6,0.7c0.4,0,0.6-0.5,0.4-0.8c-0.1-0.3-0.5-0.6-0.8-0.8
	c0,0.4-0.5,0.5-0.9,0.3c-0.3-0.2-0.5-0.6-0.8-0.8C27.8,73.4,28.1,74.2,28.6,74.8"/>
<path fill="#010101" d="M39.9,88.8c0.2,0,0.5,0.2,0.5,0.4c0.3-0.4-0.2-1.1-0.7-1c-0.3,0.1-0.5-0.3-0.5-0.5s-0.2-0.6-0.5-0.6
	c-0.2,1,0.3,2.1,1.2,2.5C40.1,89.3,40.1,89,39.9,88.8"/>
<path fill="#010101" d="M29.7,70.3c0-0.1-0.1-0.2-0.2-0.3c-0.5-0.4-0.9-0.7-1.4-1.1c0.2,0.9,0.6,1.7,1,2.5c0.2-0.3,0.3-0.6,0.2-1
	C29.4,70.3,29.6,70.3,29.7,70.3"/>
<path fill="#010101" d="M50.9,92.9c0.1,0,0.1-0.1,0.2-0.2c0.5-0.9,0.7-1.9,0.5-2.9C51.2,90,51,90.4,51,90.9c0,0.4,0,0.9-0.2,1.2
	c-0.1,0.2-0.2,0.3-0.2,0.5C50.6,92.7,50.7,93,50.9,92.9"/>
<path fill="#010101" d="M34.8,79.6c-0.2,0.7-0.3,1.4-0.5,2.1c-0.1,0.4-0.2,0.7,0,1.1c0.6-0.8,0.9-1.8,0.8-2.7
	C35.1,79.8,35,79.6,34.8,79.6"/>
<path fill="#010101" d="M28.9,72.5c0.1-0.2-0.1-0.4-0.2-0.5c-0.5-0.5-0.9-1.1-1-1.8c-0.3,0-0.5,0.3-0.5,0.6c0,0.3,0.2,0.5,0.4,0.7
	C28,71.9,28.4,72.3,28.9,72.5"/>
<path fill="#010101" d="M34.2,88.4c0.1,0.5,0.3,1,0.4,1.4c0.1,0.2,0.2,0.5,0.4,0.4c0.1-0.5,0-1-0.1-1.5c-0.1-0.2-0.1-0.3-0.3-0.4
	S34.2,88.3,34.2,88.4"/>
<path fill="#010101" d="M45.8,92c-0.1-0.2-0.1-0.5-0.1-0.8c-0.2-0.2-0.5-0.2-0.8-0.2c0.3,0.7,0.6,1.4,1,2.1
	C46.2,92.9,46.2,92.3,45.8,92"/>
<path fill="#010101" d="M47.1,91.8c0,0.1,0,0.3,0.1,0.4c0.1,0.1,0.2,0.2,0.4,0.1c0.1-0.8,0-1.7-0.1-2.5C47,90.3,47,91.1,47.1,91.8"
	/>
<path fill="#010101" d="M44,96.3c0.1-0.2,0.3-0.5,0.6-0.6c0.3-0.1,0.6,0.2,0.5,0.4c0.3-0.3,0.2-1-0.2-1.1
	C44.3,95.2,43.9,95.8,44,96.3"/>
<path fill="#010101" d="M30.2,77.2c0.3-0.2,0.2-0.6,0-0.9c-0.2-0.3-0.4-0.5-0.5-0.8c0-0.2,0-0.4,0.1-0.5c-0.1-0.1-0.3-0.1-0.4,0
	c-0.1,0.1-0.1,0.3,0,0.4C29.6,76,29.8,76.6,30.2,77.2"/>
<path fill="#010101" d="M48.5,92.9c0.1,0.2,0.5,0.3,0.5,0.1c-0.3-0.5-0.4-1-0.5-1.5c-0.1-0.1-0.3-0.1-0.4,0
	C48.2,92,48.3,92.4,48.5,92.9"/>
<path fill="#010101" d="M33.2,80.8c0.1,0.3,0.2,0.5,0.4,0.7c0.3-0.6-0.2-1.4-0.9-1.4C32.8,80.4,33,80.7,33.2,80.8"/>
<path fill="#010101" d="M30.9,75.3c-0.1-0.2-0.4-0.2-0.5-0.1c0.1,0.4,0.3,0.8,0.4,1.2C31.1,76.2,31.2,75.7,30.9,75.3"/>
<path fill="#010101" d="M34.2,87.6c0.2,0.1,0.5,0.2,0.7,0.1c0-0.4-0.4-0.8-0.8-0.8C33.9,87.2,33.9,87.5,34.2,87.6"/>
<path fill="#010101" d="M41.1,90.7c0.1-0.5,0-1.1-0.4-1.4C40.4,89.8,40.6,90.4,41.1,90.7"/>
<path fill="#010101" d="M26.7,69.1c0.1,0.3,0.4,0.6,0.7,0.7c0.2-0.2,0.2-0.5,0-0.7C27.3,68.9,27,68.9,26.7,69.1"/>
<path fill="#010101" d="M32.4,77.8c0-0.1,0-0.3,0.1-0.4c-0.3,0-0.5,0.2-0.6,0.4c0,0.3,0.1,0.5,0.4,0.6C32.3,78.2,32.3,78,32.4,77.8"
	/>
<path fill="#010101" d="M38.9,95.2c-0.1-0.4-0.3-0.7-0.7-0.8C38.1,94.8,38.5,95.3,38.9,95.2"/>
<path fill="#010101" d="M34,78.8c0.2,0.1,0.4,0.1,0.5,0c0-0.4-0.4-0.7-0.8-0.5C33.7,78.5,33.8,78.7,34,78.8"/>
<path fill="#010101" d="M42.9,93.2c0-0.2-0.1-0.3-0.2-0.5c-0.1,0.5,0.1,1,0.5,1.3C43.2,93.8,43.1,93.5,42.9,93.2"/>
<path fill="#010101" d="M53.6,93.2c0.3-0.1,0.4-0.4,0.3-0.7c-0.2-0.1-0.4,0-0.5,0.2C53.4,92.8,53.4,93,53.6,93.2"/>
<path fill="#010101" d="M39.4,90.7c0.1,0.4,0.4,0.6,0.8,0.6c-0.1-0.4-0.4-0.7-0.8-0.7"/>
<path fill="#010101" d="M26.1,65.8c0-0.2,0-0.3-0.1-0.5s-0.4-0.1-0.4,0.1c0.1,0.3,0.3,0.6,0.4,0.8C26.1,66.2,26.1,66,26.1,65.8"/>
<path fill="#010101" d="M37.2,85.1c0.1-0.1,0.2-0.2,0.3-0.4c-0.4-0.1-0.8,0.4-0.5,0.7C37.1,85.3,37.2,85.2,37.2,85.1"/>
<path fill="#010101" d="M31.2,88.9c-0.3,0-0.3,0.5-0.2,0.7C31.3,89.6,31.4,89.2,31.2,88.9"/>
<path fill="#010101" d="M38.1,84.8c-0.1,0.2,0.1,0.4,0.3,0.4c0.1-0.2,0.1-0.4,0.1-0.6C38.3,84.6,38.1,84.7,38.1,84.8"/>
<path fill="#010101" d="M30.8,78.1c0-0.1,0-0.2,0-0.3c-0.1,0.1-0.3,0.2-0.3,0.4s0.1,0.4,0.3,0.3C30.8,78.4,30.9,78.2,30.8,78.1"/>
<path fill="#010101" d="M52,92.8c-0.1,0-0.2,0-0.3,0c-0.1,0.1-0.1,0.2-0.1,0.3c0.1,0.1,0.3,0.1,0.4,0.1C52.1,93.1,52.1,92.9,52,92.8
	"/>
<path fill="#010101" d="M31.8,77c0.1-0.1,0.1-0.3,0-0.4c-0.1,0.1-0.3,0.2-0.4,0.3C31.4,77.1,31.6,77.1,31.8,77"/>
<path fill="#010101" d="M34.3,94.7c0-0.2-0.1-0.4-0.3-0.4c-0.1,0.2,0.1,0.5,0.3,0.5"/>
<path fill="#010101" d="M32.8,79.4c0.2-0.1,0.2-0.3,0.1-0.5C32.7,78.9,32.5,79.3,32.8,79.4"/>
<path fill="#010101" d="M32.6,81.8c-0.1,0.2,0.1,0.5,0.3,0.6C32.9,82.2,32.8,81.9,32.6,81.8"/>
<path fill="#010101" d="M40.7,91.7c0,0.2,0.2,0.5,0.4,0.5C41.2,91.9,41,91.7,40.7,91.7"/>
<path fill="#010101" d="M47.7,93c-0.1,0.2,0.3,0.3,0.3,0.1C48,93,47.8,92.9,47.7,93"/>
<path fill="#010101" d="M56.5,86.6c0.1,0.1,0.2,0.1,0.3,0.2C56.7,87,56.4,86.8,56.5,86.6L56.5,86.6z"/>
<path fill="#010101" d="M62.7,84.2c0.2-0.2,0.5,0.2,0.5,0.4c0,0.3-0.1,0.6,0.1,0.8c0.3,0.3,0.8,0,0.9-0.4c-0.3,0-0.5-0.4-0.5-0.8
	c0.1-0.3,0.3-0.6,0.5-0.8c0.2,0.1,0.2,0.5,0.2,0.7c0,0.3,0.2,0.6,0.4,0.5c0.3-0.1,0.2-0.9,0.6-0.8c0-0.2-0.1-0.5-0.1-0.7
	c-0.1-0.3,0.1-0.8,0.4-0.7c0.3,0.1,0.2,0.6,0,0.8c0.4,0,0.7-0.3,0.8-0.7c0.1-0.4-0.1-0.8-0.5-0.9c-0.1-0.2-0.1-0.4-0.1-0.6
	c0-0.2,0.2-0.4,0.4-0.4c0.3,0,0.4,0.4,0.5,0.7c0,0.3,0,0.6,0.3,0.8c0.3,0.2,0.1,0.7-0.2,1c-1.5,1.9-3.1,3.7-4.6,5.6
	c-0.2,0.3-0.5,0.6-0.5,0.9c-0.2,0.6-0.7,1.1-1.3,1.2c-0.1-0.4,0.1-1,0.5-1.2c-0.3-0.2-0.2-0.7,0-1c0.2-0.3,0.5-0.6,0.4-1
	c0.3,0.1,0.6,0.3,0.8,0.5c0.3-0.3,0-0.9-0.4-0.8c0.3-0.6,1.3-0.7,1.4-1.4c-0.2,0-0.4-0.1-0.6-0.1C62.5,85.3,62.6,84.8,62.7,84.2z"/>
<path fill="#010101" d="M48.9,86c0.2-0.1,0.2,0.2,0.1,0.4C48.9,86.4,48.8,86.2,48.9,86L48.9,86z"/>
<path fill="#010101" d="M39.4,63.7c-0.2-0.2-0.5-0.4-0.8-0.4c-0.1,0.7-0.4,1.4-0.8,2c-0.8,1.1-1.1,2.4-1.3,3.7
	c-0.2,1.1-0.4,2.1-0.6,3.2c-0.1,0.5-0.2,1-0.3,1.6c-0.2-2.8,0.2-5.6,1.2-8.2c0.2-0.5,0.4-1,0.8-1.5c0.5-0.6,1.2-1.1,1.2-1.9
	C39.1,62.6,39.4,63.1,39.4,63.7z"/>
<path fill="#010101" d="M65.7,24.7c-0.1-0.1,0.1-0.2,0.1-0.2c0.1,0,0.2,0.1,0.2,0.2C66,24.8,65.8,24.8,65.7,24.7L65.7,24.7z"/>
<path fill="#010101" d="M44.3,87.3c-0.1-0.2-0.1-0.4-0.2-0.6s-0.4-0.3-0.5-0.2c-0.2,0.4,0,1,0.4,1.2c0.2,0.1,0.2,0.4,0.1,0.6
	c-0.1,0.2-0.4,0.3-0.6,0.4c-0.2-0.4-0.3-0.9-0.3-1.3c-0.2-0.1-0.5,0.2-0.5,0.4c0,0.3,0.1,0.5,0.1,0.8c0,0.4-0.3,0.8-0.7,1
	c0.1-0.4-0.2-0.7-0.4-1c-0.2-0.3-0.3-0.8,0-1c0.2-0.1,0.6-0.1,0.7-0.4c-0.3-0.4-0.9-0.5-1.3-0.1c-0.1-0.1-0.2-0.3-0.3-0.4
	c-0.1,0.3-0.4,0.3-0.6,0.1C40,86.6,40,86.3,40.1,86c0.1-0.4,0.4-0.8,0.8-0.7c0.4,0,0.7,0.6,0.3,0.9c0.3,0.1,0.6-0.1,0.7-0.3
	c0.1-0.3,0-0.6-0.2-0.7c-0.2-0.2,0-0.6,0.3-0.6c0.3,0,0.5,0.4,0.5,0.6c0,0.3-0.1,0.6-0.1,0.9c0,0.3,0.1,0.6,0.3,0.8
	c0.3-0.4,0.6-0.8,0.9-1.3c0.6,0.7,1.4,1.3,2.3,1.7c0.3,0.1,0.6,0.2,0.8,0.2c0.3-0.1,0.5-0.4,0.4-0.7c-0.3,0.2-0.8,0.1-1.1-0.2
	c0.5-0.6,1.3-1,2.1-1.1c0.2,0.3,0,0.8-0.4,0.8c-0.1,0-0.2,0.2-0.1,0.3c0.1,0.5,0.1,1.1,0.2,1.6c-0.4-0.2-0.9-0.1-1.3,0.2
	c0.1-0.5-0.5-0.7-1-0.7C45.1,87.7,44.5,87.7,44.3,87.3z"/>
<path fill="#010101" d="M44.9,80.1c0.3,0.3,0.9,0.2,1.2,0.4c0.4,0.3,0.5,0.8,0.9,1.1c0.1,0.1,0.3,0.1,0.3,0.2
	c0.2,0.2,0.1,0.4,0.1,0.7c0,0.2,0.2,0.5,0.4,0.5c0.2-0.3,0.1-0.6-0.1-1c-0.4-0.8-0.8-1.6-1.5-2.1c-0.6-0.4-1.5-0.5-2-1
	c-0.1-0.1-0.3-0.3-0.2-0.5s0.3-0.4,0.4-0.2c0.2,0.5,0.5,1,1,0.9c0.7-0.2,1.3,0.7,2.1,0.6c0.5-0.1,0.9,0.5,0.7,0.9
	c-0.1,0.1-0.3,0.1-0.5,0.1c0.1,0.6,0.6,1.1,1.2,1.1c-0.2-0.3-0.4-0.6-0.5-1c-0.1-0.4,0-0.8,0.3-1c-0.7-0.1-1.4-0.5-1.9-1.1
	c0.3-0.2,0.8,0,0.9,0.3c1.1-0.2,2.1,0.2,3.2,0.1c0.5,0,1-0.2,1.5-0.2c0.5,0,1.1,0.1,1.4,0.5c0.3,0.4,0.2,1.1-0.3,1.3
	c-0.1,0.3-0.1,0.6,0.1,0.9c0.2,0.3,0.4,0.4,0.6,0.7c0.2,0.3,0.1,0.7-0.1,0.8c-0.2,0.1-0.4-0.1-0.5-0.3c-0.1-0.2-0.1-0.4,0-0.6
	c-0.1,0-0.2,0-0.4-0.1c0.1,0.3-0.2,0.7-0.5,0.8c-0.3,0.1-0.7,0.1-1,0.1c-1.3,0-2.7,0.2-3.9,0.7c-0.3,0.1-0.8,0.2-1-0.1
	c-0.2-0.3-0.1-0.8-0.4-0.8c-0.1,0.6-0.2,1.1-0.3,1.7c-0.3,0.2-0.7-0.2-0.7-0.6c0-0.4,0.2-0.7,0.4-1c0.2-0.3-0.1-0.7-0.4-0.7
	c-0.3,0-0.6,0.2-0.7,0.5c-0.1,0.3-0.1,0.6,0,1c-0.2,0.2-0.5,0-0.6-0.2c-0.1-0.2,0-0.5,0.1-0.7c0.3-0.5,0.5-1,0.8-1.5
	c0.1,0.3,0.5,0.5,0.9,0.4c-0.1-0.4-0.4-0.7-0.7-0.8c0,0.1-0.1,0.2-0.3,0.3c-0.2-0.4-0.5-0.9-0.7-1.3c-0.1-0.2,0.3-0.3,0.5-0.2
	C44.7,79.7,44.7,80,44.9,80.1"/>
<path fill="#010101" d="M52.7,80.1c-0.2,0.1-0.4,0.4-0.3,0.6C52.7,80.7,52.8,80.3,52.7,80.1"/>
<path fill="#010101" d="M51.2,80.7c0,0.2,0.3,0.3,0.4,0.1c0-0.1-0.1-0.2-0.2-0.3C51.3,80.5,51.2,80.6,51.2,80.7L51.2,80.7z"/>
<path fill="#010101" d="M60.1,62c0,0.2-0.3,0.3-0.4,0.1C59.8,62,60,61.9,60.1,62L60.1,62z"/>
<path fill="#010101" d="M41,78.9c0.4-0.3,1-0.2,1.3,0.2c0.1-0.4,0.4-0.7,0.7-0.8c-0.2,0.9-0.4,1.8-0.4,2.7c-0.4,0-0.8-0.2-1.1-0.5
	c-0.3,0.2-0.1,0.6,0.2,0.8s0.6,0.4,0.6,0.7c0,0.5,1,0.3,1.1,0.8c-0.3,0-0.4,0.4-0.3,0.7c0.2,0.3,0.5,0.4,0.8,0.5c0,0.2,0,0.3,0,0.5
	c-0.3,0.3-0.8,0-1-0.3c-0.2-0.4-0.3-0.8-0.7-1C42.1,83,42,83,41.8,82.8c-0.1-0.2-0.2-0.4-0.2-0.6c-0.1-0.2-0.4-0.3-0.5-0.1
	c0.1,0.2,0.1,0.5,0.1,0.7c-0.2,0.1-0.5,0-0.6-0.2s-0.1-0.4-0.1-0.7c0.3-0.1,0.4-0.4,0.4-0.8c0-0.7-0.3-1.3-0.7-1.8
	c-0.2,0-0.5,0-0.7,0c-0.1-0.4,0.4-0.6,0.8-0.4c0.3,0.2,0.5,0.5,0.8,0.7c0.3,0.3,0.8,0.5,1.3,0.6c0.2-0.3-0.1-0.7-0.4-0.8
	C41.6,79.3,41.2,79.2,41,78.9z"/>
<path fill="#010101" d="M71.6,42.6c0,0.1-0.2,0.1-0.2,0s0-0.2,0.1-0.3C71.6,42.3,71.7,42.6,71.6,42.6L71.6,42.6z"/>
<path fill="#010101" d="M31.4,23c-0.5-0.1-0.8,0.3-1.1,0.7c-0.3-0.6,0.3-1.5,1-1.4c0.6,0.1,1.2-0.4,1.8-0.6c0.6-0.3,1.2-0.4,1.8-0.5
	c1.1-0.2,2.2-0.4,3.3-0.7c-0.1,0.3-0.4,0.4-0.6,0.5c-1.6,0.5-3.2,0.8-4.6,1.5C32.5,22.8,32,23.1,31.4,23z"/>
<path fill="#010101" d="M33.4,42.2c0.2-0.1,0.2,0.2,0.1,0.4C33.4,42.6,33.3,42.3,33.4,42.2L33.4,42.2z"/>
<path fill="#010101" d="M50.9,11.9c-0.9-0.1-1.7-0.3-2.6-0.4c0-0.2,0-0.5,0.1-0.7s0.3-0.4,0.6-0.3c-0.1,0.3-0.1,0.6,0,0.8
	c0.5-0.1,0.9-0.4,1.1-0.8c0.1-0.1,0.2-0.2,0.2-0.4c0-0.3-0.4-0.4-0.6-0.4c-0.3,0-0.6,0.1-0.8,0C48.9,9.2,50,9,50.4,9.5
	c0.1,0.1,0.3,0,0.4-0.1c0.1-0.1,0.1-0.3,0.2-0.4c0.2-0.2,0.6-0.4,0.4-0.7c-0.1-0.2-0.4,0-0.6,0.2c-0.1,0.2-0.4,0.4-0.6,0.2
	c-0.1-0.1,0-0.4,0.1-0.5c0.3-0.4,0.5-0.8,0.8-1.1c0.3,0.1,0.5,0.4,0.7,0.7C52,7.6,51.9,7.3,51.9,7c-0.1-0.2,0.1-0.6,0.3-0.5
	c0.6,0.2,0,1.5,0.6,1.7c0.2,0.1,0.5,0,0.7,0.2c0.1,0.1,0.1,0.3,0,0.4c-0.1,0.5-0.2,1.1-0.6,1.4c-0.2,0.2-0.4,0.4-0.3,0.6
	c0.3,0.2,0,0.7-0.3,0.8c-0.3,0.1-0.7,0.1-1,0.2C51.1,12,51,11.9,50.9,11.9"/>
<path fill="#010101" d="M51.7,10.3c-0.2-0.1-0.5-0.2-0.7-0.4c-0.5,0.3-0.7,1-0.6,1.5c0.5-0.2,0.9-0.6,1.2-1c0,0.3,0.2,0.6,0.5,0.7
	c0.1-0.7,0.5-1.4,1-1.9C52.6,9.2,51.9,9.7,51.7,10.3"/>
<path fill="#010101" d="M51.9,9.5c0-0.2-0.1-0.3-0.3-0.3c-0.2,0-0.3,0.2-0.3,0.3C51.5,9.6,51.7,9.6,51.9,9.5L51.9,9.5z"/>
<path fill="#010101" d="M75.3,58.2c0.4-0.4,0.6-1.1,0.4-1.6c-0.1-0.2,0-0.3,0-0.5c0.1-1.8,0.3-3.5,0.4-5.3c0.4,0.2,0.6,0.7,0.6,1.2
	c-0.2,0.9,0.3,1.9,0.8,2.7s0.7,2,0.2,2.7c-0.3,0.4-0.7,0.6-1.2,0.8C76,58.4,75.5,58.5,75.3,58.2z"/>
<path fill="#010101" d="M72.2,93.8c-0.2-0.1-0.1-0.4,0.1-0.5C72.4,93.4,72.4,93.7,72.2,93.8L72.2,93.8z"/>
<path fill="#010101" d="M61.6,85.8c0.1,0.2,0,0.3-0.2,0.4C61.2,86.1,61.4,85.8,61.6,85.8L61.6,85.8z"/>
<path fill="#010101" d="M47.9,56c-0.9-0.6-2-0.8-3-0.6c0.3-0.2,0.5-0.5,0.7-0.8s0.1-0.7-0.2-0.9c-0.2-0.1,0.1-0.5,0.3-0.4
	c0.2,0.1,0.3,0.4,0.3,0.7c0.3,0.1,0.6-0.3,0.7-0.6c0-0.3-0.1-0.7-0.2-1c-0.1-0.3-0.2-0.7-0.1-1c0.5,0.6,0.8,1.4,0.7,2.2
	c-0.1,1.1,1.4,1.6,1.5,2.7C48.4,56.3,48.1,56.1,47.9,56L47.9,56z"/>
<path fill="#010101" d="M30.7,26.3c1.6-1.2,3.7-1.6,5.8-1.8c0.9-0.1,1.7-0.2,2.6,0c-0.1,0.3-0.5,0.3-0.7,0.3
	c-2.2,0.1-4.4,0.6-6.5,1.3C31.4,26.3,31,26.4,30.7,26.3z"/>
<path fill="#010101" d="M27.3,87.5"/>
<path fill="#010101" d="M61.9,68.1c0.4,0.2,0.2,0.8,0.2,1.2c-0.1,0.7,0.2,1.3,0.4,2c0.1,0.7,0.1,1.5-0.5,1.8
	c0.6,0.3,0.8,1.1,0.9,1.8c-0.2-0.1-0.4,0.1-0.4,0.4c0,0.2,0.2,0.4,0.3,0.6c0.1,0.2,0.1,0.5-0.1,0.6c-0.6-0.4-0.9-1.3-0.5-1.9
	c0.2-0.4-0.5-1-0.2-1.4c-0.6-0.2-0.6-1-0.4-1.6c0.2,0,0.4-0.1,0.6-0.2C61.4,70.4,61.4,69.1,61.9,68.1z"/>
<path fill="#010101" d="M49.5,96.7c0-0.2,0.4-0.1,0.5,0C49.9,96.8,49.7,96.8,49.5,96.7L49.5,96.7z"/>
<path fill="#010101" d="M27.2,54.3c0.3-0.4-0.8-1-0.4-1.3c0-0.1,0.2-0.2,0.3-0.1c0.2,0.4,0.7,0.6,1.1,0.5c0.2-0.1,0.4,0.3,0.3,0.5
	c-0.1,0.2-0.4,0.3-0.6,0.4c0.2,0.3,0.6,0.4,0.9,0.2c0.3-0.2,0.4-0.6,0.3-0.9c-0.1-0.2,0.1-0.4,0.3-0.4c0.2,0,0.4,0.1,0.5,0.2
	c-0.1,0.4-0.2,0.8-0.5,1.2c-0.2,0.3-0.7,0.6-1.1,0.5c-0.2,0-0.3-0.1-0.5-0.1c-0.2,0-0.4,0.1-0.3,0.3c0.1,0.6-0.2,1.2-0.8,1.4
	c0.1,0.2,0.2,0.5,0.1,0.7c-0.3,0.1-0.6-0.2-0.6-0.5c0-0.3,0.2-0.6,0.4-0.8s0.4-0.5,0.5-0.8C27.1,54.8,27.1,54.5,27.2,54.3z"/>
<path fill="#010101" d="M66.4,85.3c0.1,0.1,0.2,0.3,0.2,0.5C66.4,85.7,66.3,85.4,66.4,85.3L66.4,85.3z"/>
<path fill="#010101" d="M37.9,74.3c0,0.2,0,0.4,0.1,0.5c0.1,0.1,0.4,0.1,0.4,0c0.1-0.5,0.5-0.8,1-1c0.1,0.2-0.1,0.5-0.2,0.7
	c-0.5,0.7-0.7,1.6-0.4,2.5c-0.3,0.2-0.7-0.2-0.8-0.5c-0.1-0.4,0-0.8-0.2-1.1c-0.2-0.3-0.5-0.4-0.7-0.7c-0.2-0.3-0.2-0.8,0.2-0.8
	c0.2,0.2,0.2,0.4,0.1,0.7C37.5,74.6,37.8,74.5,37.9,74.3z"/>
<path fill="#010101" d="M27.9,25.1c0.2,0,0.2,0.3,0.1,0.5C27.9,25.4,27.9,25.2,27.9,25.1L27.9,25.1z"/>
<path fill="#010101" d="M68.8,45.8c0.1,0,0.4,0,0.3,0.2C69,46,68.8,46.1,68.7,46C68.6,46,68.7,45.8,68.8,45.8L68.8,45.8z"/>
<path fill="#010101" d="M22.7,51c-0.1-0.8,0.1-1.5,0.5-2.2c0.4,0.3,0.4,0.9,0.3,1.4c0,0.5,0.1,1.1,0.6,1.3c-0.1,0.2-0.4,0.1-0.6,0.1
	c-0.2-0.1-0.4-0.2-0.6-0.2c-0.5,0-0.6,0.7-0.5,1.2c-0.3-0.1-0.5-0.5-0.5-0.8C22.1,51.4,22.4,51.1,22.7,51z"/>
<path fill="#010101" d="M72.5,42.9c-0.2,0.1-0.4-0.2-0.2-0.4C72.4,42.5,72.5,42.7,72.5,42.9L72.5,42.9z"/>
<path fill="#010101" d="M27.8,65.4c-0.1-0.1-0.2-0.2-0.2-0.4c0.3-0.7,1.4-0.9,2-0.3c0.1,0.1,0.1,0.2,0.1,0.3c0.1,1,0.1,2-0.1,3
	c-0.1-0.2-0.1-0.4-0.1-0.6c-0.5,0-0.9,0.1-1.4,0.1c-0.1,0-0.2,0-0.2,0c-0.1-0.1-0.1-0.2-0.1-0.3c0.1-0.9,0.9-1.7,1.8-1.8
	C29.2,64.8,28.3,64.9,27.8,65.4"/>
<path fill="#010101" d="M29,66.5c0.3,0.1,0.4-0.5,0.1-0.6S28.7,66.5,29,66.5z"/>
<path fill="#010101" d="M30.4,20.2c0.4,0.4,0.6,0.9,0.7,1.4c-0.3-0.3-0.8-0.3-1.1-0.1c-0.6,0.5-1.2,0.9-1.9,1.3
	c0-0.5,0.4-0.8,0.7-1.1c0.4-0.3,0.9-0.7,1.3-1c0-0.1,0-0.2,0-0.3C30.2,20.2,30.3,20.2,30.4,20.2z"/>
<path fill="#010101" d="M54.1,94.8c0,0.1-0.2,0.2-0.3,0.1c-0.1-0.1,0-0.3,0.1-0.3C53.9,94.6,54.1,94.7,54.1,94.8L54.1,94.8z"/>
<path fill="#010101" d="M71,93.5c0-0.1,0.2-0.2,0.3-0.1c0.1,0.1,0,0.3-0.1,0.3C71.1,93.7,71,93.6,71,93.5L71,93.5z"/>
<path fill="#010101" d="M71.5,89.7c0.2,0,0.4,0.2,0.3,0.4C71.6,90,71.4,89.8,71.5,89.7L71.5,89.7z"/>
<path fill="#010101" d="M71.9,24c0-0.1,0.1-0.2,0.2-0.1c0.1,0,0.1,0.1,0.2,0.2C72.2,24.2,71.9,24.1,71.9,24L71.9,24z"/>
<path fill="#010101" d="M31.2,67.6c-0.4,0.3-0.3,1,0.2,1.2c0.3,0.1,0.6,0.2,0.9,0.5c0.2,0.3,0.3,0.7,0,0.9c-0.5-0.3-1-0.7-1.3-1.1
	c-0.4-0.5-0.6-1.1-0.5-1.6C30.7,67.4,31,67.5,31.2,67.6z"/>
<path fill="#010101" d="M33.4,72.6c-0.1,0-0.2-0.2-0.1-0.4c0.1,0,0.2,0,0.3,0.1S33.5,72.6,33.4,72.6L33.4,72.6z"/>
<path fill="#010101" d="M38,59.3c-0.7,0.3-1.5,0.5-2.2,0.7c0.1-0.2,0.3-0.3,0.4-0.5c0.3,0.1,0.5-0.3,0.4-0.5
	c-0.1-0.2-0.5-0.2-0.6,0.1c-0.1,0.3-0.2,0.6-0.4,0.8c-0.2,0.2-0.7,0.1-0.8-0.2c0.4-0.3,0.5-0.7,0.8-1.1c0.3-0.3,1-0.4,1.1,0
	C36.7,59.2,37.9,58.8,38,59.3z"/>
<path fill="#010101" d="M33.1,68.8c0-0.1-0.1-0.3-0.1-0.4c0.1,0,0.2,0,0.3,0.2C33.4,68.7,33.2,68.8,33.1,68.8L33.1,68.8z"/>
<path fill="#010101" d="M56.2,88.2c-0.1,0.1-0.2,0.3-0.3,0.4c-0.1-0.3-0.1-0.7,0-1.1c0.1-0.1,0.2-0.3,0.3-0.1c0.3,0.4,1,0.3,1.4,0
	c0.5-0.3,1-0.6,1.5-0.3c-0.8,0.6-1.7,1.1-2.6,1.5C56.5,88.3,56.3,88.2,56.2,88.2z"/>
<path fill="#010101" d="M39.3,55.5c0.1,0,0,0.2-0.1,0.2c-0.1-0.1-0.1-0.2-0.2-0.3C39.2,55.2,39.4,55.3,39.3,55.5L39.3,55.5z"/>
<path fill="#010101" d="M33.2,56.1c-0.1,0.1-0.2,0.1-0.3,0.1c0,0.3,0.1,0.6,0.3,0.9c-0.2,0.2-0.5-0.1-0.5-0.4c0-0.3,0.1-0.6,0-0.8
	c-0.1-0.2-0.2-0.3-0.3-0.4c-0.1-0.1-0.2-0.4-0.1-0.5c0.1-0.1,0.3-0.1,0.5,0c0.6,0.2,1.1,0.4,1.7,0.5c-0.4,0.2-0.9,0.2-1.3,0.1
	C33.1,55.7,33.1,55.9,33.2,56.1z"/>
<path fill="#010101" d="M66.7,47.6c0.1,0,0.2,0,0.3,0c0,0.1,0,0.2,0.1,0.3C66.9,47.9,66.7,47.8,66.7,47.6L66.7,47.6z"/>
<path fill="#010101" d="M51.6,86.8c-0.1-0.3-0.4-0.6-0.2-0.8c0.4,0.3,0.8,0.7,1.1,1.1c0.2,0.2,0.3,0.5,0.2,0.8
	c-0.1,0.3-0.5,0.4-0.6,0.1c0-0.1,0-0.3,0-0.4c0-0.1-0.2-0.2-0.3-0.1c0.2,0.1,0.1,0.4,0,0.5c-0.1,0.2-0.3,0.2-0.5,0.3
	c-0.2,0-0.4,0.1-0.6,0.1C50.6,87.8,51.7,87.4,51.6,86.8L51.6,86.8z"/>
<path fill="#010101" d="M40.8,61.4c0.4-0.3,1.2,0,1.2,0.6c0,0.2,0,0.3-0.1,0.5c-0.1,0.4-0.2,0.8-0.3,1.2c-0.4,0.1-0.9,0.2-1.3,0.3
	c-0.2-0.1-0.1-0.4,0.1-0.6c0.2-0.1,0.4-0.1,0.6-0.3c0.3-0.2,0.4-0.5,0.3-0.8c-0.1-0.3-0.3-0.5-0.6-0.6
	C40.8,61.6,40.8,61.5,40.8,61.4z"/>
<path fill="#010101" d="M72.3,48c-0.1-0.1,0.1-0.3,0.2-0.2C72.6,48,72.3,48.1,72.3,48L72.3,48z"/>
<path fill="#010101" d="M69.3,67.9c0.3,0.1,0.3,0.5,0.2,0.6C69.4,68.4,69.3,68.2,69.3,67.9L69.3,67.9z"/>
<path fill="#010101" d="M31,20.3c0-0.6,0.4-1.1,1-1.4c0.4-0.2,0.8-0.2,1.2-0.3C32.5,19.2,31.8,19.8,31,20.3z"/>
<path fill="#010101" d="M30.5,57.7c-0.1,0.1-0.2-0.1-0.1-0.1s0.2-0.1,0.3,0c0.1,0,0.2,0.1,0.3,0C31,57.8,30.6,57.8,30.5,57.7
	L30.5,57.7z"/>
<path fill="#010101" d="M34,56.9c0.1,0.2,0.1,0.3,0,0.5c-0.1-0.1-0.2-0.2-0.2-0.3S33.9,56.8,34,56.9L34,56.9z"/>
<path fill="#010101" d="M70.7,67c0.4,0.3,0.6,0.8,0.5,1.3c0.3,0,0.6,0,0.8,0.2c0.2,0.2,0.2,0.6,0,0.7c-0.2-0.4-0.8-0.1-1.1-0.4
	c-0.1-0.1-0.1-0.2-0.1-0.3C70.6,68,70.6,67.5,70.7,67z"/>
<path fill="#010101" d="M72,92.5c-0.2,0-0.1-0.3,0.1-0.3c0.2,0,0.3,0.1,0.4,0.2C72.3,92.5,72.2,92.6,72,92.5L72,92.5z"/>
<path fill="#010101" d="M60.3,80.9c0.5,0.2,1,0.6,1.3,1.1c0.1,0.2,0.1,0.5-0.1,0.4c-0.1-0.3-0.2-0.6-0.4-0.8c-0.2-0.2-0.6-0.3-0.8,0
	c-0.2,0.2-0.7,0.1-0.8-0.2C59.8,81.4,60.1,81.2,60.3,80.9z"/>
<path fill="#010101" d="M64.7,69c-0.1-0.1,0.2-0.1,0.2,0c0,0.1,0,0.3,0,0.4C64.8,69.3,64.7,69.1,64.7,69L64.7,69z"/>
<path fill="#010101" d="M30.1,24.5c-0.3-0.3-0.9-0.4-1.2-0.1c-0.2,0.2-0.4,0.4-0.6,0.5c-0.2-0.3,0.1-0.7,0.4-0.9
	c0.3-0.2,0.7-0.4,0.7-0.8C29.8,23.5,30.1,24,30.1,24.5z"/>
<path fill="#010101" d="M23.4,61.5c0.2,0.1,0.2,0.4,0.1,0.7C23.3,62,23.3,61.7,23.4,61.5L23.4,61.5z"/>
<path fill="#010101" d="M49.8,85.3c0-0.1,0-0.2,0.1-0.3c0.1,0,0.3,0,0.4,0C50.4,85.3,50,85.5,49.8,85.3L49.8,85.3z"/>
<path fill="#010101" d="M78.1,45.2c-0.1-0.1-0.2-0.3-0.1-0.4c0.1-0.1,0.2-0.1,0.3-0.2c0.6,0.6,1,1.4,1,2.3
	C78.9,46.4,78.5,45.8,78.1,45.2z"/>
<path fill="#010101" d="M41.8,84c-0.1-0.1-0.2-0.2-0.2-0.3c0.1-0.1,0.3-0.1,0.4-0.1c0.1,0.1,0.1,0.2,0.1,0.3
	C42,84,41.9,84.1,41.8,84L41.8,84z"/>
<path fill="#010101" d="M67.3,73.5c-0.1,0-0.2-0.2-0.2-0.3c0-0.1,0.2-0.2,0.3-0.2C67.5,73.2,67.4,73.4,67.3,73.5L67.3,73.5z"/>
<path fill="#010101" d="M33.8,75.5c-0.2,0.1-0.3,0.1-0.5,0.2c0-0.8-0.2-1.6-0.7-2.3c0.2-0.2,0.6,0,0.8,0.2c0.2,0.2,0.2,0.5,0.3,0.8
	C33.7,74.8,33.8,75.1,33.8,75.5z"/>
<path fill="#010101" d="M39.3,58.4c-0.1,0.1-0.4-0.1-0.2-0.3c0.1-0.1,0.3-0.1,0.5,0C39.5,58.2,39.4,58.3,39.3,58.4L39.3,58.4z"/>
<path fill="#010101" d="M31,72.5c0.1-0.1,0.3-0.1,0.4,0c0.4,0.2,0.7,0.5,0.8,0.9c0,0.4-0.3,0.9-0.7,0.9c-0.2-0.5-0.3-0.9-0.5-1.4
	C31,72.8,30.9,72.6,31,72.5z"/>
<path fill="#010101" d="M73.8,41.9c0.1-0.4,0.2-0.8,0.3-1.2c0.1-0.1,0.3-0.1,0.4,0.1c0.1,0.2,0,0.3,0,0.5c-0.1,0.5-0.3,1-0.7,1.2
	c-0.3-0.1-0.5-0.4-0.5-0.7C73.4,41.8,73.6,41.8,73.8,41.9z"/>
<path fill="#010101" d="M28.9,96.8c-0.2-0.1-0.2-0.4,0-0.5C29.1,96.4,29.1,96.7,28.9,96.8L28.9,96.8z"/>
<path fill="#010101" d="M53.5,85.6c0.1,0,0.2,0.2,0.1,0.3c-0.2,0.1-0.3-0.1-0.4-0.3C53.2,85.5,53.4,85.5,53.5,85.6L53.5,85.6z"/>
<path fill="#010101" d="M25.9,61.5c-0.1,0-0.2,0-0.2,0c-0.1-0.1-0.1-0.1-0.1-0.2c0-0.2,0-0.3,0-0.5s0.3-0.2,0.4-0.2
	c0.4,0.3,1.1,0.1,1.3-0.3c0.1,0.1,0.1,0.2,0.2,0.3C27.2,61.1,26.5,61.4,25.9,61.5z"/>
<path fill="#010101" d="M71.6,94.9c-0.1,0.2-0.4,0.2-0.6,0.1c0.1-0.1,0.1-0.2,0.2-0.3C71.4,94.7,71.5,94.8,71.6,94.9L71.6,94.9z"/>
<path fill="#010101" d="M39.3,60.2c0.1-0.1,0.3-0.1,0.4,0.1c0.4,0.5,0.3,1.3-0.2,1.6c-0.2,0.1-0.5,0.2-0.7,0c-0.1-0.3-0.1-0.6,0-0.8
	c0.1-0.2,0.6-0.3,0.7,0C39.5,60.8,39.4,60.5,39.3,60.2z"/>
<path fill="#010101" d="M42.4,78.2c0,0.1,0,0.2,0,0.3c-0.1-0.1-0.3-0.3-0.3-0.4C42.2,78,42.5,78,42.4,78.2L42.4,78.2z"/>
<path fill="#010101" d="M36.8,69.8c0.1-0.2,0.4,0.1,0.3,0.4c-0.1,0.9-0.5,1.7-0.2,2.6c-0.4,0-0.5-0.6-0.4-1
	C36.6,71.1,36.7,70.5,36.8,69.8z"/>
<path fill="#010101" d="M31.1,59.9c0.4,0.3,0.9,0.7,0.9,1.2c0,0.4-0.1,0.7-0.2,1.1C31.3,61.6,31,60.7,31.1,59.9z"/>
<path fill="#010101" d="M52.7,48.4c-0.3-0.1-0.6-0.4-0.8-0.7c0.4-0.2,0.9,0,1,0.4c0.1,0,0.3,0,0.4,0c0.1,0.4,0,0.9-0.4,1.1
	C52.8,49,52.7,48.7,52.7,48.4L52.7,48.4z"/>
<path fill="#010101" d="M53.7,87c0.3,0,0.4,0.3,0.6,0.6s0.6,0.4,0.7,0.1c0.1,0.3,0.2,0.6,0.1,0.9C54.3,88.5,53.7,87.8,53.7,87z"/>
<path fill="#010101" d="M63.8,70.4c-0.1-0.1,0.1-0.3,0.3-0.2c0.1,0.1,0.1,0.2,0.2,0.3C64.1,70.6,63.9,70.5,63.8,70.4L63.8,70.4z"/>
<path fill="#010101" d="M72.7,56.3c0.1,0,0.2,0,0.3,0.1c0,0.1-0.2,0.3-0.3,0.3C72.5,56.6,72.5,56.3,72.7,56.3L72.7,56.3z"/>
<path fill="#010101" d="M47.2,49.9c-0.1,0.3,0.2,0.7,0.4,1c0.2,0.3,0.3,0.7,0,1C47.5,52,47.3,52,47.1,52c0.2-0.3-0.1-0.7-0.3-1
	c-0.2-0.3-0.3-0.8,0-1C47,49.9,47.1,49.9,47.2,49.9z"/>
<path fill="#010101" d="M32.4,62.8c-0.2-0.1-0.2-0.4,0-0.5C32.6,62.4,32.6,62.7,32.4,62.8L32.4,62.8z"/>
<path fill="#010101" d="M50.4,66c-0.1,0.2-0.4,0.1-0.6,0c-0.2-0.1-0.4-0.3-0.3-0.5c0.2-0.2,0.1-0.5,0-0.8c-0.1-0.3,0-0.7,0.3-0.6
	c0.2,0.5,0.5,1,0.6,1.6C50.5,65.7,50.5,65.9,50.4,66z"/>
<path fill="#010101" d="M54.9,82.7c-0.1-0.1-0.2-0.1-0.3-0.2c0-0.1,0.2-0.3,0.3-0.2C55.1,82.4,55,82.6,54.9,82.7L54.9,82.7z"/>
<path fill="#010101" d="M48.7,87c0.3-0.2,0.6,0.4,0.5,0.7c-0.1,0.4-0.3,0.8-0.1,1.1c-0.4,0.1-1,0-1-0.5c0.3,0.1,0.5-0.3,0.4-0.6
	C48.5,87.5,48.4,87.2,48.7,87z"/>
<path fill="#010101" d="M61.3,74.8c0.1,0.1,0.2,0.3,0.1,0.4c-0.1-0.1-0.3-0.1-0.3-0.3S61.3,74.7,61.3,74.8L61.3,74.8z"/>
<path fill="#010101" d="M27.9,31.3c0-0.2-0.5-0.1-0.6-0.4c0-0.1,0-0.2,0-0.3c0.1-0.4,0.3-0.8,0.4-1.2c0.4,0.2,0.5,0.7,0.3,1.1
	c-0.1,0.2,0,0.4,0.2,0.5C28.2,31.1,28,31.3,27.9,31.3z"/>
<path fill="#010101" d="M54.1,76.5c0.4-0.1,0.7-0.2,1.1-0.3c0.3-0.1,0.5-0.1,0.8,0c-0.4,0.3-0.7,0.6-1.2,0.8
	c-0.2,0.1-0.5,0.2-0.7,0.1C54,76.9,53.9,76.5,54.1,76.5z"/>
<path fill="#010101" d="M52.1,77.3c0.1,0.1,0.1,0.3,0,0.4c-0.1-0.1-0.2-0.2-0.2-0.3C51.8,77.2,52,77.1,52.1,77.3L52.1,77.3z"/>
<path fill="#010101" d="M52.2,65.5c0.1,0.1,0.2,0.1,0.4,0.2c0,0.1,0,0.2-0.1,0.3C52.3,66,52.2,65.7,52.2,65.5L52.2,65.5z"/>
<path fill="#010101" d="M27.3,63.3c0.1-0.4,0.2-0.7,0.2-1.1c0.3,0,0.6,0.2,0.7,0.5c-0.5,0.4-0.6,1.1-0.7,1.7
	C27.4,64,27.4,63.7,27.3,63.3L27.3,63.3z"/>
<path fill="#010101" d="M34.9,35.9c-0.2,0.1-0.4-0.1-0.4-0.3C34.7,35.5,34.9,35.7,34.9,35.9L34.9,35.9z"/>
<path fill="#010101" d="M43,77.5c-0.4,0-0.8-0.1-1.2-0.1c-0.2,0-0.5,0-0.7-0.2c-0.2-0.1-0.3-0.4-0.2-0.6c0.4,0.3,0.9,0.5,1.5,0.5
	C42.8,77.2,43.2,77.3,43,77.5z"/>
<path fill="#010101" d="M59.7,82.7c-0.1,0.2-0.2,0.3-0.3,0.5C59.2,83,59.5,82.6,59.7,82.7L59.7,82.7z"/>
<path fill="#010101" d="M59.9,87.5c0.1,0.6,0.1,1.1,0.2,1.7c0,0.2,0,0.4-0.1,0.5c-0.1-0.2-0.3-0.5-0.4-0.7c-0.2-0.3-0.3-0.6-0.3-0.9
	C59.2,87.7,59.5,87.4,59.9,87.5z"/>
<path fill="#010101" d="M25.5,57.4c0.2,0,0.4,0.1,0.5,0.3C25.7,57.8,25.5,57.6,25.5,57.4L25.5,57.4z"/>
<path fill="#010101" d="M30,45.9c-0.1,0-0.2-0.2-0.1-0.4c0.2,0,0.5,0.1,0.4,0.3C30.2,45.9,30.1,45.9,30,45.9L30,45.9z"/>
<path fill="#010101" d="M29,94.8c0-0.2-0.1-0.5,0-0.7c0.1-0.2,0.4-0.4,0.6-0.3c-0.1,0.5-0.3,1-0.4,1.5c-0.1,0.2-0.2,0.4-0.4,0.5
	C28.6,95.5,28.7,95.1,29,94.8L29,94.8z"/>
<path fill="#010101" d="M43.7,56.4c-0.2-0.2,0-0.6,0.2-0.6C44,56,44,56.2,44,56.3C43.9,56.4,43.8,56.4,43.7,56.4L43.7,56.4z"/>
<path fill="#010101" d="M44.1,81.5c0,0.1,0,0.3,0,0.4c-0.4,0-0.9-0.1-1.1-0.4c0.2,0,0.4-0.1,0.5-0.3s0-0.5-0.2-0.5
	C43.8,80.5,44.2,81,44.1,81.5L44.1,81.5z"/>
<path fill="#010101" d="M26.8,60.1c-0.1,0.1-0.3,0.1-0.5,0c0.2-0.7,0.2-1.5-0.1-2.2c0.2-0.1,0.5,0,0.6,0.3s0,0.5-0.2,0.6
	C26.9,59.2,26.9,59.7,26.8,60.1z"/>
<path fill="#010101" d="M30.3,56.5c0,0.2-0.2,0.4-0.4,0.3c0-0.3,0.1-0.6,0.3-0.6C30.3,56.2,30.3,56.4,30.3,56.5L30.3,56.5z"/>
<path fill="#010101" d="M53.7,10.5c0-0.1,0-0.2,0.1-0.3c0.2,0,0.5,0,0.6,0.2C54.2,10.5,53.9,10.6,53.7,10.5L53.7,10.5z"/>
<path fill="#010101" d="M31.6,35.6c0,0.1,0,0.3,0,0.4C31.5,36,31.4,36,31.3,36C31.1,35.8,31.3,35.4,31.6,35.6L31.6,35.6z"/>
<path fill="#010101" d="M66.2,89.3c-0.2,0.3-0.4,0.6-0.6,0.9c-0.2-0.3-0.2-0.7,0-1s0.5-0.5,0.8-0.7C66.3,88.8,66.3,89.1,66.2,89.3
	L66.2,89.3z"/>
<path fill="#010101" d="M34.6,58.5c0.2,0.2-0.2,0.5-0.5,0.4c-0.5-0.1-0.9-0.5-1-0.9c0.4,0.1,0.9,0.3,1.3,0.4
	C34.5,58.4,34.6,58.5,34.6,58.5z"/>
<path fill="#010101" d="M28.3,94.6c0,0.1-0.2,0.2-0.2,0.1c0-0.2,0-0.4,0.1-0.6C28.3,94.1,28.5,94.4,28.3,94.6L28.3,94.6z"/>
<path fill="#010101" d="M72.4,41.5c-0.1-0.1,0-0.3,0.2-0.4c0.2-0.1,0.4-0.2,0.3-0.4c0-0.2-0.3-0.4-0.2-0.5c0.2-0.2,0.6,0,0.7,0.2
	c0.1,0.3,0,0.6-0.1,0.9C73,41.4,72.7,41.5,72.4,41.5z"/>
<path fill="#010101" d="M66.4,75.6c0,0.1,0.1,0.3,0.1,0.4c0,0.1-0.1,0.2-0.2,0.2c-0.5-0.6-0.1-1.6,0.6-1.7
	C67.1,74.9,66.3,75.2,66.4,75.6z"/>
<path fill="#010101" d="M30.2,61.1c0-0.1,0-0.3,0.1-0.4c0.2,0.1,0.3,0.3,0.3,0.6C30.5,61.3,30.2,61.3,30.2,61.1L30.2,61.1z"/>
<path fill="#010101" d="M34.5,60.9c0.2-0.1,0.5-0.1,0.7,0c0.1,0,0,0.2-0.2,0.3c-0.5,0.2-1,0.3-1.5,0.5
	C33.7,61.3,34.1,60.9,34.5,60.9L34.5,60.9z"/>
<path fill="#010101" d="M60.5,91.6c0.2,0.2,0.3,0.3,0.4,0.5c0.1,0.2,0,0.5-0.2,0.6c-0.2,0.1-0.1,0.6-0.4,0.7
	c-0.5-0.4,0.4-1.4-0.1-1.7C60.3,91.6,60.4,91.6,60.5,91.6z"/>
<path fill="#010101" d="M61.7,84.9c-0.4,0.1-0.7,0.3-1.1,0.4c0-0.4,0.4-0.7,0.8-0.8c0.4-0.1,0.8,0.1,1,0.5
	C62.2,85.1,61.9,85.1,61.7,84.9L61.7,84.9z"/>
<path fill="#010101" d="M30.6,48.5c-0.1,0-0.2,0-0.3-0.1c0-0.2,0-0.3,0-0.5c0.1-0.1,0.3-0.1,0.4,0C30.7,48.2,30.7,48.3,30.6,48.5
	L30.6,48.5z"/>
<path fill="#010101" d="M50,86.5c0,0.4,0.1,0.8,0.1,1.3c0,0.2,0,0.5,0.1,0.7c-0.4,0.1-0.7-0.4-0.6-0.8C49.6,87.3,49.9,86.9,50,86.5z
	"/>
<path fill="#010101" d="M38,73.9c-0.1-0.6,0.2-1.3,0.8-1.6C38.9,72.9,38.6,73.7,38,73.9z"/>
<path fill="#010101" d="M57.3,89.5c-0.1,0.1-0.3-0.1-0.3-0.3c0.1-0.2,0.3-0.2,0.4-0.2C57.6,89.2,57.5,89.4,57.3,89.5L57.3,89.5z"/>
<path fill="#010101" d="M44.3,85.5c-0.1,0-0.2-0.2-0.1-0.3c0.3-0.1,0.6,0.3,0.4,0.5C44.5,85.6,44.4,85.6,44.3,85.5L44.3,85.5z"/>
<path fill="#010101" d="M64.1,80.1c0.4-0.2,0.9,0,1.1,0.4c0.1,0.2,0.1,0.4,0.1,0.7c-0.1,0.1-0.2,0.1-0.3,0
	C64.6,80.8,64.3,80.5,64.1,80.1z"/>
<path fill="#010101" d="M34.4,63.6c-0.2,0.2-0.6-0.1-0.4-0.4C34.2,63.1,34.4,63.3,34.4,63.6L34.4,63.6z"/>
<path fill="#010101" d="M21.4,54.8c0.1-0.1,0.3,0,0.4,0.1c-0.1,0.2-0.2,0.3-0.4,0.3C21.3,55.2,21.3,54.9,21.4,54.8L21.4,54.8z"/>
<path fill="#010101" d="M50.2,57.6c-0.4-0.2-0.8-0.6-1-1c0.2,0,0.5,0,0.7,0.1s0.5,0.2,0.6,0.4C50.6,57.3,50.4,57.6,50.2,57.6z"/>
<path fill="#010101" d="M56.3,53.7c0,0.1-0.1,0.2-0.2,0.2c-0.2-0.1-0.3-0.3-0.3-0.4C56,53.4,56.2,53.5,56.3,53.7L56.3,53.7z"/>
<path fill="#010101" d="M40.1,56.3c0.2,0.5-0.3,1.1-0.8,1c-0.2,0-0.3-0.1-0.4-0.3C39.3,56.8,39.7,56.5,40.1,56.3z"/>
<path fill="#010101" d="M67.2,77.8c0.3,0.3,0.5,0.6,0.6,1c-0.4-0.3-0.9-0.4-1.3-0.4c0-0.1,0-0.2,0-0.3C66.7,77.9,67,77.8,67.2,77.8z
	"/>
<path fill="#010101" d="M69.4,26.1c-0.1-0.1,0.1-0.3,0.2-0.2c0.1,0.1,0.2,0.3,0.2,0.4C69.7,26.3,69.5,26.2,69.4,26.1L69.4,26.1z"/>
<path fill="#010101" d="M59.4,94.5c0,0.1,0,0.3,0,0.4c-0.1,0.1-0.3,0-0.4-0.2c-0.1-0.2,0-0.3,0-0.5C59.2,94.4,59.3,94.5,59.4,94.5
	L59.4,94.5z"/>
<path fill="#010101" d="M60.2,86.7c-0.3-0.3-0.2-0.8,0.2-1c0.3,0.5,0.5,1.2,0.3,1.8C60.4,87.4,60.2,87.1,60.2,86.7L60.2,86.7z"/>
<path fill="#010101" d="M57.6,95.4c0.3,0.2,0.2,0.7-0.1,0.8C57.4,95.9,57.4,95.6,57.6,95.4L57.6,95.4z"/>
<path fill="#010101" d="M70.5,95.4c-0.3-0.1-0.4-0.5-0.2-0.7C70.5,94.7,70.6,95.1,70.5,95.4L70.5,95.4z"/>
<path fill="#010101" d="M49.5,95.5c-0.3,0-0.6-0.1-0.8-0.2c-0.1-0.1-0.2-0.3-0.2-0.4c0.6-0.1,1.2,0,1.8,0.3
	C50.3,95.4,49.8,95.5,49.5,95.5z"/>
<path fill="#010101" d="M39.6,76.8c0.2,0,0.4,0,0.7,0c0,0.2-0.1,0.4-0.3,0.4S39.7,77,39.6,76.8L39.6,76.8z"/>
<path fill="#010101" d="M69.8,71.6c0.1,0.3,0.2,0.6,0.1,0.9c-0.2-0.3-0.7-0.1-1-0.3c-0.2-0.2-0.1-0.6,0.1-0.7
	C69.3,71.3,69.6,71.4,69.8,71.6L69.8,71.6z"/>
<path fill="#010101" d="M73.5,46.4c-0.3-0.1-0.4-0.5-0.2-0.7c0.3,0,0.4,0.4,0.2,0.6L73.5,46.4z"/>
<path fill="#010101" d="M63.2,67.3c-0.3-0.3-0.6-0.8-0.8-1.2C62.9,66,63.5,66.7,63.2,67.3z"/>
<path fill="#010101" d="M72,45.4c-0.1-0.2-0.2-0.5-0.1-0.8C72.2,44.7,72.3,45.3,72,45.4L72,45.4z"/>
<path fill="#010101" d="M32.5,59.9c0.1,0,0.2,0,0.3,0.1c0.1,0.2-0.2,0.5-0.4,0.4c-0.1-0.1-0.1-0.3-0.2-0.4
	C32.3,59.9,32.4,59.9,32.5,59.9L32.5,59.9z"/>
<path fill="#010101" d="M48.3,84.3c0.1,0,0.2,0,0.3,0.1c0.2,0.1,0.3,0.4,0.3,0.7c-0.5,0.1-1.1-0.3-1.2-0.9
	C47.9,84.3,48.1,84.3,48.3,84.3z"/>
<path fill="#010101" d="M48.4,47.4c0-0.1,0.1-0.2,0.2-0.3c0.1,0,0.2-0.1,0.2,0c0.1,0.7,0,1.4-0.4,2C48.1,48.6,48.2,48,48.4,47.4z"/>
<path fill="#010101" d="M32.3,53.8c0,0.1,0,0.3,0,0.4c-0.3,0-0.5-0.3-0.5-0.6C32,53.6,32.3,53.6,32.3,53.8L32.3,53.8z"/>
<path fill="#010101" d="M47.7,96.5c-0.1-0.4,0-0.9,0.3-1.2c0.3,0.2,0.6,0.5,0.5,0.9C48.4,96.6,47.9,96.8,47.7,96.5L47.7,96.5z"/>
<path fill="#010101" d="M35.1,57.2C35,57,35.4,56.8,35.5,57c0.1,0.2,0,0.5-0.3,0.5C35.2,57.4,35.2,57.3,35.1,57.2L35.1,57.2z"/>
<path fill="#010101" d="M25.9,63.8c0.1-0.2,0.1-0.5,0.3-0.6s0.5-0.2,0.6,0c0.2,0.3-0.3,0.6-0.6,0.8c-0.2,0.1-0.4,0.1-0.5-0.1
	L25.9,63.8z"/>
<path fill="#010101" d="M43.7,33.1c0.1,0.1,0.2,0.2,0.3,0.3c-0.5,0.1-1.1-0.2-1.2-0.7c0.1-0.1,0.2-0.2,0.3-0.2
	C43.2,32.7,43.5,32.9,43.7,33.1L43.7,33.1z"/>
<path fill="#010101" d="M67.3,35.7c0.2-0.2,0.6,0.1,0.4,0.3c-0.2,0.1-0.4,0-0.5-0.1C67.1,36,67.1,35.7,67.3,35.7L67.3,35.7z"/>
<path fill="#010101" d="M53.7,55.3c-0.2,0-0.3,0-0.5,0c-0.1-0.3,0.2-0.6,0.5-0.5C53.8,54.9,53.8,55.1,53.7,55.3L53.7,55.3z"/>
<path fill="#010101" d="M47.5,47.9c0.2,0.4,0.1,0.9-0.2,1.2c-0.1,0.1-0.3,0.2-0.5,0.1C46.9,48.7,47.2,48.3,47.5,47.9z"/>
<path fill="#010101" d="M39.7,85.2c0.1,0.1,0.3,0.1,0.4,0.2c0,0.1,0,0.3,0,0.4c-0.1,0.1-0.3,0.1-0.4-0.1
	C39.6,85.5,39.6,85.3,39.7,85.2L39.7,85.2z"/>
<path fill="#010101" d="M38.6,57c-0.5,0.3-1.2-0.3-1.1-0.8C37.9,56.4,38.2,56.7,38.6,57z"/>
<path fill="#010101" d="M69.7,66.8c0.2,0.2,0.1,0.6-0.1,0.6c-0.1-0.1-0.2-0.2-0.2-0.3C69.4,67,69.5,66.9,69.7,66.8L69.7,66.8z"/>
<path fill="#010101" d="M63.1,75.1c0.2,0.1,0.4,0.4,0.3,0.6C63.1,75.6,62.9,75.2,63.1,75.1L63.1,75.1z"/>
<path fill="#010101" d="M71.6,69.6c0.4,0.2,0.5,0.7,0.4,1c-0.4-0.3-0.6-0.6-0.8-1.1C71.3,69.5,71.5,69.5,71.6,69.6L71.6,69.6z"/>
<path fill="#010101" d="M29.6,63.5c0,0.2-0.3,0.1-0.4,0c-0.1-0.1-0.1-0.3-0.1-0.5c0-0.2-0.1-0.3-0.3-0.3c0.2-0.2,0.6-0.3,0.9-0.1
	C29.8,62.9,29.7,63.2,29.6,63.5L29.6,63.5z"/>
<path fill="#010101" d="M69.9,16.4c0.1,0.1,0,0.3-0.1,0.2c-0.1-0.1-0.3-0.3-0.4-0.4C69.5,16.1,69.8,16.2,69.9,16.4L69.9,16.4z"/>
<path fill="#010101" d="M53.1,88.1c0.2,0.1,0.4,0.2,0.6,0.4c-0.2,0.2-0.6,0-0.7-0.2L53.1,88.1z"/>
<path fill="#010101" d="M63.1,81.5c0.1-0.2,0.3-0.3,0.5-0.4c0,0.5-0.4,0.9-0.9,0.9C62.7,81.8,62.9,81.6,63.1,81.5L63.1,81.5z"/>
<path fill="#010101" d="M73.2,65.1c0,0.1,0,0.2,0,0.4c-0.2,0.2-0.5,0.1-0.7,0c-0.2-0.2-0.2-0.5,0-0.7c0.1-0.2,0.4-0.3,0.6-0.2
	C73.3,64.6,73.3,64.9,73.2,65.1L73.2,65.1z"/>
<path fill="#010101" d="M67.6,18.1c0.2,0,0.3,0.2,0.2,0.3c-0.2,0-0.4-0.1-0.5-0.2S67.6,17.9,67.6,18.1L67.6,18.1z"/>
<path fill="#010101" d="M54.9,79.3c0.1,0,0.1,0.2-0.1,0.2c-0.1,0-0.2,0-0.3-0.1c-0.3-0.2-0.5-0.5-0.6-0.7
	C54.3,78.7,54.7,79,54.9,79.3L54.9,79.3z"/>
<path fill="#010101" d="M32.9,61.3c0.2,0.3,0.1,0.7-0.2,0.9C32.5,61.9,32.6,61.4,32.9,61.3L32.9,61.3z"/>
<path fill="#010101" d="M70.7,96.1c0,0.1,0,0.3-0.1,0.4c-0.3-0.2-0.4-0.6-0.2-0.9C70.6,95.6,70.7,95.9,70.7,96.1L70.7,96.1z"/>
<path fill="#010101" d="M56.1,88.6c0,0.1,0.1,0.1,0.1,0.2c-0.2,0.2-0.4,0.5-0.5,0.8c-0.2-0.2-0.4-0.5-0.3-0.8
	C55.6,88.8,55.8,88.7,56.1,88.6L56.1,88.6z"/>
<path fill="#010101" d="M30,92.9c-0.5,0.3-1.2,0.4-1.8,0.2C28.7,92.6,29.5,92.5,30,92.9z"/>
<path fill="#010101" d="M70.2,69.5c0.2,0.2,0.3,0.6,0.1,0.9c-0.2-0.2-0.3-0.5-0.2-0.8L70.2,69.5z"/>
<path fill="#010101" d="M27.8,28.8c0-0.3,0.1-0.5,0.3-0.7c0.1,0.4,0.1,0.9-0.3,1C27.9,29.1,27.8,29,27.8,28.8L27.8,28.8z"/>
<path fill="#010101" d="M55.5,84.5c0.1-0.3,0.6-0.3,0.7,0c-0.5,0.1-0.9,0.2-1.4,0.4c-0.1-0.3,0.3-0.6,0.6-0.4L55.5,84.5z"/>
<path fill="#010101" d="M29.2,46.8c0-0.1-0.1-0.2-0.1-0.4c0-0.1,0.1-0.2,0.2-0.3c0.2,0.4,0.3,0.8,0.4,1.3c-0.1,0.2-0.4,0.1-0.4-0.1
	C29.2,47.2,29.2,47,29.2,46.8z"/>
<path fill="#010101" d="M55.5,95c-0.1-0.2-0.2-0.4-0.2-0.6c0.1-0.1,0.3-0.1,0.4,0c0.1,0.1,0.1,0.3,0.1,0.5S55.6,95.2,55.5,95
	L55.5,95z"/>
<path fill="#010101" d="M45.4,34.5c-0.2-0.1-0.3-0.3-0.3-0.5c0.4,0.1,0.8,0.3,1.1,0.6C46,34.8,45.6,34.8,45.4,34.5L45.4,34.5z"/>
<path fill="#010101" d="M76,62.7c0.2,0,0.4,0.3,0.4,0.5c-0.3,0.1-0.7-0.1-0.7-0.4C75.8,62.7,75.9,62.7,76,62.7L76,62.7z"/>
<path fill="#010101" d="M38.4,12.4c0.2,0,0.4,0.1,0.6,0.3c-0.1,0.1-0.4,0.3-0.6,0.2C38.2,12.8,38.2,12.5,38.4,12.4L38.4,12.4z"/>
<path fill="#010101" d="M39,64c-0.1-0.1,0.1-0.2,0.2-0.1c0.1,0.2,0.2,0.4,0.3,0.6C39.2,64.6,38.8,64.3,39,64L39,64z"/>
<path fill="#010101" d="M54.8,83.6c0.3-0.2,0.7,0,0.8,0.3C55.3,83.9,55,83.8,54.8,83.6L54.8,83.6z"/>
<path fill="#010101" d="M69.3,69.7c-0.1,0.1-0.2,0.2-0.3,0.3c-0.3-0.2-0.2-0.7,0.1-0.7C69.3,69.3,69.4,69.5,69.3,69.7L69.3,69.7z"/>
<path fill="#010101" d="M63.8,69.1c-0.1,0.4-0.6,0.7-1,0.6c-0.1,0-0.3-0.1-0.4-0.2C62.8,69.1,63.3,69,63.8,69.1z"/>
<path fill="#010101" d="M71.5,91.1c0.1-0.3,0.6-0.2,0.8,0.1c-0.1,0.1-0.2,0.1-0.3,0.2C71.9,91.3,71.7,91.2,71.5,91.1L71.5,91.1z"/>
<path fill="#010101" d="M44.9,78.6c0.1-0.3-0.4-0.7-0.2-1c0.2-0.2,0.5,0,0.6,0.3c0,0.3-0.1,0.5,0,0.8C45.2,78.8,45,78.8,44.9,78.6
	L44.9,78.6z"/>
<path fill="#010101" d="M59.7,82.7c0.1-0.2,0.3-0.3,0.5-0.3c0.2,0.1,0.3,0.3,0.3,0.5C60.2,82.9,59.9,82.8,59.7,82.7L59.7,82.7z"/>
<path fill="#010101" d="M73.4,34.3c0.3,0,0.5,0.4,0.3,0.6c-0.4-0.1-0.6-0.4-0.7-0.8C73.1,34,73.3,34.1,73.4,34.3L73.4,34.3z"/>
<path fill="#010101" d="M28.2,26.8c0,0.1-0.3,0.2-0.4,0.1c0.1-0.2,0.1-0.5,0.2-0.7C28.3,26.3,28.3,26.7,28.2,26.8L28.2,26.8z"/>
<path fill="#010101" d="M27.9,96.6l0.1,0"/>
<path fill="#010101" d="M33.9,59.2c0.1,0.2,0.1,0.4,0,0.5c-0.2-0.2-0.3-0.4-0.3-0.7C33.7,59,33.9,59.1,33.9,59.2L33.9,59.2z"/>
<path fill="#010101" d="M39.8,73c0.2,0.2,0,0.6-0.3,0.7C39.4,73.4,39.6,73,39.8,73L39.8,73z"/>
<path fill="#010101" d="M65.7,77.6c0.1,0.1-0.1,0.3-0.3,0.3s-0.2-0.2-0.3-0.4c-0.1-0.2-0.1-0.5,0-0.6s0.4-0.3,0.6-0.1
	C65.5,77,65.6,77.3,65.7,77.6L65.7,77.6z"/>
<path fill="#010101" d="M59,94.1c-0.3-0.2-0.5-0.5-0.8-0.7c0.2-0.2,0.4-0.2,0.6-0.1c0.2,0.1,0.2,0.4,0.1,0.6L59,94.1z"/>
<path fill="#010101" d="M53.8,50.4c0.2,0,0.4,0.2,0.2,0.4c-0.4,0.1-0.9-0.3-1-0.7C53.3,50,53.6,50.2,53.8,50.4L53.8,50.4z"/>
<path fill="#010101" d="M46,85.6c-0.1,0.2-0.3,0.4-0.5,0.4c0-0.3,0.3-0.5,0.5-0.5c0.1,0,0.2,0,0.2,0.1C46.2,85.6,46.1,85.7,46,85.6
	L46,85.6z"/>
<path fill="#010101" d="M57.3,94c-0.1-0.1-0.2-0.2-0.1-0.4c0.1-0.1,0.2-0.1,0.3-0.2c0.1,0.1,0.2,0.1,0.3,0.2c0,0.1,0,0.3,0,0.4
	C57.7,94.1,57.5,94.1,57.3,94L57.3,94z"/>
<path fill="#010101" d="M64.1,92.7c0,0.3-0.3,0.5-0.6,0.4c-0.1-0.3,0.4-0.6,0.7-0.4L64.1,92.7z"/>
<path fill="#010101" d="M61.2,69.6c0,0.1,0,0.3,0,0.4c-0.5,0-0.8-0.5-0.7-1C60.8,69,61.1,69.3,61.2,69.6L61.2,69.6z"/>
<path fill="#010101" d="M27.9,22.8c0.1,0.3-0.3,0.6-0.6,0.5C27.4,23.1,27.7,22.8,27.9,22.8L27.9,22.8z"/>
<path fill="#010101" d="M68.7,74.2c-0.2,0.2-0.4,0.5-0.6,0.7c-0.2-0.2-0.3-0.5-0.1-0.7c0.1-0.2,0.4-0.4,0.6-0.3
	C68.7,74,68.7,74.1,68.7,74.2L68.7,74.2z"/>
<path fill="#010101" d="M65.2,36.3c-0.1-0.2,0.2-0.4,0.5-0.3c0.2,0.1,0.4,0.2,0.7,0.2c-0.3,0.2-0.7,0.3-1,0.1L65.2,36.3z"/>
<path fill="#010101" d="M54.8,86.7c-0.2-0.1-0.3-0.4-0.1-0.6s0.4-0.2,0.6-0.2c0.1,0,0.1,0,0.2,0.1c0.1,0.1,0.1,0.4-0.1,0.5
	C55.2,86.8,55,86.8,54.8,86.7L54.8,86.7z"/>
<path fill="#010101" d="M51.9,45.5c-0.1,0.4-0.8,0.4-0.9,0C51.3,45.3,51.6,45.2,51.9,45.5L51.9,45.5z"/>
<path fill="#010101" d="M67,84c0.1,0.4-0.1,0.7-0.4,1c-0.1-0.3-0.2-0.5-0.1-0.8s0.5-0.4,0.6-0.2L67,84z"/>
<path fill="#010101" d="M75,45c-0.2,0.2-0.4,0.4-0.7,0.4c-0.3,0-0.5-0.4-0.3-0.5c0.1-0.1,0.2-0.1,0.3-0.1C74.6,44.7,75,44.7,75,45
	L75,45z"/>
<path fill="#010101" d="M29,90.6c0-0.3,0.2-0.7,0.4-1c0,0.5,0,1-0.2,1.4C29,91.1,28.9,90.8,29,90.6L29,90.6z"/>
<path fill="#010101" d="M31,46.8c-0.2,0.2-0.7,0-0.6-0.3c0.3-0.1,0.5-0.2,0.8-0.4C31.4,46.3,31.3,46.7,31,46.8L31,46.8z"/>
<path fill="#010101" d="M58.8,84.7c-0.1-0.1-0.2-0.3-0.2-0.5c0.4,0,0.7,0.3,0.8,0.7C59.2,84.8,59,84.7,58.8,84.7L58.8,84.7z"/>
<path fill="#010101" d="M28.5,57.9c-0.4-0.1-0.7-0.4-0.8-0.8C28.1,57.1,28.6,57.5,28.5,57.9L28.5,57.9z"/>
<path fill="#010101" d="M54.1,80.6c0.1-0.1,0.2-0.2,0.1-0.4c0.1-0.2,0.5,0.1,0.4,0.3c-0.1,0.3-0.4,0.4-0.6,0.4
	C53.9,80.9,54,80.7,54.1,80.6L54.1,80.6z"/>
<path fill="#010101" d="M30.1,29.2c-0.1,0.1-0.3,0.2-0.5,0.1c0-0.2,0-0.5,0.1-0.7c0.3,0.1,0.6,0.2,0.8,0.3
	C30.3,29.1,30.2,29.1,30.1,29.2L30.1,29.2z"/>
<path fill="#010101" d="M47.6,47.9c-0.1-0.3-0.1-0.6,0-0.9c0.2,0,0.4,0.2,0.4,0.4C48,47.7,47.8,47.8,47.6,47.9L47.6,47.9z"/>
<path fill="#010101" d="M42,75.6c0.1,0.3,0.2,0.6,0.5,0.9c-0.1,0.1-0.3,0.1-0.5,0.1C41.8,76.3,41.8,75.9,42,75.6L42,75.6z"/>
<path fill="#010101" d="M28.4,59.7c-0.2-0.1-0.3-0.4-0.2-0.6c0.1-0.2,0.3-0.3,0.4-0.5c0.2,0.3,0.1,0.8-0.3,0.9L28.4,59.7z"/>
<path fill="#010101" d="M56.6,82.8c-0.1-0.2-0.1-0.3-0.2-0.5c0.1-0.1,0.2-0.1,0.3-0.1c0.1,0.2,0.2,0.4,0.3,0.6
	c-0.1,0.1-0.2,0.3-0.3,0.4C56.6,83.2,56.6,83,56.6,82.8L56.6,82.8z"/>
<path fill="#010101" d="M71,71.6c-0.2-0.2-0.2-0.5-0.1-0.7c0.4,0.1,0.6,0.7,0.4,1C71.2,71.8,71.1,71.7,71,71.6L71,71.6z"/>
<path fill="#010101" d="M65.6,87.1C65.4,87.3,65,87,65,86.7c0.1-0.2,0.4-0.2,0.6-0.1C65.7,86.7,65.8,87,65.6,87.1L65.6,87.1z"/>
<path fill="#010101" d="M64.5,82.1c0-0.1,0-0.3,0.1-0.4c0.1-0.1,0.3,0,0.3,0.1c0,0.3-0.1,0.6-0.4,0.8C64.3,82.6,64.3,82.2,64.5,82.1
	L64.5,82.1z"/>
<path fill="#010101" d="M76.9,60.6c0.2,0,0.4,0.3,0.3,0.5c-0.1,0.2-0.3,0.3-0.5,0.2C76.5,61,76.6,60.7,76.9,60.6L76.9,60.6z"/>
<path fill="#010101" d="M31.5,70.1c0.1,0.2,0.2,0.5,0,0.7c-0.2,0-0.5-0.2-0.5-0.4c0.1-0.1,0.1-0.2,0.2-0.3
	C31.2,70,31.4,70,31.5,70.1L31.5,70.1z"/>
<path fill="#010101" d="M48.8,64.8c0.2,0,0.3,0,0.5,0.1c-0.1,0.2-0.1,0.5-0.2,0.7c-0.2-0.1-0.4-0.2-0.4-0.4
	C48.7,65,48.7,64.9,48.8,64.8L48.8,64.8z"/>
<path fill="#010101" d="M68.3,75.5c-0.1-0.1-0.2-0.3-0.2-0.4c0.2-0.1,0.5-0.1,0.7-0.2c0.1,0.1,0.2,0.3,0.3,0.4
	C68.9,75.5,68.6,75.6,68.3,75.5L68.3,75.5z"/>
<path fill="#010101" d="M65.7,90.7c0-0.1,0-0.2,0.1-0.3c0.4,0.3,0.4,0.9,0.1,1.3C65.5,91.5,65.5,91,65.7,90.7L65.7,90.7z"/>
<path fill="#010101" d="M25.3,59.4c0.1-0.2,0.3-0.2,0.5-0.1c0.2,0.1,0.2,0.3,0.3,0.5C25.8,60,25.4,59.8,25.3,59.4L25.3,59.4z"/>
<path fill="#010101" d="M75,57c0.3,0.4,0.2,0.9-0.1,1.2C74.5,57.9,74.5,57.2,75,57L75,57z"/>
<path fill="#010101" d="M71.8,36c0.1,0.1,0,0.3-0.2,0.3c-0.2,0.1-0.5-0.2-0.4-0.4S71.7,35.8,71.8,36L71.8,36z"/>
<path fill="#010101" d="M26.5,62.8c-0.1-0.2-0.3-0.4-0.4-0.6c0.2-0.2,0.5-0.1,0.6,0.1c0.1,0.2,0,0.5-0.2,0.6L26.5,62.8z"/>
<path fill="#010101" d="M54.4,85.1c0.1,0.1,0.2,0.4,0.1,0.5c-0.3-0.1-0.6-0.4-0.6-0.7C54.1,84.9,54.4,84.9,54.4,85.1L54.4,85.1z"/>
<path fill="#010101" d="M30.3,58.7c0.2,0.5,0.2,1.2,0,1.7C30,59.9,30,59.2,30.3,58.7z"/>
<path fill="#010101" d="M28.5,60.9c0-0.4,0-0.9-0.1-1.3c0.1,0.1,0.2,0.1,0.3,0.2C28.9,60.2,28.8,60.6,28.5,60.9z"/>
<path fill="#010101" d="M58.5,82.2c0.1-0.2,0.4-0.3,0.6-0.3c-0.1,0.3-0.3,0.6-0.5,0.7C58.5,82.6,58.4,82.4,58.5,82.2L58.5,82.2z"/>
<path fill="#010101" d="M74.7,46.8c0-0.1,0.2-0.2,0.3-0.1c0.1,0.4-0.1,0.8-0.4,1.1C74.5,47.5,74.5,47.1,74.7,46.8L74.7,46.8z"/>
<path fill="#010101" d="M34.6,75.2c-0.3-0.1-0.6-0.4-0.5-0.7C34.4,74.5,34.7,74.8,34.6,75.2L34.6,75.2z"/>
<path fill="#010101" d="M59.5,89.9c0.2,0,0.4,0.4,0.1,0.5c-0.2-0.1-0.5-0.1-0.5-0.3C59.1,89.8,59.4,89.6,59.5,89.9L59.5,89.9z"/>
<path fill="#010101" d="M40.6,78.3c0-0.3,0.4-0.5,0.7-0.4c-0.2,0.3-0.4,0.5-0.6,0.7C40.6,78.6,40.6,78.5,40.6,78.3L40.6,78.3z"/>
<path fill="#010101" d="M35.9,55.9c0.1,0-0.1,0.2-0.2,0.2c-0.3-0.1-0.6-0.2-0.9-0.4C35.2,55.6,35.6,55.6,35.9,55.9L35.9,55.9z"/>
<path fill="#010101" d="M41.3,53.6c0,0.3-0.4,0.5-0.6,0.4c0.1,0,0.2-0.2,0.2-0.3s0.1-0.3,0.2-0.3C41.3,53.4,41.5,53.5,41.3,53.6
	L41.3,53.6z"/>
<path fill="#010101" d="M28.8,46.8c0.2,0.2,0.3,0.4,0.3,0.6c-0.1,0.1-0.2,0.1-0.3,0.2c-0.2-0.1-0.4-0.4-0.3-0.7
	C28.5,46.8,28.7,46.8,28.8,46.8L28.8,46.8z"/>
<path fill="#010101" d="M62,90.7c0,0.4-0.4,0.7-0.8,0.5c0.1-0.4,0.4-0.6,0.8-0.7L62,90.7z"/>
<path fill="#010101" d="M28.8,29.9c-0.2-0.1-0.2-0.4-0.2-0.6c0.2,0,0.4,0.1,0.5,0.2s0.2,0.3,0.1,0.5C29.2,30.1,28.9,30,28.8,29.9
	L28.8,29.9z"/>
<path fill="#010101" d="M58.3,89c-0.2-0.3-0.1-0.7,0.1-0.9c0.2,0.2,0.4,0.4,0.4,0.6C58.7,89,58.4,89.2,58.3,89L58.3,89z"/>
<path fill="#010101" d="M48.8,63.8c-0.1,0.1-0.2,0.2-0.3,0.2c-0.2-0.4,0.2-0.9,0.6-0.7C49.3,63.5,49.1,63.8,48.8,63.8L48.8,63.8z"/>
<path fill="#010101" d="M52.5,58.8c-0.1,0.1-0.2,0.1-0.3,0.2C52,58.9,52,58.8,52,58.7c0.2-0.1,0.5-0.2,0.7-0.3
	c0.1,0.1,0.2,0.2,0.2,0.3C52.7,58.8,52.6,58.8,52.5,58.8L52.5,58.8z"/>
<path fill="#010101" d="M40.6,70.6c-0.3,0.2-0.8-0.3-0.6-0.6c0.1-0.1,0.2-0.1,0.3-0.2C40.5,69.9,40.7,70.3,40.6,70.6L40.6,70.6z"/>
<path fill="#010101" d="M62.8,83.1c0,0.2,0,0.3-0.2,0.4c-0.3-0.2-0.6-0.7-0.3-0.9C62.6,82.8,62.7,82.9,62.8,83.1L62.8,83.1z"/>
<path fill="#010101" d="M31.9,59.2c-0.1-0.1-0.1-0.3,0-0.5c0.3,0.1,0.5,0.3,0.6,0.7c-0.1,0.1-0.2,0.1-0.3,0.2
	C32,59.4,32,59.3,31.9,59.2L31.9,59.2z"/>
<path fill="#010101" d="M28.6,91.7c0.1-0.1,0.2-0.2,0.4-0.3c0.2,0.4-0.2,0.9-0.6,0.9C28.5,92.1,28.5,91.9,28.6,91.7L28.6,91.7z"/>
<path fill="#010101" d="M42.5,67.7c0.2,0.5,0.3,0.9,0.5,1.4c-0.6,0.4-1.1,1-1.3,1.7c0.1-0.8-0.8-1.6-1.6-1.3c-0.8,0.3-1.1,1.4-0.5,2
	c-0.4,0.2-0.9,0.2-1.2,0c0.2,0.3-0.1,0.8-0.5,0.7c-0.1-1.6-0.2-3.2-0.3-4.9c0.5-0.1,1,0.1,1.3,0.5c0.6-0.5,1-1.3,1-2.1
	c-0.5,0.7-1.3,1.1-2.1,1.1c0.2-1.5,2.2-2.4,3.5-1.7c-0.1-0.3-0.3-0.6-0.4-1c0.3-0.2,0.8,0,0.9,0.4c0.6-1,1-2.1,1.1-3.2
	c1.2,0.2,2.5-0.1,3.5-0.9c-1.4,0.9-3-1.8-4.6-1.3c-0.5,0.2-0.9,0.7-1.5,0.8c-0.5,0.1-1.2-0.7-0.7-0.9c0,0.4,0.7,0.1,0.9-0.2
	c0.7-1.5,0.5-3.3-0.5-4.7c0.6,0,1.1,0.5,1.2,1.1c0.7-1.7,2-3.2,3.5-4.2c-4.3,2.5-9.6,2.3-14.5,1.6c-2-0.3-4.2-0.8-5.5-2.3
	c-1.8-2.3-1.2-6.1-3.6-7.8c-0.9-0.6-1.4-1.9-1.1-3c0.3-1.1,1.2-2,2.3-2.2c-0.3-4.1,0.9-8.1,2.4-11.9c2.3-5.9,5.5-11.6,10.2-15.8
	s10.9-7.1,17.3-6.6c1.1,0.1,2.3,0.3,3.3,0.8c-0.7,0-1.4,0.1-2.1,0.1c-1.7,2.1-3.4,4.2-5.3,6.2c-0.3,0.3-0.6,0.6-0.9,0.6
	c-0.4,0.1-0.8-0.3-0.7-0.7c0.5-0.2,1-0.5,1.6-0.7c-0.9-0.3-2,0.2-2.4,1c0.1,0.3,0.3,0.6,0.4,0.9c-1.2,0.1-2.3,0-3.5-0.1
	c0.3-0.3,0.7-0.6,1-0.9c-1.7,0.9-3.6,1.4-5.6,1.3c0,1-1.5,1.5-2.1,0.7c-0.6,0.4-1.3,0.9-1.9,1.3c-5.9,4.3-9.6,11.6-9.7,18.9
	c0,1.8,0,4-1.5,5.1c5.5-0.8,11.2-1.6,16.7-0.5c5.1,1,10.2,3.7,15.1,2c6.9-2.5,14.6-2.8,21.7-0.9c-0.5-2.3-0.6-4.7-0.4-7.1
	c-0.2-0.2-0.2,0.4,0,0.3c0.2-0.1,0.3-0.4,0.2-0.6C75.1,18.9,66.8,8.1,55.7,4c0.6-0.4,1.5-0.1,2.2,0.2c12,5.5,20,18.7,19.1,31.9
	c-0.1,1,0.2,2.4,1.2,2.4c1.2,0,1.8,1.6,1.4,2.7c-0.4,1.1-1.3,1.9-2,2.9c-0.8,1.3-1,2.8-1.4,4.3c-0.4,1.4-1.2,2.9-2.6,3.5
	c-5.7,2.3-12.4,2-17.9-0.8c1,0.8,1.8,1.8,2.4,2.9c-0.3,0.1-0.2-0.5,0-0.5c0.3,0,0.5,0.3,0.6,0.5c0.5,1,1,1.9,1.5,2.9
	c0-0.4,0.7-0.3,0.8,0.1c0.1,0.4-0.1,0.7-0.3,1.1c0.5,0.2,1,0.6,1.3,1c-0.3-0.1-0.7-0.1-1-0.2c2,2.8,3.2,6.1,3.6,9.5
	c-1.2-3.6-3-7-5.3-9.9c-0.4-0.5-0.9-1.1-1-1.8c-0.1-1-0.7-1.9-1.3-2.7c-1.5-2.3-2.7-4.8-3.5-7.4c-0.5-1.7-1.5-3.8-3.2-3.7
	c-1.4,0.1-2.2,1.5-2.7,2.7c-1.3,2.9-2.7,5.9-3,9.1c0-0.4-0.4-0.8-0.8-0.8c-0.9,1.2-1.1,2.8-0.6,4.2c0.2-0.4,0.5-0.6,0.9-0.7
	c0.3,0.4,0.2,0.9-0.2,1.2c0.1,0.3,0.5,0.6,0.8,0.6c0.3-0.6,0.3-1.3-0.1-1.9c0.1-1.2,1.9-1.4,2.9-0.8c1.1,0.6,1.9,1.6,3.1,1.7
	c0.7,0.1,0.9,1.1,0.8,1.8c0,0.7,0.3,1.7,1,1.6c0,1,0.4,1.9,1,2.6c0.5-0.5,0.2-1.4-0.4-1.6c0.5-0.2,1.3,0.1,1.5,0.6
	c0.2,0.6-0.2,1.2-0.7,1.4c0.4,0.1,0.9,0.3,1.3,0.4c0.2,0.2,0,0.5-0.3,0.6s-0.5-0.1-0.7-0.3c-1.6-1.1-3.4-2.5-3.5-4.5
	c-0.8,1.5,0.3,3.6,2,3.8c-0.5,0.6-0.6,1.4-0.3,2c-0.7,0.1-1.2-1-0.7-1.5c-1.2-0.7-2-2.1-2.1-3.5c-0.6,0.7-1.4,1.6-2.3,1.3
	c-0.1,0.4,0.3,0.9,0.7,0.7c-0.1,0.4-0.2,0.8-0.4,1.2c-0.5-1.2-2.4-1.4-3.1-0.4c0.2-0.5,0.1-1.2-0.4-1.6c0,0.6-0.1,1.3-0.1,1.9
	c0.7,0.3,1.6-0.1,1.8-0.8c1.1,0.4,1.9,1.6,1.8,2.7c-0.6-0.4-1-0.9-1.3-1.5c0.1,0.7,0.2,1.4,0.3,2.1c-0.5,0-1.1-0.1-1.6-0.1
	c-0.2,0.5-0.4,1-0.6,1.5C43.6,68.3,43,68,42.5,67.7 M30.4,51.7c3.1,0.4,6.4,0.4,9.5-0.2c0.8-0.1,1.7-0.3,2.4-0.7
	c1.8-1,2.7-3.1,3.4-5.1c0.3-1.1,0.7-2.3,0.4-3.4C45.9,41.1,45,40,43.8,40c0.7,0.7,1.5,1.4,1.7,2.3c0.2,1-0.5,2.2-1.5,2
	c-0.3,1-1.6,1.1-2.6,1.1c-1,0-2.3,0.3-2.4,1.3c-1.9-0.5-4.3,1.3-5.9,0.1c2.4-0.3,4.9-0.6,6.8-2.2c-3.2,1.1-7,2.1-9.9,0.3
	c-0.3-0.2-0.7,0-0.9,0.3c-0.2,0.3-0.3,0.6-0.6,0.8c-0.4,0.3-1,0.2-1.3-0.1c-0.4-0.3-0.6-0.8-0.7-1.2c-0.5-1.4-0.7-2.9-0.5-4.4
	c0-0.2,0.1-0.5,0.2-0.7c0.2-0.2,0.5-0.2,0.7-0.3c2.6-0.3,5.3-0.7,7.9-1c-2.7-0.5-5.6-0.3-8.3,0.5c-0.9,0.3-1.8,0.7-2.3,1.4
	C24,41.1,24,41.9,24,42.7c0,2.8,0.3,6.1,2.6,7.8C27.7,51.2,29.1,51.5,30.4,51.7 M33,41.7c-0.1,0.1-0.3,0.3-0.3,0.5
	c-0.1,0.5,0.4,0.8,0.8,1.1s0.9,0.8,0.6,1.2c0.5,0,1.1,0,1.3,0.5c-1,0-2-0.1-3-0.1c-0.3,0-0.7,0.1-0.6,0.4c2.5,0.7,5.2,0.1,7.2-1.4
	c-0.4,0.1-0.9,0.2-1.3,0.3c-0.7,0.1-1.3,0.3-2,0.2s-1.3-0.5-1.6-1.1c-0.3-0.8,0.2-1.7,0.7-2.4C34.2,40.8,33.5,41.2,33,41.7
	 M31.5,40.8c-0.2,0.2-0.3,0.5-0.2,0.6c1.1-1.3,2.8-2,4.5-2.1c0.3,0,0.6,0,0.8-0.2c0.2-0.2,0.3-0.5,0.1-0.7c-0.3-0.2-0.6,0.1-0.9,0.3
	c-0.3,0.2-0.7,0.2-1.1,0.3C33.5,39.3,32.3,39.9,31.5,40.8 M37.6,40.2c0.3,0.4,0.7,0.6,1,0.9s0.6,0.7,0.6,1.2c0,0.2-0.1,0.3,0,0.5
	c0,0.2,0.1,0.3,0.3,0.3c0.3-0.2,0.4-0.7,0.3-1.1c-0.1-0.4-0.3-0.8-0.2-1.2C39,40.4,38.3,40.2,37.6,40.2 M43.1,42.6
	c-0.7,0.3-1.3,0.7-1.7,1.3c0.7-0.1,1.3-0.3,1.9-0.6c0.5-0.7,0-1.8-0.8-1.9C42.7,41.7,43,42.1,43.1,42.6 M44,42.4
	c-0.1,0.3-0.1,0.8,0.2,1c0.2-0.4,0.5-0.7,0.8-0.9C44.9,42.2,44.3,42.1,44,42.4 M43.6,47.2c0.3-0.3,0.6-0.6,1-0.5
	c0.3-0.6,0.6-1.3,0.8-1.9c-0.7-0.1-1.3,0.6-1.3,1.2c-0.5,0.1-0.9,0.3-1.4,0.4c-0.9,1.4-2.8,1.7-4.5,1.7c-2.7,0.1-5.6,0.1-8.1,1.1
	c-0.4,0.2-0.9,0-1.3-0.1c-0.4-0.1-0.8-0.3-0.9-0.6s0.1-0.9,0.4-0.8c-1-0.5-1.7-1.4-2.1-2.4C26,46,26.1,47,26.5,47.7
	c0.4,0.8,1,1.4,1.6,2c0.5,0.5,1.1,1.1,1.8,1c0.4,0,0.7-0.2,1.1-0.3c2-0.9,4.2-1.3,6.4-1C39.6,49.6,41.9,48.8,43.6,47.2z M24.5,42.5
	c-0.6,0.4-0.5,1.5,0.2,1.8c0.4,0.2,0.2,0.7,0.1,1.1c-0.2,0.4-0.3,0.9,0.1,1.1c0.7-0.8,0.2-2.1,0.4-3.1c0-0.2,0.1-0.4,0.1-0.6
	c0-0.6-0.4-1.1-0.4-1.7c0-0.2-0.3-0.3-0.4-0.2c-0.2,0.1-0.2,0.3-0.2,0.5C24.4,41.7,24.4,42.1,24.5,42.5z M41.6,49.5
	c-0.1,0.2,0,0.5,0.3,0.6c0.1-0.3,0.4-0.5,0.7-0.6c0-0.3-0.1-0.6-0.3-0.8C41.9,48.7,41.6,49.1,41.6,49.5L41.6,49.5z M55.2,42.4
	c0.4-0.7,0.8-1.3,1.2-2c-0.9,0.1-1.6,0.9-1.8,1.7c-0.2,0.9-0.1,1.8,0.1,2.6c0.5,2.4,1.3,5.1,3.5,6.3c1.2,0.7,2.7,0.9,4.1,0.9
	c2.7,0.1,5.3,0,8-0.3c1-0.1,1.9-0.3,2.8-0.8c1.2-0.7,1.9-1.9,2.3-3.2c0.4-1.3,0.5-2.7,0.5-4c-0.8,0-1.6,0.4-2.1,1
	c-0.1-1,0.4-2,1.3-2.5c0.6-0.3,0.6-1.2,0.2-1.8c-0.4-0.5-1.1-0.8-1.8-0.9c-3.6-0.9-7.3-1.1-10.9-0.4c-0.2,0-0.5,0.2-0.5,0.4
	c2.1,0,4.3,0.6,6.1,1.7c-0.6-0.9-1.5-1.6-2.5-1.9c0.8-0.4,1.9-0.1,2.6,0.5c0.7,0.6,1.2,1.4,1.6,2.2c0.4-0.6,0.1-1.6-0.6-1.9
	c0.2,0.1,0.4,0.1,0.6,0.2c-0.2-0.3,0.2-0.8,0.6-0.7c-0.2,0.3-0.1,0.7,0.2,0.9c0.3-0.4,1.1-0.2,1.1,0.3c-0.3-0.4-1-0.2-1.2,0.3
	c-0.2,0.5,0,1,0.2,1.5c0.4,0.9,0.7,1.9,1.1,2.8c0,0.4-0.7,0.3-1.1,0.1c-0.4-0.3-1.1-0.4-1.1,0.1c-0.2-0.4-0.7-0.6-1.1-0.7
	c-0.3,0.5-0.6,1.1-0.9,1.6c-0.9,0.2-1.9-0.1-2.4-0.9c1.1,0.1,2.2-0.5,2.7-1.4c-0.5-0.6-1.4-0.8-2.2-0.5c0.5-0.4,0.9-1.1,0.8-1.8
	c-0.2-0.7-1-1.1-1.6-0.7c0.9,0.4,0.8,1.8,0,2.4c-0.7,0.6-1.7,0.7-2.7,0.8c1.7,0,3.4-0.1,5.1-0.1c-2.1,0.9-4.6,0.9-6.8,0.1
	c0.7,0.8,1.7,1.3,2.7,1.3c0.4,0,0.8-0.1,1.1,0c-0.3,0.1-0.5,0.3-0.6,0.6c0.8-0.2,1.7,0.1,2.2,0.7c-2.8,0.1-5.6-0.7-7.8-2.4
	c-0.1,0.1-0.3,0.3-0.4,0.4c-0.9,0.8-2.6,0.1-2.8-1.1c0.5,0.3,1,0.6,1.5,1c-0.1-0.5,0.1-1.2,0.6-1.5c0.1,0.3,0.2,0.6,0.3,0.8
	c0.3-0.2,0.6-0.4,0.8-0.7c-0.6-0.5-1.1-1.1-1.4-1.8C56.4,42.1,55.8,42.2,55.2,42.4"/>
<path fill="#010101" d="M57.5,46.1c0.8,0,1.5,0,2.3,0.3c0.6,0.2,1.3,0.4,1.9,0.5c0.4,0.1,0.9,0.3,1.2,0.6c-1.3,0.1-2.6-0.2-3.7-0.9
	c-0.1-0.1-0.3,0.1-0.4,0.2c0,0.2,0.1,0.3,0.1,0.5C58.4,47.1,57.9,46.6,57.5,46.1z"/>
<path fill="#FFFFFF" d="M61.9,40.5c-1-0.2-2,0.8-1.9,1.8c0.1,0.4,0.3,0.8,0.7,1C60.6,42.3,61.1,41.2,61.9,40.5"/>
</svg>
